<?xml version="1.0" encoding="utf-8"?>
<!-- Generator: Adobe Illustrator 21.0.0, SVG Export Plug-In . SVG Version: 6.00 Build 0)  -->
<svg version="1.1" id="Layer_1" xmlns="http://www.w3.org/2000/svg" xmlns:xlink="http://www.w3.org/1999/xlink" x="0px" y="0px"
	 viewBox="0 0 512 512" style="enable-background:new 0 0 512 512;" xml:space="preserve">
<style type="text/css">
	.st0{fill:url(#SVGID_1_);stroke:#000000;stroke-miterlimit:10;}
	.st1{fill:#CC0000;stroke:url(#SVGID_2_);stroke-miterlimit:10;}
	.st2{fill:#CCCCCC;stroke:#000000;stroke-miterlimit:10;}
	.st3{fill:url(#SVGID_3_);stroke:url(#SVGID_4_);stroke-miterlimit:10;}
	.st4{fill:#CC0000;stroke:#000000;stroke-miterlimit:10;}
	.st5{clip-path:url(#SVGID_5_);}
	.st6{fill:#590000;}
	.st7{fill:#B10000;}
	.st8{fill:url(#SVGID_6_);}
	.st9{fill:url(#SVGID_7_);}
</style>
<title>HTML5 Logo</title>
<radialGradient id="SVGID_1_" cx="217.2011" cy="103.6438" r="85.8883" gradientTransform="matrix(1 0 0 -1 0 514)" gradientUnits="userSpaceOnUse">
	<stop  offset="0" style="stop-color:#FFFFFF"/>
	<stop  offset="1" style="stop-color:#ED1C24"/>
</radialGradient>
<path class="st0" d="M136.5,424.4c3.4,4.4,7.1,8.6,11.2,12.4l3.1,2.8c0.5,0.5,1.1,0.9,1.6,1.3l1.6,1.3l1.7,1.3l1.7,1.2l1.7,1.2
	l0.8,0.6l0.9,0.6l3.5,2.2l3.6,2l0.9,0.5l0.9,0.5l1.9,0.9l1.9,0.9l0.9,0.4l1,0.4l3.9,1.6l3.9,1.4l1,0.3h0.5h0.5l2,0.6l2,0.6l1,0.3
	l1,0.2l4.2,0.8l4.2,0.6l2.1,0.3h2.1h2.1c0.7,0,1.4,0,2.1,0c5.6,0.3,11.1,0.1,16.7-0.6c5.5-0.7,11-1.8,16.3-3.4
	c5.3-1.6,10.5-3.7,15.4-6.3c9.9-5.1,18.9-11.8,26.5-20c23.3-25.1,31.3-60.6,21.2-93.3c0.8-0.3,2.8,2,5,6.9c1.3,3,2.4,6,3.3,9.2
	c1.2,4.2,2,8.4,2.5,12.7l0.4,3.7v1v1v2v2c0,0.7,0,1.4,0,2.1v2.1c0,0.7,0,1.4,0,2.2l-0.3,4.2l-0.6,4.6c0,0.4,0,0.8,0,1.1v1.2
	l-0.4,2.4c0,0.4,0,0.8-0.2,1.2l-0.3,1.2l-0.6,2.4c-1.7,6.8-4.2,13.5-7.3,19.8c-0.4,0.8-0.8,1.7-1.3,2.5l-1.3,2.5
	c-0.2,0.4-0.5,0.8-0.7,1.2l-0.7,1.2l-1.5,2.5l-1.6,2.4l-0.8,1.2l-0.8,1.2l-1.8,2.4l-0.9,1.2l-0.9,1.1
	c-10.6,13.2-24.1,23.6-39.5,30.6l-1.5,0.7l-1.5,0.6l-3.1,1.2c-1,0.4-2.1,0.8-3.1,1.1l-3.1,1.1l-3.2,0.9c-1.1,0.3-2.1,0.6-3.2,0.8
	l-3.2,0.8l-1.6,0.3l-1.7,0.3l-3.3,0.6l-3.3,0.4l-3.3,0.4l-3.3,0.3c-2.2,0-4.2,0-6.6,0.2h-3.3h-3.3c-17.2-0.9-34-5.8-49-14.2
	l-2.6-1.6l-1.3-0.8l-1.3-0.8l-5-3.4l-4.7-3.6c-0.8-0.6-1.5-1.2-2.2-1.9l-2.2-1.9c-5.4-4.8-10.3-10.2-14.7-15.9L136.5,424.4z"/>
<linearGradient id="SVGID_2_" gradientUnits="userSpaceOnUse" x1="138.7648" y1="113.3673" x2="308.6893" y2="113.3673" gradientTransform="matrix(1 0 0 -1 0 514)">
	<stop  offset="0" style="stop-color:#FFFFFF"/>
	<stop  offset="0.69" style="stop-color:#ED1C24"/>
	<stop  offset="0.96" style="stop-color:#F15A24"/>
</linearGradient>
<path class="st1" d="M303.9,338.9c8.2,26.5,4.5,55.2-10.2,78.7c-2.9,4.6-6.2,9-9.8,13.1c-14.7,16.5-34.6,27.3-56.4,30.7
	c-10.8,1.6-21.8,1.4-32.6-0.6l-4-0.8c-0.7,0-1.3-0.3-2-0.5l-2-0.6l-2-0.6l-2-0.6l-3.9-1.3c-5.1-2-10-4.3-14.8-7.1
	c-9.4-5.6-17.8-12.8-24.9-21.2l10.4-8.7c3.2,3.8,6.7,7.3,10.5,10.6l3.1,2.5l3.3,2.4c0.6,0.4,1.1,0.8,1.7,1.1l1.7,1.1
	c1.1,0.8,2.4,1.4,3.6,2.2c10.4,5.9,22,9.6,33.9,10.8c25.9,2.3,51.5-7,69.8-25.4c8.4-8.4,15-18.3,19.6-29.3c2-4.8,3.6-9.8,4.8-14.9
	c1-4.5,1.7-9.1,2.2-13.7c0.6-6.8,0.6-13.6,0-20.4C303.7,341.8,303.3,339.1,303.9,338.9z"/>
<path class="st2" d="M144.4,418.6c3.2,4.2,6.7,8.1,10.6,11.7l1.6,1.4c0.5,0.5,1,1,1.6,1.4l3.4,2.7l3.6,2.6l3.7,2.4
	c10.9,6.7,23,10.9,35.7,12.4l2.5,0.3h1.2h1.2c1.7,0,3.4,0.2,5,0h2.5h2.5h2.5l2.5-0.3h1.3h1.3l2.5-0.4c0.8,0,1.7-0.3,2.5-0.5l2.5-0.5
	l2.5-0.6c0.8-0.2,1.7-0.4,2.5-0.6l2.4-0.8l1.2-0.4l1.2-0.4c6.4-2.2,12.5-5.2,18.2-8.8c5.5-3.6,10.7-7.8,15.3-12.5l0.8-0.8l0.8-0.9
	l1.7-1.8l0.8-0.9l0.8-0.9l1.6-1.8c1-1.3,2-2.5,2.9-3.7l1.4-1.9c0.4-0.6,0.9-1.3,1.3-1.9c3.3-5,6-10.2,8.3-15.7
	c2.1-5,3.7-10.2,4.8-15.5c0-0.3,0-0.6,0.2-0.9v-0.9l0.3-1.8c0-0.6,0.2-1.2,0.3-1.8l0.3-1.8l0.3-1.7v-0.8c0-0.3,0-0.6,0-0.8l0.3-3.4
	c0.2-3.9,0.2-7.9,0-11.8c0-3.5-0.4-6.5-0.7-9c-0.6-5-1-7.7-0.5-7.9c3.3,10.6,4.8,21.8,4.2,32.9c-1.1,22.4-10.1,43.7-25.4,60.1
	c-7.6,8.2-16.5,14.9-26.5,20c-4.9,2.5-10.1,4.6-15.4,6.3c-5.3,1.6-10.8,2.8-16.3,3.4c-5.5,0.7-11.1,0.9-16.6,0.6h-1.1h-1h-2.1h-2.1
	l-2.1-0.3l-4.2-0.6l-4.2-0.8c-1.4-0.3-2.7-0.7-4.2-1c-1.6-0.3-2.7-0.7-4-1.2l-3.9-1.4l-3.9-1.6l-1-0.4l-0.9-0.4l-1.9-0.9l-1.9-0.9
	l-0.5-0.2l-0.5-0.3l-0.9-0.5l-3.6-2l-3.5-2.2l-0.9-0.6l0-1.2l-1.7-1.2l-1.7-1.2l-1.7-1.3l-1.6-1.3c-0.6-0.4-1.1-0.8-1.6-1.3
	l-3.1-2.8c-4.1-3.8-7.8-7.8-11.2-12.2L144.4,418.6z"/>
<radialGradient id="SVGID_3_" cx="216.5226" cy="175.4177" r="97.6736" gradientTransform="matrix(1 0 0 -1 0 514)" gradientUnits="userSpaceOnUse">
	<stop  offset="0" style="stop-color:#FFFFFF"/>
	<stop  offset="1" style="stop-color:#000000"/>
</radialGradient>
<radialGradient id="SVGID_4_" cx="216.5903" cy="175.4177" r="98.213" gradientTransform="matrix(1 0 0 -1 0 514)" gradientUnits="userSpaceOnUse">
	<stop  offset="0" style="stop-color:#FFFFFF"/>
	<stop  offset="1" style="stop-color:#000000"/>
</radialGradient>
<path class="st3" d="M303.8,338.6c-15.8-50.3-69.4-78.3-119.7-62.5c-11.7,3.7-22.6,9.6-32.1,17.4c-5.3,4.4-10.2,9.4-14.4,14.8
	c-26.5,33.9-27.1,81.3-1.4,115.8c-0.4,0.3-1.3,0-2.7-1.2c-0.9-0.7-1.7-1.4-2.4-2.1l-1.4-1.4l-1.5-1.7l-0.8-1l-0.8-1.1l-1.7-2.3
	l-1.8-2.6l-0.9-1.4l-0.9-1.6c-2.8-4.6-5.1-9.5-7-14.5c-0.6-1.4-1-2.9-1.5-4.2c-0.3-0.8-0.5-1.5-0.7-2.3l-0.7-2.4
	c0-0.8-0.4-1.6-0.6-2.5l-0.3-1.2v-0.6v-0.6c-0.3-1.7-0.7-3.4-0.9-5.2l-0.4-2.7l-0.3-2.8v-1.4v-1.4v-2.9c0-0.5,0-1,0-1.4v-4.7
	c0-0.5,0-1,0-1.5v-1.5c0-1,0-2,0-3.1c0.7-8.7,2.6-17.2,5.4-25.4l1.2-3.2l0.6-1.7l0.2-1.7l1.4-3.2l1.6-3.2l0.8-1.6l0.9-1.6
	c0.6-1.1,1.2-2.1,1.8-3.2c1.3-2.1,2.5-4.2,4-6.2l1.1-1.5l0.6-0.8l0.6-0.7l2.3-3c0.4-0.5,0.8-1,1.2-1.4l1.2-1.4l1.2-1.4l1.3-1.4
	c3.5-3.8,7.3-7.3,11.3-10.6l3.1-2.5l3.2-2.3c1.1-0.8,2.2-1.5,3.3-2.2l1.7-1.1l0.8-0.6l0.8-0.5l3.5-2l3.6-1.9l1.8-0.9l1.9-0.8
	l1.9-0.8l0.9-0.4l0.9-0.4l3.8-1.5l1.9-0.7l2-0.6l2-0.6l2-0.6c1.3-0.3,2.6-0.8,3.9-1.1l4-0.9l1-0.2h1l2-0.3c2.7-0.5,5.4-0.8,8.2-1.1
	c16.4-1.5,33,0.6,48.6,6.1c1.3,0.5,2.5,0.9,3.8,1.4l3.7,1.6l3.6,1.7l3.6,1.8c4.7,2.5,9.2,5.3,13.4,8.5c1.1,0.8,2.1,1.5,3.1,2.3
	l3,2.4l2.9,2.5l1.4,1.3l1.4,1.3c3.6,3.5,7,7.2,10.1,11.1c3.1,3.8,5.9,7.7,8.5,11.9c2.3,3.9,4.4,8,6.2,12.1l1.3,3.1
	c0.5,1,0.8,2.1,1.2,3.1c0.8,2,1.4,4.2,2.1,6.1L303.8,338.6z"/>
<path class="st4" d="M136.2,424.1c-8.1-10.9-13.9-23.5-16.8-36.8c0-0.8-0.3-1.7-0.5-2.5c-0.2-0.8-0.3-1.7-0.5-2.5
	c-0.3-1.7-0.5-3.4-0.7-5c-0.4-3.4-0.5-6.8-0.6-10.2c0-20.5,6.7-40.5,19-57c8.2-10.9,18.5-20,30.4-26.6c18-9.9,38.7-13.7,59-11
	l2.5,0.4l2.5,0.5c1.7,0.3,3.3,0.7,5,1.1c9.9,2.5,19.3,6.5,27.9,11.9c5.7,3.7,11.1,7.9,15.9,12.7c2.4,2.3,4.7,4.8,6.8,7.4l1.6,2
	c0.6,0.7,1,1.4,1.5,2c1,1.4,2,2.8,2.9,4.2l1.4,2.2l0.7,1.1l0.6,1.1l1.3,2.2l1.2,2.2l0.6,1.1l0.6,1.1l1.1,2.3l1,2.3l0.5,1.2l0.5,1.2
	l-12.7,4.9l-0.4-1l-0.4-1l-0.8-2c-0.6-1.4-1.2-2.8-2-4.2l-0.5-1l-0.6-1l-1.1-2l-1.1-2.1l-0.6-1l-0.7-1l-0.7-1l-0.7-1l-1.6-2
	c-1-1.3-2-2.7-3.1-3.9c-2.2-2.6-4.6-5.1-7.2-7.4c-2.7-2.4-5.5-4.7-8.5-6.8c-6-4.4-12.5-7.9-19.4-10.6c-3.6-1.3-7.3-2.4-11.1-3.3
	c-3.8-0.9-7.7-1.4-11.6-1.7h-1.5H214c-1,0-2,0-3,0h-3h-3h-0.8h-0.8h-1.5c-1,0-2,0-3,0.3l-3,0.4l-2.9,0.6l-1.5,0.3l-1.4,0.4l-1.4,0.3
	l-1.4,0.4l-2.9,0.8h-0.7l-0.7,0.3l-1.4,0.5c-1.9,0.6-3.7,1.4-5.6,2.2c-1.9,0.7-3.6,1.7-5.4,2.6l-1.3,0.7l-0.7,0.3l-0.6,0.4l-2.6,1.5
	l-2.5,1.6l-1.3,0.8l-1.2,0.9c-3.2,2.3-6.3,4.8-9.2,7.5l-2.1,2l-2,2.1l-1,1.1l-0.9,1.1l-1.9,2.2c-4.8,5.9-8.8,12.3-12,19.2l-1.1,2.5
	l-1,2.5l-0.5,1.3l-0.4,1.3l-0.8,2.5c0,0.4-0.3,0.8-0.4,1.3l-0.4,1.3l-0.4,1.3c0,0.4-0.3,0.8-0.3,1.3l-0.6,2.5l-0.3,1.3
	c0,0.4,0,0.8-0.3,1.3c-0.3,1.7-0.6,3.4-0.8,5l-0.3,2.5c0,0.8,0,1.7-0.2,2.5v2.4v2.4c0,1.6,0,3.1,0,4.7c0.1,5.7,0.7,11.4,1.8,17
	c0.9,4.7,2.2,9.3,3.8,13.8c0.7,2,1.4,3.9,2.1,5.6c0.7,1.7,1.4,3.2,2,4.6C135.1,420.7,136.8,423.8,136.2,424.1z"/>
<path class="st2" d="M294.4,341.3c-0.5-1.5-1-3-1.6-4.2c-0.6-1.3-1.2-3-1.8-4.5c-1.4-3.2-3-6.2-4.7-9.2c-1.8-3.1-3.7-6.1-5.8-9
	c-2.2-3-4.6-5.8-7.2-8.5c-5.4-5.5-11.5-10.3-18.2-14.2l-2.8-1.1l-2.7-1.4l-2.7-1.3l-2.8-1.2c-11.5-4.7-23.9-7-36.3-6.6
	c-2.1,0-4.2,0-6.3,0.5h-1.6h-0.8h-0.8l-3.1,0.5l-3.1,0.6l-1.6,0.3l-1.5,0.4l-1.5,0.4l-1.5,0.4l-2.8,1.5l-0.8,0.3l-0.7,0.3l-1.5,0.6
	l-1.5,0.6l-1.4,0.6l-2.9,1.2l-2.8,1.4l-0.7,0.3l-0.7,0.4l-1.4,0.8c-0.9,0.5-1.9,1-2.7,1.5l-2.7,1.6l-2.6,1.7
	c-3.4,2.3-6.7,4.9-9.7,7.7l-1.1,1l-1.1,1.1c-0.7,0.7-1.5,1.4-2.2,2.2l-2.1,2.2l-0.5,0.6l-0.5,0.6l-1,1.1c-1.3,1.5-2.5,3.1-3.7,4.7
	c-0.6,0.8-1.1,1.7-1.7,2.5l-0.8,1.2l-0.8,1.3l-1.6,2.5l-1.4,2.5l-0.7,1.3l-0.6,1.3l-1.3,2.6c-3.1,6.7-5.3,13.8-6.8,21
	c0,0.8-0.3,1.7-0.4,2.6l-0.2,1.3c0,0.4,0,0.8,0,1.3l-0.3,2.5c0,0.8-0.2,1.7-0.3,2.5v2.5v1.2v3.7c0,0.8,0,1.6,0,2.4
	c0,1.6,0,3.1,0,4.7c0,0.8,0,1.5,0,2.2l0.2,2.2l0.3,2.2c0,0.7,0,1.4,0.3,2.1l0.4,2.1v1l0.2,1c1.1,4.8,2.5,9.5,4.2,14.1
	c0.4,1,0.7,2,1.1,2.9l1.1,2.7c0.4,0.8,0.8,1.7,1.1,2.5l0.5,1.1l0.5,1.1c2.7,5.6,4.5,8.5,4.2,8.9c-8.3-11.1-14.1-23.9-17-37.5
	c-10.3-51.7,23.3-101.9,75-112.2c47.3-9.4,94.2,18,109.3,63.9L294.4,341.3z"/>
<g>
	<g>
		<defs>
			
				<rect id="SVGID_13_" x="-2.4" y="56.8" transform="matrix(6.818948e-02 -0.9977 0.9977 6.818948e-02 -15.2583 493.6632)" width="518.2" height="396.3"/>
		</defs>
		<clipPath id="SVGID_5_">
			<use xlink:href="#SVGID_13_"  style="overflow:visible;"/>
		</clipPath>
		<g class="st5">
			<path class="st6" d="M65,478.8h-0.6l-0.6,0.3l0,0l0,0l0,0l0,0l0,0v0.5l0,0c0,0.1,0,0.1,0,0.2c0,0,0,0.2,0,0.3l0,0l0,0l0,0l0,0
				l0,0l0,0l0,0l0.6-0.3l0,0h0.3v-0.2l0,0c0-0.2,0-0.5,0-0.7l0,0l0,0l0,0 M442.1,19L442.1,19c-0.8-0.1-1.6-0.1-2.4,0l0,0
				c-4.1,0.5-8.1,1.8-11.7,3.8l0,0l-0.5,0.3h-0.3h-0.3l0,0l0,0l0,0l-1.2,0.7h-0.3l0,0h-0.2l0,0l-0.5,0.3l-0.6,0.3l-0.5,0.3h-0.3
				l-1.6,1.1l-0.8,0.5c-1.4,1-2.8,2-4.2,3l0,0l0,0l-3.2,2.5l-2.8,2.3l-1.6,1.4l-3.4,3l0,0l0,0l-3.6,3.4c-1.9,1.8-3.9,3.7-5.9,5.8
				l-1.1,1.1l-5.1,5.2l-6.1,6.4l-2.5,2.7c-2.8,3-5.7,6.1-8.5,9.3l0,0l0,0l-6.9,7.9l-3,3.5c-2.8,3.4-5.8,7-8.9,10.6
				c-15.1,18.2-31.1,38.5-50.3,64c-6.4,8.5-13,17.3-19.8,26.5l0,0c-5.8,7.8-11.8,16-18.2,24.8c-14.4,19.8-28.8,39.8-43.1,59.8
				l-26.8,37.6l-4.2,6.2l-4.6,6.5l-4.7,6.6l-1.5,2.1l-0.4,0.6l-9.7,13.3l-8.8,12.3l-3.2,4.2l-1.4,2c-5.8,8.1-11.7,16.2-17.5,24.3
				c-4.6,6.4-9.3,12.8-14,19.2l-2.1,2.9c-4.8,6.6-9.2,12.3-13.1,17.6l-0.4,0.6l-0.3,0.5l-5.1,6.7c-3.5,4.5-7.1,9.3-10.9,14.1
				c-2.3,2.9-4.5,5.7-6.7,8.3l-0.8,1l-0.9,1.1c-2.6,3.1-5.6,6.7-8.7,10.1c-1.9,2-3.5,3.8-5.1,5.3l-1.1,1l-1.7,1.6l-0.8,0.7l-0.8,0.7
				l-1.1,0.9l-1,0.7l0,0l-0.4,0.3h0.4v0.5h8.5h1.1c0.3,0,0.3,0,0.3,0s0,0-0.2,0h-2.7h-1.4h-0.7h-0.7h-1.2h-0.7h-0.4l-1,0.3l0,0h-0.7
				l0,0h-0.5l0,0l0,0l0,0l0,0l0,0h-0.2l0,0l0,0l0,0l0,0l0,0l0,0l0,0l0,0l0,0l0,0l0,0l0,0c0-0.1,0-0.2,0-0.3l0,0l0,0l0,0
				c0-0.3,0-0.7,0-1l0,0V477l0,0v-0.3l0,0v-0.2l-19.8-0.6c0,0.4,0,0.8,0,1.1s0,1.1,0,1.5s0,0.5,0,0.8v1v1l0,0c0,0.3,0,0.6,0,1.1
				s0,0.8,0.3,1.2s0.3,0.9,0.4,1.4c0.2,0.6,0.3,0.9,0.6,1.6s0.5,1.1,0.8,1.8c0.4,0.7,0.8,1.4,1.2,2c0.5,0.8,1.1,1.5,1.7,2.2
				c0.7,0.8,1.5,1.5,2.3,2.1c1.7,1.4,3.7,2.4,5.8,3.1c1,0.3,1.9,0.6,2.9,0.8l2.1,0.3c0.9,0.1,1.8,0.1,2.8,0c2.1-0.1,4.1-0.6,6-1.3
				l1.9-0.8l0,0l0.6-0.3l0.9-0.5l1.3-0.7l1.1-0.7c1.5-0.9,2.6-1.8,3.5-2.5c0.9-0.7,2.1-1.7,2.8-2.3c1.5-1.4,3-2.8,4.6-4.2
				c2.5-2.5,5-5.2,8-8.5c2.4-2.7,4.7-5.5,7.3-8.5c4.2-5.2,8.8-10.9,14-17.6c4.2-5.4,8.5-11.4,13.7-18.2
				c18.8-25.4,37.8-52.2,55.6-77.5l57-81.1c18-25.4,39.4-55.8,61.4-86c11.6-15.9,22.1-30,32.1-43.1c12.2-16.1,23.1-30,33.3-42.4
				c6.1-7.5,11.8-14.2,17.3-20.5c6.5-7.5,12.4-13.9,17.9-19.6c3.2-3.4,6.3-6.3,9.3-9.2c3-2.8,6.5-5.9,9.5-8.5
				c1.7-1.4,3.3-2.5,4.8-3.6l2.4-1.6l1.4-0.8c0.6-0.4,1.1-0.7,1.7-0.9c0.6-0.3,1.3-0.4,2-0.5h0.3h0.7c0.3,0.1,0.6,0.3,0.9,0.5
				c0.6,0.4,1,1,1.3,1.7c0.3,0.6,0.5,1.3,0.7,2c0,0.3,0,0.6,0,1V43l0,0v0.5c0,0.5,0,0.9,0,1.4c0.2,4,0.2,8,0,12c0,3.9-0.5,8-1,12.7
				c-0.8,7.6-2.1,16.1-3.9,25.7c-1.5,8.1-3.2,16.5-5.3,25.7c-3.5,15.4-7.7,32-12.7,50.9c-4.2,15.7-9.1,31.9-14.5,49.4
				c-9.3,30.2-19.5,61-31,94.2c-10.6,30.2-21.2,59.4-31.9,86.6c-5.7,14.6-10.9,27.6-16,39.7l-3.9,9.2l-3,7c-2.4,5.5-4.5,10-6.5,14.3
				c-1.4,2.8-2.5,5-3.6,7.2c-1.3,2.4-2.7,4.7-4.2,7c-0.4,0.6-0.8,1.1-1.3,1.6c-0.2,0.3-0.5,0.5-0.8,0.7c-0.3,0.2-0.6,0.3-0.9,0.3
				l0,0c-0.4-0.1-0.6-0.3-0.8-0.7c-0.1-0.3-0.2-0.6-0.3-0.8c0-0.6,0-1.2,0-1.7v-5.2c0-0.4,0-0.8,0-1.1c0-0.3,0-0.4,0-0.6
				c0-0.2,0-0.8,0-1.2s0-1.5,0-2.2l-0.4-4.2c0,0,0-0.4,0-0.6v-0.3l-0.3-2.4c0-0.9-0.3-1.9-0.5-2.8l-0.7-3.5l-0.8-3.5
				c-0.2-1-0.5-2-0.8-2.9l-0.9-3.1l-1.6-4.6c0-0.4-0.3-0.9-0.6-1.4v-0.5l-1.5-3.8l-0.6-1.2l-0.3-0.7l-1.7-3.7l-2.8-5.7l-3-5
				l-3.1-4.7l-3.1-4.7l-1.5-1.9l-0.8-1l-0.5-0.6c-0.6-0.7-1.1-1.4-1.8-2.1l-0.9-1c-1.3-1.4-2.5-2.8-3.8-4.2l-2.4-2.4l-2.5-2.3
				c-6-5.5-12.6-10.4-19.6-14.6c-5.9-3.5-12-6.4-18.4-8.7l-2.1-0.8h-0.4l-0.7-0.2l-5-1.5l-2.4-0.6l-1.3-0.4l-1.8-0.4l-1.1-0.1h-0.6
				L208,373c-1.7-0.3-3.4-0.6-4.9-0.8h-1.5l-3.2-0.3h-0.6l-4.2-0.2h-3h-1.7l0,0l3.8,0.3h0.7l5,0.7h0.5l0,0h0.6l0,0l3.5,0.7l0,0h0.8
				l1,0.2l1.4,0.4l1.5,0.4l0,0c1.2,0.3,2.4,0.6,3.6,1l0.8,0.2l1.2,0.3h0.4h0.6l1.7,0.6l0.6,0.2l3,1.1l0.9,0.3l0.7,0.3l4.5,1.9
				l4.5,2.2l0.5,0.3l0.6,0.3l3.4,1.8h0.4l0.8,0.5l3.5,2.1c1.3,0.8,2.5,1.6,3.8,2.5l1.6,1.1l0,0l0,0c4.3,3,8.4,6.4,12.3,10l0,0
				l0.8,0.8c1.1,1.1,2.3,2.2,3.4,3.4l0,0l0,0c1.1,1.2,2.2,2.4,3.4,3.7l0.3,0.3l0.3,0.4l2.3,2.8l0.5,0.6l0.7,0.9l0.6,0.8l0.5,0.6
				l1.3,1.7l0,0l1.7,2.3l0.9,1.3l1.5,2.3l0.8,1.3l0.3,0.4l0.3,0.6l1.1,1.9l1.1,1.9l0.6,1l0.7,1.3l1,2l0,0l1.1,2.2v0.4l0.6,1.3
				l0.3,0.8l0.8,1.8l0.5,1.1l0.4,1l0.3,0.8l0.2,0.6l1.3,3.5v0.6l1.7,5.3l0,0v0.4l0,0v0.3l0.7,3l0.5,1.9c0,0.5,0.3,1,0.3,1.5v0.5
				c0,0,0,0.3,0,0.6v0.3l0,0v2l0.3,1.7v0.3v1.4l0,0l0,0l0.4,2.8l0,0v0.4l0,0l0.8,7.8l0,0l0,0v0.3l0,0v0.5l0.6,2.8l0.7,3.2v0.4l0,0
				l0.3,1.5v0.3v1l0.3,1.3l0,0v0.3l0,0l0.4,3v1.3v0.8c0,0,0,0.4,0,0.6v0.6l0,0v2.1c0,0.3,0,0.6,0,0.8v0.5l0,0l0,0c0,0.5,0,1.1,0,1.6
				v0.6l0,0l0,0v0.3l0,0c0.1,0.2,0.2,0.3,0.3,0.5c0.1,0.1,0.2,0.3,0.3,0.4l0,0h0.5h0.8h0.2l0,0l0.4-0.3l0.7-0.5l0.6-0.5l1.2-1.1l0,0
				l1.1-1.2l1.2-1.4l1.7-2.1l1.4-1.8l1.8-2.5c0.8-1.1,1.6-2.3,2.3-3.5l1.4-2.3l1.9-3.3l0,0l0.3-0.6l2-3.7l1.8-3.5l1.4-2.8l1.6-3.2
				l1-2.1l0.4-0.8l0.4-0.8l2.2-4.7l0,0l2-4.2v-0.4l1.6-3.5v-0.3l0.6-1.4l2-4.2l0,0l4.2-9.3l0.3-0.6c1.9-4.2,3.8-8.7,5.8-13.4
				l1.7-3.9l0,0l0,0l0.5-1.2l1.9-4.2c3.4-8,6.7-16.2,10.2-24.9l3.3-8.3l7.1-5.8c2.4-6.1,4.8-12.3,7.3-18.5l0,0l0.4-1V354l0.3-0.9
				v-0.3l0.3-0.8v-0.6l0.2-0.6l0.3-0.7v-0.5l0.3-0.8v-0.4l0.3-0.8v-0.3l0.4-1l0,0l0.4-1l0,0l1.5-1.3l0,0l0.4-1.1l0,0l5.4-14.4l0,0
				l0.4-1.1l0,0l0.4-1.1l0,0l0.4-1.1l0,0l0.4-1.1l0,0l0.4-1.1l0,0c2.2-6,4.4-12,6.6-18c8.7-24,17-47.6,24.4-70.1
				c1.7-5.1,3.3-10,4.9-14.9c8.5-26.5,15.6-50.3,21.5-72.4c2-7.5,3.9-14.7,5.5-21.5l0,0v-0.5l0,0v-0.5l0,0v-0.5l0,0
				c0.6-2.4,1.1-4.8,1.7-7.1c1.3-5.8,2.5-11.2,3.6-16.4l0,0v-1.8c0.8-3.9,1.5-7.7,2.2-11.5c0.5-3,1-5.9,1.4-8.8l0.3-1.7
				c0.3-2.2,0.6-4.2,0.8-6.4c0.3-2.2,0.4-3.4,0.6-5c0.2-1.6,0.3-2.8,0.4-4.2c0.1-1.5,0-2.7,0.3-4v-2c0-2.7,0-5.1,0-7.5V48l0,0
				c0-0.4,0-0.7,0-1.1c0-0.4,0-0.9,0-1.7v-0.5c0-0.6,0-1.2,0-1.7v-0.8v-1.4v-0.3v-1.1l0,0v-1.2v-0.8v-1.1c-0.2-0.9-0.4-1.8-0.6-2.6
				v-0.5l-0.8-1.7l0,0l-0.5-1.4l0,0l0,0l0,0l0,0l0,0l0,0l0,0l-0.5-1l0,0l0,0l-0.4-0.8l-0.3-0.5c-0.3-0.5-0.6-1-0.9-1.5l-0.4-0.5
				l-0.3-0.5l-0.9-1.1c-0.5-0.6-1.1-1.1-1.8-1.6l0,0h-0.4l0,0l0,0l0,0l0,0l0,0l0,0l0,0l0,0l0,0l0,0l0,0l0,0l0,0l0,0l0,0l0,0l0,0l0,0
				l0,0l0,0l0,0l0,0l0,0l0,0l0,0l0,0c-0.8-0.3-1.6-0.6-2.4-0.8c-0.7-0.2-1.5-0.3-2.2-0.3"/>
			<path d="M299,503.5L299,503.5 M299.3,503.5L299.3,503.5 M299.8,503.5L299.8,503.5L299.8,503.5 M297.7,503.2L297.7,503.2
				L297.7,503.2L297.7,503.2L297.7,503.2c-0.1-0.1-0.2-0.2-0.3-0.4 M296.9,501.6v0.3l0,0l0,0 M302.7,500.8L302.7,500.8L302.7,500.8
				L302.7,500.8 M296.6,498.1v0.8C296.6,498.6,296.6,498.4,296.6,498.1 M62.8,481.8L62.8,481.8 M63,481.8L63,481.8 M62.7,481.8
				L62.7,481.8L62.7,481.8 M63.2,481.8L63.2,481.8 M63.2,481.8L63.2,481.8 M62.6,481.6L62.6,481.6L62.6,481.6L62.6,481.6
				 M63.6,481.6L63.6,481.6 M63.9,481.6L63.9,481.6L63.9,481.6L63.9,481.6L63.9,481.6 M63,481.6L63,481.6L63,481.6 M63.3,481.6
				L63.3,481.6L63.3,481.6L63.3,481.6 M64.8,481.3L64.8,481.3h-0.3l0,0H65 M64.3,481.3L64.3,481.3L64.3,481.3 M63.1,481.3
				c0,0,0,0,0,0.3l0,0C63.1,481.6,63.1,481.6,63.1,481.3 M62.8,481L62.8,481 M296.5,496.9L296.5,496.9L296.5,496.9 M63.3,481
				L63.3,481L63.3,481 M64.7,481L64.7,481v0.3l0,0v-1.4 M62.8,479.5L62.8,479.5 M63.2,479.2L63.2,479.2L63.2,479.2L63.2,479.2
				 M63.2,479.2L63.2,479.2 M63.4,479.2L63.4,479.2L63.4,479.2 M62.7,479.2L62.7,479.2L62.7,479.2L62.7,479.2L62.7,479.2
				 M296.5,494.9v0.6C296.5,495.5,296.5,495.1,296.5,494.9 M65.1,478.7H65l-0.6,0.3H65l0,0h0.4v-0.5 M296.7,493.9v0.4l0,0V493.9
				 M308.4,494.2l-1.4,1.8l0.3-0.3l0.7-0.9L308.4,494.2 M66.4,477.2l-1,0.7L66.4,477.2 M69.1,474.9l-0.3,0.3l-1.3,1.1l0.8-0.7
				L69.1,474.9 M296.1,489.4l0.4,3L296.1,489.4L296.1,489.4 M295.6,486.7v1V486.7 M295.2,484.7v0.6l0,0l0.2,1.1L295.2,484.7
				L295.2,484.7 M313.9,485.9l-1.4,2.3c-0.8,1.2-1.5,2.3-2.3,3.5l0,0c1.1-1.6,2.2-3.2,3.2-4.9l0.4-0.7 M77,467.1l-1.5,1.6l-1.1,1.1
				l0,0l0,0l-1.9,2l-1.5,1.5l1.1-1c1.6-1.6,3.2-3.3,5.1-5.3 M293.9,477.9v0.9l0.5,2.2l-0.6-2.8v-0.3 M293.7,477.4L293.7,477.4
				 M320.3,474.5l-1.8,3.5l-2,3.7l1.4-2.6l0.8-1.6l1-1.9L320.3,474.5 M292.9,469.5v1.5v1.9l0.4,3.7v0.7l-0.8-7.8l0,0 M292.1,466.2
				L292.1,466.2L292.1,466.2 M291.5,462.8l0.3,2v-0.3L291.5,462.8 M290.9,459.5l0.3,1.1v0.4C291.2,460.5,291,460,290.9,459.5
				 M326.8,460.1l-2.2,4.7l0.9-2L326.8,460.1 M289.6,454.4L289.6,454.4L289.6,454.4v0.3l0.6,2.7L289.6,454.4l0-0.2l0,0 M330.6,451.6
				l-1.6,3.5v-0.3l1.4-3.2 M333.1,445.6l-2,4.2l0,0l0.3-0.8L333.1,445.6L333.1,445.6 M285.2,441.2L285.2,441.2l0.3,0.7l0,0l-0.5-1.1
				 M283.3,436.9l0.6,1.3L283.3,436.9 M110.8,424.6l-0.8,1l0.3-0.5L110.8,424.6 M282.1,434.5L282.1,434.5 M337.9,435.9l-0.3,0.6
				l-4.2,9.3l0.7-1.5l2.1-4.7l1.6-3.6 M279.6,430.2l0.6,1L279.6,430.2 M277.1,426l0.3,0.5l0,0L277.1,426 M270.1,415.9l0.3,0.3l0,0
				v0.3l-0.5-0.6 M265.7,410.9l2.3,2.8L265.7,410.9 M261.7,406.6l1.1,1.2l1.2,1.3l1.1,1.1C264,409,262.9,407.8,261.7,406.6
				 M257.5,402.3c1.1,1.1,2.2,2.2,3.3,3.3l0.9,0.9c-1.1-1.2-2.2-2.3-3.4-3.4L257.5,402.3 M244.8,392.2L244.8,392.2 M243.7,390.7h0.2
				l1.4,1L243.7,390.7 M236.4,386.2l3.5,2.1L236.4,386.2 M231.8,383.7l1.3,0.7l0.8,0.4l1.3,0.7L231.8,383.7 M221.7,379.1l0.6,0.3
				l3,1.2l0,0h0.4l0.8,0.4h0.3l2.8,1.3l0.8,0.4l-4.5-2.2l-4.5-1.9 M216.9,376.9l0.6,0.3l1.4,0.5l0.8,0.3L216.9,376.9 M212.4,375.5
				l1.2,0.3L212.4,375.5 M203.9,373.2h0.7l1.8,0.4l0,0l-1.2,0.1h-1 M199.1,372.7L199.1,372.7 M187.8,371.6L187.8,371.6L187.8,371.6
				L187.8,371.6 M192.9,371.9L192.9,371.9 M363.7,373.8l-2.3,5.8l-3.3,8.3l1.1-2.6L363.7,373.8 M179.5,330.1l-0.4,0.6L179.5,330.1
				 M185.7,321.6l-4.7,6.6L185.7,321.6 M381.4,328.3L381.4,328.3 M381.8,327.1L381.8,327.1 M382.3,325.8L382.3,325.8L382.3,325.8
				 M382.7,324.7L382.7,324.7 M383.1,323.5L383.1,323.5 M383.6,322.3L383.6,322.3 M221.5,271.4l-7.3,9.7l-14.3,20.1l-5.3,7.5
				l26.8-37.6 M282.8,186.3L282.8,186.3L282.8,186.3L282.8,186.3 M446.2,125.1c-1.7,6.8-3.5,14-5.5,21.5
				c-5.9,22.1-13,45.8-21.5,72.4l0.7-2.1c7.6-23.7,14-45.2,19.5-65.4C442,142.2,444.2,133.5,446.2,125.1 M446.2,124.5v0.5V124.5
				 M446.2,123.9v0.5V123.9 M446.2,123.3v0.5V123.3 M447.9,116.1c-0.5,2.3-1.1,4.7-1.7,7.1l1.2-5.1v-0.5L447.9,116.1 M451.4,99.7
				L451.4,99.7 M451.4,99.3L451.4,99.3L451.4,99.3L451.4,99.3 M370.8,73.8L370.8,73.8 M381.8,61.6c-2.5,2.7-5.1,5.6-7.8,8.5l0,0v0.3
				l-0.3,0.3l0,0l-0.3,0.4l0,0l-0.3,0.3l0,0l0,0l-1.4,1.7c2.8-3.2,5.7-6.3,8.5-9.3l2.5-2.7 M457.9,56.8L457.9,56.8 M457.9,47.2
				c0,2.3,0,4.8,0,7.5v1.1c0-1.4,0-2.8,0-4S457.9,48.6,457.9,47.2 M457.9,46.8L457.9,46.8 M457.9,43.5V44c0,0.6,0,1.1,0,1.7
				c0-0.6,0-1.1,0-1.7V43.5 M457.5,38.4v1.1v0.7v-0.8l0,0 M437.6,37.6h-0.3c-0.7,0-1.4,0.2-2,0.5c-0.6,0.3-1.2,0.6-1.7,0.9l-1.4,0.8
				l-2.4,1.6c-1.5,1.1-3.1,2.3-4.8,3.6c-3,2.4-6.1,5.1-9.5,8.5c-3.4,3.4-6,5.8-9.3,9.2c-5.6,5.7-11.4,12.1-17.9,19.6
				c-5.5,6.4-11.2,13.1-17.3,20.5c-10.2,12.4-21.2,26.3-33.3,42.4c-10,13.1-20.4,27.2-32.1,43.1c-22,30.2-43.3,60.3-61.4,86
				L186.3,357c-17.9,25.4-36.8,52.1-55.6,77.5c-5.1,6.8-9.6,12.7-13.7,18.2c-5.3,6.8-9.7,12.4-14,17.6c-2.5,3.1-5,5.9-7.3,8.5
				c-3,3.4-5.5,6.1-8,8.5c-1.6,1.7-3.1,3.1-4.6,4.2c-0.7,0.6-1.7,1.4-2.8,2.3s-2,1.6-3.5,2.5l-1.1,0.7l-1.3,0.7l-0.9,0.5l-0.6,0.3
				l0,0l-1.9,0.8c-1.9,0.7-4,1.1-6,1.3c-0.9,0.1-1.8,0.1-2.8,0l-2.2,0.4c-1-0.2-2-0.4-2.9-0.8c-2.1-0.7-4.1-1.8-5.8-3.1
				c-0.8-0.6-1.6-1.4-2.3-2.1c-0.6-0.7-1.2-1.4-1.7-2.2c-0.4-0.6-0.8-1.3-1.2-2c-0.4-0.7-0.6-1.1-0.8-1.8s-0.5-1.2-0.6-1.6
				c-0.1-0.4-0.3-1.1-0.4-1.4c-0.1-0.4,0-0.8-0.3-1.2s0-0.7,0-1.1l0,0v-1v-1c0-0.3,0-0.6,0-0.8s0-1,0-1.5c0-0.5,0-0.8,0-1.1
				l19.8,0.6v-0.3l0,0L43.6,478l0,0l0,0c0,0.4,0,0.9,0,1.4s0,1.1,0,1.5s0,0.5,0,0.8v1v1.1l0,0c0,0.3,0,0.6,0,1.1s0,0.8,0.3,1.2
				c0.3,0.4,0.3,0.9,0.4,1.4c0.2,0.6,0.3,0.9,0.6,1.7s0.5,1.1,0.8,1.8c0.4,0.7,0.8,1.4,1.2,2c0.5,0.8,1.1,1.5,1.8,2.2
				c0.7,0.8,1.5,1.5,2.3,2.2c0.9,0.7,1.8,1.3,2.8,1.9c1.9,1,3.9,1.7,6.1,2.1l2.1,0.3c0.9,0.1,1.9,0.1,2.8,0c2.1-0.1,4.2-0.6,6.1-1.3
				l1.9-0.8l0,0l0.6-0.3l0.9-0.5l1.3-0.7l1.1-0.7c1.5-1,2.6-1.8,3.5-2.5c0.9-0.7,2.1-1.7,2.8-2.3c1.5-1.4,3-2.8,4.7-4.2
				c2.5-2.5,5-5.2,8-8.5c2.4-2.7,4.7-5.5,7.3-8.5c4.2-5.2,8.8-10.9,14-17.7c4.2-5.4,8.5-11.4,13.8-18.2
				c18.8-25.4,37.8-52.2,55.7-77.5l57.9-83.5c18-25.4,39.4-55.8,61.4-85.9c11.6-15.9,22.1-30,32.1-43.1c12.2-16.1,23.1-30,33.3-42.4
				c6.1-7.5,11.7-14.2,17.3-20.5c6.5-7.5,12.4-13.9,17.9-19.6c3.2-3.4,6.3-6.3,9.2-9.2s6.5-5.9,9.5-8.5c1.7-1.3,3.3-2.5,4.7-3.6
				l2.3-1.6l1.3-0.8c0.5-0.3,1.1-0.6,1.7-0.9c0.6-0.3,1.2-0.4,1.9-0.4h0.3h0.6c0.3,0.1,0.6,0.2,0.8,0.4c0.5,0.4,0.9,0.9,1.1,1.5
				c0.3,0.6,0.5,1.3,0.6,1.9c0,0.3,0,0.6,0,1c0,0.4,0,0.2,0,0.3v0.5c0,0.5,0,0.9,0,1.4c0.2,4,0.2,8,0,12c0,3.9-0.5,8-1,12.7
				c-0.8,7.6-2.1,16.1-3.8,25.7c-1.5,8.1-3.2,16.5-5.3,25.7c-3.5,15.4-7.7,32-12.7,50.9c-4.2,15.7-9.1,31.9-14.5,49.4
				c-9.3,30.2-19.5,61-31,94.2c-10.6,30.2-21.2,59.4-31.9,86.5c-5.7,14.6-10.9,27.6-16,39.7l-3.9,9.2l-3,7c-2.4,5.5-4.5,10-6.5,14.2
				c-1.4,2.8-2.5,5-3.6,7.1c-1.3,2.4-2.7,4.7-4.2,6.9c-0.4,0.5-0.8,1-1.3,1.5c-0.2,0.2-0.5,0.4-0.7,0.6c-0.2,0.2-0.5,0.2-0.7,0.3
				l0,0c-0.2-0.1-0.4-0.2-0.5-0.5c-0.1-0.2-0.2-0.5-0.2-0.8c0-0.6,0-1.1,0-1.7v-5.2c0-0.4,0-0.8,0-1.1s0-0.4,0-0.6v-1.2
				c0-0.8,0-1.5,0-2.2l-0.4-4.2c0,0,0-0.4,0-0.6v-0.3l-0.3-2.4c0-0.9-0.3-1.9-0.5-2.8l-0.7-3.5l-0.8-3.5c-0.2-1-0.5-2-0.8-3
				l-0.9-3.1l-1.6-4.6c0-0.5-0.3-0.9-0.6-1.4v-0.5l-1.5-3.8l-0.6-1.2l-0.3-0.6l-1.7-3.7l-2.8-5.3l-3-5l-3.1-5.1l-3.3-4.2l-1.5-1.9
				l-0.8-1l-0.5-0.6c-0.6-0.7-1.1-1.4-1.8-2.1l-0.9-1c-1.3-1.4-2.5-2.8-3.8-4.2l-2.4-2.4l-2.5-2.3c-6-5.6-12.6-10.5-19.7-14.6
				c-5.9-3.5-12.1-6.4-18.5-8.8l-2.1-0.8h-0.4l-0.7-0.3l-5-1.5l-2.7-0.9l-1.2-0.3l-1.8-0.4l-1.2-0.2h-0.6l-1.4-0.3
				c-1.7-0.3-3.4-0.6-4.9-0.8h-1.5l-3.2-0.3h-0.7l-4.2-0.2h-3.1c-1.9,0-2.4,0.3-2.6,0.5h0.8h1.7h3l4.2,0.2h0.6l3.2,0.3h1.5
				c1.5,0,3.2,0.5,4.9,0.8l1.4,0.3h0.6l1.1,0.3l1.8,0.4l1.2,0.3l2.5,0.6l5,1.5l0.7,0.2h0.4l2.1,0.8c6.4,2.4,12.6,5.3,18.4,8.7
				c7,4.2,13.6,9,19.6,14.6l2.5,2.3l2.4,2.4c1.3,1.3,2.5,2.7,3.8,4.2l0.9,1c0.6,0.7,1.2,1.4,1.8,2.1l0.5,0.6l0.8,1l1.5,1.9l3.3,4.5
				l3.1,4.7l3,5l2.8,5.3l1.7,3.7l0.3,0.7l0.6,1.2l1.5,3.8v0.5c0,0.5,0.4,1,0.6,1.4l1.6,4.6l0.9,3.1c0.3,1,0.6,2,0.8,2.9l0.8,3.5
				l0.7,3.5c0,0.9,0.3,1.9,0.5,2.8l0.3,2.4v0.3c0,0,0,0.4,0,0.6l0.4,4.2c0,0.8,0,1.5,0,2.2s0,0.8,0,1.2s0,0.4,0,0.6
				c0,0.2,0,0.7,0,1.1v5.2c0,0.6,0,1.2,0,1.7c0.1,0.3,0.1,0.6,0.3,0.8c0.1,0.3,0.4,0.6,0.8,0.7l0,0c0.3,0,0.7-0.1,0.9-0.3
				c0.3-0.2,0.6-0.4,0.8-0.7c0.5-0.5,0.9-1,1.3-1.6c1.6-2.2,3-4.5,4.2-7c1.1-2.1,2.3-4.2,3.6-7.2c2-4.2,4.2-8.8,6.5-14.3l3-7
				l3.9-9.2c5.1-12.1,10.3-25.1,16-39.7c10.6-27.2,21.2-56.3,31.9-86.6c12-32.8,22.1-63.6,31.4-94c5.4-17.6,10.1-33.7,14.5-49.4
				c5.2-18.7,9.4-35.3,12.7-50.9c2.1-9.2,3.8-17.6,5.3-25.7c1.8-9.7,3-18.1,3.9-25.7c0.5-4.7,0.8-8.8,1-12.7c0.2-4,0.2-8,0-12
				c0-0.5,0-0.9,0-1.4V43l0,0v-0.3c0-0.4,0-0.7,0-1c-0.2-0.7-0.4-1.3-0.7-2c-0.3-0.6-0.7-1.2-1.3-1.7c-0.3-0.2-0.6-0.4-0.9-0.5h-0.7
				 M457.9,37.6v0.8V37.6L457.9,37.6 M413.2,33.4l-2.8,2.3l-1.3,1.1l-0.4,0.3l1.6-1.4L413.2,33.4 M456,31.4l0.5,1.6v0.5v-0.7
				L456,31.4 M456,31.4L456,31.4 M455.5,30L455.5,30 M455.5,30L455.5,30 M455.5,30L455.5,30L455.5,30 M455.5,30L455.5,30L455.5,30
				 M455.5,30L455.5,30 M455,28.9L455,28.9 M423.3,25.3L423.3,25.3l-0.6,0.3l0,0l-1.7,1.1l1.4-0.8h0.3l0.5-0.3 M453.9,27.2l0.3,0.5
				l0.4,0.8l-0.2-0.4v-0.3l0,0l-0.2-0.4 M424.6,24.5L424.6,24.5L424.6,24.5h0.2 M424.8,24.5L424.8,24.5 M426.3,23.6l-0.4,0.3l-1,0.6
				h0.3l1.2-0.7 M427.8,23L427.8,23h-0.4l0.5-0.3 M451.6,23.2l0.9,1.1l-0.7-0.8v-0.2 M449.4,21.8L449.4,21.8 M449.4,21.8L449.4,21.8
				 M449.4,21.8L449.4,21.8 M449.4,21.8L449.4,21.8L449.4,21.8 M449.4,21.8L449.4,21.8L449.4,21.8 M449.4,21.8L449.4,21.8
				L449.4,21.8 M449.4,21.8L449.4,21.8L449.4,21.8 M449.4,21.8L449.4,21.8L449.4,21.8 M449.4,21.8L449.4,21.8L449.4,21.8
				 M449.4,21.8L449.4,21.8L449.4,21.8 M449.4,21.8L449.4,21.8L449.4,21.8 M449.4,21.8L449.4,21.8L449.4,21.8 M449.4,21.8
				L449.4,21.8L449.4,21.8 M449.4,21.8L449.4,21.8L449.4,21.8 M449.4,21.8L449.4,21.8L449.4,21.8 M449.4,21.8L449.4,21.8L449.4,21.8
				 M449.4,21.8L449.4,21.8 M444.6,20.7c-0.8-0.1-1.6-0.1-2.4,0C443,20.6,443.8,20.6,444.6,20.7"/>
			<path class="st7" d="M443.2,8.4h-1.4H439c-1.9,0.1-3.8,0.4-5.6,0.9L431,9.9l-0.8,0.3l-2.5,0.9l-2,0.8l-0.8,0.4l-0.8,0.4l-2.1,0.8
				l-2.7,1.5l-1.6,1.2l-3.3,2.2c-2,1.4-4,2.8-6.1,4.5c-3.6,2.8-7.1,5.7-11.1,9.3c-6.2,5.6-12.7,11.8-20,19.5
				c-6.1,6.1-12,12.7-18.8,20.2c-10.8,12.3-21.8,25.4-34.7,41.5c-10.3,12.7-21.2,26.6-32.9,42.1c-18.6,24.3-37.7,50.1-62.2,83.7
				c-18.7,25.7-36.9,50.9-54.4,75.4l-5.4,7.5c-18.2,25.7-35.8,50-53,73.3c-10.3,14-18.5,24.9-26,34.6c-4.7,6.1-8.9,11.4-12.7,16
				c-2.3,2.8-4.2,5.2-6.3,7.5c-2.1,2.3-4.2,4.8-6.1,6.8l2.5,2.3c1.5-1.6,3.1-3.3,4.8-5.3c1.7-2,4.2-4.9,6.7-7.9
				c9.5-11.5,19-23.9,26.9-34.5c17.6-23.5,35.6-48.5,55.7-76.3l17.9-24.9c13.4-18.7,27.2-38.2,41.2-57.4
				c17-23.3,39.2-54.1,62.8-85.5c11.9-15.8,22.7-29.7,33-43c12.7-16.1,24-30,34.6-42.4c6.4-7.6,12.3-14.4,18.2-20.9
				c7-7.7,13.2-14.3,19.3-20.3c3.6-3.6,7-6.8,10.3-9.8c4-3.6,7.6-6.7,11.2-9.4c2.1-1.7,4.2-3.1,6.1-4.5l3.3-2.1l0.5-0.3l1.5-0.9
				l2.3-1.3l0,0c3.3-1.8,6.8-3.3,10.4-4.2c2.9-0.7,5.8-1,8.7-0.8h1.9c1.7,0.3,3.5,0.7,5.1,1.4c1.6,0.7,3.2,1.6,4.6,2.6
				c2.8,2.1,5.1,4.9,6.8,8c0.9,1.6,1.6,3.2,2.2,4.9c0.6,1.7,1.1,3.5,1.5,5.3c0.4,1.7,0.7,3.4,0.9,5.5l0.3,2.5c0,0.6,0,1.2,0,2
				c0.3,5,0.3,10,0,15c-0.3,4.2-0.7,9-1.4,14.2c-1.1,8.5-2.5,17-4.7,27.4c-1.7,8.5-3.7,17-6,26.5c-3.9,15.7-8.5,32.5-14.2,51.4
				c-4.8,15.9-9.9,32.1-15.8,49.6c-10.1,30.4-21.2,61.1-33.6,94c-11.5,30.1-23.1,59.1-34.5,86c-6.1,14.5-11.8,27.4-17.3,39.6
				l-2.2,4.7l-2.4,5.1c-2.4,5.2-4.5,9.6-6.4,13.5c-2.4,4.8-4.5,9-6.5,12.7c-2,3.7-4.2,7.3-6.6,10.7c-1.8,2.6-3.9,5.1-6.1,7.3
				c-1.1,1-2,1.9-3,2.7c-1,0.8-2,1.6-3,2.3c-0.5,0.4-1.1,0.7-1.7,1l-0.9,0.4c-0.4,0.1-0.8,0.2-1.1,0.2H298c-0.4,0-0.8-0.1-1.1-0.4
				c-0.3-0.2-0.5-0.5-0.7-0.8c-0.2-0.5-0.4-1-0.5-1.5c0-0.3,0-0.5,0-0.7c0-0.3,0-0.5,0-0.7l-0.5-2.9v-0.3c0,0,0-0.3,0-0.5l-1.2-4.2
				l-1.5-4.2c0-0.3,0-0.5-0.3-0.9l-2.1-6.5c0-0.1,0-0.2,0-0.3l0,0l-0.7-9.8l-1-9.4l-1.7-8.2v-0.2l-1.9-6.3l0,0l-1.6-4.6v-0.6
				l-1.8-4.2c-1.9-4.4-4.1-8.6-6.6-12.7c-0.8-1.5-1.8-3-2.8-4.2l-1-1.5l-0.5-0.7l-2.7-3.7l-1.1-1.4l-2.1-2.6l-0.4-0.5l-0.6-0.8
				l-3.2-3.6l-0.7-1l-0.3-0.3l-1.1-1.1c-5.4-5.5-11.3-10.5-17.7-14.8c-5.2-3.5-10.7-6.6-16.4-9.2c5.2,2.4,10.2,5.3,15,8.5
				c6.2,4.2,12,9,17.3,14.3c6.1,6.2,11.5,13,16.1,20.3l2.6,4.5l0.6,1l0.3,0.6l1.7,3.1l1,2l0.6,1.2l0.8,1.7l0.5,1.1l0.3,0.6l1.4,3.4
				l1.8,5.1v0.3l2.2,6.5v0.5l1.7,8c0,0.2,0,0.4,0,0.6v0.2l0.4,4.2v1.9c0,1.7,0.3,3.5,0.4,5.5l0.5,7.8l0,0c0,0.1,0,0.2,0,0.3l1.9,6.3
				c0,0.3,0,0.6,0.3,0.8l1.7,4.5v0.5v0.3l1.1,3.4l0.8,3.7c0.1,0.4,0.2,0.9,0.3,1.3c0.1,0.5,0.4,0.9,0.7,1.2c0.2,0.2,0.5,0.4,0.8,0.5
				h0.5h0.7c0.6-0.1,1.2-0.3,1.8-0.6l1.6-0.8c1-0.6,2-1.3,3-2c2.2-1.7,4.2-3.6,6.1-5.6c1.2-1.3,2.3-2.6,3.3-4c1.1-1.4,2.2-3.2,3.4-5
				c1.2-1.9,2.2-3.6,3.4-5.9c1.2-2.2,2.3-4.2,3.4-6.4c2.2-4.2,4.2-8.7,6.8-13.6l3.4-7.1l2.4-5.1c5.5-11.7,11.2-24.4,17.3-38.8
				c11.3-26.3,22.9-54.7,34.5-84.4c12.2-31.5,23.5-62.5,33.7-92.2c5.9-17,11.1-33.1,15.9-48.6c5.7-18.2,10.4-34.7,14.6-50.3
				c2.5-9.3,4.6-17.8,6.4-25.9c2.2-9.7,4-18.4,5.4-26.6c1.6-9.2,2.8-18.5,3.4-27.9c0.3-5,0.3-10.1,0-15.1v-2.2v-1.4v-1.5
				c-0.3-2-0.7-3.9-1.1-5.9c-0.9-3.8-2.3-7.4-4.2-10.7c-1.9-3.2-4.5-5.9-7.5-8c-3.1-2.1-6.6-3.4-10.3-3.9h-1.4"/>
			<path d="M298.1,503.4L298.1,503.4h0.3l0,0H298 M300.1,503l-0.4,0.3l0,0h-0.2L300.1,503h0.2 M297.5,502.4c0.1,0.3,0.2,0.5,0.4,0.7
				l0,0l0,0l0,0l0,0c-0.1-0.2-0.2-0.3-0.3-0.5 M303.2,500.9L303.2,500.9l-1.2,1.1c0.5-0.4,0.9-0.8,1.4-1.3 M297.4,499.5
				c0,0.3,0,0.6,0,0.8c0,0.5,0.1,1.1,0.2,1.6v-0.3v-0.6c0-0.5,0-1.1,0-1.6 M297.6,497c0,0.4,0,0.9,0,1.3V497 M308,495.6l-0.3,0.3
				l-1.7,2.1l1.7-2.1L308,495.6 M297.5,494.2c0,0.4,0,0.8,0,1.3V494.2L297.5,494.2 M296.8,489.2L296.8,489.2 M296.8,489.2
				L296.8,489.2 M314.3,486.7c-1.1,1.7-2.1,3.4-3.2,4.9l0,0l-1.8,2.5l-0.4,0.6c1.7-2.3,3.4-4.6,4.8-7l0.7-1.1 M76.3,468.7l-1.2,1.3
				l0,0l0,0l1.1-1.1 M294.6,479.1l1.4,6.5V485v-0.4l-0.7-3.2l-0.5-2.2 M318.6,479.5l-1.4,2.6l-0.3,0.6l0,0l1.8-3.3 M294.5,476.9v0.8
				l0,0l0,0l0,0V476.9 M292.9,471.3v1.9V471.3 M323.1,468.8l-1.6,3.2l-1.4,2.8l-0.6,1.1C320.7,473.7,321.9,471.4,323.1,468.8
				 M291.8,462.6l1,6.7l0,0l-0.4-2.8l0,0v-1.4l-0.3-2v-0.3l0,0 M292.1,461.8v0.5v0.3c0,0,0-0.4,0-0.6V461.8 M326.4,463.2l-0.9,2
				L325,466L326.4,463.2 M94.6,446.9c-2.5,3.1-5,6.2-7.5,9.2l0.8-1C90.1,452.6,92.2,449.8,94.6,446.9 M290.7,455.4v0.2l1.2,5.1v0.4
				l-0.3-1.1l-0.5-1.9l-0.6-2.7 M290.5,455L290.5,455L290.5,455 M290.5,454.3L290.5,454.3L290.5,454.3L290.5,454.3 M329.8,456.1
				l-2,4.2L329.8,456.1 M288.7,448.6v0.3V448.6 M332.7,449.7l-0.3,0.8l0,0l-0.6,1.4l0.7-1.5l0.3-0.7 M287.3,444.8l1.3,3.4l0,0
				L287.3,444.8 M286.3,442.2L286.3,442.2l0.4,1L286.3,442.2L286.3,442.2 M335.1,444.4l-0.7,1.5v0l0.3-0.6l0.6-1.2 M285.3,439.2
				L285.3,439.2l0.8,1.8l0,0L285.3,439.2 M278.5,426.5c1.7,2.8,3.3,5.7,4.7,8.5l0.6,1.3l0.2,0.4l-1.1-2.2l0,0l-1-2l-0.7-1.3l-0.6-1
				l-1.1-1.9L278.5,426.5L278.5,426.5 M275.6,421.8c0.8,1.2,1.6,2.4,2.3,3.6l-0.8-1.3L275.6,421.8 M273.1,418.2l1.7,2.3L273.1,418.2
				 M270.7,416.2l1.5,2l-1.3-1.7v-0.3l0,0 M126.1,404.3c-5,6.9-10.1,13.7-15.3,20.6l-5.8,7.6l5.1-6.7l0.8-1
				c4-5.3,8.5-11.1,13.1-17.6L126.1,404.3 M345.5,418.6l-1.7,3.9c-2,4.7-3.9,9.1-5.8,13.4l-1.6,3.6l1.5-3.4
				C340.4,430.5,342.9,424.6,345.5,418.6 M345.5,418.6L345.5,418.6L345.5,418.6 M263.6,407.7l1.2,1.3L263.6,407.7 M243.9,390.7
				L243.9,390.7c5.5,3.8,10.6,8.1,15.4,12.7l2,2c-1.1-1.1-2.2-2.2-3.3-3.3l0,0c-3.9-3.6-8-6.9-12.3-10l0,0l0,0L243.9,390.7
				 M233.1,384.4l0.8,0.4L233.1,384.4 M227,381.4l2.8,1.3L227,381.4 M225.2,380.6l0.6,0.3h-0.4l0,0 M219.2,378l3.1,1.2l-0.6-0.3
				l-0.7-0.3l-0.9-0.3L219.2,378 M208.2,374.5L208.2,374.5c3.2,0.8,6.4,1.8,9.6,2.9l-0.6-0.3l-0.6-0.2l-1.7-0.6h-0.6h-0.4l-1.2-0.3
				l-0.8-0.2c-1.2-0.4-2.4-0.7-3.6-1l0,0 M203.3,373.8l3.3,0.8l-1.8-0.4h-0.7h-0.8l0,0 M198.4,373.2l1.4,0.3l0,0h-0.6l0,0h-0.5
				 M192.9,372.6h0.7h-1 M157.6,361c-5.7,8-11.6,16.1-17.5,24.3C145.9,377.3,151.8,369.2,157.6,361 M371.1,355.3
				c-2.4,6.2-4.8,12.4-7.3,18.5l-4.6,11.5l-1.1,2.6c-3.5,8.5-6.9,17-10.2,24.9c4.5-10.7,8.9-21.7,13.7-33.5
				C364.8,371.4,368,363.4,371.1,355.3 M371.5,354.2l-0.4,1L371.5,354.2 M371.9,353l-0.3,0.9L371.9,353 M372.4,351.9l-0.4,0.6
				l0.3-0.8 M372.7,350.6l-0.2,0.6L372.7,350.6 M373.2,349.5v0.5V349.5 M373.6,348.4v0.4V348.4 M374.1,347.2v0.3V347.2 M374.5,346.1
				L374.5,346.1 M375,344.9L375,344.9L375,344.9 M375.4,343.7L375.4,343.7 M375.8,342.5L375.8,342.5 M200.1,301.2l-8.8,12.3
				l-29.2,40.9l8.8-12.3l8.1-11.4l0.4-0.6l1.5-2.1l4.7-6.6l4.6-6.5l4.2-6.2l5.3-7.5 M420.1,217.1l-0.7,2.1
				c-1.6,4.9-3.2,9.9-4.9,14.9c-7.5,22.5-15.6,46.1-24.4,70.1l0.5-1.4c9.9-27.1,18.6-52.5,26.8-77.4L420.1,217.1 M282.9,186.6
				c-8.9,12-18.3,24.9-28.7,39.2c-13.3,18.3-26.6,36.9-39.8,55.3l7.2-10c14.2-19.9,28.7-40,43.1-59.8
				C271.1,202.6,277.1,194.4,282.9,186.6L282.9,186.6 M448.3,118.3l-1.4,5.2l0,0v0.5l0,0v0.5l0,0v0.5l0,0c-2,8.5-4.2,17-6.8,26.5
				l1.4-5c2.7-10.1,5.1-19.5,7.1-28.4 M452.6,99.7L452.6,99.7c-1,5.1-2.2,10.6-3.6,16.4l-0.3,1.5c0.9-3.8,1.7-7.4,2.5-11
				C451.6,104.2,452.1,101.9,452.6,99.7 M452.6,99.3L452.6,99.3L452.6,99.3 M362,85.4l-8.5,10.1l-0.4,0.5
				C356.2,92.4,359.1,88.8,362,85.4 M456,79.1c-0.4,2.9-0.9,5.8-1.4,8.8l0.3-1.4C455.2,83.9,455.6,81.5,456,79.1 M373.5,72.2
				c-2.8,3.1-5.7,6.3-8.5,9.7l6.9-7.9l0,0l0,0l1.4-1.7 M373.6,72L373.6,72L373.6,72 M374,71.6L374,71.6L374,71.6 M374.4,71.1
				L374.4,71.1L374.4,71.1 M374.9,70.5v0.3V70.5 M456.8,71.2c-0.3,2-0.6,4.2-0.8,6.4C456.2,75.4,456.5,73.3,456.8,71.2 M388.9,55.6
				c-2.7,2.8-5.5,5.8-8.5,9l-5.3,5.9c2.7-3,5.2-5.8,7.8-8.5L388.9,55.6 M395.1,49.3l-0.3,0.3l-0.7,0.7L395.1,49.3 M458.4,52.8
				c0,1.3,0,2.6,0,4v1.3c0,1.3,0,2.6-0.3,4c0-2.2,0.3-4.2,0.4-6.4c0-1,0-2,0-2.9 M404.9,40.1l-3.6,3.4L404.9,40.1 M404.9,40.1
				L404.9,40.1 M458.2,42.9c0,0.6,0,1.1,0,1.7V45C458.2,44.3,458.2,43.5,458.2,42.9 M408.7,36.4l-3.6,3.3l3.4-3l0.4-0.3 M457.8,39.5
				v0.8V39.5 M416,30.3L416,30.3 M456.3,32.6v0.7c0.2,0.8,0.4,1.7,0.6,2.6v1.1l0,0c-0.2-1.4-0.6-2.8-1-4.2v-0.3 M420.2,27.4l-2,1.4
				l-2,1.4c1.3-1,2.7-2,4.2-3 M455.3,29.3L455.3,29.3L455.3,29.3 M422.9,25.6L422.9,25.6 M454.5,27.6l0.2,0.4l0,0l0,0l0.5,1l0,0l0,0
				l0,0c-0.3-0.6-0.5-1.2-0.8-1.7 M423.9,24.6L423.9,24.6l-0.5,0.3l0,0L423.9,24.6 M426.4,23.2l-1.2,0.7l0,0l-0.4,0.3l0,0l0,0l1-0.6
				l0.4-0.3l0,0 M452.9,25c0.3,0.5,0.7,1,0.9,1.5l0.2,0.4C453.7,26.2,453.3,25.6,452.9,25 M427.5,22.6l-0.7,0.4h0.3h0.4 M449.6,21.8
				c0.6,0.5,1.2,1,1.8,1.6v0.2l-0.9-1l-1-0.8 M444.2,19.4c0.8,0.2,1.6,0.4,2.4,0.8l0,0l-1.4-0.5L444.2,19.4 M443.2,8h-1.4H439
				c-1.9,0.1-3.8,0.4-5.7,0.9l-2.4,0.7l-0.8,0.3l-2.5,0.9l-2,0.8l-0.8,0.4l-0.8,0.4l-2,0.9l-2.7,1.5l-2,1.2l-3.3,2.2
				c-2,1.4-4.2,2.8-6.1,4.5c-3.6,2.7-7.1,5.7-11.3,9.3c-6.2,5.6-12.7,11.8-20,19.6c-5.4,6.1-11.7,12.7-18.2,20.3
				c-10.8,12.3-21.8,25.4-34.7,41.5c-10.3,12.7-21.2,26.6-32.9,42.1c-18.6,24.3-37.7,50.1-62.2,83.7c-18.7,25.7-36.9,50.9-54.4,75.4
				l-5.4,7.5c-18.5,25.7-36,50-53.1,73.3c-10.3,14-18.5,24.9-26,34.6c-4.7,6.1-8.9,11.4-12.7,16c-2.3,2.8-4.2,5.2-6.3,7.5
				c-2.1,2.3-4.2,4.9-6.2,6.9l0,0l2.8,2.6l0.3-0.3l-2.5-2.3c1.9-2,3.9-4.2,6.1-6.8c2.2-2.5,4.2-4.7,6.3-7.5c3.8-4.7,8-9.9,12.7-16
				c7.5-9.6,15.7-20.6,26-34.6c17-23.2,34.6-47.5,53.1-73.3l5.4-7.5c17.3-24.3,35.4-49.6,54.1-75.3c24.5-33.6,43.6-59.4,62.2-83.7
				c11.8-15.5,22.6-29.3,32.9-42.1c12.7-16,23.9-29.2,34.7-41.5c6.7-7.5,12.7-14.2,18.5-20.2c7.4-7.8,13.8-14,20-19.5
				c4.2-3.6,7.5-6.6,11.1-9.3c2.1-1.7,4.2-3.1,6.1-4.5l3.6-2.2l2-1.2l2.3-1.5l1.9-0.9l0.8-0.4l0.8-0.4l2-0.8l2.5-0.9l0.8-0.3
				l2.3-0.6c1.9-0.5,3.9-0.7,5.9-0.8h2.8h1.4h1.4c3.7,0.5,7.2,1.9,10.3,3.9c3,2.1,5.6,4.8,7.5,8c2,3.3,3.4,6.9,4.2,10.7
				c0.5,1.9,0.9,3.9,1.1,5.9v1.5v1.4V42c0.3,5,0.3,10.1,0,15.1c-0.6,9.4-1.7,18.7-3.4,27.9c-1.4,8.2-3.2,17-5.4,26.6
				c-1.9,8.1-3.9,16.6-6.4,25.9c-4.2,15.6-8.9,32.1-14.6,50.3c-4.8,15.6-10.1,31.5-15.9,48.6c-10.2,29.7-21.5,60.6-33.7,92.2
				c-11.5,29.7-23.1,58.1-34.5,84.4c-6.2,14.3-11.9,27-17.3,38.8l-2.4,5.1l-3.4,7.1c-2.3,4.9-4.6,9.5-6.8,13.6
				c-1.1,2.2-2.3,4.2-3.4,6.4c-1.1,2.2-2.4,4.2-3.4,5.9c-1.1,1.7-2.3,3.6-3.4,5c-1,1.4-2.1,2.7-3.3,4c-1.9,2-3.9,3.9-6.1,5.6
				c-1,0.7-1.9,1.4-3,2l-1.6,0.8c-0.6,0.3-1.2,0.5-1.8,0.6h-0.7h-0.5c-0.3-0.1-0.6-0.3-0.8-0.5c-0.3-0.4-0.5-0.8-0.7-1.2
				c-0.1-0.4-0.2-0.8-0.3-1.3l-0.8-3.7l-1.1-3.4v-0.3v-0.5l-1.7-4.5c0,0,0-0.5-0.3-0.8l-1.9-6.3c0-0.1,0-0.2,0-0.3l0,0l-0.5-7.8
				c0-2-0.3-3.7-0.4-5.5v-1.9L288,466v-0.2c0-0.2,0-0.4,0-0.6l-1.7-8.1v-0.5l-2-6.4v-0.3l-1.8-5.1l-1.4-3.4l-0.3-0.6l-0.5-1.1
				l-0.8-1.7l-0.6-1.2l-1-2l-1.7-3.1l-0.3-0.6l-0.6-1l-2.6-4.5c-4.7-7.4-10.2-14.3-16.4-20.4c-5.3-5.3-11.1-10.1-17.3-14.3
				c-4.8-3.2-9.8-6-15-8.5l-0.6-0.3l-2-0.9l-0.7-0.3l-1.3-0.6l-4.7-1.8l-4.2-1.4l-1.7-0.5l-4.6-1.3l-0.9-0.2h-0.5l-2.7-0.6h-0.7
				l-1.7-0.4l-4.2-0.8h-0.8l-2.1-0.3c-2.5-0.5-2.5-0.6-2.5-0.8l0,0h0.3h-0.8l0,0l0,0l0,0c0.8,0.4,1.6,0.6,2.4,0.7l2,0.3h0.8l4,0.7
				c1.1,0,2.3,0.5,3.6,0.8l1.4,0.3l1.9,0.5l5.6,1.6l5.2,1.8l2.2,0.8l1.5,0.6l0.7,0.3l1.2,0.5l2,0.9c5.8,2.6,11.4,5.6,16.7,9.2
				c6.3,4.2,12.1,9,17.4,14.3c6.1,6.1,11.5,12.9,16.1,20.2l2.6,4.5l0.5,1l0.3,0.6l1.7,3.1l1,2l0.6,1.2l0.8,1.7l0.5,1.1l0.3,0.6
				l1.4,3.4l1.8,5.1v0.3l1.9,6.5v0.5l1.7,8c0,0.2,0,0.4,0,0.6v0.3l0.4,4.2v1.9c0,1.7,0.3,3.5,0.4,5.4l0.5,7.8l0,0c0,0.1,0,0.2,0,0.3
				l1.9,6.3c0,0.3,0,0.6,0.3,0.8l1.7,4.5v0.5v0.3l1,3v0.3l0.7,3.6c0.1,0.4,0.2,0.9,0.3,1.3c0.1,0.5,0.4,1,0.8,1.4
				c0.3,0.3,0.6,0.5,1,0.6h0.6h0.8c0.7-0.1,1.3-0.3,1.9-0.6l1.6-0.9c1-0.6,2-1.3,3-2.1c2.2-1.7,4.3-3.6,6.1-5.6
				c1.2-1.3,2.3-2.8,3.4-4.2c1.1-1.4,2.2-3.2,3.4-5.1c1.2-1.9,2.2-3.6,3.4-5.9c1.2-2.2,2.3-4.2,3.4-6.4c2.2-4.2,4.2-8.7,6.8-13.6
				l3.4-7.1l2.4-5.1c5.5-11.7,11.2-24.4,17.3-38.8c11.3-26.3,22.9-54.7,34.5-84.4c12.2-31.5,23.5-62.5,33.7-92.2
				c5.9-17,11.1-33.1,15.9-48.6c5.7-18.2,10.5-34.7,14.6-50.4c2.5-9.3,4.6-17.8,6.4-25.9c2.2-9.7,4-18.4,5.4-26.6
				c1.6-9.2,2.8-18.6,3.4-27.9c0.3-5.1,0.3-10.1,0-15.2v-1l-0.3-2.6v-1.5c-0.3-2-0.7-4-1.1-5.9c-0.9-3.8-2.3-7.4-4.2-10.8
				c-2-3.2-4.6-6-7.7-8.1c-3.1-2.1-6.7-3.5-10.4-4h-1.4"/>
			
				<radialGradient id="SVGID_6_" cx="262.9242" cy="254.7424" r="226.612" gradientTransform="matrix(1 0 0 -1 0 514)" gradientUnits="userSpaceOnUse">
				<stop  offset="0" style="stop-color:#000000"/>
				<stop  offset="0.69" style="stop-color:#FF1D25"/>
				<stop  offset="0.8" style="stop-color:#C1272D"/>
				<stop  offset="0.98" style="stop-color:#000000"/>
			</radialGradient>
			<path class="st8" d="M68.7,479.3h-3.4c0,0.2,0,0.5,0,0.7h0.7l1-0.3h0.4h0.6h0.4 M442.6,11.3c-2.9-0.2-5.7,0.1-8.5,0.8
				c-3.6,1-7.1,2.4-10.3,4.2l0,0l-2.3,1.3l-1.5,0.9l-0.5,0.3l-3.3,2.1c-2,1.4-4,2.8-6.1,4.2c-3.5,2.7-7.2,5.8-11.1,9.4
				c-3.3,3-6.7,6.2-10.3,9.8c-6,5.9-12.3,12.7-19.2,20.3c-5.8,6.4-11.8,13.3-18.2,20.8c-10.6,12.7-21.9,26.5-34.6,42.4
				c-10.3,13.1-21.2,27.2-33,43c-23.6,31.3-45.9,62.1-62.8,85.5c-14.4,19.7-28,39-41.6,57.7l-17.9,24.9
				c-20.1,27.9-38.2,53-55.7,76.3c-8,10.6-17.4,23-26.9,34.6c-2.5,3-4.7,5.6-6.7,7.9c-2,2.3-4.7,5.2-6.4,7.3
				c-1.1,1.1-2.2,2.2-3.2,3.1c-0.8,0.8-1.7,1.5-2.6,2.2l0,0l0.6,1.1l0.3,0.5l0.4,0.8l0.4,0.9v0.4l0.6,1.2l0,0l0.4,1
				c0,0.4,0.3,0.7,0.4,1.1c0.1,0.3,0.2,0.6,0.3,0.9v0.5h0.3c0.5-0.3,1-0.6,1.5-0.9c1.2-0.9,2.4-1.8,3.5-2.8c1.1-0.9,2.2-2,3.5-3.4
				c4.8-4.9,9.5-10.3,13.3-15c9.1-10.9,17.8-22.3,25.1-32.1c16.5-21.9,32.8-44.7,48.1-66c10.8-15.1,21.8-30.5,32.4-45.3
				c20.5-28.8,41.7-58.6,62.9-87.7c18.4-25.4,33.9-46.4,48.6-65.9c19.4-25.4,35.5-46.1,50.9-64.5c9.8-11.8,18.6-22,26.9-31.1
				c5-5.5,9.7-10.4,14.2-14.9C400.2,43.5,405,39,409.8,35c2.9-2.5,5.6-4.6,8.5-6.6c1.5-1.1,3-2.1,4.2-3.1l0,0l1.1-0.7l0.6-0.3
				l0.5-0.3l0,0l1.4-0.8l0,0l1.2-0.7c3.7-2,7.7-3.3,11.8-3.8c0.9-0.1,1.8-0.1,2.8,0c1.1,0.1,2.3,0.3,3.4,0.6c2,0.6,3.8,1.7,5.3,3.1
				c0.7,0.7,1.4,1.5,2,2.3c0.6,0.8,1.2,1.7,1.7,2.6c1,1.8,1.7,3.8,2.3,5.8c0.6,2,1,4.1,1.3,6.2c0,0.5,0,1,0,1.6v1.4
				c0,0.8,0,1.7,0,2.7c0,3.3,0,6.8,0,10.6s-0.4,6.7-0.8,10.5c-0.6,6.2-1.6,13-2.8,20.6c-1.1,6.5-2.4,13.1-3.9,20.3
				c-2.6,12.3-5.8,25.4-9.7,39.9c-5.6,23.7-13.3,49.4-22.8,78.4c-8.1,25-17,50.3-26.8,77.5c-9.5,26-19.3,51.7-29.2,76.6
				c-5.3,13.4-10.4,25.8-15.5,38c-2.8,6.5-5.5,12.7-8.1,18.9l-4.2,9.4l-2.1,4.7l-2.2,5c-1.9,4.2-3.6,7.9-5.3,11.5
				c-2.1,4.2-3.9,7.9-5.6,11.2c-2.1,4-3.9,7.3-5.8,10.1c-1.8,2.8-3.7,5.5-5.8,8.2c-1,1.3-2,2.5-3,3.6c-1,1.1-2.1,2.2-3.3,3.1l-1,0.6
				c-0.4,0.2-0.8,0.4-1.2,0.4h-0.2h-0.5c-0.2-0.1-0.4-0.2-0.6-0.4c-0.2-0.3-0.4-0.6-0.6-1c-0.2-0.7-0.3-1.3-0.3-2c0-0.3,0-0.7,0-1
				v-1c0-0.5,0-0.9,0-1.4c0-0.5,0-1.7,0-2.6l-0.6-4.7v-0.3l-1.3-6.1l-1.1-5.1c0-0.1,0-0.3,0-0.4l-0.8-8l-1.1-7.6c0-0.3,0-0.7-0.2-1
				v-0.6l-1.2-5.1c0-0.4,0-0.8-0.3-1.1l-1.7-5.4c0-0.2,0-0.4,0-0.6l-1.5-4.2c-0.2-0.6-0.5-1.2-0.8-1.8l-1.1-2.7
				c-0.4-1.1-0.9-2.1-1.4-3.1l-1.4-1.2c-2.9-5.9-6.3-11.6-10.2-17l-2.3-3.1l-0.7-0.8l-3.1-3.8l-3.7-4.2l-3.1-2.9
				c-4.7-4.5-9.7-8.6-15.1-12.3c-2.8-2-5.8-3.7-8.5-5.2l-4.2-2.3l-4.2-2.1c-6-2.7-12.2-4.9-18.5-6.5c-5.6-1.5-11.2-2.5-17-3.1l0,0
				l2.1,0.3h0.8l4.2,0.8l1.7,0.4h0.7l2.7,0.6h0.5l0.9,0.2l4.6,1.3l1.7,0.5l4.2,1.4l4.7,1.8l1.3,0.6l0.7,0.3l2,0.9
				c5.9,2.7,11.6,5.9,17,9.5c6.4,4.3,12.3,9.3,17.7,14.9l1.1,1.1l0.3,0.3l0.8,0.8l3.2,3.6l0.6,0.8l0.4,0.5l2.1,2.5l0.8,1l2.7,3.7
				l0.5,0.7l1,1.5c0.9,1.4,1.9,2.8,2.8,4.2c2.5,4.1,4.7,8.3,6.6,12.7l1.8,4.2v0.6l1.6,4.6l0,0l1.9,6.3v0.3l1.7,8.2l1,9.4l0.7,9.8
				l0,0l0,0l1.8,6.2l0.3,0.8l1.6,4.8l1.1,3.9v0.5v0.3l0.5,2.9c0,0.3,0,0.5,0,0.7s0,0.5,0,0.7c0.1,0.5,0.3,1,0.5,1.4
				c0.1,0.2,0.3,0.5,0.6,0.6c0.3,0.2,0.6,0.3,0.9,0.3l0,0c0.4,0.1,0.7,0.1,1.1,0l0.9-0.4c0.6-0.3,1.1-0.6,1.6-0.9c1-0.7,2-1.5,3-2.3
				c0.9-0.8,1.9-1.7,2.9-2.7c2.3-2.2,4.4-4.7,6.2-7.3c2.4-3.4,4.6-7,6.6-10.7c2-3.7,4.2-7.8,6.5-12.7c2-3.9,4.2-8.5,6.4-13.5
				l4.6-9.9c5.5-12.1,11.2-25,17.3-39.5c12.1-25.7,23.7-54.7,35.2-84.8c12.5-32.8,23.5-63.6,33.6-94c5.9-17.5,11-33.9,15.8-49.6
				c5.6-18.9,10.3-35.7,14.2-51.4c2.3-9.5,4.2-18.1,6-26.5c2.1-10.3,3.6-19,4.7-27.3c0.7-5.1,1.1-9.8,1.4-14.2c0.3-5,0.3-10,0-14.9
				c0-0.7,0-1.4,0-2v-1.1v-1.4c-0.3-2.1-0.6-3.9-0.9-5.5c-0.4-1.8-0.9-3.5-1.5-5.3c-0.6-1.7-1.3-3.3-2.2-4.9
				c-1.7-3.1-3.9-5.8-6.7-7.9c-1.4-1-2.9-1.9-4.5-2.5c-1.6-0.7-3.3-1.1-5-1.4h-1.8"/>
			
				<radialGradient id="SVGID_7_" cx="262.4925" cy="482.3095" r="227.2682" gradientTransform="matrix(1 0 0 -3 0 1706.01)" gradientUnits="userSpaceOnUse">
				<stop  offset="0" style="stop-color:#000000"/>
				<stop  offset="0.69" style="stop-color:#FF1D25"/>
				<stop  offset="0.8" style="stop-color:#C1272D"/>
				<stop  offset="0.98" style="stop-color:#000000"/>
			</radialGradient>
			<path class="st9" d="M65.4,480.1c0-0.2,0-0.5,0-0.7h3.4h-0.4h-0.6h-0.4l-1,0.3h-0.7 M63.4,478.4v-0.5c-0.1-0.3-0.2-0.6-0.3-0.9
				c0-0.4-0.2-0.7-0.4-1.1l-0.4-1l0,0l-0.6-1.2v-0.4l-0.4-0.9l-0.4-0.8l-0.3-0.5l-0.6-1.1l0,0c0.9-0.7,1.8-1.4,2.6-2.2
				c1-0.9,2-1.9,3.2-3.1c2-2,4.2-4.2,6.7-7.2c2.4-3,4.2-4.9,6.7-7.9c9.5-11.6,19-24,26.9-34.6c17.6-23.5,35.7-48.5,55.7-76.3
				l17.9-24.9c13.4-18.7,27.2-38.2,41.2-57.4c17-23.3,39.2-54.1,62.8-85.5c11.9-15.8,22.7-29.7,33-43c12.7-16.1,24-30,34.6-42.4
				c6.4-7.6,12.3-14.4,18.2-20.8c7-7.7,13.2-14.3,19.2-20.3c3.6-3.6,7-6.8,10.3-9.8c4-3.6,7.6-6.7,11.1-9.4c2.1-1.7,4.2-3.1,6.1-4.2
				l3.3-2.1l0.5-0.3l1.2-1l2.3-1.3l0,0c3.2-1.8,6.7-3.3,10.3-4.2c2.8-0.7,5.6-1,8.5-0.8h1.8c1.7,0.2,3.4,0.7,5,1.4
				c1.6,0.7,3.1,1.5,4.5,2.5c2.8,2.1,5,4.8,6.7,7.9c0.9,1.6,1.6,3.2,2.2,4.9c0.7,1.8,1.4,3.6,1.9,5.5c0.3,1.6,0.7,3.4,0.9,5.5v1.4
				v1.1c0,0.6,0,1.2,0,2c0.3,5,0.3,10,0,14.9c-0.3,4.2-0.7,9-1.4,14.2c-1.1,8.5-2.5,17-4.7,27.3c-1.7,8.5-3.7,17-6,26.5
				c-3.9,15.7-8.5,32.5-14.2,51.4c-4.8,15.9-9.9,32.1-15.8,49.6c-10.1,30.4-21.2,61.1-33.6,94c-11.5,30.1-23.1,59-34.5,86
				c-6.1,14.5-11.8,27.4-17.3,39.5l-4.6,9.9c-2.4,5.1-4.5,9.5-6.4,13.5c-2.4,4.8-4.5,8.9-6.5,12.7c-2,3.7-4.2,7.3-6.6,10.7
				c-1.8,2.6-3.9,5.1-6.2,7.4c-1.1,1-2,1.9-2.9,2.7c-0.9,0.8-1.9,1.6-3,2.3c-0.5,0.3-1.1,0.7-1.6,0.9l-0.9,0.4
				c-0.4,0.1-0.7,0.1-1.1,0l0,0c-0.3,0-0.6-0.1-0.9-0.3c-0.2-0.2-0.4-0.4-0.6-0.6c-0.2-0.4-0.4-0.9-0.5-1.4c0-0.2,0-0.5,0-0.7
				c0-0.2,0-0.5,0-0.7l-0.5-2.9v-0.3v-0.5l-1.1-3.9l-1.6-4.8l-0.3-0.8l-2.1-6.2l0,0l0,0l-0.7-9.8l-1-9.4l-1.7-8.2v-0.3l-1.9-6.3l0,0
				l-1.6-4.6v-0.6l-1.8-4.2c-1.9-4.4-4.1-8.6-6.6-12.7c-0.8-1.5-1.8-3-2.8-4.2l-1-1.5l-0.9-1.8l-2.7-3.7l-0.8-1l-2.1-2.5l-0.4-0.5
				l-0.7-0.7l-3.2-3.6l-0.8-0.7l-0.3-0.3l-1.1-1.1c-5.4-5.6-11.3-10.5-17.7-14.9c-5.4-3.6-11.1-6.8-17-9.5l-2-0.9l-0.7-0.3l-1.3-0.6
				l-4.7-2.1l-4.2-1.4l-1.7-0.5l-4.6-1.3l-0.9-0.2h-0.5l-2.8-0.8h-0.7l-1.7-0.4l-4.2-0.8H193l-2.1-0.3l0,0c5.7,0.6,11.4,1.6,17,3.1
				c6.3,1.6,12.5,3.8,18.5,6.5l4.2,2.1l4.2,2.3c2.5,1.4,5.5,3.2,8.5,5.2c5.5,3.6,10.8,7.6,15.6,12l3.1,3l3.7,4.2l3.1,3.8l0.7,0.8
				l2.3,3.1c3.9,5.4,7.3,11,10.2,17l0.6,1.3c0.5,1,1,2.1,1.4,3.1l1.1,2.7c0.3,0.6,0.5,1.2,0.8,1.8l1.5,4.2c0,0.2,0,0.4,0,0.6
				l1.7,5.4c0,0.3,0,0.7,0.3,1.1l1.2,5.1v0.6c0,0.3,0,0.7,0.2,1l1.1,7.6l0.8,8c0,0.1,0,0.3,0,0.4l1.1,5.1l1.3,6.1v0.3l0.6,4.7
				c0,0.9,0,1.8,0,2.6s0,0.9,0,1.4v1c0,0.3,0,0.7,0,1c0,0.7,0.1,1.4,0.3,2c0.1,0.4,0.3,0.7,0.6,1c0.2,0.2,0.4,0.3,0.6,0.4h0.5h1.1
				c0.4-0.1,0.9-0.2,1.2-0.4l1-0.6c1.2-0.9,2.3-2,3.3-3.1c1-1.1,2-2.2,3-3.6c2.1-2.7,4-5.4,5.8-8.2s3.7-6.1,5.8-10.1
				c1.7-3.2,3.4-6.8,5.6-11.2c1.7-3.6,3.4-7.3,5.3-11.5l2.2-5l2.1-4.7l4.2-9.4c2.6-6,5.3-12.3,8.1-18.9c5.1-12.1,10.2-24.5,15.5-38
				c9.9-24.9,19.7-50.6,29.2-76.6c9.5-27.3,18.4-52.7,26.5-77.7c9.5-29.1,17-54.8,23.5-78.6c3.9-14.6,7.1-27.7,9.7-39.9
				c1.5-7.1,2.8-13.8,3.9-20.3c1.3-7.6,2.2-14.3,2.8-20.6c0.4-3.8,0.6-7.2,0.8-10.5c0.1-3.3,0-7.4,0-10.6c0-1,0-1.8,0-2.7v-1.4
				c0-0.6,0-1.1,0-1.6c-0.3-2.1-0.7-4.2-1.3-6.2c-0.6-2-1.3-3.9-2.3-5.8c-0.5-0.9-1-1.8-1.7-2.6c-0.6-0.8-1.3-1.6-2-2.3
				c-1.5-1.4-3.3-2.5-5.3-3.1c-1.1-0.3-2.2-0.5-3.4-0.6c-0.9-0.1-1.8-0.1-2.8,0c-4.2,0.5-8.2,1.8-11.8,3.8l-1.2,0.7l0,0l-1.4,0.8
				l0,0l-0.5,0.3l-0.6,0.3l-1.1,0.7l0,0c-1.4,0.9-2.9,1.9-4.2,3.1c-2.7,2-5.4,4.2-8.5,6.6c-4.7,4.2-9.6,8.5-15.3,14.2
				c-4.5,4.5-9.2,9.5-14.2,14.9c-8.5,9.1-17,19.3-26.9,31.1c-15.2,18.3-31.3,38.8-50.9,64.5c-14.8,19.5-30.2,40.4-48.6,65.9
				c-21.2,29.1-42.4,58.9-62.9,87.7c-10.6,14.9-21.5,30.2-32.4,45.3c-15.3,21.2-31.7,44.1-48.1,66c-7.3,9.7-16,21.2-25.1,32.1
				c-3.9,4.7-8.5,10.1-13.3,15c-1.3,1.4-2.4,2.4-3.5,3.4c-1.1,1-2.3,2-3.5,2.8c-0.5,0.3-1,0.6-1.5,0.9H64 M442.6,10.9
				c-2.9-0.2-5.9,0.1-8.7,0.8c-3.6,1-7.1,2.4-10.4,4.2l0,0l-2.3,1.3l-1.5,0.9l-0.5,0.3l-3.3,2.1c-2,1.4-4,2.8-6.1,4.5
				c-3.5,2.7-7.2,5.8-11.2,9.4c-3.3,3-6.7,6.2-10.3,9.8c-6,5.9-12.3,12.7-19.3,20.3c-5.8,6.4-11.8,13.3-18.2,20.9
				c-10.9,12.5-22.3,26.4-35,42.5c-10.3,13.1-21.2,27.2-33,43c-23.4,31.3-45.7,62.1-62.6,85.4c-14,19.4-27.9,38.7-41.2,57.4
				l-17.9,24.9c-20.1,27.9-38.2,53-55.7,76.3c-8,10.6-17.4,23-26.9,34.5c-2.5,3-4.7,5.6-6.7,7.9s-3.4,3.7-4.8,5.3l-0.3,0.3l-1.6,1.6
				c-1.1,1.1-2.2,2.2-3.2,3.1c-0.8,0.8-1.7,1.5-2.6,2.1l0,0l0,0l-0.3,0.2l0,0l0,0l0.7,1.2l0.3,0.5l0.4,0.8l0.4,0.9v0.4l0.5,1.2l0,0
				l0.4,1c0.1,0.3,0.2,0.7,0.3,1.1c0,0.3,0,0.6,0.3,0.8l0,0v0.3v0.3l0,0l0,0l0,0v0.6l0,0c0,0.3,0,0.7,0,1l0,0c0,0.1,0,0.2,0,0.3l0,0
				l0,0l0,0l0,0l0,0l0,0l0,0l0,0l0,0l0,0l0,0l0,0l0,0h0.2H63l0,0l0,0h0.3h0.3l0,0h0.7l0,0l1-0.3h0.4h0.7h1.2h0.7h0.7h1.4H73h0.2
				c0,0,0,0-0.3,0h-1.1h-8.5H65l0,0c0,0.2,0,0.5,0,0.7v0.3l0,0h-0.3l0,0l-0.6,0.3l0,0l0,0l0,0l0,0l0,0l0,0l0,0l0,0c0,0,0,0,0-0.3
				c0-0.1,0-0.1,0-0.2l0,0v-0.4l0,0l0,0h0.3l0.6-0.3l0.6-0.3l0.4-0.3l0,0l1-0.7l1.1-0.9l1.3-1.1l0.3-0.3l1.7-1.6l1.5-1.5l1.9-2
				l1.2-1.3l1.5-1.6c3.1-3.5,6.1-7,8.7-10.1l0.9-1.1c2.5-3.1,5-6.2,7.5-9.2c3.8-4.8,7.5-9.5,10.9-14.1l5.8-7.6
				c5.1-6.8,10.2-13.7,15.3-20.6c5-6.9,9.4-12.7,14-19.2c5.9-8.2,11.8-16.3,17.5-24.3l1.4-2l3.2-4.2l29.2-40.9l8.8-12.3l13.6-21.8
				c13.1-18.4,26.5-37,39.8-55.3c10.4-14.3,19.8-27.2,28.7-39.2l0,0c6.9-9.3,13.4-18.1,19.8-26.5c19.3-25.4,35.2-45.8,50.3-64
				l0.4-0.5l8.5-10.1l3-3.5c2.8-3.4,5.7-6.6,8.5-9.7l0,0l0,0l0.3-0.3l0,0l0.3-0.4l0,0l0.3-0.3v-0.3l0,0l6.3-6.7
				c2.9-3.2,5.7-6.2,8.5-9l5.1-5.2l0.7-0.7l0.3-0.3c2.1-2.1,4.2-4,5.9-5.8l3.6-3.4l0,0l0,0l3.7-3.3l1.3-1.1l2.8-2.3l3.2-2.5l0,0l0,0
				l2.1-1.5l2-1.4l0.8-0.5l1.7-1.1l0,0l0.6-0.3l0.5-0.3l0,0l0.5-0.3l0,0l0.4-0.3l0,0l1.2-0.7l0,0l0,0h0.3l0.7-0.4l0,0l0,0
				c3.6-2,7.6-3.3,11.7-3.8l0,0c0.8-0.1,1.6-0.1,2.4,0l0,0c0.8,0,1.5,0.1,2.2,0.3l1,0.3l1.4,0.5l0,0l0,0l0,0l0,0l0,0l0,0l0,0l0,0
				l0,0l0,0l0,0l0,0l0,0l0,0l0,0l0,0l0,0l0,0l0,0l0,0l0,0l0,0l0,0l0,0l0,0l0,0h0.4l0,0l1,0.8l0.9,1l0.7,0.8l0.3,0.5l0.4,0.5
				c0.4,0.6,0.8,1.2,1.2,1.9l0,0v0.3c0.3,0.5,0.6,1.1,0.8,1.7l0,0l0,0l0,0l0,0l0,0l0.5,1.4l0,0l0.4,1.4v0.3c0.4,1.4,0.7,2.8,1,4.2
				v0.7v1.2V38v0.8v0.6v1.4v0.5c0,0.7,0,1.4,0,2.2l0,0c0,0.6,0,1.1,0,1.7c0,0.6,0,0.9,0,1.1l0,0v0.3c0,1.5,0,3,0,4.6s0,1.9,0,2.9
				c0,2-0.2,4.2-0.4,6.4c0,1.3-0.2,2.7-0.4,4.2c-0.2,1.6-0.3,3.3-0.6,5c-0.2,1.7-0.6,4.2-0.8,6.4l-0.3,1.7c-0.3,2.4-0.8,4.8-1.2,7.4
				l-0.3,1.4c-0.6,3.7-1.4,7.5-2.2,11.5v0.5l0,0c-0.5,2.2-0.9,4.5-1.4,6.9c-0.8,3.6-1.6,7.3-2.5,11v0.5c-2.1,8.9-4.2,18.3-7.1,28.4
				l-1.4,5c-5.5,20.1-11.9,41.6-19.5,65.4l2.6,9.7c-8.1,25-17,50.3-26.8,77.4l-0.5,1.4c-2.2,6-4.4,12-6.6,18l0,0l-0.4,1.1l0,0
				l-0.4,1.1l0,0l-0.4,1.1l0,0l-0.4,1.1l0,0l-0.4,1.1l0,0l-5.4,14.4l0,0l-0.4,1.1l0,0l-0.4,1.1l0,0l-0.4,1l0,0l-0.4,1v0.3l-0.3,0.8
				v0.4l-0.3,0.8v0.5l-0.3,0.7l-0.2,0.6v0.6l-1.4,1.6v0.3l-0.3,0.9v0.3l-0.4,1l0,0c-3.1,8.1-6.3,16.1-9.4,24
				c-4.7,11.8-9.2,22.8-13.7,33.5l-1.9,4.2l-0.5,1.2l0,0l0,0c-2.5,6-5.1,11.9-7.5,17.5l-1.5,3.4l-2.1,4.7l-0.6,1.2l-0.3,0.6
				l-1.5,3.4l-0.3,0.7l-0.7,1.5v0.3l-1.4,3.2v0.3v0.4l-2,4.2l0,0l-1.3,2.7l-1.3,2.8l-0.4,0.8l-1,2.1c-1.3,2.6-2.5,5-3.6,7.1l-1,1.9
				l-0.8,1.6l-1.8,3.3l-1.9,3.3l-0.4,0.7l-0.7,1.1c-1.5,2.4-3.1,4.7-4.8,7l-0.7,0.9l-0.2,0.3l-1.7,2.1l-1.2,1.4l-1.1,1.2l0,0
				c-0.4,0.5-0.9,0.9-1.4,1.3l-0.6,0.5l-0.7,0.5h-0.3l-0.6,0.3h-1.7h-0.3l0,0l0,0l0,0l0,0c-0.2-0.2-0.3-0.5-0.4-0.7l0,0v-0.3l0,0
				c-0.1-0.5-0.2-1.1-0.2-1.6c0-0.3,0-0.6,0-0.8l0,0l0,0v-1c0-0.4,0-0.9,0-1.3v-1.5c0-0.4,0-0.8,0-1.3l0,0v-0.4v-1.3l-0.4-3l0,0
				v-0.3l0,0l-0.3-1.3v-1v-0.3l-0.2-1.1l0,0l-1.4-6.5v-0.9l0,0l0,0v-0.3v-0.8l-0.4-3.7v-1.9v-1.5v-0.4l-1-6.7v-0.6v-0.5v-0.6v-0.4
				l-1.2-5.1v-0.7v-0.4l0,0l0,0l-1.7-5.3l0,0v-0.3l0,0l0,0l-1.3-3.4l-0.2-0.6l-0.3-0.8l-0.4-1l0,0l-0.3-0.7l-0.8-1.8l0,0l-0.3-0.8
				l-0.6-1.3v-0.4l-0.2-0.4l-0.6-1.3c-1.4-2.8-3-5.7-4.7-8.5l-0.3-0.5l-0.3-0.4c-0.8-1.2-1.5-2.4-2.3-3.6l-4.5-2.4l-1.7-2.3l0,0
				l-1.5-1.9l-0.3-0.3l-0.6-0.8l-0.6-0.8l-0.5-0.6l-2.3-2.8l-0.3-0.4l-0.3-0.3l-1.1-1.1l-1.2-1.3l-1.1-1.2l0,0l0,0l-0.9-0.9
				l-2.3-2.2c-4.7-4.7-9.9-8.9-15.4-12.7l0,0h-0.2c-1.3-0.8-2.5-1.7-3.8-2.5l-3.5-2.1l-0.8-0.5h-0.4l-1.3-0.7l-0.8-0.4l-1.3-0.7
				l-0.6-0.6l-0.5-0.3l-0.8-0.4l-2.9-1.3h-0.3l-0.8-0.4l-0.6-0.3l-3-1.2l-3-1.5l-1.4-0.5c-3.1-1.1-6.4-2.1-9.6-2.9l0,0l-1.5-0.4l0,0
				l-3.4-0.4l-3.5-0.7l-1.4-0.3l-5-0.7l0,0h-0.7l-3.8-0.3h-0.3l0,0c0,0,0,0.3,2.5,0.8l2.1,0.3h0.8l4.2,0.8l1.7,0.4h0.7l2.7,0.6h0.5
				l0.9,0.2l4.6,1.3l1.7,0.5l4.2,1.4l4.7,1.8l1.3,0.6l0.7,0.3l2,0.9l0.6,0.3c5.7,2.6,11.2,5.7,16.4,9.2c6.4,4.3,12.3,9.3,17.7,14.8
				l1.1,1.1l0.3,0.3l0.7,0.8l3.2,3.6l0.6,0.8l0.4,0.5l2.1,2.6l0.8,1l2.7,3.7l0.5,0.7l1,1.5c0.9,1.4,1.9,2.8,2.8,4.2
				c2.5,4.1,4.7,8.3,6.6,12.7l1.8,4.2v0.6l1.6,4.6l0,0l1.9,6.3v0.2l1.7,8.2l1,9.4l0.7,9.8l0,0c0,0.1,0,0.2,0,0.3l1.8,6.2
				c0,0.4,0,0.6,0.3,0.9l1.5,4.2l1.2,4.2c0,0,0,0.3,0,0.5v0.3l0.5,2.9c0,0.3,0,0.5,0,0.7c0,0.3,0,0.5,0,0.7c0.1,0.5,0.3,1,0.5,1.5
				c0.2,0.3,0.4,0.6,0.7,0.8c0.3,0.2,0.7,0.4,1.1,0.4h0.2c0.4,0,0.8-0.1,1.1-0.2l0.9-0.4c0.6-0.3,1.1-0.6,1.7-1c1-0.7,2.1-1.5,3-2.3
				c0.9-0.8,1.9-1.7,3-2.7c2.3-2.2,4.4-4.7,6.3-7.3c2.4-3.4,4.6-7,6.6-10.7c2-3.7,4.2-7.8,6.5-12.7c2-3.9,4.2-8.5,6.4-13.5l2.4-5.1
				l2.2-4.7c5.5-12.1,11.2-25,17.3-39.6c11.5-27,23-56,34.5-86c12.5-32.9,23.5-63.6,33.6-94c5.9-17.5,11-33.9,15.8-49.6
				c5.7-18.9,10.3-35.7,14.2-51.4c2.3-9.5,4.2-18.1,6-26.5c2.1-10.3,3.6-19,4.7-27.4c0.7-5.2,1.1-9.8,1.4-14.2c0.3-5,0.3-10,0-15
				c0-0.8,0-1.4,0-2l0.4-1.5c-0.3-2.1-0.6-3.9-0.9-5.5c-0.4-1.8-0.9-3.6-1.5-5.3c-0.6-1.7-1.3-3.3-2.2-4.9c-1.7-3.1-4-5.8-6.8-8
				c-1.4-1.1-2.9-1.9-4.6-2.6c-1.6-0.7-3.3-1.1-5.1-1.4L442.6,10.9"/>
		</g>
	</g>
</g>
</svg>
