<svg id="Layer_1" data-name="Layer 1" xmlns="http://www.w3.org/2000/svg" xmlns:xlink="http://www.w3.org/1999/xlink" viewBox="0 0 120 120"><defs><style>.cls-1{fill:none;}.cls-2,.cls-4,.cls-6{stroke:#000;}.cls-2,.cls-3,.cls-4,.cls-5,.cls-6{stroke-miterlimit:10;}.cls-2{fill:url(#radial-gradient);}.cls-3,.cls-6{fill:#c00;}.cls-3{stroke:url(#linear-gradient);}.cls-4{fill:#ccc;}.cls-5{fill:url(#radial-gradient-2);stroke:url(#radial-gradient-3);}.cls-7{isolation:isolate;}.cls-8{clip-path:url(#clip-path);}.cls-9{fill:#590000;}.cls-10{fill:#b10000;}.cls-11{fill:url(#radial-gradient-4);}.cls-12{fill:url(#radial-gradient-5);}</style><radialGradient id="radial-gradient" cx="50.67" cy="96.63" r="20.27" gradientUnits="userSpaceOnUse"><stop offset="0" stop-color="#fff"/><stop offset="1" stop-color="#ed1c24"/></radialGradient><linearGradient id="linear-gradient" x1="31.68" y1="94.29" x2="72.65" y2="94.29" gradientUnits="userSpaceOnUse"><stop offset="0" stop-color="#fff"/><stop offset="0.69" stop-color="#ed1c24"/><stop offset="0.96" stop-color="#f15a24"/></linearGradient><radialGradient id="radial-gradient-2" cx="50.54" cy="79.69" r="23.04" gradientUnits="userSpaceOnUse"><stop offset="0" stop-color="#fff"/><stop offset="1"/></radialGradient><radialGradient id="radial-gradient-3" cx="50.61" cy="79.69" r="23.58" xlink:href="#radial-gradient-2"/><clipPath id="clip-path"><rect id="SVGID" class="cls-1" x="-1.09" y="13.27" width="122.19" height="93.46" transform="translate(-3.95 115.77) rotate(-86.09)"/></clipPath><radialGradient id="radial-gradient-4" cx="61.44" cy="61" r="53.45" gradientUnits="userSpaceOnUse"><stop offset="0"/><stop offset="0.69" stop-color="#ff1d25"/><stop offset="0.8" stop-color="#c1272d"/><stop offset="0.98"/></radialGradient><radialGradient id="radial-gradient-5" cx="61.43" cy="61" r="53.55" gradientTransform="translate(0 -121.99) scale(1 3)" xlink:href="#radial-gradient-4"/></defs><title>Aenstance logo</title><path class="cls-2" d="M31.66,99.94a24.63,24.63,0,0,0,2.63,2.92l.73.66c.12.11.25.21.38.31l.38.31.39.31.4.28.4.28.2.14.21.13.83.52.86.48.22.12.22.11.44.21.44.21.22.1.23.09.91.37.93.32.23.08.12,0,.12,0,.47.13.47.13.24.06.24.05,1,.2,1,.15.49.07.49,0,.49,0c.16,0,.33,0,.49,0a22.93,22.93,0,0,0,3.93-.14,21.93,21.93,0,0,0,3.84-.81,22.69,22.69,0,0,0,3.64-1.48,22.38,22.38,0,0,0,6.24-4.72,22.52,22.52,0,0,0,5-22c.2-.06.65.48,1.18,1.63a15,15,0,0,1,.78,2.16,19.32,19.32,0,0,1,.59,3l.09.88,0,.23v.23l0,.47,0,.48c0,.16,0,.32,0,.49v.5c0,.17,0,.34,0,.51l-.08,1-.14,1.08c0,.09,0,.18,0,.27l0,.28-.1.56c0,.09,0,.19-.05.28l-.07.28-.14.57a24,24,0,0,1-1.71,4.67c-.09.2-.2.39-.3.58l-.31.59c-.05.1-.11.19-.17.29l-.17.29-.35.58-.38.57-.19.29-.2.28-.42.56-.21.28-.22.27a25.28,25.28,0,0,1-9.31,7.21l-.35.16-.36.15-.72.29c-.24.1-.49.18-.73.26l-.74.25-.75.22c-.25.07-.5.15-.75.2l-.76.18-.38.08-.39.07-.77.14-.78.1-.78.09-.78.06c-.52,0-1,0-1.56.05h-.78l-.78,0a26.32,26.32,0,0,1-11.55-3.36l-.62-.37-.31-.18-.3-.19-1.17-.79-1.1-.84c-.18-.14-.35-.29-.53-.44l-.51-.44a26.81,26.81,0,0,1-3.47-3.76Z"/><path class="cls-3" d="M71.15,79.78a22.48,22.48,0,0,1-2.41,18.56,21.8,21.8,0,0,1-2.32,3.08,22.43,22.43,0,0,1-13.3,7.24,23.18,23.18,0,0,1-7.69-.13l-.94-.2c-.16,0-.31-.07-.47-.12l-.47-.13-.47-.13-.46-.15-.91-.31a24.56,24.56,0,0,1-3.48-1.67,22.6,22.6,0,0,1-5.86-5l2.45-2.05a22.87,22.87,0,0,0,2.47,2.49l.72.59.77.57c.13.1.26.18.4.27l.41.27c.27.19.56.34.85.51a20.15,20.15,0,0,0,8,2.54,20.6,20.6,0,0,0,16.46-6,21.44,21.44,0,0,0,4.62-6.9,22.78,22.78,0,0,0,1.14-3.52,26.67,26.67,0,0,0,.51-3.23,28.3,28.3,0,0,0,0-4.81C71.09,80.47,71,79.82,71.15,79.78Z"/><path class="cls-4" d="M33.53,98.57a22.2,22.2,0,0,0,2.5,2.77l.37.33c.12.11.24.23.38.33l.79.64.84.61.88.57a20.68,20.68,0,0,0,8.42,2.92l.58.07.29,0,.29,0c.39,0,.79.05,1.18,0h.6l.59,0,.6,0,.59-.06.3,0,.3,0,.59-.09c.2,0,.39-.07.59-.11l.59-.12.58-.15c.19-.05.39-.09.58-.15l.57-.18.29-.09.28-.1a21.08,21.08,0,0,0,4.29-2.08A21.9,21.9,0,0,0,65,100.73l.2-.2.19-.21.39-.42.19-.21.18-.22.37-.43c.23-.3.46-.59.68-.88l.32-.45c.1-.15.21-.3.31-.45a21.91,21.91,0,0,0,1.95-3.71,21.45,21.45,0,0,0,1.13-3.65c0-.07,0-.15.05-.22l0-.22.08-.43c0-.14.05-.28.08-.43l.06-.42.06-.41,0-.2c0-.07,0-.14,0-.2l.07-.79a24.11,24.11,0,0,0,0-2.79c0-.83-.1-1.54-.17-2.12-.13-1.17-.23-1.82-.11-1.86a22.58,22.58,0,0,1,1,7.76,22.36,22.36,0,0,1-6,14.18,22.38,22.38,0,0,1-6.24,4.71,22.7,22.7,0,0,1-3.63,1.48,22,22,0,0,1-3.84.81,22.83,22.83,0,0,1-3.92.14h-.25l-.24,0-.49,0-.49,0-.49-.07-1-.15-1-.2c-.32-.06-.63-.16-1-.24s-.63-.17-.94-.28l-.93-.32-.91-.37-.23-.09-.22-.1-.44-.21-.44-.21-.11-.05-.11-.06-.22-.12-.86-.48-.83-.52-.21-.13L37,105l-.4-.28-.4-.28-.39-.3-.38-.31c-.13-.1-.26-.2-.38-.31l-.73-.65A24.29,24.29,0,0,1,31.68,100Z"/><path class="cls-5" d="M71.13,79.7A22.51,22.51,0,0,0,35.34,69.07a23,23,0,0,0-3.4,3.5,22.47,22.47,0,0,0-.33,27.3c-.09.07-.3,0-.63-.28a5.57,5.57,0,0,1-.57-.5l-.34-.34-.36-.41-.2-.23-.19-.25-.41-.54-.42-.61-.21-.33L28.07,96a20.86,20.86,0,0,1-1.66-3.43c-.13-.33-.24-.68-.36-1-.06-.18-.11-.36-.16-.54l-.16-.56c0-.19-.09-.38-.14-.58l-.07-.29,0-.15,0-.15c-.08-.4-.17-.81-.22-1.23l-.09-.64-.07-.65,0-.33,0-.33,0-.68c0-.11,0-.23,0-.34V84c0-.12,0-.24,0-.36l0-.36c0-.24,0-.48,0-.73a25,25,0,0,1,1.27-6l.29-.76.15-.39L26.9,75l.33-.76.37-.75.19-.38.21-.37c.14-.25.28-.5.42-.75.31-.49.6-1,.94-1.46l.25-.36.13-.18.13-.17.54-.7c.09-.12.19-.23.28-.34l.29-.34.29-.34.31-.33a25.08,25.08,0,0,1,2.67-2.5l.73-.58.76-.54c.25-.19.52-.35.78-.52l.4-.25.2-.13.2-.12.82-.47.84-.44.43-.21.44-.2.44-.2.22-.1.22-.09.9-.35.45-.16.46-.15.46-.15.47-.13c.31-.08.62-.18.93-.25l.95-.21.24-.05.24,0,.48-.08c.64-.12,1.28-.18,1.93-.26a26.57,26.57,0,0,1,11.45,1.45c.3.11.6.22.9.34l.88.37.86.4.84.43a27.29,27.29,0,0,1,3.17,2c.25.18.5.36.74.55l.71.57.69.6.33.31.33.31a27.66,27.66,0,0,1,2.39,2.61,28.3,28.3,0,0,1,2,2.8A27.33,27.33,0,0,1,75,75.23l.31.73c.11.24.19.49.29.73.19.48.34,1,.5,1.45Z"/><path class="cls-6" d="M31.61,99.87a22.49,22.49,0,0,1-3.95-8.67c0-.19-.08-.39-.12-.59s-.08-.39-.11-.59c-.06-.4-.12-.79-.16-1.19a23.61,23.61,0,0,1-.13-2.4A22.5,22.5,0,0,1,31.61,73a22.8,22.8,0,0,1,7.18-6.27A22.62,22.62,0,0,1,52.7,64.14l.59.09.59.11c.39.07.78.17,1.17.25a22.65,22.65,0,0,1,6.59,2.81,22.76,22.76,0,0,1,3.75,3A22.18,22.18,0,0,1,67,72.15l.38.47c.13.16.24.32.36.48.24.32.46.65.69,1l.32.51.16.25.15.26.3.52.28.53.14.27.13.27.26.54.23.55.12.28.11.28-3,1.15-.09-.24-.1-.24-.2-.48c-.15-.32-.29-.65-.47-1l-.12-.24-.13-.24-.27-.48L66,76.1l-.15-.24-.16-.24-.16-.24-.16-.24L65,74.67c-.24-.31-.48-.63-.74-.93A19.08,19.08,0,0,0,62.57,72a21,21,0,0,0-2-1.6A20.23,20.23,0,0,0,56,67.9a20.37,20.37,0,0,0-2.61-.77,19.34,19.34,0,0,0-2.74-.41l-.35,0-.35,0c-.23,0-.47,0-.7,0h-.7l-.7,0h-.18l-.18,0-.35,0c-.23,0-.47,0-.7.08l-.7.1-.69.13-.35.07-.34.09-.34.08-.34.09-.68.2-.17,0-.17.06-.33.12c-.45.14-.88.34-1.32.51s-.86.39-1.28.62l-.31.16-.16.08-.15.09-.61.36-.59.38-.3.19-.29.21a20.22,20.22,0,0,0-2.17,1.77l-.5.48-.48.5-.24.25-.22.26-.45.52a21.08,21.08,0,0,0-2.82,4.53l-.27.59-.24.6-.12.3-.1.3-.2.6c0,.1-.06.2-.09.3l-.09.3-.09.3c0,.1-.06.2-.08.3l-.14.6-.07.3c0,.1,0,.2-.06.3-.07.4-.15.79-.2,1.18l-.08.58c0,.19,0,.39-.05.58l0,.57,0,.57c0,.37,0,.74,0,1.11a22.37,22.37,0,0,0,.43,4,23.69,23.69,0,0,0,.9,3.26c.16.48.34.91.5,1.31s.32.76.48,1.09C31.34,99.07,31.73,99.79,31.61,99.87Z"/><path class="cls-4" d="M68.91,80.35c-.12-.35-.23-.7-.37-1s-.28-.7-.43-1.06A22.34,22.34,0,0,0,67,76.12,22.59,22.59,0,0,0,65.64,74a21.22,21.22,0,0,0-1.7-2,20.58,20.58,0,0,0-4.29-3.35L59,68.39l-.63-.33-.64-.3-.65-.28a20.7,20.7,0,0,0-8.57-1.55c-.49,0-1,0-1.48.11l-.37,0-.19,0-.18,0-.74.11-.73.15-.37.07-.36.09-.36.09-.36.1L42.7,67l-.18.06-.17.06-.35.13-.35.13-.34.14-.68.29-.67.32-.17.08-.16.09-.33.18c-.22.12-.44.23-.64.36l-.63.38-.61.41a20.6,20.6,0,0,0-2.29,1.82l-.27.24-.26.26c-.17.17-.35.34-.51.51l-.49.53-.12.13-.11.14-.23.27c-.31.36-.59.74-.88,1.12-.14.19-.27.39-.4.58l-.2.29-.18.3-.37.59-.33.6-.17.3-.15.31-.3.61a22.32,22.32,0,0,0-1.6,4.95c0,.2-.07.41-.1.61l-.05.3c0,.1,0,.2,0,.3l-.07.6c0,.2-.05.4-.06.6l0,.59,0,.29v.87c0,.19,0,.38,0,.57,0,.37,0,.74,0,1.1,0,.18,0,.36,0,.53l.05.52.07.51c0,.17,0,.34.08.5l.09.49,0,.24.05.24a23.71,23.71,0,0,0,1,3.33c.09.24.17.47.27.69l.27.64c.09.2.18.39.26.58l.12.27.12.25c.64,1.31,1.06,2,1,2.09a22.51,22.51,0,0,1-4-8.84A22.5,22.5,0,0,1,71.11,79.66Z"/><g class="cls-7"><g class="cls-8"><path class="cls-9" d="M14.8,112.77h-.14l-.15.08h0l0,0h0v0h0v.12h0a.52.52,0,0,1,0,.05s0,.05,0,.08h0v0s0,0,0,0a.36.36,0,0,1,0,0l0,0,0,0,0,0,.13-.06,0,0,.08,0V113h0a1.42,1.42,0,0,1,0-.17v0h0v0M103.74,4.34h0a4.26,4.26,0,0,0-.57,0h0a7.42,7.42,0,0,0-2.76.89l0,0-.11.06-.08,0-.07,0,0,0,0,0h0l-.29.17-.06,0h0l-.05,0h0l-.11.07-.14.08-.11.07-.06,0-.37.25-.18.12c-.33.23-.65.46-1,.7l0,0h0l-.76.6-.66.55-.37.32-.79.7,0,0h0l-.86.8c-.45.42-.91.87-1.4,1.36l-.25.25-1.2,1.23-1.43,1.51-.59.64q-1,1.05-2,2.19l0,0h0l-1.62,1.86-.71.83q-1,1.22-2.09,2.49c-3.55,4.29-7.33,9.09-11.86,15.09-1.51,2-3.06,4.07-4.68,6.26l0,0c-1.36,1.84-2.78,3.77-4.29,5.84-3.4,4.66-6.8,9.39-10.17,14.09l-6.32,8.86-1,1.47-1.09,1.53-1.11,1.55-.35.49-.1.14L39.8,80.53l-2.08,2.91-.75,1-.33.46q-2.06,2.88-4.13,5.73-1.63,2.25-3.3,4.53l-.5.68c-1.14,1.55-2.16,2.91-3.1,4.16l-.09.13-.08.11-1.2,1.58c-.82,1.07-1.68,2.19-2.58,3.32-.55.69-1.07,1.34-1.57,1.95l-.2.24-.21.25c-.62.74-1.32,1.57-2.06,2.39-.44.48-.83.89-1.2,1.26l-.25.24-.4.38-.19.17-.19.16-.27.22-.24.17,0,0-.09.06h.09v.12l2,0h.26c.06,0,.06,0,.06,0s0,0-.05,0h-.63l-.33,0-.16,0-.16,0-.28,0-.16,0-.1,0-.23.06h0l-.16,0h0l-.11,0h0l0,0h0l0,0h0l-.05,0h0l0,0h0l0,0h0l0,0,0,0h0l0,0h0l0,0v0a.36.36,0,0,0,0-.08h0v0h0a1.16,1.16,0,0,0,0-.23h0v-.15h0v-.08h0v-.05l-4.66-.15c0,.09,0,.18,0,.27s0,.26,0,.35,0,.12,0,.18l0,.23,0,.24h0c0,.08,0,.15,0,.25s0,.19.07.29.06.21.1.34.07.21.14.38.11.26.2.42.19.32.29.47a5.41,5.41,0,0,0,.41.51,5,5,0,0,0,.54.5,4.6,4.6,0,0,0,1.37.74,4.71,4.71,0,0,0,.69.18l.49.06a4.62,4.62,0,0,0,.65,0,5.15,5.15,0,0,0,1.42-.3l.44-.18h0l.15-.07.21-.11.3-.17.26-.16c.35-.22.61-.43.83-.59s.49-.4.65-.55c.36-.32.71-.65,1.09-1,.59-.59,1.17-1.22,1.88-2,.56-.63,1.12-1.3,1.73-2,1-1.23,2.07-2.56,3.31-4.16,1-1.28,2-2.69,3.24-4.29,4.44-6,8.92-12.31,13.12-18.28L57.14,64.49c4.25-6,9.29-13.16,14.47-20.27,2.74-3.75,5.21-7.08,7.56-10.17,2.88-3.8,5.45-7.07,7.85-10,1.44-1.76,2.78-3.35,4.08-4.84,1.53-1.76,2.92-3.27,4.23-4.62.76-.79,1.48-1.49,2.19-2.16s1.54-1.4,2.24-2c.39-.32.77-.6,1.13-.86l.56-.38.32-.2a2.84,2.84,0,0,1,.41-.22,1.36,1.36,0,0,1,.47-.11h.08l.17,0a.75.75,0,0,1,.22.11,1,1,0,0,1,.3.39,2.24,2.24,0,0,1,.16.46c0,.07,0,.15,0,.24V10h0v.11c0,.11,0,.22,0,.33a23.14,23.14,0,0,1,0,2.84c0,.91-.11,1.89-.23,3-.19,1.8-.49,3.79-.91,6.07-.35,1.91-.76,3.89-1.25,6.07-.82,3.63-1.81,7.55-3,12-1,3.71-2.14,7.52-3.41,11.66-2.19,7.13-4.59,14.39-7.32,22.21-2.5,7.13-5,14-7.52,20.41-1.35,3.45-2.58,6.52-3.78,9.37l-.91,2.16-.71,1.66c-.56,1.29-1.05,2.36-1.54,3.37-.32.65-.59,1.19-.86,1.69a15.22,15.22,0,0,1-1,1.64,3.49,3.49,0,0,1-.31.37,1.25,1.25,0,0,1-.19.16.38.38,0,0,1-.22.08h0a.26.26,0,0,1-.18-.16.89.89,0,0,1-.06-.2,2.49,2.49,0,0,1,0-.41l0-1.22c0-.09,0-.18,0-.26s0-.1,0-.15,0-.19,0-.29,0-.35,0-.53l-.09-1s0-.09,0-.13v-.07l-.08-.57c0-.22-.06-.44-.11-.66l-.16-.83-.2-.82c-.05-.23-.12-.47-.19-.69l-.22-.73-.38-1.08c0-.1-.08-.22-.13-.33l0-.12-.36-.9-.13-.28-.07-.16-.4-.87L67,101.4l-.7-1.18-.74-1.12L64.83,98l-.35-.44-.19-.23-.12-.15c-.13-.17-.27-.34-.42-.5l-.22-.24c-.3-.34-.59-.67-.9-1l-.56-.57-.58-.54a27.31,27.31,0,0,0-4.63-3.44,26.7,26.7,0,0,0-4.35-2.06l-.5-.18-.09,0-.16-.05-1.19-.36L50,88.1,49.7,88l-.43-.1L49,87.87l-.14,0-.34-.06c-.41-.08-.79-.15-1.16-.19l-.35,0-.75-.08h-.15l-1-.05-.71,0-.41,0h0l.9.08h.17l1.19.17.12,0h0l.13,0h0l.83.16h0l.2,0,.24.05.34.09.35.09h0c.28.07.57.14.85.23l.18.05.28.08.09,0,.13,0,.41.14.15.05.7.25.22.08.16.07,1.05.44,1.07.51.12.06.14.08.8.43.09,0,.2.11.82.49c.3.18.6.38.9.58l.38.26,0,0h0a25.82,25.82,0,0,1,2.9,2.35l0,0,.2.19q.4.38.8.79l0,0,0,0q.4.42.79.87l.07.07.08.1.55.66.11.13.16.21.13.18.11.15.3.39h0l.39.55.21.31.36.55.19.3.06.1.08.13.27.44.25.45.13.24.17.31.23.46h0l.26.53,0,.1.14.3.08.19.18.43.11.25.1.23.08.2.05.14.31.83v.13l.39,1.25v0l0,.1h0l0,.06.16.7.11.45c0,.11.06.23.08.35v.12s0,.08,0,.13v.06h0V109l.06.41v.06l0,.33h0v0l.09.66h0v.1h0l.19,1.84v0h0v.08h0v.11l.15.67.17.76,0,.1v0l.07.36,0,.08,0,.23.06.3h0v.07h0l.09.7,0,.31v.2s0,.09,0,.13v.14h0v.49c0,.06,0,.13,0,.19v.12h0v0a3.49,3.49,0,0,0,0,.38l0,.13v0h0l0,.08v0a.73.73,0,0,0,.06.12.36.36,0,0,0,.08.09h0l.11,0h.19l.05,0,0,0,.1-.06.17-.11.15-.12.29-.27,0,0,.27-.29.29-.33.4-.49.32-.42.43-.59c.19-.27.37-.54.55-.82l.34-.54.45-.78,0,0,.07-.13.48-.88.42-.82.34-.67.37-.76.24-.49.1-.2.09-.18.52-1.11h0l.48-1,0-.09.37-.82,0-.07.15-.32.46-1v0l1-2.2.06-.13c.44-1,.89-2.06,1.36-3.17l.39-.92h0l0,0,.12-.28.44-1c.79-1.89,1.59-3.83,2.41-5.87l.78-1.95L85.25,88q.86-2.16,1.71-4.36v0l.09-.24,0-.06.08-.21,0-.08.07-.19,0-.13.05-.13.06-.16,0-.11.07-.19,0-.09.08-.2,0-.08.09-.23v0l.09-.24,0,0L88,81h0l.1-.27h0l1.28-3.39v0l.1-.25v0l.1-.26,0,0,.09-.25h0l.1-.27v0l.1-.27h0q.79-2.11,1.56-4.24c2.06-5.67,4-11.22,5.75-16.53q.59-1.79,1.15-3.52c2-6.26,3.68-11.86,5.08-17.07.48-1.78.91-3.46,1.3-5.07v0l0-.12v0l0-.11v0l0-.12h0q.2-.85.39-1.67c.31-1.37.59-2.65.84-3.87h0V23.3c.18-.92.35-1.82.51-2.7.12-.71.24-1.4.34-2.08l.06-.41c.08-.53.14-1,.2-1.51s.09-.8.13-1.18.06-.65.09-1,0-.63.06-.94V13c0-.63,0-1.21,0-1.76v-.06h0q0-.13,0-.26t0-.4v-.11q0-.21,0-.41V9.82l0-.34V9.41l0-.27v0l0-.28,0-.18,0-.26q-.06-.32-.14-.62l0-.12L107,7.28v0l-.12-.34h0v0h0v0h0v0h0l-.11-.23h0v0l-.09-.18-.06-.12q-.11-.19-.22-.36l-.09-.12-.08-.11-.21-.25a3.49,3.49,0,0,0-.42-.38l0,0h-.1l0,0h0l0,0h0l0,0h0l0,0h0l0,0h0l0,0h0l0,0h0l0,0h0l0,0h0l0,0h0l0,0h0l0,0h0l0,0h0a3.28,3.28,0,0,0-.57-.18,3.61,3.61,0,0,0-.53-.07"/><path d="M70,118.6h0m.07,0h0m.1,0,0,0h0m-.49-.07h0l0,0v0l0,0a.36.36,0,0,1-.08-.09m-.11-.3v.06h0v0m1.36-.24,0,0,0,0h0m-1.42-.64v.19c0-.06,0-.13,0-.19m-55.15-3.84h0m.06,0h0m-.08,0v0h0m.12,0h0m0,0h0m-.14-.06h0v0h0m.24,0h0m.08,0,0,0h0l0,0h0m-.23,0v0a.36.36,0,0,0,0,0m.07,0,0,0h0l0,0m.36-.06h0l-.07,0h0l.11,0m-.16,0,0,0h0m-.27,0s0,0,0,.07h0s0,0,0-.08m-.09-.05h0m55.12,3.73v0h0m-55-3.75h0v0m.35,0h0v.06h0V113m-.45-.07v0m.08-.06v0h0v0m0,0h0m.06,0h0l0,0m-.17,0h0v0h0v0m55.14,3.7v.13s0-.09,0-.13m-54.58-3.83H14.8l-.14.08h.14v0h.09v-.12m54.56,3.63v.09h0v-.11m2.75.08-.32.42.06-.08.16-.21.1-.13m-57.06-4-.24.17.24-.17m.64-.54-.07.06-.3.26.19-.16.19-.17m53.52,3.42.1.71-.09-.7h0m-.13-.63,0,.23,0-.23m-.1-.47,0,.13h0l.05.25-.07-.36v0m4.43.25-.34.54c-.18.28-.36.55-.55.82l0,0c.26-.37.52-.76.76-1.16l.1-.17M17.64,110l-.35.38-.25.26,0,0h0l-.45.47-.36.36.25-.24c.37-.37.76-.78,1.2-1.26m51.1,2.59,0,.21.12.53-.15-.67v-.08m0-.11v0m6.25-.68-.42.82-.48.88.34-.62.2-.38.23-.45.13-.25m-6.44-1.19,0,.36,0,.45.09.88,0,.16-.19-1.84h0m-.11-.79v0h0m-.12-.8.07.47v-.06l-.06-.41m-.15-.76.06.26v.09c0-.12-.05-.24-.08-.35m8.47.13-.52,1.11.22-.47.3-.64m-8.76-1.34v0h0v.07l.15.64-.16-.7,0-.06h0m9.66-.62-.37.82,0-.07.34-.75m.64-1.42-.46,1v0l.08-.18.36-.81v0M66.74,103.9l0,0,.07.17v0l-.11-.25m-.41-.93.14.3-.14-.3M25.62,100l-.18.23.08-.11.09-.13M66,102.33h0m13.17.32-.06.13-1,2.2.16-.36.49-1.12.37-.85m-13.71-1.33.13.24-.13-.24m-.6-1,.07.12h0l-.08-.13m-1.63-2.37.06.08h0l0,.06-.11-.15m-1-1.18.55.66-.55-.66m-.94-1,.27.29.28.3.25.27q-.39-.45-.79-.87m-1-1q.4.38.78.77l.22.22q-.39-.41-.8-.79l-.2-.19m-3-2.4h0M56.95,92,57,92l.33.23L56.95,92m-1.72-1.07.82.49-.82-.49m-1.08-.59.31.16.19.1.3.16-.8-.43m-2.38-1.08.14.06.71.29,0,0,.1,0,.2.09.07,0,.66.31.19.09-1.07-.51-1.05-.44m-1.09-.4.15.06.34.12.2.07-.7-.25m-1.06-.34.28.08-.28-.08m-2-.52.16,0,.42.1h0L47.85,88,47.62,88m-1.2-.24h0m-2.65-.27v0h0a0,0,0,0,1,0,0m1.19.07h0M85.25,88l-.54,1.37-.78,1.95.25-.62L85.25,88M41.81,77.7l-.1.14.1-.14m1.46-2-1.11,1.55,1.11-1.55m46.14,1.57v0m.1-.27v0m.11-.3,0,0,0,0m.1-.26h0m.11-.29v0m.1-.28h0m-38.21-12L50,66.16l-3.38,4.74-1.26,1.76,6.32-8.86m14.48-20,0,0v0l0,0m38.55-14.43c-.39,1.61-.82,3.29-1.3,5.07-1.4,5.21-3.06,10.81-5.08,17.07l.16-.49c1.8-5.6,3.31-10.67,4.61-15.41.6-2.21,1.13-4.27,1.61-6.24m0-.14,0,.12,0-.12m0-.15,0,.11,0-.11m0-.15,0,.12,0-.12m.4-1.68q-.19.82-.39,1.67l.29-1.21,0-.11.08-.35m.84-3.87h0m0-.11v0h0v0m-19-6h0m2.59-2.87c-.59.64-1.2,1.31-1.83,2h0l0,.06-.07.08,0,0-.08.09,0,0-.07.08,0,0,0,0-.34.39q1-1.14,2-2.19l.59-.64m17.75-1v0m0-2.28c0,.55,0,1.14,0,1.76v.26c0-.33,0-.65,0-.95s0-.73,0-1.08m0-.07h0m0-.78v.11q0,.2,0,.4,0-.2,0-.4v-.12m-.11-1.2,0,.27V9.35l0-.18v0m-4.7-.45h-.08a1.36,1.36,0,0,0-.47.11,2.84,2.84,0,0,0-.41.22l-.32.2-.56.38c-.36.25-.74.54-1.13.86-.7.56-1.43,1.21-2.24,2s-1.42,1.37-2.19,2.16c-1.31,1.35-2.69,2.86-4.23,4.62-1.3,1.5-2.64,3.08-4.08,4.84-2.4,2.93-5,6.2-7.85,10-2.35,3.09-4.82,6.42-7.56,10.17-5.18,7.11-10.22,14.23-14.47,20.27L43.41,84.05c-4.21,6-8.68,12.29-13.12,18.28-1.2,1.61-2.26,3-3.24,4.29-1.24,1.61-2.29,2.93-3.31,4.16-.6.73-1.17,1.4-1.73,2-.71.8-1.29,1.43-1.88,2-.38.39-.73.72-1.09,1-.16.14-.39.34-.65.55s-.48.37-.83.59l-.26.16-.3.17-.21.11-.15.07h0l-.44.18a5.15,5.15,0,0,1-1.42.3,4.62,4.62,0,0,1-.65,0L13.6,118a4.71,4.71,0,0,1-.69-.18,4.6,4.6,0,0,1-1.37-.74,5,5,0,0,1-.54-.5,5.41,5.41,0,0,1-.41-.51c-.1-.15-.2-.3-.29-.47s-.14-.27-.2-.42-.11-.29-.14-.38-.08-.25-.1-.34,0-.19-.07-.29,0-.17,0-.25h0l0-.24,0-.23c0-.06,0-.13,0-.18s0-.23,0-.35,0-.18,0-.27l4.66.15,0-.07v0l-4.68-.15h0v0c0,.1,0,.21,0,.32s0,.26,0,.36,0,.12,0,.19l0,.23,0,.25h0c0,.08,0,.15,0,.25s0,.2.07.29.06.21.1.34.07.22.15.39.11.26.2.42a5.47,5.47,0,0,0,.29.48,5.6,5.6,0,0,0,.42.52,5.17,5.17,0,0,0,.55.51,4.94,4.94,0,0,0,.67.44,4.77,4.77,0,0,0,1.43.49l.5.06a4.77,4.77,0,0,0,.67,0,5.32,5.32,0,0,0,1.45-.31l.45-.18h0l.15-.07.22-.11.31-.17.27-.16c.35-.23.62-.43.83-.6s.49-.4.66-.55c.36-.32.71-.65,1.1-1,.59-.6,1.17-1.22,1.88-2,.56-.64,1.12-1.3,1.73-2,1-1.23,2.07-2.56,3.31-4.17,1-1.28,2-2.69,3.25-4.29,4.44-6,8.92-12.31,13.13-18.28L57.22,64.54c4.25-6,9.29-13.16,14.47-20.26,2.74-3.75,5.21-7.08,7.56-10.17,2.88-3.79,5.45-7.07,7.85-10,1.44-1.76,2.77-3.35,4.07-4.84,1.53-1.76,2.92-3.27,4.22-4.62.76-.79,1.48-1.49,2.18-2.16s1.54-1.4,2.23-2c.39-.31.77-.6,1.12-.86l.55-.38.31-.2a2.74,2.74,0,0,1,.4-.21,1.26,1.26,0,0,1,.44-.1h.07l.15,0a.68.68,0,0,1,.2.1,1,1,0,0,1,.27.35,2.18,2.18,0,0,1,.15.45c0,.07,0,.15,0,.24s0,.05,0,.08v.12c0,.11,0,.22,0,.33a23.11,23.11,0,0,1,0,2.83c0,.91-.11,1.89-.23,3-.19,1.8-.49,3.79-.9,6.07-.35,1.91-.76,3.89-1.24,6.06-.82,3.63-1.81,7.54-3,12-1,3.71-2.14,7.52-3.41,11.65-2.19,7.13-4.59,14.39-7.32,22.21-2.5,7.13-5,14-7.52,20.4-1.35,3.45-2.58,6.52-3.77,9.37l-.91,2.16-.71,1.66c-.56,1.29-1.05,2.36-1.53,3.36-.32.65-.59,1.19-.85,1.68a15.16,15.16,0,0,1-1,1.63,3.47,3.47,0,0,1-.3.36,1.18,1.18,0,0,1-.17.15.3.3,0,0,1-.17.06h0a.17.17,0,0,1-.12-.11.76.76,0,0,1-.05-.18,2.39,2.39,0,0,1,0-.39l0-1.22c0-.09,0-.18,0-.27s0-.1,0-.14v-.29c0-.18,0-.35,0-.53l-.09-1s0-.09,0-.14v-.07l-.08-.57c0-.22-.06-.45-.11-.67l-.16-.83-.2-.82c-.05-.24-.12-.47-.19-.7l-.22-.74-.38-1.08c0-.11-.08-.22-.13-.33l0-.12-.36-.9-.13-.29-.07-.15-.4-.87-.65-1.25-.7-1.19L65.67,99,64.9,98l-.35-.44-.19-.23-.12-.15c-.13-.17-.27-.34-.42-.5l-.21-.24c-.3-.34-.59-.67-.9-1l-.56-.57-.58-.54a27.38,27.38,0,0,0-4.64-3.45,26.85,26.85,0,0,0-4.36-2.07l-.5-.18-.09,0-.16-.06-1.19-.36L50,88l-.29-.07-.43-.1L49,87.78l-.14,0-.34-.07c-.41-.08-.8-.15-1.16-.19l-.35,0-.75-.08h-.16l-1-.05-.72,0c-.44,0-.57.07-.61.11l.2,0,.41,0,.71,0,1,.05h.15l.75.08.35,0c.36,0,.75.11,1.16.19l.34.06.14,0,.27.06.43.1.29.07.6.15,1.19.36.16.05.09,0,.5.18a26.7,26.7,0,0,1,4.35,2.06,27.31,27.31,0,0,1,4.63,3.44l.58.54.56.57c.31.3.59.63.9,1l.22.24c.15.16.28.33.42.5l.12.15.19.23.35.44.77,1.06.74,1.12.7,1.18.65,1.24.4.87.07.16.13.28.36.9,0,.12c0,.11.09.23.13.33l.38,1.08.22.73c.07.23.14.46.19.69l.2.82.16.83c0,.22.08.44.11.66l.08.57v.07s0,.09,0,.13l.09,1c0,.18,0,.35,0,.53s0,.2,0,.29,0,.1,0,.15,0,.17,0,.26l0,1.22a2.49,2.49,0,0,0,0,.41.89.89,0,0,0,.06.2.26.26,0,0,0,.18.16h0a.38.38,0,0,0,.22-.08,1.25,1.25,0,0,0,.19-.16,3.49,3.49,0,0,0,.31-.37,15.22,15.22,0,0,0,1-1.64c.27-.5.54-1,.86-1.69.48-1,1-2.07,1.54-3.37l.71-1.66.91-2.16c1.2-2.85,2.43-5.92,3.78-9.37,2.49-6.41,5-13.27,7.52-20.41C90.31,66.43,92.7,59.17,94.89,52c1.27-4.14,2.39-7.95,3.41-11.66,1.22-4.41,2.21-8.33,3-12,.49-2.17.9-4.16,1.25-6.07.42-2.28.71-4.27.91-6.07.12-1.1.19-2.07.23-3a23.14,23.14,0,0,0,0-2.84c0-.11,0-.22,0-.33V10h0V9.93c0-.09,0-.17,0-.24a2.24,2.24,0,0,0-.16-.46,1,1,0,0,0-.3-.39.75.75,0,0,0-.22-.11l-.17,0m4.62,0,0,.18,0-.16v0m-10.54-1-.65.54-.3.25-.09.08.37-.32.66-.55M107,7.28l.12.38,0,.12,0-.17-.1-.33m0,0v0m-.13-.35h0m0,0v0m0,0v0h0m0,0v0h0m0,0h0m-.11-.24h0M99.3,5.84h0l-.13.08h0l-.39.26L99.12,6l.06,0,.11-.07m7.22.35.06.12.09.18-.05-.1,0-.07,0,0-.05-.09M99.6,5.65l0,0h0l.05,0m0,0h0m.36-.21-.1.06-.24.14.06,0,.29-.17m.35-.19h0l-.09,0,.11-.06m5.59.11.21.25-.17-.2,0-.05M105.45,5h0m0,0h0m0,0h0m0,0,0,0,0,0m0,0,0,0,0,0m0,0,0,0,0,0m0,0,0,0,0,0m0,0,0,0,0,0m0,0,0,0,0,0m0,0,0,0,0,0m0,0,0,0,0,0m0,0,0,0,0,0m0,0,0,0,0,0m0,0,0,0,0,0m0,0,0,0,0,0m0,0,0,0,0,0m0,0h0m-1.13-.26a4.12,4.12,0,0,0-.57,0,4.26,4.26,0,0,1,.57,0"/><path class="cls-10" d="M104,1.85l-.33,0H103a7.89,7.89,0,0,0-1.33.21l-.55.15-.18.06-.59.22-.46.19-.19.09-.2.1L99,3.07l-.63.35L98,3.7l-.78.51c-.47.32-.95.67-1.45,1.05-.84.65-1.67,1.35-2.62,2.2-1.46,1.32-3,2.78-4.71,4.61C87,13.5,85.6,15.06,84,16.84c-2.54,2.9-5.14,6-8.18,9.79-2.42,3-5,6.27-7.75,9.92-4.38,5.73-8.9,11.82-14.67,19.74-4.41,6.05-8.69,12-12.83,17.78l-1.27,1.76C35,81.9,30.85,87.63,26.81,93.12c-2.42,3.29-4.37,5.88-6.13,8.15-1.12,1.45-2.1,2.68-3,3.78-.54.65-1,1.23-1.49,1.77s-1,1.14-1.44,1.6l.58.55c.35-.37.72-.78,1.13-1.25s1-1.15,1.58-1.86c2.25-2.72,4.47-5.64,6.35-8.14,4.15-5.54,8.4-11.44,13.14-18l4.21-5.88c3.15-4.4,6.41-9,9.72-13.54,4-5.5,9.25-12.76,14.81-20.15,2.81-3.73,5.35-7,7.79-10.15,3-3.79,5.65-7.08,8.15-10,1.51-1.79,2.91-3.39,4.29-4.92,1.64-1.81,3.12-3.38,4.54-4.78.85-.84,1.64-1.6,2.43-2.31.94-.85,1.8-1.57,2.63-2.21.5-.39,1-.73,1.44-1.05l.77-.5.11-.07.35-.21.54-.3,0,0a10.79,10.79,0,0,1,2.45-1,6.8,6.8,0,0,1,2.06-.19l.44,0a5.17,5.17,0,0,1,1.2.33,5,5,0,0,1,1.08.62,5.91,5.91,0,0,1,1.61,1.88,8,8,0,0,1,.52,1.16,11.2,11.2,0,0,1,.36,1.25c.09.39.16.81.22,1.3l.06.59c0,.14,0,.29,0,.46a28.94,28.94,0,0,1,0,3.53c-.06,1-.17,2.13-.33,3.35-.25,2-.6,4-1.1,6.45-.4,2-.87,4-1.42,6.25-.92,3.7-2,7.67-3.35,12.12-1.13,3.74-2.34,7.57-3.72,11.7-2.39,7.17-5,14.41-7.93,22.16-2.7,7.1-5.44,13.93-8.13,20.29-1.45,3.42-2.79,6.47-4.09,9.33l-.52,1.12-.56,1.21c-.57,1.22-1.06,2.26-1.52,3.18-.56,1.14-1.06,2.12-1.54,3a24.08,24.08,0,0,1-1.56,2.53A13,13,0,0,1,72.1,118c-.25.24-.48.45-.7.64a7.26,7.26,0,0,1-.71.54,3.43,3.43,0,0,1-.39.23l-.22.09a.94.94,0,0,1-.27.05h-.05a.48.48,0,0,1-.26-.09.57.57,0,0,1-.16-.18,1.23,1.23,0,0,1-.12-.35c0-.06,0-.11,0-.17s0-.11,0-.17l-.11-.68v-.06s0-.07,0-.11l-.29-1-.35-1c0-.06,0-.12-.06-.21L67.91,114a.22.22,0,0,1,0-.07s0,0,0,0l-.16-2.3-.23-2.22-.41-1.94v-.05l-.44-1.49v0l-.38-1.08,0-.13-.42-1a25.91,25.91,0,0,0-1.56-3c-.2-.36-.43-.7-.65-1l-.23-.35-.11-.17-.64-.88L62.41,98l-.49-.61-.09-.11-.15-.19-.75-.85L60.76,96l-.08-.08-.26-.26a26.86,26.86,0,0,0-4.17-3.5A27.35,27.35,0,0,0,52.39,90a25.91,25.91,0,0,1,3.53,2A26.78,26.78,0,0,1,60,95.38a27.66,27.66,0,0,1,3.8,4.79l.62,1.06.13.24.07.13.39.74.23.48.13.29.18.39.11.26.06.14.33.81.42,1.2,0,.06L67,107.5l0,.12.39,1.89a1,1,0,0,1,0,.15v.05l.1,1,0,.45c0,.41.08.83.1,1.29l.11,1.84v0a.41.41,0,0,0,0,.06l.45,1.48c0,.07,0,.15.06.19l.41,1.07,0,.12,0,.06.26.79.18.87a1.91,1.91,0,0,0,.07.3.79.79,0,0,0,.16.29.42.42,0,0,0,.2.12l.11,0h.16a1.69,1.69,0,0,0,.43-.14l.37-.2a7.48,7.48,0,0,0,.7-.48,11.75,11.75,0,0,0,1.44-1.32,10.69,10.69,0,0,0,.78-.94c.25-.34.52-.75.8-1.19s.52-.86.81-1.39.54-1,.8-1.51c.51-1,1-2.06,1.6-3.21l.79-1.67.57-1.21c1.29-2.77,2.63-5.76,4.09-9.14,2.67-6.19,5.41-12.89,8.13-19.9,2.88-7.43,5.55-14.74,7.94-21.73,1.38-4,2.61-7.8,3.76-11.47,1.34-4.3,2.46-8.18,3.44-11.87.58-2.19,1.08-4.19,1.51-6.11.52-2.29.94-4.34,1.27-6.28a59.56,59.56,0,0,0,.8-6.58,28,28,0,0,0,0-3.57l0-.51,0-.34,0-.35a12.57,12.57,0,0,0-.27-1.38,8.87,8.87,0,0,0-1-2.52,6.28,6.28,0,0,0-1.78-1.89,5.7,5.7,0,0,0-2.42-.93l-.33,0"/><path d="M69.78,118.57l0,0,.08,0h0l-.11,0m.49-.09-.1.06h0l-.05,0,.13-.06.06,0m-.65-.14a.52.52,0,0,0,.1.17l0,0v0l0,0h0a.73.73,0,0,1-.06-.12m1.3-.41,0,0-.29.27c.12-.1.22-.2.33-.31m-1.39-.29c0,.06,0,.13,0,.19a2.16,2.16,0,0,0,.05.38v-.06l0-.13a3.49,3.49,0,0,1,0-.38m0-.59q0,.15,0,.31v-.31m2.45-.32-.06.08-.4.49.41-.5.05-.07m-2.48-.33c0,.1,0,.2,0,.3v-.29h0m-.17-1.2v0m0,0h0m4.12-.58c-.25.4-.5.79-.76,1.16l0,0-.43.59-.1.13c.41-.54.79-1.08,1.14-1.64l.17-.27m-56.14-4.23-.28.3h0l0,0,.25-.26m51.5,2.42.34,1.53,0-.13,0-.1-.17-.76-.12-.53m5.62.08-.34.62-.07.13,0,0,.43-.78m-5.71-.58,0,.18v0h0v0l0-.16M68.56,111l0,.45,0-.45m7.12-.6-.37.76-.34.67-.13.25c.26-.51.54-1.06.84-1.68m-7.39-1.45.23,1.59h0l-.09-.66v0l0-.33-.07-.47v-.08h0m0-.25,0,.12v.07s0-.09,0-.13v-.06m8.08.35-.22.47-.09.18.31-.65m-54.65-3.85c-.58.73-1.17,1.46-1.76,2.18l.2-.24c.5-.61,1-1.25,1.57-1.95m46.22,2v.05l.28,1.2,0,.1-.06-.26-.11-.45-.15-.64m0-.08v0h0m0-.16v0h0v0m9.28.41-.48,1,.48-1m-9.7-1.76,0,.06v-.06m10.38.26-.08.18v0l-.15.32.16-.36.07-.17m-10.7-1.12.3.81h0l-.31-.83m-.24-.61v0l.1.24-.1-.23v0m11.5.51-.16.36V105l.06-.13.13-.29m-11.77-1.15,0,0,.18.43,0,0-.18-.43m-1.6-3q.6,1,1.12,2l.15.31.05.1-.26-.53h0l-.23-.46-.17-.31-.13-.24-.25-.45-.27-.44h0m-.68-1.07q.28.42.55.85l-.19-.3-.36-.55m-.6-.87.39.55-.39-.55M63.32,98l.35.46-.3-.39,0-.06h0M29.21,95.21c-1.19,1.62-2.39,3.24-3.6,4.85l-1.37,1.8,1.2-1.58.18-.23c.94-1.25,2-2.61,3.1-4.16l.5-.68m51.73,3.36-.39.92c-.47,1.11-.92,2.15-1.36,3.17l-.37.85.35-.81c.57-1.31,1.17-2.7,1.77-4.12m0,0,0,0,0,0M61.63,96l.28.3-.28-.3M57,92h0A27.71,27.71,0,0,1,60.62,95l.48.48q-.38-.39-.78-.77l0,0a25.82,25.82,0,0,0-2.9-2.35h0l0,0L57,92M54.46,90.5l.19.1-.19-.1M53,89.8l.66.31L53,89.8m-.41-.18.14.06-.1,0,0,0M51.18,89l.74.28-.14-.06-.16-.07-.22-.08-.2-.07m-2.63-.82h0c.76.2,1.52.43,2.26.69l-.15-.06-.15-.05-.41-.14-.13,0-.09,0-.28-.08-.18-.05c-.28-.09-.57-.16-.85-.23h0M47.42,88l.78.18-.42-.1-.16,0-.2,0h0m-1.16-.22.33.06h0l-.13,0h0l-.12,0m-1.36-.19.16,0H44.9M36.64,85c-1.35,1.88-2.73,3.8-4.13,5.73q2.07-2.86,4.13-5.73M87,83.65q-.85,2.2-1.71,4.36l-1.08,2.7-.25.62c-.82,2-1.62,4-2.41,5.87,1.06-2.52,2.11-5.12,3.22-7.9q1.11-2.8,2.22-5.65m.1-.27-.09.24.09-.24m.1-.27-.08.21.08-.21m.1-.26L87.2,83l.07-.19m.1-.26-.05.13.05-.13m.11-.27,0,.11,0-.11m.1-.27,0,.09,0-.09m.11-.27,0,.08,0-.08m.1-.27v0m.11-.28,0,0,0,0m.1-.27h0m.11-.28h0M46.66,70.89l-2.07,2.9-6.88,9.65,2.08-2.91,1.91-2.68.1-.14.35-.49,1.11-1.55,1.09-1.53,1-1.47,1.26-1.76M98.55,51.06l-.16.49q-.56,1.73-1.15,3.52c-1.76,5.31-3.69,10.86-5.75,16.53l.12-.34C93.94,64.86,96,58.88,97.93,53l.62-1.92M66.19,43.86c-2.1,2.83-4.32,5.87-6.77,9.25-3.13,4.32-6.28,8.7-9.38,13.05l1.69-2.36c3.36-4.7,6.77-9.43,10.17-14.09,1.51-2.06,2.93-4,4.29-5.84v0m39-16.1L104.87,29h0l0,.12v0l0,.11v0l0,.12v0c-.48,2-1,4-1.61,6.24l.32-1.19c.64-2.39,1.2-4.61,1.68-6.7m.94-4.33h0c-.24,1.21-.52,2.5-.84,3.87l-.08.35q.31-1.33.58-2.6.18-.83.34-1.62m0-.09h0v0M84.85,20l-2,2.38-.09.11q1.06-1.27,2.09-2.49M107,18.52c-.1.68-.21,1.37-.34,2.08l.06-.34c.1-.6.19-1.18.28-1.74M87.55,16.88q-1,1.1-2,2.29l1.62-1.86h0l0,0,.34-.39m.07-.08,0,0,0,0m.09-.1,0,0,0,0m.1-.11,0,0,0,0m.12-.13,0,.06,0-.06m19.3.15c-.06.48-.13,1-.2,1.51.07-.52.14-1,.2-1.51m-16-3.68c-.64.67-1.3,1.37-2,2.13l-1.26,1.39c.63-.7,1.23-1.37,1.83-2l1.43-1.51m1.45-1.48-.08.08-.16.16.25-.25m14.92.82c0,.3,0,.62,0,.95v.3c0,.31,0,.62-.06.94,0-.52.07-1,.09-1.5q0-.35,0-.69m-12.65-3-.86.8.86-.8m0,0h0m12.57.66q0,.2,0,.41v.1c0-.18,0-.35,0-.51M95.85,8.45,95,9.23l.79-.7.09-.08m11.56.72,0,.18,0-.18M97.57,7h0m9.52.56,0,.17q.08.3.14.62l0,.26v0a9.62,9.62,0,0,0-.23-1l0-.06M98.57,6.32l-.48.34L97.61,7c.31-.24.63-.47,1-.7m8.24.48h0v0m-7.65-.87h0m7.46.46.05.1v0h0l.11.23h0v0h0q-.09-.21-.19-.4m-7.18-.63,0,0-.12.07h0l.14-.08m.55-.32-.28.16,0,0-.1.06,0,0h0l.24-.14.1-.06h0m6.31.4q.12.17.22.36l.05.09a4.6,4.6,0,0,0-.28-.45m-6-.57-.17.09.08,0,.09,0M105.49,5a3.49,3.49,0,0,1,.42.38l0,.05-.22-.23-.24-.2m-1.22-.56a3.28,3.28,0,0,1,.57.18h0l-.34-.12-.24-.06M104,1.76l-.33,0H103a8,8,0,0,0-1.34.21l-.56.16-.18.06-.59.22-.46.19-.2.09-.2.1L99,3l-.63.35-.47.28-.78.51c-.47.32-1,.67-1.45,1.06C94.82,5.84,94,6.54,93,7.39c-1.47,1.32-3,2.79-4.72,4.62C87,13.44,85.53,15,84,16.79c-2.54,2.9-5.14,6-8.18,9.79-2.42,3-5,6.27-7.76,9.92-4.38,5.73-8.9,11.82-14.67,19.74-4.41,6.05-8.69,12-12.83,17.78l-1.27,1.76c-4.36,6.07-8.48,11.79-12.51,17.28-2.42,3.29-4.37,5.88-6.13,8.15-1.12,1.44-2.1,2.68-3,3.78-.54.65-1,1.23-1.49,1.77s-1,1.16-1.47,1.63l0,0,.65.61.06-.06-.58-.55c.44-.47.91-1,1.44-1.6s1-1.12,1.49-1.77c.9-1.1,1.89-2.34,3-3.78,1.76-2.27,3.71-4.86,6.13-8.15,4-5.48,8.16-11.21,12.51-17.28l1.27-1.76C44.73,68.31,49,62.35,53.42,56.3c5.77-7.92,10.29-14,14.67-19.74,2.79-3.66,5.33-6.9,7.75-9.92,3-3.78,5.64-6.89,8.18-9.79,1.57-1.78,3-3.35,4.36-4.77,1.75-1.83,3.25-3.3,4.71-4.61,1-.85,1.78-1.55,2.62-2.2.5-.39,1-.73,1.45-1.05L98,3.7l.46-.28L99,3.07l.44-.22.2-.1.19-.09.46-.19.59-.22.18-.06.55-.15A7.89,7.89,0,0,1,103,1.84h.66l.33,0,.33,0a5.7,5.7,0,0,1,2.42.93,6.28,6.28,0,0,1,1.78,1.89,8.87,8.87,0,0,1,1,2.52,12.57,12.57,0,0,1,.27,1.38l0,.35,0,.34,0,.51a28,28,0,0,1,0,3.57,59.56,59.56,0,0,1-.8,6.58c-.33,1.93-.75,4-1.27,6.28-.44,1.92-.93,3.92-1.51,6.11-1,3.69-2.11,7.57-3.44,11.87-1.14,3.67-2.37,7.42-3.76,11.47-2.4,7-5.07,14.3-7.94,21.73-2.72,7-5.45,13.71-8.13,19.9-1.46,3.38-2.8,6.37-4.09,9.14l-.57,1.21-.79,1.67c-.55,1.15-1.09,2.23-1.6,3.21-.27.52-.54,1-.8,1.51s-.56,1-.81,1.39-.55.85-.8,1.19a10.69,10.69,0,0,1-.78.94,11.75,11.75,0,0,1-1.44,1.32,7.48,7.48,0,0,1-.7.48l-.37.2a1.69,1.69,0,0,1-.43.14h-.16l-.11,0a.42.42,0,0,1-.2-.12.79.79,0,0,1-.16-.29,1.91,1.91,0,0,1-.07-.3l-.18-.87-.26-.79,0-.06,0-.12-.41-1.07s0-.11-.06-.19l-.45-1.48a.41.41,0,0,1,0-.06v0l-.11-1.84c0-.46-.06-.88-.1-1.29l0-.45-.1-1v-.05a1,1,0,0,0,0-.15L67,107.62l0-.12L66.53,106l0-.06-.42-1.2-.33-.81-.06-.14-.11-.26-.18-.39-.13-.29-.23-.48-.39-.74-.07-.13-.13-.24-.62-1.06A27.66,27.66,0,0,0,60,95.38,26.78,26.78,0,0,0,55.92,92a25.91,25.91,0,0,0-3.53-2l-.14-.06-.47-.21-.16-.07-.3-.13-1.1-.43-1-.34-.39-.12-1.09-.31-.21-.05-.12,0-.63-.15-.16,0-.4-.09-1-.18-.2,0-.49-.08c-.6-.11-.6-.14-.6-.19v0H44l-.2,0h0v0a0,0,0,0,0,0,0,1.62,1.62,0,0,0,.57.16l.48.08.2,0L46,88c.26,0,.54.11.84.19l.34.08.45.11,1.33.38,1.22.42.51.2.35.14.16.06.29.12.46.21a25.94,25.94,0,0,1,3.94,2.16A26.62,26.62,0,0,1,60,95.44a27.54,27.54,0,0,1,3.79,4.77l.62,1.06.12.23.07.13.39.74.23.48.13.29.18.39.11.25.06.14.33.8.42,1.2,0,.06.44,1.54,0,.11.39,1.89a1,1,0,0,1,0,.14v.06l.1,1,0,.45c0,.4.08.82.1,1.28l.11,1.84v0a.39.39,0,0,0,0,.08l.45,1.49c0,.08,0,.15.07.19l.41,1.07,0,.11,0,.06.23.7,0,.08.17.86a2,2,0,0,0,.07.31.86.86,0,0,0,.18.33.52.52,0,0,0,.24.15l.13,0h.18a1.76,1.76,0,0,0,.45-.15l.38-.21a7.71,7.71,0,0,0,.71-.49,11.86,11.86,0,0,0,1.45-1.33,10.88,10.88,0,0,0,.79-1c.26-.34.53-.75.81-1.2s.52-.86.81-1.39.54-1,.81-1.51c.51-1,1-2.06,1.6-3.21l.79-1.67.57-1.21c1.29-2.77,2.63-5.76,4.09-9.14,2.67-6.19,5.41-12.89,8.13-19.9,2.88-7.43,5.55-14.74,7.94-21.74,1.39-4,2.62-7.8,3.76-11.47,1.34-4.3,2.47-8.18,3.44-11.88.58-2.19,1.08-4.19,1.52-6.11.52-2.29.94-4.35,1.27-6.28a59.53,59.53,0,0,0,.8-6.59,28.2,28.2,0,0,0,0-3.58l0-.24-.06-.62,0-.35a12.68,12.68,0,0,0-.27-1.39,8.91,8.91,0,0,0-1-2.54,6.36,6.36,0,0,0-1.81-1.92,5.8,5.8,0,0,0-2.46-.94l-.33,0"/><path class="cls-11" d="M15.68,112.89h-.79a1.3,1.3,0,0,0,0,.17l.17,0,.24-.06.1,0,.15,0,.1,0M103.85,2.52a6.7,6.7,0,0,0-2,.19,10.68,10.68,0,0,0-2.43,1l0,0-.54.3-.35.21-.11.07-.77.5c-.47.32-.94.66-1.44,1-.83.64-1.69,1.36-2.62,2.21-.78.71-1.58,1.46-2.43,2.3-1.41,1.4-2.9,3-4.53,4.78-1.37,1.52-2.78,3.13-4.29,4.91-2.5,3-5.17,6.24-8.15,10-2.43,3.1-5,6.42-7.78,10.14-5.56,7.39-10.83,14.65-14.8,20.15C48.22,64.92,45,69.47,41.8,73.88l-4.21,5.88c-4.73,6.59-9,12.49-13.14,18-1.88,2.5-4.1,5.42-6.35,8.15-.59.71-1.1,1.32-1.58,1.86S15.42,109,15,109.49c-.27.27-.52.52-.75.73a6.87,6.87,0,0,1-.62.51l0,0,.14.27.06.11.1.2.1.22,0,.1.13.28v0l.09.24c0,.09.06.17.09.26a2.22,2.22,0,0,1,.07.22l0,.12h.06a2.41,2.41,0,0,0,.36-.21,8.39,8.39,0,0,0,.83-.67c.25-.22.51-.48.82-.79,1.14-1.16,2.23-2.44,3.14-3.53,2.14-2.58,4.19-5.27,5.91-7.56,3.89-5.17,7.74-10.53,11.35-15.57,2.55-3.56,5.13-7.19,7.63-10.69,4.84-6.8,9.84-13.82,14.83-20.69,4.35-6,8-10.94,11.47-15.53,4.58-6,8.38-10.88,12-15.2,2.32-2.79,4.39-5.19,6.35-7.33,1.19-1.3,2.29-2.45,3.36-3.52,1.33-1.33,2.47-2.39,3.6-3.34.68-.58,1.32-1.08,2-1.55.36-.26.71-.5,1-.72h0l.25-.16.14-.08.12-.07,0,0,.33-.19,0,0,.29-.16a7.5,7.5,0,0,1,2.79-.9,4.22,4.22,0,0,1,.65,0,3.61,3.61,0,0,1,.79.14,3.26,3.26,0,0,1,1.25.73,3.84,3.84,0,0,1,.48.54,4.7,4.7,0,0,1,.39.61,6.79,6.79,0,0,1,.54,1.36,10.61,10.61,0,0,1,.3,1.46c0,.11,0,.24,0,.37l0,.34c0,.2,0,.41,0,.64,0,.77,0,1.6,0,2.51s-.09,1.58-.18,2.47c-.15,1.47-.37,3.06-.67,4.85-.26,1.53-.56,3.09-.92,4.78-.62,2.89-1.37,6-2.29,9.42C102.06,40.09,100.24,46.15,98,53c-1.92,5.9-4,11.87-6.31,18.27-2.23,6.13-4.54,12.2-6.88,18.06-1.26,3.17-2.46,6.09-3.66,8.95-.65,1.54-1.29,3-1.9,4.45l-1,2.21-.49,1.1-.53,1.17c-.45,1-.86,1.86-1.26,2.7-.49,1-.91,1.86-1.31,2.63-.49.94-.93,1.72-1.36,2.39s-.87,1.29-1.37,1.93c-.24.31-.47.58-.7.84a6,6,0,0,1-.77.74l-.23.15a.78.78,0,0,1-.29.1H69.9l-.11,0a.38.38,0,0,1-.14-.1.69.69,0,0,1-.13-.24,2,2,0,0,1-.08-.48c0-.08,0-.16,0-.24v-.24c0-.11,0-.22,0-.34s0-.41,0-.62l-.15-1.11,0-.08-.3-1.44-.27-1.2a.62.62,0,0,1,0-.1l-.19-1.88-.26-1.8c0-.08,0-.16-.05-.24l0-.13-.28-1.2c0-.09,0-.19-.07-.26l-.4-1.27a1.36,1.36,0,0,0,0-.14l-.36-1c-.05-.15-.11-.29-.18-.43l-.27-.63c-.1-.25-.22-.5-.34-.74L66,102.5a27.5,27.5,0,0,0-2.4-4l-.54-.72-.16-.2-.74-.9-.88-1L60.56,95A27.49,27.49,0,0,0,57,92.11c-.67-.47-1.37-.88-2-1.22l-1-.55-1-.5a27.51,27.51,0,0,0-4.37-1.53,26.45,26.45,0,0,0-4-.72h0l.5.08.2,0,1,.18.41.09.16,0,.63.15.12,0,.22.05,1.09.31.39.12,1,.34,1.1.43.3.13.16.07.47.21a27.47,27.47,0,0,1,4,2.25,26.87,26.87,0,0,1,4.18,3.51l.26.26.08.08.18.19.75.85.15.19.09.11.49.6.18.24.64.88.11.17.23.35c.22.33.45.67.65,1a26,26,0,0,1,1.56,3l.42,1,0,.14.38,1.08v0l.44,1.49,0,.06.41,1.94.23,2.22.16,2.3v0a.25.25,0,0,0,0,0l.42,1.47.06.2.38,1.14.26.93,0,.12v.06l.11.68c0,.06,0,.11,0,.17s0,.11,0,.16a1.14,1.14,0,0,0,.12.33.49.49,0,0,0,.13.15.39.39,0,0,0,.21.07h0a.83.83,0,0,0,.25,0l.21-.09a3.37,3.37,0,0,0,.38-.22,7.21,7.21,0,0,0,.7-.54c.22-.19.45-.39.69-.63a13,13,0,0,0,1.47-1.71,23.74,23.74,0,0,0,1.55-2.52c.48-.87,1-1.85,1.54-3,.46-.93,1-2,1.52-3.18l1.08-2.34c1.3-2.85,2.64-5.9,4.09-9.32C86,89.53,88.73,82.7,91.43,75.6c2.94-7.74,5.53-15,7.93-22.16,1.38-4.13,2.59-8,3.72-11.7,1.33-4.45,2.43-8.41,3.35-12.11.55-2.23,1-4.27,1.42-6.25.5-2.44.84-4.48,1.1-6.44.16-1.21.26-2.31.33-3.34a28.93,28.93,0,0,0,0-3.52c0-.17,0-.32,0-.46l0-.27,0-.32c-.06-.49-.14-.91-.22-1.3a11.24,11.24,0,0,0-.36-1.24,7.83,7.83,0,0,0-.52-1.15,5.82,5.82,0,0,0-1.58-1.86,5,5,0,0,0-1.07-.6,5.07,5.07,0,0,0-1.18-.32l-.43,0"/><path class="cls-12" d="M14.9,113.07a1.3,1.3,0,0,1,0-.17h.79l-.1,0-.15,0-.1,0-.24.06-.17,0m-.49-.28,0-.12a2.22,2.22,0,0,0-.07-.22c0-.09-.05-.17-.09-.26l-.09-.24v0l-.13-.28,0-.1-.1-.22-.1-.2-.06-.11-.14-.27,0,0a6.87,6.87,0,0,0,.62-.51c.23-.21.48-.45.75-.73.46-.47,1-1,1.57-1.7s1-1.15,1.58-1.86c2.25-2.73,4.47-5.65,6.35-8.15,4.15-5.54,8.41-11.44,13.14-18l4.21-5.88c3.15-4.4,6.41-9,9.72-13.53,4-5.5,9.25-12.76,14.8-20.15,2.8-3.73,5.35-7,7.78-10.14,3-3.79,5.65-7.07,8.15-10,1.51-1.79,2.91-3.39,4.29-4.91,1.64-1.81,3.12-3.37,4.53-4.78.85-.84,1.64-1.6,2.43-2.3.94-.84,1.79-1.57,2.62-2.21.5-.39,1-.73,1.44-1l.77-.5.11-.07L98.81,4l.54-.3,0,0a10.68,10.68,0,0,1,2.43-1,6.7,6.7,0,0,1,2-.19l.43,0a5.07,5.07,0,0,1,1.18.32,5,5,0,0,1,1.07.6,5.82,5.82,0,0,1,1.58,1.86,7.83,7.83,0,0,1,.52,1.15A11.24,11.24,0,0,1,109,7.74c.08.38.16.81.22,1.3l0,.32,0,.27c0,.14,0,.29,0,.46a28.93,28.93,0,0,1,0,3.52c-.06,1-.17,2.13-.33,3.34-.25,2-.6,4-1.1,6.44-.4,2-.87,4-1.42,6.25-.92,3.7-2,7.67-3.35,12.11-1.13,3.74-2.34,7.57-3.72,11.7-2.39,7.16-5,14.41-7.93,22.16-2.7,7.1-5.44,13.92-8.13,20.29-1.45,3.42-2.79,6.47-4.09,9.32l-1.08,2.34c-.57,1.21-1.06,2.25-1.52,3.18-.56,1.14-1.06,2.11-1.54,3a23.74,23.74,0,0,1-1.55,2.52A13,13,0,0,1,72,118c-.25.24-.47.45-.69.63a7.21,7.21,0,0,1-.7.54,3.37,3.37,0,0,1-.38.22l-.21.09a.83.83,0,0,1-.25,0h0a.39.39,0,0,1-.21-.07.49.49,0,0,1-.13-.15,1.14,1.14,0,0,1-.12-.33c0-.05,0-.11,0-.16s0-.11,0-.17l-.11-.68v-.06l0-.12-.26-.93-.38-1.14-.06-.2L68,114a.25.25,0,0,1,0,0v0l-.16-2.3-.23-2.22-.41-1.94,0-.06-.44-1.49v0l-.38-1.08,0-.14-.42-1a26,26,0,0,0-1.56-3c-.2-.36-.43-.7-.65-1l-.23-.35L63.31,99l-.64-.88-.18-.24-.49-.6-.09-.11L61.75,97,61,96.16,60.82,96l-.08-.08-.26-.26a26.87,26.87,0,0,0-4.18-3.51,27.47,27.47,0,0,0-4-2.25l-.47-.21-.16-.07-.3-.13L50.25,89l-1-.34-.39-.12-1.09-.31-.22-.05-.12,0L46.77,88l-.16,0-.41-.09-1-.18-.2,0-.5-.08h0a26.45,26.45,0,0,1,4,.72,27.51,27.51,0,0,1,4.37,1.53l1,.5,1,.55c.6.34,1.3.76,2,1.22A27.49,27.49,0,0,1,60.56,95l.72.71.88,1,.74.9.16.2.54.72a27.5,27.5,0,0,1,2.4,4l.15.31c.12.24.24.49.34.74l.27.63c.06.14.12.29.18.43l.36,1a1.36,1.36,0,0,1,0,.14l.4,1.27c0,.07,0,.17.07.26l.28,1.2,0,.13c0,.08,0,.16.05.24l.26,1.8.19,1.88a.62.62,0,0,0,0,.1l.27,1.2.3,1.44,0,.08.15,1.11c0,.21,0,.42,0,.62s0,.22,0,.34v.24c0,.08,0,.16,0,.24a2,2,0,0,0,.08.48.69.69,0,0,0,.13.24.38.38,0,0,0,.14.1l.11,0H70a.78.78,0,0,0,.29-.1l.23-.15a6,6,0,0,0,.77-.74c.23-.26.46-.53.7-.84.5-.64.95-1.27,1.37-1.93s.87-1.45,1.36-2.39c.4-.76.81-1.6,1.31-2.63.4-.84.81-1.72,1.26-2.7l.53-1.17.49-1.1,1-2.21c.62-1.41,1.26-2.91,1.9-4.45,1.2-2.85,2.4-5.78,3.66-8.95,2.33-5.86,4.65-11.93,6.88-18.06C94,64.89,96.09,58.91,98,53c2.23-6.86,4-12.92,5.55-18.53.92-3.45,1.67-6.54,2.29-9.42.36-1.68.66-3.25.92-4.78.3-1.79.52-3.38.67-4.85.09-.89.15-1.69.18-2.47s0-1.74,0-2.51c0-.23,0-.43,0-.64l0-.34c0-.13,0-.26,0-.37a10.61,10.61,0,0,0-.3-1.46,6.79,6.79,0,0,0-.54-1.36,4.7,4.7,0,0,0-.39-.61,3.84,3.84,0,0,0-.48-.54,3.26,3.26,0,0,0-1.25-.73,3.61,3.61,0,0,0-.79-.14,4.22,4.22,0,0,0-.65,0,7.5,7.5,0,0,0-2.79.9l-.29.16,0,0-.33.19,0,0-.12.07-.14.08-.25.16h0c-.34.22-.68.45-1,.72-.64.46-1.28,1-2,1.55-1.12,1-2.27,2-3.6,3.34-1.07,1.07-2.17,2.23-3.36,3.52-2,2.14-4,4.54-6.35,7.33-3.58,4.32-7.38,9.15-12,15.2-3.48,4.6-7.12,9.53-11.47,15.53-5,6.87-10,13.9-14.83,20.69-2.5,3.51-5.08,7.13-7.63,10.69-3.61,5-7.47,10.39-11.35,15.57-1.72,2.29-3.78,5-5.91,7.56-.91,1.1-2,2.37-3.14,3.53-.31.32-.57.57-.82.79a8.39,8.39,0,0,1-.83.67,2.41,2.41,0,0,1-.36.21h-.06M103.86,2.44a6.8,6.8,0,0,0-2.06.19,10.79,10.79,0,0,0-2.45,1l0,0-.54.3-.35.21-.11.07-.77.5c-.47.32-.94.66-1.44,1.05-.83.64-1.69,1.37-2.63,2.21-.78.71-1.58,1.46-2.43,2.31-1.41,1.4-2.9,3-4.54,4.78-1.37,1.52-2.78,3.13-4.29,4.92C79.69,22.92,77,26.2,74,30c-2.43,3.1-5,6.42-7.79,10.15C60.7,47.53,55.43,54.79,51.46,60.29c-3.31,4.58-6.57,9.13-9.72,13.54L37.52,79.7c-4.73,6.59-9,12.49-13.14,18-1.88,2.5-4.1,5.42-6.35,8.14-.59.71-1.1,1.32-1.58,1.86s-.79.88-1.13,1.25l-.06.06-.37.38c-.27.27-.52.52-.75.72a6.72,6.72,0,0,1-.61.5l0,0h0l-.06.05h0l0,0,.16.29.06.11.1.2.1.21,0,.1.12.28v0l.09.24a2.61,2.61,0,0,1,.08.25c0,.06,0,.13.06.2v0l0,.07v.08h0v0h0v.15h0a1.16,1.16,0,0,1,0,.23h0a.36.36,0,0,1,0,.08h0v0l0,0h0l0,0h0l0,0,0,0h0l0,0h0l0,0h0l.05,0h.05l0,0,0,0h.08l.07,0h0l.16,0h0l.23-.06.1,0,.16,0,.28,0,.16,0,.16,0,.33,0h.63s.05,0,.05,0,0,0-.06,0h-.26l-2,0H14.8v0a1.42,1.42,0,0,0,0,.17v.07h0l-.08,0h0l-.13.06,0,0,0,0h0l0,0v0s0,0,0,0v0h0s0,0,0-.07a.52.52,0,0,0,0-.05h0v-.1h0v0h.07l.15-.08.14-.08.09-.06,0,0,.24-.17.27-.22.3-.26.07-.06.4-.38.36-.36.45-.47.28-.3.35-.38c.74-.82,1.44-1.64,2.06-2.39l.21-.25c.6-.72,1.19-1.46,1.76-2.18.9-1.13,1.76-2.25,2.58-3.32l1.37-1.8c1.21-1.6,2.41-3.22,3.6-4.85s2.21-3,3.3-4.53c1.4-1.93,2.78-3.85,4.13-5.73l.33-.46.75-1,6.88-9.65,2.07-2.9L50,66.16c3.1-4.35,6.25-8.73,9.38-13.05,2.45-3.38,4.68-6.42,6.77-9.25l0,0c1.62-2.19,3.17-4.26,4.68-6.26,4.54-6,8.31-10.8,11.86-15.09l.09-.11,2-2.38.71-.83q1-1.19,2-2.29l0,0,0,0,.07-.08,0,0,.08-.09,0,0,.07-.08,0-.06h0L89.2,15c.69-.75,1.35-1.46,2-2.13l1.2-1.23.16-.16.08-.08c.49-.49,1-.94,1.4-1.36l.86-.8h0l0,0,.88-.78.3-.25.65-.54.76-.6h0l0,0,.49-.36.48-.34.18-.12.39-.26h0l.13-.08.12-.07,0,0,.11-.07h0l.1-.06,0,0,.28-.16,0,0,0,0,.07,0,.17-.09h0l0,0a7.42,7.42,0,0,1,2.76-.89h0a4.12,4.12,0,0,1,.57,0h0a3.61,3.61,0,0,1,.53.07l.24.06.34.12h0l0,0h0l0,0h0l0,0h0l0,0h0l0,0h0l0,0h0l0,0h0l0,0h0l0,0h0l0,0h0l0,0h0l0,0h0l0,0h.1l0,0,.24.2.22.23.17.2.08.11.09.12a4.6,4.6,0,0,1,.28.45l0,0,0,.07q.1.19.19.4h0v0h0v0h0l.12.34v0l.1.33,0,.06a9.62,9.62,0,0,1,.23,1l0,.16,0,.28v.06l0,.18v.13l0,.34v.11c0,.16,0,.33,0,.51v0q0,.2,0,.4t0,.26h0v.06c0,.35,0,.7,0,1.08s0,.45,0,.69c0,.48-.05,1-.09,1.5,0,.31-.05.63-.09,1s-.08.78-.13,1.18-.13,1-.2,1.51l-.06.41c-.08.56-.18,1.14-.28,1.74l-.06.34c-.15.88-.32,1.78-.51,2.7v.11h0q-.16.79-.34,1.62-.27,1.27-.58,2.6l0,.11c-.49,2.1-1,4.31-1.68,6.7l-.32,1.19c-1.29,4.74-2.81,9.81-4.61,15.41L97.93,53c-1.92,5.9-4,11.87-6.31,18.26l-.12.34q-.77,2.13-1.56,4.24h0l-.1.27v0l-.1.27h0l-.09.25,0,0-.1.26v0l-.1.25v0l-1.28,3.39h0l-.1.27h0l-.1.26,0,0-.09.24v0l-.09.23,0,.08-.08.2,0,.09-.07.19,0,.11-.06.16-.05.13,0,.13L87.2,83l0,.08-.08.21,0,.06-.09.24v0q-1.11,2.86-2.22,5.65c-1.11,2.78-2.17,5.37-3.22,7.9l-.44,1-.12.28,0,0h0c-.6,1.42-1.2,2.81-1.77,4.12l-.35.81-.49,1.12-.13.29-.06.13-.36.81-.07.17-.16.36,0,.07-.34.75,0,.07,0,.09-.48,1h0l-.3.64-.31.65-.1.2-.24.49c-.3.62-.58,1.17-.84,1.68l-.23.45-.2.38-.43.78-.45.78-.1.17-.17.27c-.35.56-.73,1.1-1.14,1.64l-.16.21-.05.07-.41.5-.29.33-.27.29h0c-.1.11-.21.21-.33.31l-.15.12-.17.11-.06,0-.13.06H69.9l-.08,0,0,0h0l0,0,0,0a.52.52,0,0,1-.1-.17v0l0-.08h0a2.16,2.16,0,0,1-.05-.38c0-.06,0-.13,0-.19v0h0v-.23q0-.15,0-.31v-.35c0-.1,0-.2,0-.3h0v-.09l0-.31-.1-.71h0v-.07h0l-.06-.3,0-.23,0-.08-.05-.25h0l-.34-1.53,0-.21v0h0v-.08l0-.18-.09-.88,0-.45,0-.36v-.1l-.23-1.59v-.13l0-.12v-.15l0-.1-.28-1.2v-.17l0-.1h0v0l-.39-1.25v0l0-.06v0h0l-.3-.81-.05-.14-.08-.2-.1-.24v0l-.07-.17-.18-.43,0,0-.08-.19-.14-.3,0-.1-.05-.1-.15-.31q-.51-1-1.12-2l-.07-.12-.06-.1q-.27-.43-.55-.85L64.07,99l-.39-.55h0L63.32,98l-.06-.08-.13-.18L63,97.55l-.11-.13-.55-.66-.08-.1-.07-.07-.25-.27-.28-.3-.27-.29,0,0,0,0-.22-.22L60.62,95A27.71,27.71,0,0,0,57,92h0l-.05,0c-.3-.2-.6-.4-.9-.58l-.82-.49-.2-.11-.09,0-.3-.16-.19-.1-.31-.16L54,90.26l-.12-.06-.19-.09L53,89.8l-.07,0-.2-.09-.14-.06-.71-.29L51.18,89l-.34-.12c-.74-.26-1.5-.49-2.26-.69h0l-.35-.09h0L47.42,88l-.83-.16-.33-.06-1.19-.17h0l-.16,0-.9-.08h-.07v0s0,.08.6.19l.49.08.2,0,1,.18.4.09.16,0,.63.15.12,0,.21.05,1.09.31.39.12,1,.34,1.1.43.3.13.16.07.47.21.14.06a27.35,27.35,0,0,1,3.86,2.18,26.86,26.86,0,0,1,4.17,3.5l.26.26.08.08.17.19.75.85.15.19.09.11.49.61.18.23.64.88.11.17.23.35c.22.33.44.67.65,1a25.91,25.91,0,0,1,1.56,3l.42,1,0,.13.38,1.08v0l.44,1.49v.05l.41,1.94.23,2.22.16,2.3s0,0,0,0a.22.22,0,0,0,0,.07l.42,1.46c0,.09,0,.15.06.21l.35,1,.29,1s0,.07,0,.11v.06l.11.68c0,.06,0,.11,0,.17s0,.11,0,.17a1.23,1.23,0,0,0,.12.35.57.57,0,0,0,.16.18.48.48,0,0,0,.26.09h.05a.94.94,0,0,0,.27-.05l.22-.09a3.43,3.43,0,0,0,.39-.23,7.26,7.26,0,0,0,.71-.54c.22-.19.45-.4.7-.64a13,13,0,0,0,1.48-1.72,24.08,24.08,0,0,0,1.56-2.53c.48-.87,1-1.85,1.54-3,.46-.93,1-2,1.52-3.18l.56-1.21.52-1.12c1.3-2.85,2.64-5.9,4.09-9.33,2.7-6.37,5.43-13.2,8.13-20.29,2.94-7.75,5.54-15,7.93-22.16,1.38-4.13,2.6-8,3.72-11.7,1.34-4.45,2.43-8.41,3.35-12.12.55-2.23,1-4.27,1.42-6.25.5-2.44.85-4.49,1.1-6.45.16-1.22.26-2.31.33-3.35a28.94,28.94,0,0,0,0-3.53c0-.18,0-.32,0-.46L109.29,9c-.06-.49-.14-.92-.22-1.3a11.2,11.2,0,0,0-.36-1.25,8,8,0,0,0-.52-1.16,5.91,5.91,0,0,0-1.61-1.88,5,5,0,0,0-1.08-.62,5.17,5.17,0,0,0-1.2-.33l-.44,0"/></g></g></svg>