<svg id="Layer_1" data-name="Layer 1" xmlns="http://www.w3.org/2000/svg" viewBox="0 0 24 24"><defs><style>.cls-1{fill:#666;}</style></defs><title>burj</title><path class="cls-1" d="M16,22H14.5l0-12.47h1.07a.28.28,0,1,0,0-.55H14.55V1.35a.28.28,0,0,0-.55,0V4.87l-.38.38a20.47,20.47,0,0,0-3,3.69H9.05a.28.28,0,1,0,0,.55h1.21A17.07,17.07,0,0,0,8.43,22H7.22a.49.49,0,1,0,0,1H16a.49.49,0,1,0,0-1ZM13.45,7V8.93H11.92A18.84,18.84,0,0,1,13.45,7Zm-1.9,2.48h1.9L13.53,22H13v-.73c.07-.05,0-11.12-.14-11.12H11.52a13.55,13.55,0,0,0-1.18,2.65,17.36,17.36,0,0,0-.6,2.53,10.85,10.85,0,0,0-.18,2.31A33.21,33.21,0,0,0,10,21.83H9.62A15.71,15.71,0,0,1,11.55,9.48Zm.26,1.18h.71v.63h-1C11.6,11.07,11.7,10.87,11.81,10.66Zm.71,5.89v.63h-2.4c0-.21,0-.42,0-.63ZM10.2,16c0-.21,0-.42.08-.63h2.24V16Zm-.1,1.73h2.42v.63H10.12C10.11,18.14,10.11,17.93,10.11,17.72Zm2.42,1.18v.63H10.2q0-.31-.05-.63Zm0,1.18v.63H10.35c0-.21-.06-.42-.09-.63Zm-1.26-8.24h1.26v.63H11C11.1,12.25,11.18,12,11.26,11.84ZM10.84,13h1.69v.63H10.65C10.71,13.43,10.77,13.22,10.84,13Zm-.32,1.18h2v.63H10.38C10.42,14.61,10.47,14.4,10.51,14.19Zm2,7V22H10.62c0-.19-.21-.54-.24-.73Z"/></svg>