<svg id="Layer_1" data-name="Layer 1" xmlns="http://www.w3.org/2000/svg" viewBox="0 0 120 120"><defs><style>.cls-1{fill:#282526;}.cls-2{fill:#a4946b;}</style></defs><title>CC Logo</title><path class="cls-1" d="M70,17.64a8.84,8.84,0,0,1,.88,4.59H66.43v1.08h4.41v2.86h-4.4v1.1h4.41v2.8h-4.4l-.07,1.11h4.45v2.91H66.44v1.07h4.44c.17,3.41-.93,6.17-3.7,8.08a8.47,8.47,0,0,1-9.53.43c-3.21-1.82-4.52-4.75-4.41-8.46h4.43V34.1H53.29V31.22H57.7V30.15H53.28V27.31H57.7l.07-1.1H53.31V23.36h4.38l.08-1.07H53.31A9.72,9.72,0,0,1,54,17.68l.46-.74,2.81-3,.71-.28a8.84,8.84,0,0,1,7.76-.18l.73.28,3,2.82ZM54.1,36.05A8,8,0,0,0,70,36H65.61V33.17H70L70,32.06H65.6V29.25H70V28.12H65.6V25.3H70V24.18H65.62V21.32H70a7.92,7.92,0,0,0-15.84.05h4.37v2.83H54.16v1.12h4.39v2.86h-4.4v1.08h4.37v2.87H54.1l.06,1.11h4.38v2.8Z"/><path class="cls-1" d="M58.75,60.47H60V50.89a14.87,14.87,0,0,1-10.68-7,14.52,14.52,0,0,1-2.22-8.22H51A11,11,0,0,0,63.08,47c5.63-.41,9.22-4.41,10-11.26h3.84c.36,5.4-3.09,13.49-12.81,15.19v9.6H65.8l.67,0,3.43,0h3.19v4l-1,.1-.58,0-4.27,0H61.92l-3.93,0H53.17l-.71,0h-1.4V60.48h3l.56,0,3.42,0ZM74,36.58c-.81,7.88-6.6,11.08-11.19,11.3A11.87,11.87,0,0,1,50.17,36.6H48A14.11,14.11,0,0,0,60.9,50.14V61.46h-9v2.13H72.21V61.42h-9V50.14A14,14,0,0,0,76.08,36.58Z"/><path class="cls-1" d="M36.44,102.25c1.29,0,2.52-.08,3.74,0A2.19,2.19,0,0,1,42,104.55c0,1.17,0,2.35,0,3.52s-.32,2.27.91,3H39.71q0-3,0-6a1.68,1.68,0,0,0-2.63-1.62,1.71,1.71,0,0,0-.66,1.27c-.07,2.09,0,4.19,0,6.35H33c1.64-1,1.07-2.52,1.08-3.86,0-5.5,0-11,0-16.51,0-1.06.23-2.19-.91-3,2.27,0,4.54,0,6.81,0a2.12,2.12,0,0,1,2,2.12c0,3,0,6.06,0,9.09a2.15,2.15,0,0,1-2.24,2.13c-.68,0-1.36,0-2,0C36.81,101.15,36.54,101.42,36.44,102.25Zm0-13.37v11.2l2.06-.09a1.09,1.09,0,0,0,1.2-1.13q0-4.4,0-8.8a1.09,1.09,0,0,0-1.16-1.17C37.87,88.87,37.19,88.88,36.45,88.88Z"/><path class="cls-1" d="M64.44,111.1H61v-7.68H57.65v7.67H54.26c1.68-1.09,1.07-2.7,1.08-4.12.05-5.53,0-11.06,0-16.59,0-1.85.79-2.63,2.66-2.63h2.41c2,0,2.76.79,2.76,2.73q0,8.66,0,17.33C63.2,109,62.87,110.23,64.44,111.1Zm-3.5-8.92c0-4.09,0-8.1,0-12.11,0-.92-.54-1.22-1.88-1.2-1,0-1.42.36-1.43,1.27,0,3,0,6,0,9,0,1,0,2,0,3.06Z"/><path class="cls-1" d="M87.21,111.16c-1.32-2.64-2.6-5.17-3.84-7.7a2.17,2.17,0,0,1-.09-.91c0-4,0-8.1,0-12.14,0-1,.06-1.93-1.25-2.58h3.51v.93c0,4,.11,8,0,12a9.75,9.75,0,0,0,1.73,5.66,10.23,10.23,0,0,0,1.7-5.45c-.17-4,0-8.09,0-12.14v-1h3.37c-1.54.92-1.07,2.33-1.08,3.59,0,3.71,0,7.42,0,11.12a3.59,3.59,0,0,1-.34,1.5C89.64,106.36,88.45,108.69,87.21,111.16Z"/><path class="cls-1" d="M93.57,87.76h7.57V90c-1.19-1.8-2.85-.9-4.36-1.14v13.32H100v1.14H96.79v6.6c2.31.32,3,.18,4.35-.89v2.06H93.37c1.68-1.1,1.06-2.71,1.07-4.13.05-5.44,0-10.88,0-16.32C94.48,89.59,94.61,88.52,93.57,87.76Z"/><path class="cls-1" d="M47.61,103.36V110c1.48-.28,3.14.66,4.36-1.18v2.23H44.39s0-.11,0-.12a2.72,2.72,0,0,0,1-2.6q-.05-8.94,0-17.89c0-1,0-2-1.27-2.67H52v2.06c-.67-.4-1.06-1.23-2-1a11.73,11.73,0,0,1-2.35,0v13.33h3.25v1.16Z"/><path class="cls-1" d="M30.75,87.75V90c-1.29-1.81-3-.95-4.57-1.05-.71-.05-1,.62-1,1.32,0,1.67,0,3.34,0,5q0,6.58,0,13.16c0,1.28.32,1.6,1.57,1.61h1.39c1.46,0,1.46,0,2.58-1v2.14c-1.93,0-3.84,0-5.74,0a2.13,2.13,0,0,1-2-2.4c0-3.83,0-7.66,0-11.49,0-2.32,0-4.63,0-6.95a2.25,2.25,0,0,1,2.49-2.53Z"/><path class="cls-1" d="M68.76,88.93c-1.27-.12-2.45-.3-3.31,1.18V87.82h8.87V90.1c-.82-1.55-2.05-1.2-3.32-1.2v1q0,9,0,18c0,1.14-.31,2.37,1.29,3.18h-4.8c1.57-.84,1.25-2.07,1.25-3.21q0-9,0-18Z"/><path class="cls-1" d="M76.8,87.76h4.32c-1.65,1-1.14,2.49-1.15,3.8,0,5.59,0,11.18,0,16.77,0,1-.09,2,1.29,2.76H76.61c1.74-1.16,1-2.83,1.05-4.31.07-5.4,0-10.81,0-16.21C77.7,89.54,77.82,88.52,76.8,87.76Z"/><path class="cls-2" d="M65.22,80.53c.52,1.08,1.45,1.16,2.52,1.16,5.75,0,11.5.06,17.25.14a12.74,12.74,0,0,1,2.05.37c-6.68,0-13.33,0-20,0a1.3,1.3,0,0,0-1.34.72,1.86,1.86,0,0,1-1.19.91,33.37,33.37,0,0,1-3.69-.07,1.43,1.43,0,0,1-2.05-.63,1.79,1.79,0,0,0-1.74-.93H37.3v-.24c1.37-.06,2.73-.17,4.1-.18q7.74-.08,15.49-.09a2.06,2.06,0,0,0,2-1A1.65,1.65,0,0,1,60.76,80c.69.13,1.39.19,2.29.31.68-.52,1.36-.49,2.19.26A8.93,8.93,0,0,0,64,80.29c-.18,0-.52.15-.54.28-.16.87-.56.58-1,.25-.24-.18-.49-.34-.73-.51l-.2-.08.08.2a17.15,17.15,0,0,0,1.12,1.79,3.92,3.92,0,0,0,1.33,1.18,1.13,1.13,0,0,0,1.49-.74.76.76,0,0,0-.43-1.13l-1,1,.07.33-.31.07c-.08-.36-.31-.76-.22-1.06.2-.68.82-.74,1.44-.68h.19l-.08-.12Zm-5.09,1.2-.52-.21c.73-.29,1,0,1.14.59a2.26,2.26,0,0,0,1.75,1.45A27.6,27.6,0,0,0,60.92,81a1.3,1.3,0,0,0-1.17-.38,1.64,1.64,0,0,0-.84,1.06c-.07.34.29.76.48,1.18Z"/><path class="cls-2" d="M100,38.67h-4.7l-15.1.1a2.11,2.11,0,0,1-.55,0c-.12,0-.21-.17-.31-.27.11-.12.2-.3.33-.33a4.26,4.26,0,0,1,.83,0q9.36-.07,18.72-.14a3.23,3.23,0,0,1,.87.25Z"/><path class="cls-2" d="M45.82,32.86a2.26,2.26,0,0,1-.79,0q-5.85-2-11.68-4.13C31.17,28,29,27.21,26.82,26.41c-.23-.08-.4-.34-.6-.51l.21-.27,19.39,6.88Z"/><path class="cls-2" d="M53.65,53.64a3.76,3.76,0,0,1-.24.88q-3.66,6.49-7.34,13l-2.41,4.26-.32,0A2,2,0,0,1,43.4,71C45,68,46.68,65.15,48.32,62.25l4.92-8.69Z"/><path class="cls-2" d="M91.38,62.86a2.68,2.68,0,0,1-.76-.3Q85.9,58.7,81.19,54.8L75.27,49.9c.28-.77.58-.31.86-.08l7.08,5.83,8.27,6.84Z"/><path class="cls-2" d="M70.86,53.46a3.15,3.15,0,0,1,.64.6q3.1,5.22,6.16,10.46c1.19,2,2.39,4,3.56,6.08a2,2,0,0,1,.08.77c-.2-.14-.47-.24-.58-.43q-5.07-8.58-10.1-17.17Z"/><path class="cls-2" d="M48.79,27.63c-.24-.06-.54,0-.71-.19-2.82-2.3-5.63-4.63-8.44-6.95l-7-5.77.08-.3c.24.05.55,0,.72.17q5.88,4.81,11.72,9.66l3.71,3.07Z"/><path class="cls-2" d="M33.11,63.27a2.18,2.18,0,0,1,.36-.66q5.09-4.38,10.21-8.73c1.5-1.28,3-2.57,4.52-3.84a2.27,2.27,0,0,1,.75-.25l.12.31L33.45,63.44Z"/><path class="cls-2" d="M28,44.59l6-1.13q6.37-1.17,12.74-2.32a2.38,2.38,0,0,1,.84.17,2.52,2.52,0,0,1-.71.41Q37.91,43.41,29,45A3.58,3.58,0,0,1,28,45Z"/><path class="cls-2" d="M75.1,27.08,87.71,16.33c.85-.72,1.68-1.46,2.54-2.16a1.92,1.92,0,0,1,.69-.2c-.1.22-.13.5-.3.64q-5.76,4.95-11.54,9.87c-1.08.92-2.15,1.85-3.25,2.76a1.89,1.89,0,0,1-.68.2Z"/><path class="cls-2" d="M76.57,40.94a4.34,4.34,0,0,1,1-.06c3.35.55,6.7,1.12,10,1.68l7.49,1.26a3.26,3.26,0,0,1,.72.15c.16.07.27.24.41.37-.17.07-.34.23-.5.2-1.31-.19-2.62-.4-3.93-.62L77.62,41.54c-.35-.06-.69-.15-1-.22Z"/><path class="cls-2" d="M74.68,30.84l17-10c.35.5.36.51-.26.88l-8.77,5.16c-2.34,1.38-4.67,2.76-7,4.12a2.73,2.73,0,0,1-.83.17Z"/><path class="cls-2" d="M75.13,45.65l17.14,9.72-.06.33a2.15,2.15,0,0,1-.77-.1c-3.29-1.84-6.56-3.7-9.84-5.56-2.07-1.17-4.14-2.34-6.2-3.53a3,3,0,0,1-.58-.6Z"/><path class="cls-2" d="M32.19,56.16a2.85,2.85,0,0,1,.57-.65q4.53-2.7,9.09-5.36c2.26-1.33,4.52-2.66,6.79-4A2.24,2.24,0,0,1,49.4,46l.08.33-17,10Z"/><path class="cls-2" d="M52.68,27.16c-.11.12-.22.29-.27.27a1.15,1.15,0,0,1-.52-.28c-.84-1-1.65-1.92-2.48-2.88q-4.69-5.5-9.37-11a4.16,4.16,0,0,1-.46-1,4,4,0,0,1,.93.61Q46.2,19.5,51.85,26.13C52.13,26.46,52.39,26.8,52.68,27.16Z"/><path class="cls-2" d="M84.27,12.2,76.5,21.62c-1.41,1.71-2.82,3.44-4.25,5.13a3.13,3.13,0,0,1-.76.49,2.45,2.45,0,0,1,.27-.82q5.81-7.09,11.66-14.15a2.57,2.57,0,0,1,.7-.43Z"/><path class="cls-2" d="M28.06,32.57l18.38,3.09v.39a5,5,0,0,1-1.1.06C43.16,35.78,41,35.4,38.78,35c-3.32-.56-6.63-1.11-9.95-1.68a5.1,5.1,0,0,1-1-.38Z"/><path class="cls-2" d="M96.1,32.63l-5.88,1.11q-5.87,1.09-11.74,2.15a2.47,2.47,0,0,1-.8-.13c.21-.16.41-.41.64-.46q8.41-1.59,16.83-3.12a4.72,4.72,0,0,1,1,0Z"/><path class="cls-2" d="M58,13.66l-.71.28c-.36-1.78-.75-3.55-1.09-5.33Q55.56,5.25,55,1.88a1.87,1.87,0,0,1,.16-.69l.33.05,1.37,7.43c.26,1.4.5,2.79.78,4.18A3.81,3.81,0,0,0,58,13.66Z"/><path class="cls-2" d="M66.5,13.77l-.73-.28c.19-.67.43-1.32.55-2,.54-3.13,1-6.27,1.57-9.4a4.75,4.75,0,0,1,.41-1l.36.14C68.37,3,68.1,4.68,67.8,6.4,67.37,8.86,66.93,11.31,66.5,13.77Z"/><path class="cls-2" d="M54.48,16.94l-.46.74c-.61-1.55-1.23-3.09-1.82-4.64q-1.14-3-2.23-6a3.88,3.88,0,0,1-.11-.87l.35-.07c.12.26.25.52.35.79C51.72,10,52.86,13,54,16.09A6.64,6.64,0,0,0,54.48,16.94Z"/><path class="cls-2" d="M97.73,25.52a3.28,3.28,0,0,1-.51.3q-5,1.88-10,3.72c-.17.06-.41,0-.62-.08.13-.17.23-.42.4-.48q5-1.9,10.07-3.76c.18-.07.41,0,.62.05Z"/><path class="cls-2" d="M66.54,64.57h.7L69,74.39a6.52,6.52,0,0,1,.16,1A1.73,1.73,0,0,1,69,76c-.13-.16-.34-.31-.37-.49-.39-2-.74-3.94-1.11-5.91Z"/><path class="cls-2" d="M70,17.64l-.55-1.05c.56-1.49,1.14-3,1.68-4.48.66-1.83,1.29-3.67,2-5.49.09-.25.39-.42.59-.63a2.53,2.53,0,0,1,0,.8c-1.14,3.26-2.31,6.51-3.45,9.77A8,8,0,0,0,70,17.64Z"/><path class="cls-2" d="M97.89,51.43a2.08,2.08,0,0,1-.63,0c-1.05-.35-2.09-.73-3.14-1.1-2.26-.81-4.53-1.6-6.79-2.43-.22-.08-.36-.37-.54-.56a2.25,2.25,0,0,1,.73,0q4.89,1.71,9.76,3.46a6,6,0,0,1,.67.34Z"/><path class="cls-2" d="M37.6,47.9a2.08,2.08,0,0,1-.46.34Q32.07,50.14,27,52c-.14.05-.34-.09-.51-.14.11-.15.19-.38.34-.44Q31.88,49.53,37,47.66a1.77,1.77,0,0,1,.58,0Z"/><path class="cls-2" d="M57.42,64.58H58c-.6,3.65-1.2,7.31-1.82,11,0,.22-.26.4-.4.6L55.46,76Z"/><path class="cls-2" d="M80.83,5.5c0,.24.06.52,0,.71-1.81,3.23-3.64,6.44-5.62,9.94-.13-.4-.32-.67-.25-.79,1.85-3.31,3.72-6.6,5.59-9.89Z"/><path class="cls-2" d="M49,15.78c-.51.63-.66.1-.84-.21l-4.82-8.2a7.23,7.23,0,0,1-.55-1c-.07-.18,0-.42,0-.63h.28Z"/><path class="cls-2" d="M29.93,39.19c-1.73,0-3.46,0-5.19,0-.22,0-.44-.19-.66-.29a2.1,2.1,0,0,1,.68-.27q5.19-.08,10.37-.11c.24,0,.49.21.73.33a2.37,2.37,0,0,1-.75.29c-1.73,0-3.46,0-5.19,0Z"/><path class="cls-2" d="M70.58,60.52h-.68c-.9-2.43-1.8-4.85-2.68-7.28a3.16,3.16,0,0,1-.06-.85l.37,0Z"/><path class="cls-2" d="M54.62,60.51l-.56,0c1-2.66,1.91-5.31,2.88-8a3.43,3.43,0,0,1,.48.1Z"/><path class="cls-2" d="M61.92,64.56h.7c0,2.62,0,5.24,0,7.86a4,4,0,0,1-.18.83l-.37-.06Z"/><path class="cls-2" d="M31.91,21.52c.23,0,.49-.06.67,0Q35.81,23.35,39,25.2c.14.08.17.35.25.53-.18,0-.4.06-.54,0-2.28-1.27-4.56-2.57-6.83-3.85Z"/><path class="cls-2" d="M39.86,65c1.67-2,3.33-4.06,5-6.07.1-.12.34-.11.52-.16,0,.18,0,.42,0,.54Q43,62.26,40.56,65.13c-.11.13-.39.13-.6.18Z"/><path class="cls-2" d="M42.12,27c2.23,1.26,4.46,2.52,6.68,3.79.19.11.3.39.44.58-.23,0-.51.07-.69,0q-3.16-1.76-6.28-3.57c-.2-.11-.31-.38-.46-.57Z"/><path class="cls-2" d="M52.85,50.21c-.11.15-.19.28-.29.4-1.57,1.9-3.13,3.81-4.71,5.7-.11.13-.34.16-.51.23,0-.21-.06-.48,0-.61q2.36-2.91,4.76-5.78a.77.77,0,0,1,.45-.2C52.67,49.94,52.76,50.11,52.85,50.21Z"/><path class="cls-2" d="M77.3,56c-.07.1-.16.28-.2.27a1,1,0,0,1-.52-.21c-.74-.83-1.45-1.68-2.17-2.53-.88-1-1.77-2.07-2.63-3.12-.12-.14-.08-.4-.12-.61.18.05.42.05.52.17,1.64,1.89,3.25,3.8,4.87,5.71C77.13,55.8,77.2,55.9,77.3,56Z"/><path class="cls-2" d="M79.42,58.31a3.76,3.76,0,0,0,.3.5c1.54,1.81,3.09,3.62,4.62,5.44a1.91,1.91,0,0,1,.21.69c-.22-.08-.51-.1-.64-.25q-2.37-2.73-4.69-5.5a1.19,1.19,0,0,1-.21-.55C79,58.58,79.18,58.49,79.42,58.31Z"/><path class="cls-2" d="M62.18,8.2c0,1.17,0,2.35,0,3.52a2.07,2.07,0,0,1-.29.68c-.11-.24-.33-.47-.33-.71q-.05-3.52,0-7c0-.22.19-.43.29-.65a2.15,2.15,0,0,1,.27.68c0,1.17,0,2.35,0,3.52Z"/><path class="cls-2" d="M52.46,64.55l.71,0c-.72,2-1.42,4.07-2.17,6.1-.08.22-.36.36-.55.54a2.18,2.18,0,0,1,0-.72C51.09,68.51,51.78,66.53,52.46,64.55Z"/><path class="cls-2" d="M71.51,64.59l.58,0c.71,1.91,1.44,3.81,2.13,5.72a2.18,2.18,0,0,1,0,.72c-.2-.17-.49-.3-.57-.52C72.91,68.54,72.22,66.56,71.51,64.59Z"/><path class="cls-2" d="M41.83,39.12c-.83,0-1.66,0-2.49,0-.17,0-.33-.18-.49-.27.17-.12.33-.35.5-.36q2.49-.05,5,0c.15,0,.3.2.45.31-.15.11-.3.3-.46.31-.83,0-1.66,0-2.49,0Z"/><path class="cls-2" d="M40.29,46.41c1.7-.64,3.4-1.28,5.11-1.9.13,0,.31.06.46.09-.08.16-.13.42-.25.47q-2.41.94-4.85,1.81c-.14,0-.36-.13-.54-.21Z"/><path class="cls-2" d="M84.13,30.71c-2,.74-3.7,1.39-5.43,2-.11,0-.29-.1-.43-.16.08-.14.12-.37.23-.41,1.64-.63,3.29-1.25,4.94-1.84C83.55,30.28,83.76,30.5,84.13,30.71Z"/><path class="cls-2" d="M78.28,44.43c.2-.06.43-.23.59-.17q2.37.79,4.71,1.66c.15.06.24.28.36.43-.18.05-.38.2-.53.15-1.71-.59-3.42-1.21-5.12-1.82Z"/><path class="cls-2" d="M66.47,60.54l-.67,0c-.26-1.42-.54-2.84-.77-4.27,0-.2.14-.43.21-.65.12.17.32.32.36.51C65.91,57.58,66.18,59.06,66.47,60.54Z"/><path class="cls-2" d="M58.75,60.47l-.7.07c.24-1.43.47-2.86.74-4.28,0-.21.27-.39.41-.58.07.23.23.47.2.69C59.21,57.74,59,59.1,58.75,60.47Z"/><path class="cls-2" d="M47.6,115.27v1.4l1.51.1v.2l-1.49.1v1.33l1.47.11v.15H47.33V115h1.76l0,.17Z"/><path class="cls-2" d="M101.09,115.2l-1.48.07v1.41l1.47.08,0,.17-1.48.16v1.3l1.46.13v.15H99.35V115h1.71Z"/><path class="cls-2" d="M83.46,118.74h-.91l-.81,0V115h1.72l0,.14-1.49.09v1.4l1.5.09,0,.19-1.51.12v1.31l1.49.13Z"/><path class="cls-2" d="M96,115.63c-1.12-.56-2.11-.65-2.65.37a2.15,2.15,0,0,0,0,1.78c.54.95,1.51.86,2.64.31a1.79,1.79,0,0,1-2.7.12,1.89,1.89,0,0,1,0-2.73A1.73,1.73,0,0,1,96,115.63Z"/><path class="cls-2" d="M32.86,115.7a1.84,1.84,0,0,1-.22,2.63,1.94,1.94,0,0,1-2.54,0,1.83,1.83,0,0,1-.21-2.63l.12.11c-.32.71-.52,1.5.11,2.05a2.38,2.38,0,0,0,1.62.56c1.16-.11,1.54-1.23,1-2.61Z"/><path class="cls-2" d="M38.23,117.18c0,.2-.14.43-.08.6a5.33,5.33,0,0,1,.37.9l-1.26-1.35-.23.19-.14,1.1h-.16v-3.71l1.42.31-.12.12-1-.11v1.95l1.08-.12Z"/><path class="cls-2" d="M54.18,115.22l-1.19.31a7.5,7.5,0,0,0,.59.89c.16.18.44.24.61.41a1,1,0,0,1,.12,1.56,1,1,0,0,1-1.57,0,1,1,0,0,0,1.45-.33c.32-.52,0-.94-.45-1.23-.18-.11-.45-.14-.57-.29a1.8,1.8,0,0,1-.48-.9c0-.21.33-.57.57-.61A2.27,2.27,0,0,1,54.18,115.22Z"/><path class="cls-2" d="M78,117.84a1.65,1.65,0,0,1-1.89.87v-3.9l1.6.7-.12.12-1.19-.42v3.49l1.47-1Z"/><path class="cls-2" d="M89.12,118.71,88,116.81l.16-.11.63.8H89v-2.35h.27v3.47Zm-.06-.87s0,0,0,.06,0,0,0,.06,0,0,.05-.05S89.08,117.87,89.06,117.84Z"/><path class="cls-2" d="M87,118.61v-3.56l.19-.08.88,1.46-.15.11-.64-.8v2.87Z"/><path class="cls-2" d="M71.23,116.54l-.62-.84v2.91h-.23v-3.5l.14-.09.87,1.4Z"/><path class="cls-2" d="M66.35,115.58a1.87,1.87,0,0,1-2.33,2.9l.1-.12a1.73,1.73,0,0,0,2.1-2.65Z"/><path class="cls-2" d="M43.34,117.28l.39,1.08-.13.11-1-1.15-.25.18-.13,1.12h-.11v-3.68l1.33.23-.1.12h-1c-.26,1.9-.21,2,.93,1.9Z"/><path class="cls-2" d="M59.36,117.17l-1.23.44-.13,1h-.13V115l1.29.19-.1.12h-1c-.3,2-.17,2.16,1.14,1.79Z"/><path class="cls-2" d="M50.07,18.45c1.08.34,1,1.32,1.62,1.78C51.08,20.65,50.58,20.12,50.07,18.45Z"/><path class="cls-2" d="M73.75,18.66c-.35.58-.67,1.14-1,1.67a.33.33,0,0,1-.31,0c-.08-.1-.16-.29-.11-.38a16.31,16.31,0,0,1,.81-1.43c.05-.08.26-.11.38-.1S73.66,18.57,73.75,18.66Z"/><path class="cls-2" d="M23.69,115.62a2,2,0,0,0,.2,2.72,1.67,1.67,0,0,1-.32-2.82Z"/><path class="cls-2" d="M64,118.49a1.78,1.78,0,0,1-.37-3l.12.11c-.69,1.19-.62,1.71.35,2.73Z"/><path class="cls-2" d="M30.06,115.5a1.74,1.74,0,0,1,2.79.2l-.12.11a1.89,1.89,0,0,0-2.55-.19Z"/><path class="cls-2" d="M94.87,82H90v-.07h4.83Z"/><path class="cls-2" d="M23.57,115.51a1.55,1.55,0,0,1,2.45,0,2.05,2.05,0,0,0-2.33.09Z"/><path class="cls-2" d="M29.13,81.89h4.6V82H29.11Z"/><path class="cls-2" d="M72.62,115.2v3.48c-.62-.25-.39-.52-.21-.93a3.8,3.8,0,0,0,0-1.37q0-.63,0-1.26Z"/><path class="cls-2" d="M63.65,115.52a1.68,1.68,0,0,1,2.41-.21l-.11.13a2.05,2.05,0,0,0-2.18.2Z"/><path class="cls-2" d="M38.15,115.21c.84.66.87,1.2.08,2l-.11-.12a1.08,1.08,0,0,0-.09-1.72Z"/><path class="cls-2" d="M77.93,115.7a1.57,1.57,0,0,1,.12,2.14l-.14-.13-.1-1.89Z"/><path class="cls-2" d="M71.51,116.65l.61,1.11-.19.1-.62-1.11Z"/><path class="cls-2" d="M43.81,115.51a1,1,0,0,1,0,1.45l-.12-.1,0-1.24Z"/><path class="cls-2" d="M59.73,115.73,59.56,117l-.12-.11.17-1Z"/><path class="cls-2" d="M43.39,115.16l.42.35-.12.1-.4-.33Z"/><path class="cls-2" d="M59.17,115.14l.32.25-.12.12-.3-.25Z"/><path class="cls-2" d="M59.49,115.4l.24.33-.12.09-.24-.31Z"/><path class="cls-2" d="M66.06,115.31l.29.28-.12.13-.28-.28Z"/><path class="cls-2" d="M43.73,118.36l.11.29-.24-.18Z"/><path class="cls-2" d="M29.88,115.69l.18-.19.11.11-.18.19Z"/><path class="cls-2" d="M77.75,115.51l.18.2-.12.11-.18-.19Z"/><path class="cls-2" d="M43.77,117l-.19.19-.11-.11.18-.18Z"/><path class="cls-2" d="M59.56,117l-.2.19-.1-.11.18-.18Z"/><path class="cls-2" d="M43.58,117.15l-.24.13-.09-.1.22-.14Z"/><path class="cls-2" d="M26.18,115.7c-1.12-.56-2.11-.65-2.65.37a2.15,2.15,0,0,0,0,1.78c.54.95,1.51.86,2.64.31a1.79,1.79,0,0,1-2.7.12,1.89,1.89,0,0,1,0-2.73A1.73,1.73,0,0,1,26.18,115.7Z"/></svg>