<?xml version="1.0" encoding="utf-8"?>
<!-- Generator: Adobe Illustrator 21.0.0, SVG Export Plug-In . SVG Version: 6.00 Build 0)  -->
<svg version="1.1" id="Layer_1" xmlns="http://www.w3.org/2000/svg" xmlns:xlink="http://www.w3.org/1999/xlink" x="0px" y="0px"
	 viewBox="0 0 512 512" style="enable-background:new 0 0 512 512;" xml:space="preserve">
<style type="text/css">
	.st0{fill:#FFFFFF;}
	.st1{fill:#282526;}
	.st2{fill:#A4946B;}
</style>
<path class="st0" d="M0,0v512h512V0H0z M417.4,164.1l-0.4,1.7h-19.9l-64,0.4c-0.8,0.1-1.6,0.1-2.3,0c-0.5,0-0.9-0.7-1.3-1.1
	c0.5-0.5,0.8-1.3,1.4-1.4c1.2-0.1,2.3-0.1,3.5,0c26.4-0.2,52.9-0.4,79.3-0.6C415,163.2,416.2,163.6,417.4,164.1z M254.3,201.3
	c2.1,0.1,4.2,0,6.2-0.2c23.9-1.7,39.1-18.7,42.4-47.7h16.3c1.5,22.9-13.1,57.2-54.3,64.4v40.7h7.2c-1.1-6-2.3-12-3.3-18.1
	c0-0.8,0.6-1.8,0.9-2.8c0.5,0.7,1.4,1.4,1.5,2.2c1.3,6.1,2.5,12.4,3.7,18.7h28.1v16.9l-4.2,0.4c3,8,6.1,16,9,24.1c0.2,1,0.2,2,0,3.1
	c-0.8-0.7-2.1-1.3-2.4-2.2c-3.1-8.3-6-16.6-9-24.9h-18.1l7.4,41.4c0.3,1.4,0.6,2.8,0.7,4.2c-0.1,0.9-0.3,1.8-0.7,2.6
	c-0.5-0.7-1.4-1.3-1.6-2.1c-1.6-8.5-3.1-16.7-4.7-25l-4.1-21.1h-16.7v33c-0.1,1.2-0.4,2.4-0.8,3.5l-1.6-0.3l-0.6-36.3H239
	c-2.5,15.4-5,30.8-7.7,46.4c0,0.9-1.1,1.7-1.7,2.5l-1.4-0.8l8.3-48.2h-18.1c-3,8.4-5.9,17-9.1,25.5c-0.3,0.9-1.5,1.5-2.3,2.3
	c-0.2-1-0.2-2,0-3.1c2.7-8.2,5.6-16.5,8.4-24.7h-5.8v-17.6h12.8c4.2-11.2,8.1-22.4,12.2-33.8c0.7,0.1,1.4,0.2,2,0.4l-11.8,33.3h14.5
	c1-6,2-12,3.1-17.9c0-0.9,1.1-1.6,1.7-2.5c0.3,1,1,2,0.8,2.9c-0.8,5.8-1.7,11.6-2.8,17.4h5.3v-40.6c-18.8-2.6-35.4-13.5-45.3-29.7
	c-6.6-10.4-9.8-22.5-9.4-34.8h16.5C208.4,178.8,228.6,200.4,254.3,201.3z M325.1,151.5c23.8-4.5,47.5-8.9,71.3-13.2
	c1.4-0.2,2.8-0.2,4.2,0l-0.2,1.9l-24.9,4.7c-16.6,3.1-33.2,6.1-49.8,9.1c-1.2,0-2.3-0.2-3.4-0.5
	C323.3,152.8,324.1,151.7,325.1,151.5z M324.9,139.8c0.3-0.6,0.5-1.6,1-1.7c7-2.7,13.9-5.3,20.9-7.8c0.5-0.1,1.4,0.9,2.9,1.7
	c-8.5,3.1-15.7,5.9-23,8.5C326.3,140.5,325.5,140.1,324.9,139.8z M364.3,182.3l31.7,5.3c1,0.1,2.1,0.3,3,0.6c0.7,0.3,1.1,1,1.7,1.6
	c-0.7,0.3-1.5,1-2.1,0.9c-5.5-0.8-11.1-1.7-16.7-2.6l-59.9-10.1c-1.5-0.3-2.9-0.6-4.2-0.9l-0.2-1.6c1.4-0.3,2.8-0.3,4.2-0.3
	C336.1,177.5,350.3,179.9,364.3,182.3z M337.4,301.1c0.3,1,0.4,2.2,0.3,3.3c-0.8-0.6-2-1-2.4-1.8c-14.3-24.2-28.6-48.5-42.8-72.8
	l1-1.3c1,0.7,1.9,1.6,2.7,2.5c8.8,14.8,17.5,29.5,26.1,44.3C327.3,283.8,332.4,292.3,337.4,301.1z M328,250.4c0-0.3,0.7-0.6,1.7-1.4
	c0.4,0.7,0.8,1.5,1.3,2.1c6.5,7.7,13.1,15.3,19.6,23c0.5,0.9,0.8,1.9,0.9,2.9c-0.9-0.3-2.2-0.4-2.7-1.1
	c-6.7-7.7-13.3-15.5-19.9-23.3C328.4,252,328.1,251.2,328,250.4z M319.9,240.3c-0.8-0.1-1.6-0.4-2.2-0.9c-3.1-3.5-6.1-7.1-9.2-10.7
	c-3.7-4.2-7.5-8.8-11.1-13.2c-0.5-0.6-0.3-1.7-0.5-2.6c0.8,0.2,1.8,0.2,2.2,0.7c7,8,13.8,16.1,20.6,24.2c0.3,0.5,0.6,0.9,1.1,1.4
	C320.5,239.6,320.1,240.4,319.9,240.3z M310.3,196.4l1.3-1.1l72.6,41.2l-0.3,1.4c-1.1,0.1-2.2-0.1-3.3-0.4
	c-14-7.8-27.8-15.7-41.7-23.6c-8.8-5-17.5-9.9-26.3-15C311.8,198.3,311,197.4,310.3,196.4z M346.7,198.9c-7.3-2.5-14.5-5.1-21.7-7.7
	l0-1.1c0.8-0.3,1.8-1,2.5-0.7c6.7,2.2,13.3,4.6,20,7c0.6,0.3,1,1.2,1.5,1.8C348.2,198.5,347.3,199.2,346.7,198.9z M292.3,258.4h-2.9
	c-3.8-10.3-7.6-20.6-11.4-30.8c-0.2-1.2-0.3-2.4-0.3-3.6h1.6L292.3,258.4z M177.1,302.8c6.8-12.7,13.9-24.8,20.8-37.1l20.9-36.8
	l1.7,0.3c-0.2,1.3-0.5,2.5-1,3.7c-10.3,18.3-20.7,36.7-31.1,55.1l-10.2,18.1h-1.4C176.7,305,176.8,303.8,177.1,302.8z M165.1,277.9
	c-0.5,0.6-1.7,0.6-2.5,0.8l-0.4-1.3c7.1-8.5,14.1-17.2,21.2-25.7c0.4-0.5,1.5-0.5,2.2-0.7v2.3C178.8,261.6,172,269.8,165.1,277.9z
	 M170.5,214.4c9.6-5.6,19.2-11.3,28.8-16.9c1-0.4,2.1-0.6,3.2-0.6l0.3,1.4l-72,42.4l-1.2-0.7c0.7-1,1.5-2,2.4-2.8
	C144.8,229.5,157.7,221.9,170.5,214.4z M163.6,199.7l0.3-1.1c7.2-2.7,14.4-5.4,21.7-8c0.5,0,1.3,0.3,1.9,0.4c-0.3,0.7-0.5,1.8-1.1,2
	c-6.8,2.7-13.7,5.2-20.5,7.7C165.3,200.5,164.4,200,163.6,199.7z M193.8,238.9c6.7-8.2,13.4-16.4,20.2-24.5c0.5-0.5,1.2-0.8,1.9-0.8
	c0.5,0,0.9,0.7,1.3,1.1c-0.5,0.6-0.8,1.2-1.2,1.7c-6.7,8-13.3,16.2-20,24.2c-0.5,0.5-1.4,0.7-2.2,1
	C193.8,240.6,193.6,239.5,193.8,238.9z M198.9,134.8c-8.9-5-17.8-10-26.6-15.1c-0.9-0.5-1.3-1.6-2-2.4l1.3-1
	c9.5,5.3,18.9,10.7,28.3,16.1c0.8,0.5,1.3,1.7,1.9,2.5C200.9,134.8,199.7,135.1,198.9,134.8z M157.5,150.2
	c-14.1-2.4-28.1-4.7-42.2-7.1c-1.5-0.4-2.9-0.9-4.2-1.6l1-1.6L190,153v1.7c-1.5,0.3-3.1,0.3-4.7,0.3
	C176.1,153.5,167,151.9,157.5,150.2z M183,166.3c-0.6,0.5-1.3,1.3-2,1.3h-10.5l-0.1,0h-10.6c-0.7,0-1.4-0.8-2.1-1.1
	c0.7-0.5,1.4-1.5,2.1-1.5c7-0.1,14.1-0.1,21.2,0C181.8,165,182.4,165.8,183,166.3z M191.3,176.2c1.2,0,2.4,0.3,3.6,0.7
	c-0.9,0.7-1.9,1.3-3,1.7c-25.3,4.8-50.5,9.4-75.7,13.9c-1.4,0.2-2.8,0.2-4.2,0v-1.7l25.4-4.8C155.3,182.8,173.3,179.5,191.3,176.2z
	 M150,203.9c0.8-0.1,1.6-0.1,2.5,0l0.1,1c-0.6,0.6-1.2,1-1.9,1.4c-14.3,5.4-28.7,10.7-43,15.9c-0.6,0.2-1.4-0.4-2.2-0.6
	c0.5-0.6,0.8-1.6,1.5-1.9C121.2,214.5,135.5,209.1,150,203.9z M116.6,348.9h19.5v0.5h-19.6L116.6,348.9z M135,270.7l-1.4-0.7
	c0.3-1,0.9-2,1.5-2.8c14.4-12.4,28.8-24.7,43.3-37c6.4-5.4,12.7-10.9,19.2-16.3c1-0.5,2.1-0.9,3.2-1l0.5,1.3L135,270.7z
	 M151.3,349.2c5.8-0.3,11.6-0.7,17.4-0.8c21.9-0.2,43.8-0.4,65.6-0.4c3.4,0.4,6.7-1.3,8.5-4.2c1.7-2.6,4.9-3.8,7.9-2.9
	c2.9,0.6,5.9,0.8,9.7,1.3c2.9-2.2,5.7-2.1,9.2,1v-0.1c0,0.1,0.1,0.1,0.1,0.2c2.2,4.4,6.1,4.7,10.6,4.7c24.4,0,48.7,0.3,73.1,0.6
	c2.9,0.3,5.8,0.8,8.7,1.6h-84.8c-2.3-0.3-4.6,0.9-5.7,3c-1.1,1.9-2.9,3.3-5,3.9c-5.2,0.2-10.4,0.1-15.6-0.3c-2.8,1.7-6.6,0.9-8.3-2
	c-0.1-0.2-0.3-0.4-0.4-0.7c-1.4-2.7-4.3-4.2-7.4-3.9h-83.6V349.2z M337.3,234.1l-25.1-20.8c1.2-3.3,2.5-1.3,3.6-0.3l30,24.7l35,29
	l-0.4,1.6c-1.1-0.3-2.2-0.7-3.2-1.3C363.9,256.1,350.6,245.1,337.3,234.1z M374.6,349.1h20.5l0.2,0.3h-20.6V349.1z M392.1,215.2
	c-9.6-3.4-19.2-6.8-28.8-10.3c-0.9-0.3-1.5-1.6-2.3-2.4c1-0.2,2.1-0.2,3.1,0c13.8,4.8,27.6,9.7,41.4,14.7c1,0.4,1.9,0.9,2.8,1.4
	l-0.3,1.2c-0.9,0.1-1.8,0.1-2.7,0C400.9,218.3,396.5,216.7,392.1,215.2z M407.2,109l0.2,1.1c-0.7,0.5-1.4,0.9-2.2,1.3
	c-14.1,5.3-28.3,10.6-42.4,15.8c-0.7,0.3-1.7,0-2.6-0.3c0.6-0.7,1-1.8,1.7-2c14.1-5.4,28.3-10.7,42.7-15.9
	C405.3,108.5,406.3,108.8,407.2,109z M380.6,93.9l-37.2,21.9c-9.9,5.8-19.8,11.7-29.7,17.5c-1.1,0.4-2.3,0.7-3.5,0.7l-0.6-1.4
	l72-42.4C383.2,92.3,383.3,92.4,380.6,93.9z M375.7,61.9c0.9-0.5,1.9-0.8,2.9-0.8c-0.4,0.9-0.6,2.1-1.3,2.7
	c-16.3,14-32.6,27.9-48.9,41.8c-4.6,3.9-9.1,7.8-13.8,11.7c-0.9,0.5-1.9,0.8-2.9,0.8l-0.3-1.5l53.4-45.5
	C368.5,68,372,64.9,375.7,61.9z M349.7,52.1l0.6,1.5l-32.9,39.9c-6,7.3-12,14.6-18,21.7c-1,0.9-2,1.5-3.2,2.1
	c0.2-1.2,0.6-2.4,1.1-3.5c16.4-20,32.9-40,49.4-60C347.6,53.1,348.6,52.5,349.7,52.1z M299.7,86.4c1-2.1,2.2-4.1,3.4-6.1
	c0.2-0.3,1.1-0.5,1.6-0.4s0.6,0.6,1,1c-1.5,2.5-2.8,4.8-4.2,7.1c-0.4,0.2-0.9,0.2-1.3,0C299.8,87.6,299.5,86.8,299.7,86.4z
	 M310.9,67c7.8-14,15.8-28,23.7-41.9l1.2,0.1c0,1,0.3,2.2,0,3c-7.7,13.7-15.4,27.3-23.8,42.1C311.4,68.6,310.6,67.5,310.9,67z
	 M254.1,21.8c0-0.9,0.8-1.8,1.2-2.8c0.5,0.9,0.9,1.9,1.1,2.9v14.9l0.3-0.2v14.9c-0.2,1-0.7,2-1.2,2.9c-0.5-1-1.4-2-1.4-3
	C253.9,41.5,253.9,31.6,254.1,21.8z M206,27.7c0.5,1.1,1.1,2.2,1.5,3.4c4.9,13.2,9.8,25.9,14.6,39c0.6,1.2,1.3,2.4,2,3.5L235.9,61
	l0.1,0c-1.5-7.5-3.2-15-4.6-22.6c-1.8-9.5-3.5-19-5.1-28.5c0-1,0.3-2,0.7-2.9l1.4,0.2l5.8,31.5c1.1,5.9,2.1,11.8,3.3,17.7
	c0.4,1.2,0.9,2.3,1.5,3.4c10.2-5.3,22.4-5.5,32.8-0.7l2.3,0.9l-2.1-0.8c0.8-2.8,1.8-5.6,2.3-8.5c2.3-13.3,4.2-26.6,6.7-39.8
	c0.4-1.5,1-2.9,1.7-4.2l1.5,0.6c-1.2,7.5-2.4,14.6-3.6,21.9c-1.8,10.4-3.7,20.8-5.5,31.2l-0.1,0l12.6,11.9
	c2.4-6.3,4.8-12.7,7.1-18.9c2.8-7.8,5.5-15.5,8.5-23.3c0.4-1.1,1.7-1.8,2.5-2.7c0.2,1.1,0.2,2.3,0,3.4c-4.8,13.8-9.8,27.6-14.6,41.4
	c-0.5,1.5-0.9,3-1.1,4.6c3,6,4.3,12.8,3.7,19.5h-18.9v4.6h18.7v12.1h-18.6v4.7h18.7v11.9h-18.7l-0.3,4.7h18.9v12.3h-18.6v4.5h18.8
	c0.7,14.5-3.9,26.2-15.7,34.3c-11.8,8.8-27.8,9.6-40.4,1.8c-13.6-7.7-19.2-20.1-18.7-35.9h18.8v-4.7H219v-12.2h18.7v-4.5H219v-12
	h18.7l0.3-4.7h-18.9v-12.1h18.6l0.3-4.5h-18.9c-0.6-6.7,0.4-13.4,2.9-19.5l0.1-0.1c-2.6-6.5-5.2-13-7.7-19.6
	c-3.2-8.5-6.4-17-9.4-25.4c-0.3-1.2-0.5-2.4-0.5-3.7L206,27.7z M212.3,87.6c-2.6,1.8-4.7-0.5-6.9-7.5
	C210,81.5,209.6,85.7,212.3,87.6z M174.5,26.2h1.2l25.1,42.5c-2.2,2.7-2.8,0.4-3.6-0.9l-20.4-34.8c-0.9-1.3-1.7-2.8-2.3-4.2
	C174.2,28.1,174.5,27.1,174.5,26.2z M164.9,56.5c16.1,18.7,32.1,37.4,48.1,56.2c1.2,1.4,2.3,2.8,3.5,4.4c-0.5,0.5-0.9,1.2-1.2,1.2
	c-0.8-0.2-1.6-0.6-2.2-1.2c-3.6-4.2-7-8.1-10.5-12.2c-13.3-15.5-26.5-31.1-39.7-46.6c-0.8-1.3-1.5-2.8-2-4.2
	C162.4,54.5,163.7,55.4,164.9,56.5z M131.9,63c1,0.2,2.3,0,3,0.7c16.6,13.6,33.2,27.2,49.7,40.9l15.7,13L200,119c-1-0.3-2.3,0-3-0.8
	c-12-9.8-23.9-19.6-35.8-29.5l-29.7-24.5L131.9,63z M128.4,93.1c1,0,2.1-0.3,2.8,0c9.1,5.2,18.2,10.4,27.2,15.6
	c0.6,0.3,0.7,1.5,1.1,2.2c-0.8,0-1.7,0.3-2.3,0c-9.7-5.4-19.3-10.9-28.9-16.3L128.4,93.1z M105.2,110.5l82.2,29.2v1.5
	c-1.1,0.2-2.2,0.2-3.3,0c-16.5-5.7-33-11.5-49.5-17.5c-9.2-3.1-18.4-6.5-27.7-9.8c-1-0.3-1.7-1.4-2.5-2.2L105.2,110.5z M98.1,165.6
	c14.7-0.2,29.3-0.4,44-0.5c1,0,2.1,0.9,3.1,1.4c-1,0.6-2,1-3.2,1.2h-22l0,0.2H98c-0.9,0-1.9-0.8-2.8-1.2
	C96.1,166.2,97.1,165.8,98.1,165.6z M98.8,374c0.8-0.1,1.6-0.1,2.3,0l22.4-0.3v9.5c-5.5-7.7-12.7-4-19.4-4.4c-3-0.2-4.2,2.6-4.2,5.6
	v77c0,5.4,1.4,6.8,6.7,6.8h5.9c6.2,0,6.2,0,10.9-4.2v9.1H99.1c-5-0.3-8.8-4.5-8.5-9.5c0-0.2,0-0.5,0.1-0.7v-78.2
	C89.9,379.5,93.6,374.7,98.8,374z M92.9,501.3c2.3,4,6.4,3.6,11.2,1.3c-2.6,3.3-7.4,3.8-10.7,1.2c-0.3-0.2-0.5-0.5-0.8-0.7
	c-3.2-3.1-3.3-8.1-0.3-11.3c0.1-0.1,0.2-0.2,0.3-0.2c0.5-0.5,1-1,1.6-1.4c2.3-1.8,5.6-1.9,8,0c0.4,0.3,0.7,0.6,1,0.9
	c0.3,0.3,0.6,0.7,0.9,1c-4.8-2.4-8.9-2.8-11.2,1.6C91.8,496.2,91.8,498.9,92.9,501.3z M131.7,503.2c-0.1,0-0.1,0.1-0.2,0.1
	c-3.1,2.7-7.7,2.7-10.8,0c-3.3-2.7-3.8-7.6-1.1-10.9c0.1-0.1,0.1-0.2,0.2-0.2l0,0l0.8-0.8c2.6-3.1,7.3-3.5,10.4-0.8
	c0.6,0.5,1,1,1.4,1.6l-0.5,0.5c-2.9-3-7.5-3.4-10.8-0.8l0,0l-0.7,0.8l0.1,0.1c-1.3,3-2.2,6.4,0.5,8.7c1.9,1.6,4.4,2.5,6.9,2.4
	c4.9-0.5,6.5-5.2,4.2-11.1l0.5-0.5C135.3,495.5,134.9,500.4,131.7,503.2z M154.9,501c0.6,1.2,1.2,2.5,1.6,3.8l-5.3-5.7l-1,0.8
	l-0.6,4.7h-0.7v-15.7l6,1.3l0,0c3.6,2.8,3.7,5.1,0.3,8.5l0,0C155.2,499.4,154.6,500.3,154.9,501z M155.5,439.1
	c-1.8-0.3-3.6,0.2-5.1,1.2c-1.7,1.3-2.7,3.3-2.8,5.4c-0.3,8.9,0,17.8,0,26.9H133c7-4.2,4.5-10.7,4.6-16.4v-70c0-4.5,1-9.3-3.9-12.7
	h28.9c4.8,0.3,8.5,4.2,8.5,9V421c0,5-4.2,9.1-9.2,9h-8.8c-3.9,0.5-5.1,1.6-5.5,5.1c5.5,0,10.7-0.3,15.8,0c4.7,0.8,8,5,7.7,9.8v14.9
	c0,5-1.3,9.6,3.9,12.7h-13.6v-25.4C162.1,443.3,159.4,439.6,155.5,439.1z M179,497.4c0,0-0.1,0.1-0.2,0.1l-0.5-0.4v-5.3l0.5-0.5
	l-0.5,0.4l-1.6-1.4h-4.1c-1.1,8-0.9,8.5,3.9,8.1l0,0l0.9-0.6l0.1,0.1l0.7-0.7l0.5,0.4l-0.8,0.8l-0.1-0.1l-0.9,0.5l1.7,4.6l0.5,1.2
	l-1-0.8l-4.2-4.9l-1.1,0.8l-0.5,4.8h-0.5V489l5.4,0.9h0l0.2,0l-0.1,0.1l1.6,1.4C180.5,493,180.6,495.7,179,497.4z M201.3,497.6
	L195,498v5.6l6.2,0.5v0.6h-7.5v-15.5h7.5v0.7l-6.3,0.4v5.9l6.4,0.4V497.6z M213.6,382.6c-2.8-1.7-4.5-5.2-8.5-4.2
	c-3.3,0.3-6.7,0.3-10,0v56.5h13.8v4.9l-13.9,0.2V468c6.3-1.2,13.3,2.8,18.5-5v9.5h-32.1c0,0,0-0.5,0-0.5c3.3-2.6,5-6.8,4.2-11
	c-0.1-25.3-0.1-50.5,0-75.8c0-4.2,0-8.5-5.4-11.3h33.4V382.6z M224,502.9c-0.2,0.3-0.4,0.5-0.6,0.7c-1.4,1.8-4.1,2.2-5.9,0.7
	c-0.3-0.2-0.5-0.5-0.7-0.7c1.9,1.4,4.6,0.9,5.9-1c0.1-0.1,0.2-0.3,0.2-0.4c1.4-2.2,0-4-1.9-5.2c-0.8-0.5-1.9-0.6-2.4-1.2
	c-1-1-1.7-2.4-2-3.8c0-0.9,1.4-2.4,2.4-2.6c1.3,0,2.7,0.3,3.9,0.8l-5,1.3c0.7,1.3,1.6,2.6,2.5,3.8c0.7,0.8,1.9,1,2.6,1.7
	C224.8,498.3,225.3,500.9,224,502.9z M245.6,497.7l-0.8,0.8l-0.1-0.1l-5.2,1.8l-0.5,4.2h-0.5v-15.3l5.3,0.8l0.2-0.2l1.4,1.1
	l-0.5,0.5l0.5-0.5l1,1.4L245.6,497.7z M237.5,440.2v32.5h-14.4c7.1-4.6,4.5-11.4,4.6-17.5c0.2-23.4,0-46.9,0-70.3
	c0-7.8,3.4-11.1,11.3-11.1h10.2c8.5,0,11.7,3.3,11.7,11.6v73.5c0.1,5-1.3,10.3,5.4,13.9h-14.6v-32.6H237.5z M274.4,502.9
	c-2.6,2.7-6.8,3.1-9.9,1.1l0.4-0.5c3.6,1.8,8,0.3,9.8-3.3c1.3-2.6,0.9-5.7-0.9-7.9l-1.2-1.2c-3-1.5-6.6-1.2-9.2,0.9l-0.1-0.1
	c-2.9,5-2.6,7.2,1.5,11.5l-0.4,0.7c-3.8-1.8-5.4-6.2-3.7-10c0.5-1,1.2-2,2.1-2.7l0.1,0.1c2.5-3,6.9-3.5,10-1
	c0.1,0.1,0.1,0.1,0.2,0.2l1.2,1.2l0,0C277.5,494.8,277.5,499.8,274.4,502.9z M292.4,492.2v12.3h-1v-14.8l0.6-0.4l3.7,5.9l-0.7,0.5
	L292.4,492.2z M298,501.4l-2.6-4.7l0.8-0.4l2.6,4.7L298,501.4z M301,504.8c-2.6-1.1-1.7-2.2-0.9-3.9c0.3-1.9,0.3-3.9,0-5.8v-5.3
	l0.9,0.3V504.8z M308.2,383.7c-3.5-6.6-8.7-5.1-14.1-5.1v80.5c0,4.8-1.3,10,5.5,13.5h-20.3c6.6-3.6,5.3-8.8,5.3-13.6v-76.3l0.1-4
	c-5.4-0.5-10.4-1.3-14,5V374h37.6V383.7z M315.7,505v-16.5l6.8,3l-0.5,0.5l-5-1.8v14.8l6.2-4.2l0.5,0.6
	C322.3,504.2,318.9,505.8,315.7,505z M324,501.3l-0.6-0.6l-0.4-8l-0.8-0.8l0.5-0.5l0.7,0.8l0,0C326,494.6,326.2,498.6,324,501.3z
	 M317.9,472.7c7.4-4.9,4.2-12,4.5-18.3c0.3-22.9,0-45.8,0-68.7c0.2-4.4,0.7-8.7-3.7-11.9H337c-7,4.2-4.8,10.5-4.9,16.1V461
	c0,4.2-0.4,8.5,5.5,11.7H317.9z M346.9,497.3l-6.4,0.5v5.5l6.3,0.5l0,1.2h-7.3v-15.9h7.3v0.6l-6.3,0.4v5.9l6.4,0.4V497.3z
	 M363.1,492.4v12.2h-1.2v-15.1l0.8-0.3l3.7,6.2l-0.6,0.5L363.1,492.4z M371.5,504.6l-0.6,0.4l-4.7-8.1l0.7-0.5l2.7,3.4h0.9v-10h1.1
	V504.6z M379.9,389.3v47.1c0,2.2-0.5,4.4-1.4,6.4c-5.4,9.8-10.5,19.7-15.7,30.2c-5.6-11.2-11-21.9-16.3-32.6
	c-0.4-1.2-0.5-2.6-0.4-3.9V385c0-4.2,0.3-8.2-5.3-10.9h14.9v3.9c0,17,0.5,33.9,0,50.9c-0.1,8.6,2.5,16.9,7.3,24
	c4.5-6.9,7-14.9,7.2-23.1c-0.7-17,0-34.3,0-51.5v-4.2h14.3C378,378,380,384,379.9,389.3z M388.8,501c2.3,4,6.4,3.6,11.2,1.3
	c-2.6,3.3-7.4,3.8-10.7,1.2c-0.3-0.2-0.5-0.5-0.8-0.7c-3.2-3.1-3.3-8.1-0.3-11.3c0.1-0.1,0.2-0.2,0.3-0.3c2.7-3,7.3-3.3,10.3-0.6
	c0.4,0.4,0.8,0.8,1.1,1.3c-4.8-2.4-8.9-2.8-11.2,1.6C387.7,495.9,387.7,498.6,388.8,501z M421.6,496.7v0.7l-6.3,0.7v5.5l6.2,0.6v0.6
	h-7.2v-15.5h7.2l0.1,0.9l-6.3,0.3v6L421.6,496.7z M421.8,383.3c-5-7.6-12.1-3.8-18.5-4.8v56.4H417v4.8h-13.6v28
	c9.8,1.4,12.7,0.8,18.4-3.8v8.7h-32.9c7.1-4.7,4.5-11.5,4.5-17.5c0.2-23.1,0-46.1,0-69.2c0.2-4.5,0.7-9-3.7-12.2h32.1V383.3z"/>
<path class="st0" d="M92.9,493.8c-1.1,2.4-1.1,5.1,0,7.5c2.3,4,6.4,3.6,11.2,1.3c-2.6,3.3-7.4,3.8-10.7,1.2
	c-0.3-0.2-0.5-0.5-0.8-0.7c-3.2-3.1-3.3-8.1-0.3-11.3c0.1-0.1,0.2-0.2,0.3-0.2c0.5-0.5,1-1,1.6-1.4c2.3-1.8,5.6-1.9,8,0
	c0.4,0.3,0.7,0.6,1,0.9c0.3,0.3,0.6,0.7,0.9,1C99.4,489.8,95.2,489.5,92.9,493.8z"/>
<path class="st0" d="M90.6,384.7c-0.7-5.2,3-10,8.2-10.7c0.8-0.1,1.6-0.1,2.3,0l22.4-0.3v9.5c-5.5-7.7-12.7-4-19.4-4.4
	c-3-0.2-4.2,2.6-4.2,5.6v77c0,5.4,1.4,6.8,6.7,6.8h5.9c6.2,0,6.2,0,10.9-4.2v9.1H99.1c-5-0.3-8.8-4.5-8.5-9.5c0-0.2,0-0.5,0.1-0.7
	V384.7z"/>
<path class="st0" d="M132.5,492.2c2.8,3.3,2.5,8.2-0.8,11c-0.1,0-0.1,0.1-0.2,0.1c-3.1,2.7-7.7,2.7-10.8,0
	c-3.3-2.7-3.8-7.6-1.1-10.9c0.1-0.1,0.1-0.2,0.2-0.2l0,0l0.8-0.8c2.6-3.1,7.3-3.5,10.4-0.8C131.5,491,132,491.6,132.5,492.2
	l-0.5,0.5c-2.9-3-7.5-3.4-10.8-0.8l0,0l-0.7,0.8l0.1,0.1c-1.3,3-2.2,6.4,0.5,8.7c1.9,1.6,4.4,2.5,6.9,2.4c4.9-0.5,6.5-5.2,4.2-11.1
	L132.5,492.2z"/>
<polygon class="st0" points="136.1,349.4 116.6,349.4 116.6,348.9 136.1,348.9 "/>
<path class="st0" d="M98,168c-0.9,0-1.9-0.8-2.8-1.2c0.9-0.5,1.9-0.9,2.9-1.1c14.7-0.2,29.3-0.4,44-0.5c1,0,2.1,0.9,3.1,1.4
	c-1,0.6-2,1-3.2,1.2h-22l0,0.2H98z"/>
<path class="st0" d="M106.9,219.8c14.3-5.3,28.6-10.6,43.1-15.9c0.8-0.1,1.6-0.1,2.5,0l0.1,1c-0.6,0.6-1.2,1-1.9,1.4
	c-14.3,5.4-28.7,10.7-43,15.9c-0.6,0.2-1.4-0.4-2.2-0.6C105.9,221,106.3,220,106.9,219.8z"/>
<path class="st0" d="M155.2,498.6c0,0.8-0.6,1.7-0.3,2.4c0.6,1.2,1.2,2.5,1.6,3.8l-5.3-5.7l-1,0.8l-0.6,4.7h-0.7v-15.7l6,1.3l0,0
	C158.4,492.9,158.6,495.2,155.2,498.6L155.2,498.6z"/>
<path class="st0" d="M157.2,110.9c-9.7-5.4-19.3-10.9-28.9-16.3l0.1-1.5c1,0,2.1-0.3,2.8,0c9.1,5.2,18.2,10.4,27.2,15.6
	c0.6,0.3,0.7,1.5,1.1,2.2C158.8,110.9,157.8,111.2,157.2,110.9z"/>
<path class="st0" d="M161.5,447.2c0.6-3.9-2.1-7.5-6-8.1c-1.8-0.3-3.6,0.2-5.1,1.2c-1.7,1.3-2.7,3.3-2.8,5.4c-0.3,8.9,0,17.8,0,26.9
	H133c7-4.2,4.5-10.7,4.6-16.4v-70c0-4.5,1-9.3-3.9-12.7h28.9c4.8,0.3,8.5,4.2,8.5,9V421c0,5-4.2,9.1-9.2,9h-8.8
	c-3.9,0.5-5.1,1.6-5.5,5.1c5.5,0,10.7-0.3,15.8,0c4.7,0.8,8,5,7.7,9.8v14.9c0,5-1.3,9.6,3.9,12.7h-13.6V447.2z"/>
<path class="st0" d="M177.2,490l1.6,1.4l-0.5,0.4l-1.6-1.4h-4.1c-1.1,8-0.9,8.5,3.9,8.1l0,0l0.9-0.6l0.1,0.1l0.7-0.7l0.5,0.4
	l-0.8,0.8l-0.1-0.1l-0.9,0.5l1.7,4.6l0.5,1.2l-1-0.8l-4.2-4.9l-1.1,0.8l-0.5,4.8h-0.5V489l5.4,0.9h0L177.2,490L177.2,490z"/>
<path class="st0" d="M178.9,491.4c1.7,1.6,1.8,4.3,0.2,6c0,0-0.1,0.1-0.2,0.1l-0.5-0.4v-5.3L178.9,491.4z"/>
<path class="st0" d="M181.1,165c0.6,0,1.3,0.8,1.9,1.3c-0.6,0.5-1.3,1.3-2,1.3h-10.5l-0.1,0h-10.6c-0.7,0-1.4-0.8-2.1-1.1
	c0.7-0.5,1.4-1.5,2.1-1.5C167,164.9,174,164.9,181.1,165z"/>
<path class="st0" d="M185.5,253.2c-6.7,8.3-13.5,16.6-20.4,24.7c-0.5,0.6-1.7,0.6-2.5,0.8l-0.4-1.3c7.1-8.5,14.1-17.2,21.2-25.7
	c0.4-0.5,1.5-0.5,2.2-0.7V253.2z"/>
<path class="st0" d="M186.5,192.9c-6.8,2.7-13.7,5.2-20.5,7.7c-0.6,0-1.5-0.5-2.3-0.9l0.3-1.1c7.2-2.7,14.4-5.4,21.7-8
	c0.5,0,1.3,0.3,1.9,0.4C187.2,191.6,187,192.7,186.5,192.9z"/>
<path class="st0" d="M104.3,111.6l0.9-1.1l82.2,29.2v1.5c-1.1,0.2-2.2,0.2-3.3,0c-16.5-5.7-33-11.5-49.5-17.5
	c-9.2-3.1-18.4-6.5-27.7-9.8C105.9,113.5,105.2,112.4,104.3,111.6z"/>
<path class="st0" d="M185.3,154.9c-9.2-1.4-18.4-3-27.8-4.7c-14.1-2.4-28.1-4.7-42.2-7.1c-1.5-0.4-2.9-0.9-4.2-1.6l1-1.6L190,153
	v1.7C188.5,154.9,186.9,155,185.3,154.9z"/>
<path class="st0" d="M137.3,186.1c18-3.3,36-6.6,54-9.8c1.2,0,2.4,0.3,3.6,0.7c-0.9,0.7-1.9,1.3-3,1.7c-25.3,4.8-50.5,9.4-75.7,13.9
	c-1.4,0.2-2.8,0.2-4.2,0v-1.7L137.3,186.1z"/>
<path class="st0" d="M161.2,88.7l-29.7-24.5l0.3-1.3c1,0.2,2.3,0,3,0.7c16.6,13.6,33.2,27.2,49.7,40.9l15.7,13L200,119
	c-1-0.3-2.3,0-3-0.8C185,108.4,173.1,98.5,161.2,88.7z"/>
<path class="st0" d="M201.9,134.8c-1,0-2.2,0.3-2.9,0c-8.9-5-17.8-10-26.6-15.1c-0.9-0.5-1.3-1.6-2-2.4l1.3-1
	c9.5,5.3,18.9,10.7,28.3,16.1C200.8,132.8,201.3,134,201.9,134.8z"/>
<path class="st0" d="M174.5,28.9c-0.3-0.8,0-1.8,0-2.7h1.2l25.1,42.5c-2.2,2.7-2.8,0.4-3.6-0.9l-20.4-34.8
	C176,31.8,175.2,30.3,174.5,28.9z"/>
<path class="st0" d="M201.2,214.2L135,270.7l-1.4-0.7c0.3-1,0.9-2,1.5-2.8c14.4-12.4,28.8-24.7,43.3-37c6.4-5.4,12.7-10.9,19.2-16.3
	c1-0.5,2.1-0.9,3.2-1L201.2,214.2z"/>
<polygon class="st0" points="194.9,496.3 201.3,496.7 201.3,497.6 195,498 195,503.7 201.2,504.1 201.2,504.8 193.8,504.8 
	193.8,489.2 201.2,489.2 201.2,490 194.9,490.4 "/>
<path class="st0" d="M132,237.1c12.8-7.6,25.6-15.2,38.5-22.7c9.6-5.6,19.2-11.3,28.8-16.9c1-0.4,2.1-0.6,3.2-0.6l0.3,1.4l-72,42.4
	l-1.2-0.7C130.3,238.8,131.1,237.9,132,237.1z"/>
<path class="st0" d="M212.3,87.6c-2.6,1.8-4.7-0.5-6.9-7.5C210,81.5,209.6,85.7,212.3,87.6z"/>
<path class="st0" d="M180.2,373.8h33.4v8.7c-2.8-1.7-4.5-5.2-8.5-4.2c-3.3,0.3-6.7,0.3-10,0v56.5h13.8v4.9l-13.9,0.2V468
	c6.3-1.2,13.3,2.8,18.5-5v9.5h-32.1c0,0,0-0.5,0-0.5c3.3-2.6,5-6.8,4.2-11c-0.1-25.3-0.1-50.5,0-75.8
	C185.5,380.9,185.5,376.7,180.2,373.8z"/>
<path class="st0" d="M162.9,58.1c-0.8-1.3-1.5-2.8-2-4.2c1.4,0.7,2.8,1.5,3.9,2.6c16.1,18.7,32.1,37.4,48.1,56.2
	c1.2,1.4,2.3,2.8,3.5,4.4c-0.5,0.5-0.9,1.2-1.2,1.2c-0.8-0.2-1.6-0.6-2.2-1.2c-3.6-4.2-7-8.1-10.5-12.2
	C189.3,89.2,176.1,73.7,162.9,58.1z"/>
<path class="st0" d="M196,240.5c-0.5,0.5-1.4,0.7-2.2,1c0-0.9-0.3-2,0-2.6c6.7-8.2,13.4-16.4,20.2-24.5c0.5-0.5,1.2-0.8,1.9-0.8
	c0.5,0,0.9,0.7,1.3,1.1c-0.5,0.6-0.8,1.2-1.2,1.7C209.3,224.4,202.7,232.5,196,240.5z"/>
<path class="st0" d="M176.9,306.1c-0.1-1.1,0-2.2,0.3-3.3c6.8-12.7,13.9-24.8,20.8-37.1l20.9-36.8l1.7,0.3c-0.2,1.3-0.5,2.5-1,3.7
	c-10.3,18.3-20.7,36.7-31.1,55.1l-10.2,18.1H176.9z"/>
<path class="st0" d="M205,31.7c-0.3-1.2-0.5-2.4-0.5-3.7l1.5-0.3c0.5,1.1,1.1,2.2,1.5,3.4c4.9,13.2,9.8,25.9,14.6,39
	c0.6,1.2,1.3,2.4,2,3.5L235.9,61l0.1,0c-1.5-7.5-3.2-15-4.6-22.6c-1.8-9.5-3.5-19-5.1-28.5c0-1,0.3-2,0.7-2.9l1.4,0.2l5.8,31.5
	c1.1,5.9,2.1,11.8,3.3,17.7c0.4,1.2,0.9,2.3,1.5,3.4c10.2-5.3,22.4-5.5,32.8-0.7l2.3,0.9l-2.1-0.8c0.8-2.8,1.8-5.6,2.3-8.5
	c2.3-13.3,4.2-26.6,6.7-39.8c0.4-1.5,1-2.9,1.7-4.2l1.5,0.6c-1.2,7.5-2.4,14.6-3.6,21.9c-1.8,10.4-3.7,20.8-5.5,31.2l-0.1,0
	l12.6,11.9c2.4-6.3,4.8-12.7,7.1-18.9c2.8-7.8,5.5-15.5,8.5-23.3c0.4-1.1,1.7-1.8,2.5-2.7c0.2,1.1,0.2,2.3,0,3.4
	c-4.8,13.8-9.8,27.6-14.6,41.4c-0.5,1.5-0.9,3-1.1,4.6c3,6,4.3,12.8,3.7,19.5h-18.9v4.6h18.7v12.1h-18.6v4.7h18.7v11.9h-18.7
	l-0.3,4.7h18.9v12.3h-18.6v4.5h18.8c0.7,14.5-3.9,26.2-15.7,34.3c-11.8,8.8-27.8,9.6-40.4,1.8c-13.6-7.7-19.2-20.1-18.7-35.9h18.8
	v-4.7H219v-12.2h18.7v-4.5H219v-12h18.7l0.3-4.7h-18.9v-12.1h18.6l0.3-4.5h-18.9c-0.6-6.7,0.4-13.4,2.9-19.5l0.1-0.1
	c-2.6-6.5-5.2-13-7.7-19.6C211.2,48.7,208,40.2,205,31.7z"/>
<path class="st0" d="M224,502.9c-0.2,0.3-0.4,0.5-0.6,0.7c-1.4,1.8-4.1,2.2-5.9,0.7c-0.3-0.2-0.5-0.5-0.7-0.7c1.9,1.4,4.6,0.9,5.9-1
	c0.1-0.1,0.2-0.3,0.2-0.4c1.4-2.2,0-4-1.9-5.2c-0.8-0.5-1.9-0.6-2.4-1.2c-1-1-1.7-2.4-2-3.8c0-0.9,1.4-2.4,2.4-2.6
	c1.3,0,2.7,0.3,3.9,0.8l-5,1.3c0.7,1.3,1.6,2.6,2.5,3.8c0.7,0.8,1.9,1,2.6,1.7C224.8,498.3,225.3,500.9,224,502.9z"/>
<polygon class="st0" points="245.3,490.9 246.3,492.3 245.6,497.7 244.8,498.5 244.7,498.5 239.5,500.3 239,504.5 238.4,504.5 
	238.4,489.2 243.8,490 244,489.8 245.3,490.9 244.8,491.4 "/>
<path class="st0" d="M254.1,51.4c-0.1-9.9-0.1-19.8,0-29.7c0-0.9,0.8-1.8,1.2-2.8c0.5,0.9,0.9,1.9,1.1,2.9v14.9l0.3-0.2v14.9
	c-0.2,1-0.7,2-1.2,2.9C255,53.4,254.1,52.4,254.1,51.4z"/>
<path class="st0" d="M251.7,472.7v-32.6h-14.2v32.5h-14.4c7.1-4.6,4.5-11.4,4.6-17.5c0.2-23.4,0-46.9,0-70.3
	c0-7.8,3.4-11.1,11.3-11.1h10.2c8.5,0,11.7,3.3,11.7,11.6v73.5c0.1,5-1.3,10.3,5.4,13.9H251.7z"/>
<path class="st0" d="M274.4,491.7c3.1,3.1,3.1,8.1,0.1,11.2c-2.6,2.7-6.8,3.1-9.9,1.1l0.4-0.5c3.6,1.8,8,0.3,9.8-3.3
	c1.3-2.6,0.9-5.7-0.9-7.9l-1.2-1.2c-3-1.5-6.6-1.2-9.2,0.9l-0.1-0.1c-2.9,5-2.6,7.2,1.5,11.5l-0.4,0.7c-3.8-1.8-5.4-6.2-3.7-10
	c0.5-1,1.2-2,2.1-2.7l0.1,0.1c2.5-3,6.9-3.5,10-1c0.1,0.1,0.1,0.1,0.2,0.2L274.4,491.7L274.4,491.7z"/>
<path class="st0" d="M277.8,223.9h1.6l12.9,34.5h-2.9c-3.8-10.3-7.6-20.6-11.4-30.8C277.8,226.3,277.7,225.1,277.8,223.9z"/>
<polygon class="st0" points="295.7,495.3 295.1,495.8 292.4,492.2 292.4,504.5 291.5,504.5 291.5,489.7 292,489.3 "/>
<polygon class="st0" points="296.2,496.2 298.8,500.9 298,501.4 295.4,496.7 "/>
<path class="st0" d="M300.1,489.8l0.9,0.3v14.7c-2.6-1.1-1.7-2.2-0.9-3.9c0.3-1.9,0.3-3.9,0-5.8V489.8z"/>
<path class="st0" d="M300.2,88c-0.3-0.4-0.7-1.2-0.5-1.6c1-2.1,2.2-4.1,3.4-6.1c0.2-0.3,1.1-0.5,1.6-0.4s0.6,0.6,1,1
	c-1.5,2.5-2.8,4.8-4.2,7.1C301.1,88.3,300.6,88.3,300.2,88z"/>
<path class="st0" d="M270.6,374h37.6v9.7c-3.5-6.6-8.7-5.1-14.1-5.1v80.5c0,4.8-1.3,10,5.5,13.5h-20.3c6.6-3.6,5.3-8.8,5.3-13.6
	v-76.3l0.1-4c-5.4-0.5-10.4-1.3-14,5V374z"/>
<path class="st0" d="M209.3,153c-0.9,25.7,19.2,47.3,45,48.2c2.1,0.1,4.2,0,6.2-0.2c23.9-1.7,39.1-18.7,42.4-47.7h16.3
	c1.5,22.9-13.1,57.2-54.3,64.4v40.7h7.2c-1.1-6-2.3-12-3.3-18.1c0-0.8,0.6-1.8,0.9-2.8c0.5,0.7,1.4,1.4,1.5,2.2
	c1.3,6.1,2.5,12.4,3.7,18.7h28.1v16.9l-4.2,0.4c3,8,6.1,16,9,24.1c0.2,1,0.2,2,0,3.1c-0.8-0.7-2.1-1.3-2.4-2.2
	c-3.1-8.3-6-16.6-9-24.9h-18.1l7.4,41.4c0.3,1.4,0.6,2.8,0.7,4.2c-0.1,0.9-0.3,1.8-0.7,2.6c-0.5-0.7-1.4-1.3-1.6-2.1
	c-1.6-8.5-3.1-16.7-4.7-25l-4.1-21.1h-16.7v33c-0.1,1.2-0.4,2.4-0.8,3.5l-1.6-0.3l-0.6-36.3H239c-2.5,15.4-5,30.8-7.7,46.4
	c0,0.9-1.1,1.7-1.7,2.5l-1.4-0.8l8.3-48.2h-18.1c-3,8.4-5.9,17-9.1,25.5c-0.3,0.9-1.5,1.5-2.3,2.3c-0.2-1-0.2-2,0-3.1
	c2.7-8.2,5.6-16.5,8.4-24.7h-5.8v-17.6h12.8c4.2-11.2,8.1-22.4,12.2-33.8c0.7,0.1,1.4,0.2,2,0.4l-11.8,33.3h14.5c1-6,2-12,3.1-17.9
	c0-0.9,1.1-1.6,1.7-2.5c0.3,1,1,2,0.8,2.9c-0.8,5.8-1.7,11.6-2.8,17.4h5.3v-40.6c-18.8-2.6-35.4-13.5-45.3-29.7
	c-6.6-10.4-9.8-22.5-9.4-34.8H209.3z"/>
<path class="st0" d="M319.7,237.8c0.3,0.5,0.6,0.9,1.1,1.4c-0.3,0.4-0.7,1.2-0.9,1.1c-0.8-0.1-1.6-0.4-2.2-0.9
	c-3.1-3.5-6.1-7.1-9.2-10.7c-3.7-4.2-7.5-8.8-11.1-13.2c-0.5-0.6-0.3-1.7-0.5-2.6c0.8,0.2,1.8,0.2,2.2,0.7
	C306,221.7,312.9,229.8,319.7,237.8z"/>
<path class="st0" d="M323.2,500.7l0.5,0.6c-1.5,3-4.8,4.5-8,3.7v-16.5l6.8,3l-0.5,0.5l-5-1.8v14.8L323.2,500.7z"/>
<path class="st0" d="M323.5,492.2c2.5,2.4,2.8,6.4,0.5,9.1l-0.6-0.6l-0.4-8l-0.8-0.8l0.5-0.5L323.5,492.2L323.5,492.2z"/>
<path class="st0" d="M311.9,70.3c-0.5-1.7-1.3-2.8-1-3.4c7.8-14,15.8-28,23.7-41.9l1.2,0.1c0,1,0.3,2.2,0,3
	C328.1,41.9,320.3,55.5,311.9,70.3z"/>
<path class="st0" d="M337.6,472.7h-19.7c7.4-4.9,4.2-12,4.5-18.3c0.3-22.9,0-45.8,0-68.7c0.2-4.4,0.7-8.7-3.7-11.9H337
	c-7,4.2-4.8,10.5-4.9,16.1V461C332.1,465.2,331.7,469.5,337.6,472.7z"/>
<path class="st0" d="M322.3,275.3c5,8.5,10.1,17,15.1,25.8c0.3,1,0.4,2.2,0.3,3.3c-0.8-0.6-2-1-2.4-1.8
	c-14.3-24.2-28.6-48.5-42.8-72.8l1-1.3c1,0.7,1.9,1.6,2.7,2.5C305,245.7,313.7,260.5,322.3,275.3z"/>
<polygon class="st0" points="340.6,496.2 346.9,496.5 346.9,497.3 340.5,497.8 340.5,503.4 346.8,503.9 346.9,505.1 339.6,505.1 
	339.6,489.2 346.9,489.2 346.9,489.8 340.6,490.2 "/>
<path class="st0" d="M326.7,140.5c-0.5,0-1.2-0.4-1.8-0.7c0.3-0.6,0.5-1.6,1-1.7c7-2.7,13.9-5.3,20.9-7.8c0.5-0.1,1.4,0.9,2.9,1.7
	C341.3,135.2,334,137.9,326.7,140.5z"/>
<path class="st0" d="M348.9,198.3c-0.8,0.2-1.6,0.8-2.2,0.6c-7.3-2.5-14.5-5.1-21.7-7.7l0-1.1c0.8-0.3,1.8-1,2.5-0.7
	c6.7,2.2,13.3,4.6,20,7C348,196.7,348.4,197.7,348.9,198.3z"/>
<path class="st0" d="M297.3,113.8c16.4-20,32.9-40,49.4-60c0.9-0.8,1.9-1.4,3-1.8l0.6,1.5l-32.9,39.9c-6,7.3-12,14.6-18,21.7
	c-1,0.9-2,1.5-3.2,2.1C296.3,116.1,296.7,114.9,297.3,113.8z"/>
<path class="st0" d="M348.8,276c-6.7-7.7-13.3-15.5-19.9-23.3c-0.5-0.7-0.8-1.5-0.9-2.3c0-0.3,0.7-0.6,1.7-1.4
	c0.4,0.7,0.8,1.5,1.3,2.1c6.5,7.7,13.1,15.3,19.6,23c0.5,0.9,0.8,1.9,0.9,2.9C350.6,276.8,349.3,276.7,348.8,276z"/>
<path class="st0" d="M234.9,350.2h-83.6v-1c5.8-0.3,11.6-0.7,17.4-0.8c21.9-0.2,43.8-0.4,65.6-0.4c3.4,0.4,6.7-1.3,8.5-4.2
	c1.7-2.6,4.9-3.8,7.9-2.9c2.9,0.6,5.9,0.8,9.7,1.3c2.9-2.2,5.7-2.1,9.2,1v-0.1c0,0.1,0.1,0.1,0.1,0.2c2.2,4.4,6.1,4.7,10.6,4.7
	c24.4,0,48.7,0.3,73.1,0.6c2.9,0.3,5.8,0.8,8.7,1.6h-84.8c-2.3-0.3-4.6,0.9-5.7,3c-1.1,1.9-2.9,3.3-5,3.9
	c-5.2,0.2-10.4,0.1-15.6-0.3c-2.8,1.7-6.6,0.9-8.3-2c-0.1-0.2-0.3-0.4-0.4-0.7C240.8,351.5,237.9,350,234.9,350.2z"/>
<polygon class="st0" points="366.4,495.3 365.8,495.8 363.1,492.4 363.1,504.5 361.9,504.5 361.9,489.5 362.7,489.1 "/>
<polygon class="st0" points="370.4,489.9 371.5,489.9 371.5,504.6 370.9,505 366.1,496.9 366.8,496.4 369.5,499.8 370.4,499.8 "/>
<path class="st0" d="M311.5,116.6l53.4-45.5c3.6-3.1,7.1-6.2,10.8-9.2c0.9-0.5,1.9-0.8,2.9-0.8c-0.4,0.9-0.6,2.1-1.3,2.7
	c-16.3,14-32.6,27.9-48.9,41.8c-4.6,3.9-9.1,7.8-13.8,11.7c-0.9,0.5-1.9,0.8-2.9,0.8L311.5,116.6z"/>
<path class="st0" d="M377.2,267c-13.3-10.9-26.7-21.9-40-32.9l-25.1-20.8c1.2-3.3,2.5-1.3,3.6-0.3l30,24.7l35,29l-0.4,1.6
	C379.3,268,378.2,267.6,377.2,267z"/>
<path class="st0" d="M309.7,132.6l72-42.4c1.5,2.1,1.5,2.2-1.1,3.7l-37.2,21.9c-9.9,5.8-19.8,11.7-29.7,17.5
	c-1.1,0.4-2.3,0.7-3.5,0.7L309.7,132.6z"/>
<path class="st0" d="M312.7,199c-0.9-0.7-1.8-1.6-2.5-2.5l1.3-1.1l72.6,41.2l-0.3,1.4c-1.1,0.1-2.2-0.1-3.3-0.4
	c-14-7.8-27.8-15.7-41.7-23.6C330.2,209,321.5,204,312.7,199z"/>
<path class="st0" d="M370.2,374.1h14.3c-6.5,3.9-4.5,9.9-4.6,15.2v47.1c0,2.2-0.5,4.4-1.4,6.4c-5.4,9.8-10.5,19.7-15.7,30.2
	c-5.6-11.2-11-21.9-16.3-32.6c-0.4-1.2-0.5-2.6-0.4-3.9V385c0-4.2,0.3-8.2-5.3-10.9h14.9v3.9c0,17,0.5,33.9,0,50.9
	c-0.1,8.6,2.5,16.9,7.3,24c4.5-6.9,7-14.9,7.2-23.1c-0.7-17,0-34.3,0-51.5V374.1z"/>
<polygon class="st0" points="395.2,349.4 374.6,349.4 374.6,349.1 395.1,349.1 "/>
<path class="st0" d="M321.9,175.1c14.2,2.3,28.4,4.7,42.4,7.1l31.7,5.3c1,0.1,2.1,0.3,3,0.6c0.7,0.3,1.1,1,1.7,1.6
	c-0.7,0.3-1.5,1-2.1,0.9c-5.5-0.8-11.1-1.7-16.7-2.6l-59.9-10.1c-1.5-0.3-2.9-0.6-4.2-0.9l-0.2-1.6
	C319.1,175.1,320.5,175,321.9,175.1z"/>
<path class="st0" d="M388.8,493.5c-1.1,2.4-1.1,5.1,0,7.5c2.3,4,6.4,3.6,11.2,1.3c-2.6,3.3-7.4,3.8-10.7,1.2
	c-0.3-0.2-0.5-0.5-0.8-0.7c-3.2-3.1-3.3-8.1-0.3-11.3c0.1-0.1,0.2-0.2,0.3-0.3c2.7-3,7.3-3.3,10.3-0.6c0.4,0.4,0.8,0.8,1.1,1.3
	C395.3,489.5,391.1,489.2,388.8,493.5z"/>
<path class="st0" d="M322.4,153.4c0.9-0.7,1.7-1.7,2.7-2c23.8-4.5,47.5-8.9,71.3-13.2c1.4-0.2,2.8-0.2,4.2,0l-0.2,1.9l-24.9,4.7
	c-16.6,3.1-33.2,6.1-49.8,9.1C324.6,154,323.5,153.8,322.4,153.4z"/>
<path class="st0" d="M361.9,124.7c14.1-5.4,28.3-10.7,42.7-15.9c0.8-0.3,1.7,0,2.6,0.2l0.2,1.1c-0.7,0.5-1.4,0.9-2.2,1.3
	c-14.1,5.3-28.3,10.6-42.4,15.8c-0.7,0.3-1.7,0-2.6-0.3C360.8,126,361.2,125,361.9,124.7z"/>
<path class="st0" d="M405.4,219.8c-4.5-1.5-8.9-3.1-13.3-4.7c-9.6-3.4-19.2-6.8-28.8-10.3c-0.9-0.3-1.5-1.6-2.3-2.4
	c1-0.2,2.1-0.2,3.1,0c13.8,4.8,27.6,9.7,41.4,14.7c1,0.4,1.9,0.9,2.8,1.4l-0.3,1.2C407.2,220,406.3,220,405.4,219.8z"/>
<path class="st0" d="M334.3,163.6c26.4-0.2,52.9-0.4,79.3-0.6c1.3,0.2,2.5,0.5,3.7,1.1l-0.4,1.7h-19.9l-64,0.4
	c-0.8,0.1-1.6,0.1-2.3,0c-0.5,0-0.9-0.7-1.3-1.1c0.5-0.5,0.8-1.3,1.4-1.4C332,163.5,333.2,163.5,334.3,163.6z"/>
<polygon class="st0" points="415.3,490.4 415.3,496.4 421.6,496.7 421.6,497.4 415.3,498.1 415.3,503.6 421.5,504.2 421.5,504.8 
	414.2,504.8 414.2,489.2 421.5,489.2 421.6,490.1 "/>
<path class="st0" d="M403.3,378.5v56.4H417v4.8h-13.6v28c9.8,1.4,12.7,0.8,18.4-3.8v8.7h-32.9c7.1-4.7,4.5-11.5,4.5-17.5
	c0.2-23.1,0-46.1,0-69.2c0.2-4.5,0.7-9-3.7-12.2h32.1v9.5C416.8,375.7,409.7,379.5,403.3,378.5z"/>
<title>HTML5 Logo</title>
<g>
	<path class="st1" d="M274.8,150.9v-4.5h18.6V134h-18.9l0.3-4.7h18.7v-11.9h-18.7v-4.7h18.6v-12.1h-18.7v-4.6h18.9
		c0.5-6.7-0.8-13.4-3.7-19.5l-2.3-4.5l0,0l-12.6-11.9l-0.9-0.3l-2.3-0.9c-10.5-4.8-22.6-4.5-32.8,0.7c0,0,0,0-0.1,0l-2.9,1.2l-0.1,0
		L224,73.6l0,0l-1.9,3.1l-0.1,0.1c-2.5,6.2-3.5,12.9-2.9,19.5H238l-0.3,4.5h-18.6V113H238l-0.3,4.7H219v12h18.7v4.5H219v12.2h18.6
		v4.7h-18.8c-0.5,15.7,5.1,28.1,18.7,35.9c12.5,7.8,28.6,7,40.4-1.8c11.7-8.1,16.4-19.8,15.7-34.3H274.8z M260,184.5
		c-18.6,2.1-35.4-11.2-37.6-29.8l18.8,0v-11.9h-18.6l-0.3-4.7h18.7v-12.2h-18.5v-4.6h18.7v-12.1h-18.6v-4.7h18.5v-12h-18.5
		c-0.1-18.5,14.9-33.6,33.5-33.7c18.5-0.1,33.6,14.9,33.7,33.5h-18.6v12.1h18.6v4.8h-18.6v12h18.6v4.8h-18.6v11.9h18.6v4.7h-18.6v12
		h18.6C288.1,170.2,275.8,182.6,260,184.5z"/>
	<path class="st0" d="M271.3,104.3h18.6v4.8h-18.6v12h18.6v4.8h-18.6v11.9h18.6v4.7h-18.6v12h18.6c-1.7,15.7-14.1,28.2-29.8,30
		c-18.6,2.1-35.4-11.2-37.6-29.8l18.8,0v-11.9h-18.6l-0.3-4.7h18.7v-12.2h-18.5v-4.6h18.7v-12.1h-18.6v-4.7h18.5v-12h-18.5
		c-0.1-18.5,14.9-33.6,33.5-33.7c18.5-0.1,33.6,14.9,33.7,33.5h-18.6V104.3z"/>
	<path class="st1" d="M264.9,258.4v-40.7c41.2-7.2,55.8-41.5,54.3-64.4h-16.3c-3.3,29-18.5,46-42.4,47.7c-2.1,0.2-4.2,0.3-6.2,0.2
		c-25.7-0.9-45.9-22.5-45-48.2h-16.5c-0.4,12.3,2.9,24.4,9.4,34.8c9.8,16.2,26.5,27.1,45.3,29.7v40.6h-5.3l-2.9,0h-29.7v17.6h89.1
		l0.1,0l4.2-0.4v-16.9H264.9z M299.2,271.4h-86.1v-9h38.1v-48c-30.1-2.6-53.6-27.2-54.7-57.4h9.2c0,0.3,0,0.6,0,0.9
		c1.8,27.7,25.8,48.7,53.5,46.9c19.5-0.9,44-14.5,47.4-47.9h8.8c-0.8,30.3-24.4,55-54.5,57.5v47.8h38.1V271.4z"/>
	<path class="st0" d="M261.1,262.2h38.1v9.2h-86.1v-9h38.1v-48c-30.1-2.6-53.6-27.2-54.7-57.4h9.2c0,0.3,0,0.6,0,0.9
		c1.8,27.7,25.8,48.7,53.5,46.9c19.5-0.9,44-14.5,47.4-47.9h8.8c-0.8,30.3-24.4,55-54.5,57.5V262.2z"/>
	<path class="st1" d="M161.5,472.6H175c-5.2-3.1-3.9-7.8-3.9-12.7V445c0.3-4.7-3-9-7.7-9.8c-5.2-0.3-10.4,0-15.8,0
		c0.4-3.5,1.6-4.7,5.5-5.1h8.8c5,0,9.2-4,9.2-9v-38.5c0-4.8-3.7-8.7-8.5-9h-28.9c4.8,3.4,3.9,8.2,3.9,12.7v70
		c0,5.7,2.4,12.1-4.6,16.4h14.5c0-9.2-0.3-18,0-26.9c0.1-2.1,1.1-4.1,2.8-5.4c1.5-1,3.3-1.5,5.1-1.2c3.9,0.6,6.6,4.2,6,8.1V472.6z
		 M147.6,378.5L147.6,378.5c3.2,0,6.1,0,8.9,0.1c0.2,0,0.4,0,0.7,0c2.5,0.2,4.5,2.4,4.3,4.9v37.3c0,0.2,0,0.4,0,0.7
		c-0.3,2.5-2.5,4.4-5.1,4.1l-8.7,0.4V378.5z"/>
	<path class="st0" d="M161.4,383.5v37.3c0,0.2,0,0.4,0,0.7c-0.3,2.5-2.5,4.4-5.1,4.1l-8.7,0.4v-47.5h0c3.1,0,6,0,8.9,0.1
		c0.2,0,0.4,0,0.7,0C159.7,378.8,161.6,381,161.4,383.5z"/>
	<path class="st1" d="M266.3,472.7c-6.7-3.7-5.3-8.9-5.4-13.9v-73.5c0-8.2-3.2-11.6-11.7-11.6H239c-7.9,0-11.3,3.3-11.3,11.1
		c0,23.4,0.2,46.9,0,70.3c0,6,2.5,12.8-4.6,17.5h14.4v-32.5h14.2v32.6H266.3z M251.5,434.9l-14,0.1v-51.1c0-3.8,1.8-5.4,6.1-5.4
		c5.7-0.1,8,1.2,8,5.1V434.9z"/>
	<path class="st0" d="M251.5,383.6v51.3l-14,0.1v-51.1c0-3.8,1.8-5.4,6.1-5.4C249.2,378.4,251.5,379.7,251.5,383.6z"/>
	<path class="st1" d="M379.9,389.3v47.1c0,2.2-0.5,4.4-1.4,6.4c-5.4,9.8-10.5,19.7-15.7,30.2c-5.6-11.2-11-21.9-16.3-32.6
		c-0.4-1.2-0.5-2.6-0.4-3.9V385c0-4.2,0.3-8.2-5.3-10.9h14.9v3.9c0,17,0.5,33.9,0,50.9c-0.1,8.6,2.5,16.9,7.3,24
		c4.5-6.9,7-14.9,7.2-23.1c-0.7-17,0-34.3,0-51.5v-4.2h14.3C378,378,380,384,379.9,389.3z"/>
	<path class="st1" d="M403.3,378.5v56.4H417v4.8h-13.6v28c9.8,1.4,12.7,0.8,18.4-3.8v8.7h-32.9c7.1-4.7,4.5-11.5,4.5-17.5
		c0.2-23.1,0-46.1,0-69.2c0.2-4.5,0.7-9-3.7-12.2h32.1v9.5C416.8,375.7,409.7,379.5,403.3,378.5z"/>
	<path class="st1" d="M195.1,378.3v56.5h13.8v4.9l-13.9,0.2V468c6.3-1.2,13.3,2.8,18.5-5v9.5h-32.1c0,0,0-0.5,0-0.5
		c3.3-2.6,5-6.8,4.2-11c-0.1-25.3-0.1-50.5,0-75.8c0-4.2,0-8.5-5.4-11.3h33.4v8.7c-2.8-1.7-4.5-5.2-8.5-4.2
		C201.8,378.7,198.4,378.7,195.1,378.3z"/>
	<path class="st1" d="M99.9,461.4c0,5.4,1.4,6.8,6.7,6.8h5.9c6.2,0,6.2,0,10.9-4.2v9.1H99.1c-5-0.3-8.8-4.5-8.5-9.5
		c0-0.2,0-0.5,0.1-0.7v-78.2c-0.7-5.2,3-10,8.2-10.7c0.8-0.1,1.6-0.1,2.3,0l22.4-0.3v9.5c-5.5-7.7-12.7-4-19.4-4.4
		c-3-0.2-4.2,2.6-4.2,5.6V461.4z"/>
	<path class="st1" d="M308.2,374v9.7c-3.5-6.6-8.7-5.1-14.1-5.1v80.5c0,4.8-1.3,10,5.5,13.5h-20.3c6.6-3.6,5.3-8.8,5.3-13.6v-76.3
		l0.1-4c-5.4-0.5-10.4-1.3-14,5V374H308.2z"/>
	<path class="st1" d="M322.3,454.4c0.3-22.9,0-45.8,0-68.7c0.2-4.4,0.7-8.7-3.7-11.9H337c-7,4.2-4.8,10.5-4.9,16.1V461
		c0,4.2-0.4,8.5,5.5,11.7h-19.7C325.2,467.8,322.1,460.7,322.3,454.4z"/>
	<path class="st2" d="M353.4,348.7c-24.4-0.3-48.7-0.6-73.1-0.6c-4.5,0-8.4-0.3-10.6-4.7c0-0.1,0-0.1-0.1-0.2v0.1
		c-3.5-3.1-6.3-3.2-9.2-1c-3.8-0.5-6.8-0.8-9.7-1.3c-3-0.9-6.2,0.3-7.9,2.9c-1.7,2.9-5.1,4.6-8.5,4.2c-21.9,0-43.8,0.2-65.6,0.4
		c-5.8,0-11.6,0.5-17.4,0.8v1h83.6c3-0.3,5.9,1.3,7.4,3.9c0.1,0.2,0.2,0.5,0.4,0.7c1.8,2.9,5.5,3.8,8.3,2c5.2,0.4,10.4,0.5,15.6,0.3
		c2.1-0.5,4-1.9,5-3.9c1-2.1,3.3-3.4,5.7-3h84.8C359.2,349.5,356.3,349,353.4,348.7z M250.6,349.8c-0.6-2.5-1.7-3.7-4.8-2.5l2.2,0.9
		l-3.1,4.8c-0.8-1.8-2.3-3.6-2-5c0.5-1.9,1.8-3.6,3.6-4.5c1.8-0.3,3.7,0.3,5,1.6c2.4,3.5,4.7,7.1,6.7,10.8
		C254.7,355.4,251.8,353.1,250.6,349.8z M271,352.2c0,0.1-0.1,0.3-0.1,0.4c-1,2.5-3.7,3.7-6.2,2.8c-2.2-1.2-4.2-2.9-5.6-5
		c-1.7-2.4-3.3-5-4.8-7.6l-0.3-0.8l0.8,0.3c1,0.7,2.1,1.4,3.1,2.2c1.9,1.4,3.6,2.6,4.2-1.1c0.1-0.5,1.5-1.2,2.3-1.2
		c1.8,0.3,3.5,0.7,5.2,1.2l0,2.1l0.3,0.5h-0.8c-2.6-0.3-5.3,0-6.1,2.9c-0.4,1.3,0.6,3,0.9,4.5l1.3-0.3l-0.3-1.4l4.2-4.2
		c0.3,0.1,0.6,0.2,0.8,0.3C271.5,348.7,271.9,350.7,271,352.2z"/>
	<path class="st2" d="M417.4,164.1l-0.4,1.7h-19.9l-64,0.4c-0.8,0.1-1.6,0.1-2.3,0c-0.5,0-0.9-0.7-1.3-1.1c0.5-0.5,0.8-1.3,1.4-1.4
		c1.2-0.1,2.3-0.1,3.5,0c26.4-0.2,52.9-0.4,79.3-0.6C415,163.2,416.2,163.6,417.4,164.1z"/>
	<path class="st2" d="M187.4,139.7v1.5c-1.1,0.2-2.2,0.2-3.3,0c-16.5-5.7-33-11.5-49.5-17.5c-9.2-3.1-18.4-6.5-27.7-9.8
		c-1-0.3-1.7-1.4-2.5-2.2l0.9-1.1L187.4,139.7z"/>
	<path class="st2" d="M220.6,229.2c-0.2,1.3-0.5,2.5-1,3.7c-10.3,18.3-20.7,36.7-31.1,55.1l-10.2,18.1h-1.4c-0.1-1.1,0-2.2,0.3-3.3
		c6.8-12.7,13.9-24.8,20.8-37.1l20.9-36.8L220.6,229.2z"/>
	<path class="st2" d="M380.9,266.7l-0.4,1.6c-1.1-0.3-2.2-0.7-3.2-1.3c-13.3-10.9-26.7-21.9-40-32.9l-25.1-20.8
		c1.2-3.3,2.5-1.3,3.6-0.3l30,24.7L380.9,266.7z"/>
	<path class="st2" d="M337.7,304.3c-0.8-0.6-2-1-2.4-1.8c-14.3-24.2-28.6-48.5-42.8-72.8l1-1.3c1,0.7,1.9,1.6,2.7,2.5
		c8.8,14.8,17.5,29.5,26.1,44.3c5,8.5,10.1,17,15.1,25.8C337.7,302.1,337.8,303.2,337.7,304.3z"/>
	<path class="st2" d="M200.3,117.7L200,119c-1-0.3-2.3,0-3-0.8c-12-9.8-23.9-19.6-35.8-29.5l-29.7-24.5l0.3-1.3c1,0.2,2.3,0,3,0.7
		c16.6,13.6,33.2,27.2,49.7,40.9L200.3,117.7z"/>
	<path class="st2" d="M201.2,214.2L135,270.7l-1.4-0.7c0.3-1,0.9-2,1.5-2.8c14.4-12.4,28.8-24.7,43.3-37
		c6.4-5.4,12.7-10.9,19.2-16.3c1-0.5,2.1-0.9,3.2-1L201.2,214.2z"/>
	<path class="st2" d="M194.8,177c-0.9,0.7-1.9,1.3-3,1.7c-25.3,4.8-50.5,9.4-75.7,13.9c-1.4,0.2-2.8,0.2-4.2,0v-1.7l25.4-4.8
		c18-3.3,36-6.6,54-9.8C192.5,176.3,193.7,176.5,194.8,177z"/>
	<path class="st2" d="M378.6,61.1c-0.4,0.9-0.6,2.1-1.3,2.7c-16.3,14-32.6,27.9-48.9,41.8c-4.6,3.9-9.1,7.8-13.8,11.7
		c-0.9,0.5-1.9,0.8-2.9,0.8l-0.3-1.5l53.4-45.5c3.6-3.1,7.1-6.2,10.8-9.2C376.6,61.5,377.6,61.2,378.6,61.1z"/>
	<path class="st2" d="M400.8,189.8c-0.7,0.3-1.5,1-2.1,0.9c-5.5-0.8-11.1-1.7-16.7-2.6l-59.9-10.1c-1.5-0.3-2.9-0.6-4.2-0.9
		l-0.2-1.6c1.4-0.3,2.8-0.3,4.2-0.3c14.2,2.3,28.4,4.7,42.4,7.1l31.7,5.3c1,0.1,2.1,0.3,3,0.6C399.8,188.5,400.2,189.2,400.8,189.8z
		"/>
	<path class="st2" d="M380.6,93.9l-37.2,21.9c-9.9,5.8-19.8,11.7-29.7,17.5c-1.1,0.4-2.3,0.7-3.5,0.7l-0.6-1.4l72-42.4
		C383.2,92.3,383.3,92.4,380.6,93.9z"/>
	<path class="st2" d="M384.2,236.5l-0.3,1.4c-1.1,0.1-2.2-0.1-3.3-0.4c-14-7.8-27.8-15.7-41.7-23.6c-8.8-5-17.5-9.9-26.3-15
		c-0.9-0.7-1.8-1.6-2.5-2.5l1.3-1.1L384.2,236.5z"/>
	<path class="st2" d="M202.9,198.2l-72,42.4l-1.2-0.7c0.7-1,1.5-2,2.4-2.8c12.8-7.6,25.6-15.2,38.5-22.7
		c9.6-5.6,19.2-11.3,28.8-16.9c1-0.4,2.1-0.6,3.2-0.6L202.9,198.2z"/>
	<path class="st2" d="M216.5,117c-0.5,0.5-0.9,1.2-1.2,1.2c-0.8-0.2-1.6-0.6-2.2-1.2c-3.6-4.2-7-8.1-10.5-12.2
		c-13.3-15.5-26.5-31.1-39.7-46.6c-0.8-1.3-1.5-2.8-2-4.2c1.4,0.7,2.8,1.5,3.9,2.6c16.1,18.7,32.1,37.4,48.1,56.2
		C214.1,114,215.2,115.5,216.5,117z"/>
	<path class="st2" d="M350.3,53.6l-32.9,39.9c-6,7.3-12,14.6-18,21.7c-1,0.9-2,1.5-3.2,2.1c0.2-1.2,0.6-2.4,1.1-3.5
		c16.4-20,32.9-40,49.4-60c0.9-0.8,1.9-1.4,3-1.8L350.3,53.6z"/>
	<path class="st2" d="M190,153v1.7c-1.5,0.3-3.1,0.3-4.7,0.3c-9.2-1.4-18.4-3-27.8-4.7c-14.1-2.4-28.1-4.7-42.2-7.1
		c-1.5-0.4-2.9-0.9-4.2-1.6l1-1.6L190,153z"/>
	<path class="st2" d="M400.7,138.3l-0.2,1.9l-24.9,4.7c-16.6,3.1-33.2,6.1-49.8,9.1c-1.2,0-2.3-0.2-3.4-0.5c0.9-0.7,1.7-1.7,2.7-2
		c23.8-4.5,47.5-8.9,71.3-13.2C397.8,138.1,399.3,138.1,400.7,138.3z"/>
	<path class="st2" d="M239,59.8l-3,1.2c0,0,0,0,0,0c-1.5-7.5-3.2-15-4.6-22.6c-1.8-9.5-3.5-19-5.1-28.5c0-1,0.3-2,0.7-2.9l1.4,0.2
		l5.8,31.5c1.1,5.9,2.1,11.8,3.3,17.7C237.8,57.5,238.3,58.7,239,59.8C239,59.8,239,59.8,239,59.8z"/>
	<path class="st2" d="M284.2,7.1c-1.2,7.5-2.4,14.6-3.6,21.9c-1.8,10.4-3.7,20.8-5.5,31.2l-0.1,0l-0.9-0.3l-2.1-0.8
		c0.8-2.8,1.8-5.6,2.3-8.5c2.3-13.3,4.2-26.6,6.7-39.8c0.4-1.5,1-2.9,1.7-4.2L284.2,7.1z"/>
	<path class="st2" d="M224.1,73.7l-2,3.1c0,0,0,0,0-0.1c-2.6-6.5-5.2-13-7.7-19.6c-3.2-8.5-6.4-17-9.4-25.4
		c-0.3-1.2-0.5-2.4-0.5-3.7l1.5-0.3c0.5,1.1,1.1,2.2,1.5,3.4c4.9,13.2,9.8,25.9,14.6,39C222.6,71.3,223.3,72.5,224.1,73.7
		C224,73.6,224.1,73.7,224.1,73.7z"/>
	<path class="st2" d="M407.4,110c-0.7,0.5-1.4,0.9-2.2,1.3c-14.1,5.3-28.3,10.6-42.4,15.8c-0.7,0.3-1.7,0-2.6-0.3
		c0.6-0.7,1-1.8,1.7-2c14.1-5.4,28.3-10.7,42.7-15.9c0.8-0.3,1.7,0,2.6,0.2L407.4,110z"/>
	<path class="st2" d="M286.3,321.4c-0.1,0.9-0.3,1.8-0.7,2.6c-0.5-0.7-1.4-1.3-1.6-2.1c-1.6-8.5-3.1-16.7-4.7-25l-4.1-21.1l0-0.3h3
		l0,0.3l7.4,41.4C285.9,318.5,286.2,320,286.3,321.4z"/>
	<path class="st2" d="M305.6,30.7c-4.8,13.8-9.8,27.6-14.6,41.4c-0.5,1.5-0.9,3-1.1,4.6l-2.3-4.5c0,0,0-0.1,0-0.1
		c2.4-6.3,4.8-12.7,7.1-18.9c2.8-7.8,5.5-15.5,8.5-23.3c0.4-1.1,1.7-1.8,2.5-2.7C305.8,28.4,305.8,29.5,305.6,30.7z"/>
	<path class="st2" d="M408.3,218.6l-0.3,1.2c-0.9,0.1-1.8,0.1-2.7,0c-4.5-1.5-8.9-3.1-13.3-4.7c-9.6-3.4-19.2-6.8-28.8-10.3
		c-0.9-0.3-1.5-1.6-2.3-2.4c1-0.2,2.1-0.2,3.1,0c13.8,4.8,27.6,9.7,41.4,14.7C406.4,217.6,407.4,218.1,408.3,218.6z"/>
	<path class="st2" d="M152.5,204.9c-0.6,0.6-1.2,1-1.9,1.4c-14.3,5.4-28.7,10.7-43,15.9c-0.6,0.2-1.4-0.4-2.2-0.6
		c0.5-0.6,0.8-1.6,1.5-1.9c14.3-5.3,28.6-10.6,43.1-15.9c0.8-0.1,1.6-0.1,2.5,0L152.5,204.9z"/>
	<path class="st2" d="M239,275.6c0,0.1,0,0.2,0,0.2c-2.5,15.4-5,30.8-7.7,46.4c0,0.9-1.1,1.7-1.7,2.5l-1.4-0.8l8.3-48.2l0-0.2H239z"
		/>
	<path class="st2" d="M335.7,28.2c-7.7,13.7-15.4,27.3-23.8,42.1c-0.5-1.7-1.3-2.8-1-3.4c7.8-14,15.8-28,23.7-41.9l1.2,0.1
		C335.7,26.2,336,27.4,335.7,28.2z"/>
	<path class="st2" d="M200.8,68.8c-2.2,2.7-2.8,0.4-3.6-0.9l-20.4-34.8c-0.9-1.3-1.7-2.8-2.3-4.2c-0.3-0.8,0-1.8,0-2.7h1.2
		L200.8,68.8z"/>
	<path class="st2" d="M142,167.8h-22l0,0.2H98c-0.9,0-1.9-0.8-2.8-1.2c0.9-0.5,1.9-0.9,2.9-1.1c14.7-0.2,29.3-0.4,44-0.5
		c1,0,2.1,0.9,3.1,1.4C144.2,167.1,143.1,167.5,142,167.8z"/>
	<path class="st2" d="M292.3,258.4h-2.9c-3.8-10.3-7.6-20.6-11.4-30.8c-0.2-1.2-0.3-2.4-0.3-3.6h1.6L292.3,258.4z"/>
	<path class="st2" d="M236.5,224.8l-11.8,33.3l0,0.1h-2.4c0,0,0-0.1,0.1-0.1c4.2-11.2,8.1-22.4,12.2-33.8
		C235.2,224.5,235.9,224.7,236.5,224.8z"/>
	<path class="st2" d="M258.6,275.5v33.3c-0.1,1.2-0.4,2.4-0.8,3.5l-1.6-0.3l-0.6-36.3l0-0.3H258.6z"/>
	<path class="st2" d="M159.5,110.9c-0.8,0-1.7,0.3-2.3,0c-9.7-5.4-19.3-10.9-28.9-16.3l0.1-1.5c1,0,2.1-0.3,2.8,0
		c9.1,5.2,18.2,10.4,27.2,15.6C159.1,109,159.2,110.2,159.5,110.9z"/>
	<path class="st2" d="M185.5,250.9v2.3c-6.7,8.3-13.5,16.6-20.4,24.7c-0.5,0.6-1.7,0.6-2.5,0.8l-0.4-1.3
		c7.1-8.5,14.1-17.2,21.2-25.7C183.7,251.1,184.8,251.2,185.5,250.9z"/>
	<path class="st2" d="M201.9,134.8c-1,0-2.2,0.3-2.9,0c-8.9-5-17.8-10-26.6-15.1c-0.9-0.5-1.3-1.6-2-2.4l1.3-1
		c9.5,5.3,18.9,10.7,28.3,16.1C200.8,132.8,201.3,134,201.9,134.8z"/>
	<path class="st2" d="M217.2,214.7c-0.5,0.6-0.8,1.2-1.2,1.7c-6.7,8-13.3,16.2-20,24.2c-0.5,0.5-1.4,0.7-2.2,1c0-0.9-0.3-2,0-2.6
		c6.7-8.2,13.4-16.4,20.2-24.5c0.5-0.5,1.2-0.8,1.9-0.8C216.4,213.5,216.8,214.2,217.2,214.7z"/>
	<path class="st2" d="M320.8,239.2c-0.3,0.4-0.7,1.2-0.9,1.1c-0.8-0.1-1.6-0.4-2.2-0.9c-3.1-3.5-6.1-7.1-9.2-10.7
		c-3.7-4.2-7.5-8.8-11.1-13.2c-0.5-0.6-0.3-1.7-0.5-2.6c0.8,0.2,1.8,0.2,2.2,0.7c7,8,13.8,16.1,20.6,24.2
		C320.1,238.3,320.4,238.8,320.8,239.2z"/>
	<path class="st2" d="M351.5,277.1c-0.9-0.3-2.2-0.4-2.7-1.1c-6.7-7.7-13.3-15.5-19.9-23.3c-0.5-0.7-0.8-1.5-0.9-2.3
		c0-0.3,0.7-0.6,1.7-1.4c0.4,0.7,0.8,1.5,1.3,2.1c6.5,7.7,13.1,15.3,19.6,23C351.1,275.1,351.4,276.1,351.5,277.1z"/>
	<path class="st2" d="M256.7,36.6v14.9c-0.2,1-0.7,2-1.2,2.9c-0.5-1-1.4-2-1.4-3c-0.1-9.9-0.1-19.8,0-29.7c0-0.9,0.8-1.8,1.2-2.8
		c0.5,0.9,0.9,1.9,1.1,2.9v14.9L256.7,36.6z"/>
	<path class="st2" d="M218.5,275.4c0,0.1-0.1,0.2-0.1,0.3c-3,8.4-5.9,17-9.1,25.5c-0.3,0.9-1.5,1.5-2.3,2.3c-0.2-1-0.2-2,0-3.1
		c2.7-8.2,5.6-16.5,8.4-24.7c0-0.1,0.1-0.2,0.1-0.3H218.5z"/>
	<path class="st2" d="M307.7,302.9c-0.8-0.7-2.1-1.3-2.4-2.2c-3.1-8.3-6-16.6-9-24.9c0-0.1,0-0.1-0.1-0.2h2.5c0,0,0,0.1,0.1,0.2
		c3,8,6.1,16,9,24.1C307.9,300.9,307.9,301.9,307.7,302.9z"/>
	<path class="st2" d="M183,166.3c-0.6,0.5-1.3,1.3-2,1.3h-10.5l-0.1,0h-10.6c-0.7,0-1.4-0.8-2.1-1.1c0.7-0.5,1.4-1.5,2.1-1.5
		c7-0.1,14.1-0.1,21.2,0C181.8,165,182.4,165.8,183,166.3z"/>
	<path class="st2" d="M187.5,190.9c-0.3,0.7-0.5,1.8-1.1,2c-6.8,2.7-13.7,5.2-20.5,7.7c-0.6,0-1.5-0.5-2.3-0.9l0.3-1.1
		c7.2-2.7,14.4-5.4,21.7-8C186.1,190.5,186.9,190.8,187.5,190.9z"/>
	<path class="st2" d="M349.7,132c-8.5,3.1-15.7,5.9-23,8.5c-0.5,0-1.2-0.4-1.8-0.7c0.3-0.6,0.5-1.6,1-1.7c7-2.7,13.9-5.3,20.9-7.8
		C347.3,130.2,348.2,131.1,349.7,132z"/>
	<path class="st2" d="M348.9,198.3c-0.8,0.2-1.6,0.8-2.2,0.6c-7.3-2.5-14.5-5.1-21.7-7.7l0-1.1c0.8-0.3,1.8-1,2.5-0.7
		c6.7,2.2,13.3,4.6,20,7C348,196.7,348.4,197.7,348.9,198.3z"/>
	<path class="st2" d="M274.9,258.4H272c0,0,0,0,0,0c-1.1-6-2.3-12-3.3-18.1c0-0.8,0.6-1.8,0.9-2.8c0.5,0.7,1.4,1.4,1.5,2.2
		C272.5,245.9,273.7,252.1,274.9,258.4C274.9,258.4,274.9,258.4,274.9,258.4z"/>
	<path class="st2" d="M244.9,240.8c-0.8,5.8-1.7,11.6-2.8,17.4l-3,0.3c0-0.1,0-0.2,0-0.3c1-6,2-12,3.1-17.9c0-0.9,1.1-1.6,1.7-2.5
		C244.4,238.8,245,239.8,244.9,240.8z"/>
	<polygon class="st2" points="195,498 195,503.7 201.2,504.1 201.2,504.8 193.8,504.8 193.8,489.2 201.2,489.2 201.2,490 
		194.9,490.4 194.9,496.3 201.3,496.7 201.3,497.6 	"/>
	<polygon class="st2" points="415.3,496.4 421.6,496.7 421.6,497.4 415.3,498.1 415.3,503.6 421.5,504.2 421.5,504.8 414.2,504.8 
		414.2,489.2 421.5,489.2 421.6,490.1 415.3,490.4 	"/>
	<polygon class="st2" points="340.5,497.8 340.5,503.4 346.8,503.9 346.9,505.1 339.6,505.1 339.6,489.2 346.9,489.2 346.9,489.8 
		340.6,490.2 340.6,496.2 346.9,496.5 346.9,497.3 	"/>
	<path class="st2" d="M400,502.3c-2.6,3.3-7.4,3.8-10.7,1.2c-0.3-0.2-0.5-0.5-0.8-0.7c-3.2-3.1-3.3-8.1-0.3-11.3
		c0.1-0.1,0.2-0.2,0.3-0.3c2.7-3,7.3-3.3,10.3-0.6c0.4,0.4,0.8,0.8,1.1,1.3c-4.8-2.4-8.9-2.8-11.2,1.6c-1.1,2.4-1.1,5.1,0,7.5
		C391.1,505,395.2,504.7,400,502.3z"/>
	<path class="st2" d="M131.7,503.2c-0.1,0-0.1,0.1-0.2,0.1c-3.1,2.7-7.7,2.7-10.8,0c-3.3-2.7-3.8-7.6-1.1-10.9
		c0.1-0.1,0.1-0.2,0.2-0.2l0.5,0.4l0.1,0.1c-1.3,3-2.2,6.4,0.5,8.7c1.9,1.6,4.4,2.5,6.9,2.4c4.9-0.5,6.5-5.2,4.2-11.1l0.5-0.5
		C135.3,495.5,134.9,500.4,131.7,503.2z"/>
	<path class="st2" d="M156.4,504.8l-5.3-5.7l-1,0.8l-0.6,4.7h-0.7v-15.7l6,1.3l0,0l-0.5,0.5l-4.2-0.5v8.3l4.6-0.5l0.5,0.5
		c0,0,0,0.1,0,0.1c0,0.8-0.6,1.7-0.3,2.4C155.5,502.2,156,503.5,156.4,504.8z"/>
	<path class="st2" d="M224,502.9c-0.2,0.3-0.4,0.5-0.6,0.7c-1.4,1.8-4.1,2.2-5.9,0.7c-0.3-0.2-0.5-0.5-0.7-0.7
		c1.9,1.4,4.6,0.9,5.9-1c0.1-0.1,0.2-0.3,0.2-0.4c1.4-2.2,0-4-1.9-5.2c-0.8-0.5-1.9-0.6-2.4-1.2c-1-1-1.7-2.4-2-3.8
		c0-0.9,1.4-2.4,2.4-2.6c1.3,0,2.7,0.3,3.9,0.8l-5,1.3c0.7,1.3,1.6,2.6,2.5,3.8c0.7,0.8,1.9,1,2.6,1.7
		C224.8,498.3,225.3,500.9,224,502.9z"/>
	<path class="st2" d="M323.8,501.3c-1.5,3-4.8,4.5-8,3.7v-16.5l6.8,3l-0.5,0.5l-5-1.8v14.8l6.2-4.2L323.8,501.3z"/>
	<path class="st2" d="M370.4,489.9v10h-0.9l-2.7-3.4l-0.7,0.5l4.7,8.1l0.6-0.4v-14.7H370.4z M370.8,501.6c-0.2,0.2-0.2,0.5-0.2,0.2
		c0-0.3,0,0,0-0.3c0-0.3,0-0.3,0-0.3C370.7,501.4,371,501.4,370.8,501.6z"/>
	<polygon class="st2" points="366.4,495.3 365.8,495.8 363.1,492.4 363.1,504.5 361.9,504.5 361.9,489.5 362.7,489.1 	"/>
	<polygon class="st2" points="295.7,495.3 295.1,495.8 292.4,492.2 292.4,504.5 291.5,504.5 291.5,489.7 292,489.3 	"/>
	<path class="st2" d="M274.4,502.9c-2.6,2.7-6.8,3.1-9.9,1.1l0.4-0.5c3.6,1.8,8,0.3,9.8-3.3c1.3-2.6,0.9-5.7-0.9-7.9l0.5-0.5l0,0
		C277.5,494.8,277.5,499.8,274.4,502.9z"/>
	<path class="st2" d="M178.5,503.5l-0.6,0.5l-4.2-4.9l-1.1,0.8l-0.5,4.8h-0.5V489l5.4,0.9h0l0.2,0l-0.1,0.1l-0.4,0.4h-4.2
		c-1.1,8-0.9,8.5,3.9,8.1h0l0.3,0.4L178.5,503.5z"/>
	<path class="st2" d="M244.8,498.4L244.8,498.4l-5.2,1.9l-0.5,4.2h-0.5v-15.3l5.3,0.8l0.1,0l-0.3,0.4l-0.1,0.1h-4.2
		c-1.3,8.5-0.7,9.2,4.8,7.6l0.5,0.2L244.8,498.4z"/>
	<path class="st2" d="M212.3,87.6c-2.6,1.8-4.7-0.5-6.9-7.5C210,81.5,209.6,85.7,212.3,87.6z"/>
	<path class="st2" d="M305.7,81c-1.5,2.5-2.8,4.8-4.2,7.1c-0.4,0.2-0.9,0.2-1.3,0c-0.3-0.4-0.7-1.2-0.5-1.6c1-2.1,2.2-4.1,3.4-6.1
		c0.2-0.3,1.1-0.5,1.6-0.4S305.4,80.6,305.7,81z"/>
	<path class="st2" d="M93.6,491.9c-2.8,3.5-2.4,8.5,0.8,11.5c-3.5-1.7-5-5.9-3.4-9.4c0.5-1,1.2-1.8,2-2.5L93.6,491.9z"/>
	<path class="st2" d="M264.8,503.3l-0.4,0.7c-3.8-1.8-5.4-6.2-3.7-10c0.5-1,1.2-2,2.1-2.7l0.1,0.1l0.4,0.4c0,0,0,0,0,0.1
		C260.4,496.8,260.8,499,264.8,503.3z"/>
	<path class="st2" d="M132.4,492.2l-0.5,0.5c-2.9-3-7.5-3.4-10.8-0.8l0,0l-0.5-0.5c2.6-3.1,7.3-3.5,10.4-0.8
		C131.5,491,132,491.6,132.4,492.2z"/>
	<polygon class="st2" points="395.2,349.4 374.6,349.4 374.6,349.1 395.1,349.1 	"/>
	<path class="st2" d="M103.5,491.4c-3.1-1.9-7-1.8-9.9,0.4l-0.5-0.4c0.3-0.5,0.8-0.9,1.2-1.2c2.3-1.8,5.6-1.9,8,0
		c0.4,0.3,0.7,0.6,1,0.9C103.3,491.3,103.4,491.3,103.5,491.4z"/>
	<polygon class="st2" points="136.1,348.9 136.1,349.4 116.6,349.4 116.6,348.9 	"/>
	<path class="st2" d="M301,490.1v14.7c-2.6-1.1-1.7-2.2-0.9-3.9c0.3-1.9,0.3-3.9,0-5.8v-5.3L301,490.1z"/>
	<path class="st2" d="M273.2,490.5l-0.5,0.5c-3-1.5-6.6-1.2-9.2,0.9l-0.5-0.5l0,0c2.5-3,6.9-3.5,10-1
		C273,490.4,273.1,490.5,273.2,490.5z"/>
	<path class="st2" d="M155.2,498.6L155.2,498.6l-0.5-0.5c0,0,0,0,0,0c1.9-1.6,2.1-4.5,0.5-6.4c-0.3-0.3-0.6-0.6-0.9-0.8l0.4-0.5
		l0.1-0.1l0,0C158.4,492.9,158.6,495.2,155.2,498.6z"/>
	<path class="st2" d="M324,501.3l-0.6-0.6l-0.4-8l0.5-0.5l0,0C326,494.6,326.2,498.6,324,501.3z"/>
	<polygon class="st2" points="298.8,500.9 298,501.4 295.4,496.7 296.2,496.2 	"/>
	<path class="st2" d="M179,497.4c0,0-0.1,0.1-0.2,0.1l-0.5-0.4v-5.3l0.5-0.5C180.5,493,180.6,495.7,179,497.4z"/>
	<polygon class="st2" points="246.3,492.3 245.6,497.7 245.1,497.3 245.8,493 	"/>
	<polygon class="st2" points="178.9,491.4 178.3,491.8 176.7,490.5 176.7,490.4 177.1,489.9 177.1,489.9 177.2,490 	"/>
	<polygon class="st2" points="245.3,490.9 244.8,491.4 243.6,490.4 243.5,490.3 243.8,490 244,489.8 	"/>
	<polygon class="st2" points="246.3,492.3 245.8,492.7 244.8,491.4 245.3,490.9 	"/>
	<polygon class="st2" points="274.4,491.7 273.9,492.3 272.7,491.1 273.2,490.5 274.4,491.7 	"/>
	<polygon class="st2" points="179,504.7 178,503.9 178.5,503.5 	"/>
	<polygon class="st2" points="121,491.8 121,491.8 120.3,492.6 120.3,492.6 119.9,492.2 119.8,492.2 120.6,491.4 	"/>
	<polygon class="st2" points="323.5,492.3 322.9,492.7 322.2,491.9 322.7,491.4 323.4,492.2 	"/>
	<polygon class="st2" points="178.7,497.7 177.9,498.5 177.8,498.4 177.4,498 177.5,498 178.2,497.3 	"/>
	<polygon class="st2" points="245.6,497.7 244.8,498.5 244.7,498.5 244.6,498.4 244.3,498 245.1,497.3 	"/>
	<polygon class="st2" points="177.9,498.3 177.8,498.4 176.9,498.9 176.5,498.5 176.5,498.5 177.4,497.9 177.5,498 	"/>
	<path class="st2" d="M104.1,502.6c-2.6,3.3-7.4,3.8-10.7,1.2c-0.3-0.2-0.5-0.5-0.8-0.7c-3.2-3.1-3.3-8.1-0.3-11.3
		c0.1-0.1,0.2-0.2,0.3-0.2c0.5-0.5,1-1,1.6-1.4c2.7-1.7,6.3-1.5,8.8,0.7c0.1,0.1,0.2,0.2,0.3,0.2c0.3,0.3,0.6,0.7,0.9,1
		c-4.8-2.4-8.9-2.8-11.2,1.6c-1.1,2.4-1.1,5.1,0,7.5C95.2,505.3,99.3,505,104.1,502.6z"/>
</g>
</svg>
