<?xml version="1.0" encoding="utf-8"?>
<!-- Generator: Adobe Illustrator 21.0.0, SVG Export Plug-In . SVG Version: 6.00 Build 0)  -->
<svg version="1.1" id="Layer_1" xmlns="http://www.w3.org/2000/svg" xmlns:xlink="http://www.w3.org/1999/xlink" x="0px" y="0px"
	 viewBox="0 0 512 512" style="enable-background:new 0 0 512 512;" xml:space="preserve">
<style type="text/css">
	.st0{fill:#417342;}
	.st1{fill:#FFFFFF;}
</style>
<title>HTML5 Logo</title>
<g>
	<path class="st0" d="M0,4.3v503.5h512V4.3H0z M38.9,222.2c5.7-63,31.9-115.9,84.5-153.1c24-17,51.1-21.5,78.6-8.6
		c13.8,6.5,25.1,16.4,24.9,33.9c-0.1,7.8-2.9,14-10.5,16.8c-8.1,3-13.1-1.3-17.7-7.6c-20.3-27.6-42.3-29.4-66.2-3
		c-30.9,34.1-47.7,74.9-50.7,121c0,5-0.1,9.9,0,14.9c0.3,15.5,8.6,25.4,23,29.5c15.5,4.5,25.9-3.6,33.7-16
		c6.5-10.3,11.3-28.4,26.9-17.6c14.4,9.9,6.2,25.9-2.1,37.9c-16.2,23.4-54.2,37-79.3,29C56.3,290.5,35.7,257.9,38.9,222.2z
		 M174.6,446.1c-7,14.1-16.8,26.5-30.1,35.4c-18.5,12.3-45.9,6.5-56.4-11.4c-4.7-8.1-5-16-0.3-24.2c5.8-10.2,14.3-16.8,26.1-14.5
		c12.6,2.5,20.2-1.3,25.8-12.6c26.6-53.4,53.6-106.5,80.1-159.9c3.4-6.9,10.9-15.3-6.8-17.5c-14.4-1.7-16.8-17.1-6-30.1
		c3.9-4.7,9.6-9.9,15.2-11c28.2-5.8,39.5-26.3,49.2-50.3c9-22.3,20.1-43.9,31.5-65.1c17.7-32.5,43.8-54,82.3-55.9
		c20-1,34.6,10.4,33.4,24.4c-1.3,14.8-18,26.6-36.3,25.2c-16.2-3.1-28.2,3.4-35.8,18.7c-11.8,23.5-23.9,46.8-35.4,70.3
		c-1.8,3.7-9.4,10.9,2,11.8c11.8,1,20.2,5.8,18.7,17.9c-1.6,12.9-7.5,28.2-21.7,28.2c-30.4-0.1-38.5,21-48.8,42.5
		C232.8,327.7,203.8,386.9,174.6,446.1z M453.2,261.3c-8.8,3.4-14.7-0.5-19.8-7.8c-17.9-25.9-36.8-29.1-59.8-6.4
		c-37.5,37-55.8,83.3-56.7,135.9c-0.3,15,5.3,28.5,21.5,33c16.7,4.7,29-2,37.1-17.1c2.7-5,5-10.8,9.2-14.2c10.1-8.1,18.9-6.5,22,7.2
		c2.5,10.9-1.1,21-7.7,30.1c-16.5,22.7-51.3,35.4-77.7,28.3c-24.3-6.5-42.4-30.8-45.3-61.1c-0.5-4.9-0.5-9.9-0.7-14.9
		c7.6-67.5,33.5-124.5,94.4-160.1c28-16.4,58.8-13.3,79.8,4.7c7.2,6.3,12.7,13.5,13.8,23.3C464.1,250.7,461.8,257.9,453.2,261.3z"/>
	<path class="st1" d="M453.2,261.3c-8.8,3.4-14.7-0.5-19.8-7.8c-17.9-25.9-36.8-29.1-59.8-6.4c-37.5,37-55.8,83.3-56.7,135.9
		c-0.3,15,5.3,28.5,21.5,33c16.7,4.7,29-2,37.1-17.1c2.7-5,5-10.8,9.2-14.2c10.1-8.1,18.9-6.5,22,7.2c2.5,10.9-1.1,21-7.7,30.1
		c-16.5,22.7-51.3,35.4-77.7,28.3c-24.3-6.5-42.4-30.8-45.3-61.1c-0.5-4.9-0.5-9.9-0.7-14.9c7.6-67.5,33.5-124.5,94.4-160.1
		c28-16.4,58.8-13.3,79.8,4.7c7.2,6.3,12.7,13.5,13.8,23.3C464.1,250.7,461.8,257.9,453.2,261.3z"/>
	<path class="st1" d="M418.6,53.5c-1.3,14.8-18,26.6-36.3,25.2c-16.2-3.1-28.2,3.4-35.8,18.7c-11.8,23.5-23.9,46.8-35.4,70.3
		c-1.8,3.7-9.4,10.9,2,11.8c11.8,1,20.2,5.8,18.7,17.9c-1.6,12.9-7.5,28.2-21.7,28.2c-30.4-0.1-38.5,21-48.8,42.5
		c-28.5,59.5-57.5,118.8-86.7,177.9c-7,14.1-16.8,26.5-30.1,35.4c-18.5,12.3-45.9,6.5-56.4-11.4c-4.7-8.1-5-16-0.3-24.2
		c5.8-10.2,14.3-16.8,26.1-14.5c12.6,2.5,20.2-1.3,25.8-12.6c26.6-53.4,53.6-106.5,80.1-159.9c3.4-6.9,10.9-15.3-6.8-17.5
		c-14.4-1.7-16.8-17.1-6-30.1c3.9-4.7,9.6-9.9,15.2-11c28.2-5.8,39.5-26.3,49.2-50.3c9-22.3,20.1-43.9,31.5-65.1
		c17.7-32.5,43.8-54,82.3-55.9C405.2,28.1,419.8,39.5,418.6,53.5z"/>
	<path class="st1" d="M226.9,94.4c-0.1,7.8-2.9,14-10.5,16.8c-8.1,3-13.1-1.3-17.7-7.6c-20.3-27.6-42.3-29.4-66.2-3
		c-30.9,34.1-47.7,74.9-50.7,121c0,5-0.1,9.9,0,14.9c0.3,15.5,8.6,25.4,23,29.5c15.5,4.5,25.9-3.6,33.7-16
		c6.5-10.3,11.3-28.4,26.9-17.6c14.4,9.9,6.2,25.9-2.1,37.9c-16.2,23.4-54.2,37-79.3,29c-27.6-8.9-48.2-41.4-45-77.1
		c5.7-63,31.9-115.9,84.5-153.1c24-17,51.1-21.5,78.6-8.6C215.9,67,227.1,76.9,226.9,94.4z"/>
</g>
</svg>
