<svg id="Layer_1" data-name="Layer 1" xmlns="http://www.w3.org/2000/svg" xmlns:xlink="http://www.w3.org/1999/xlink" viewBox="0 0 240 240"><defs><style>.cls-1{opacity:0.57;}.cls-2{fill:#7f8082;}.cls-10,.cls-21,.cls-3{stroke:#d6d6d6;stroke-linejoin:round;}.cls-3{fill:url(#linear-gradient);}.cls-4{fill:url(#radial-gradient);}.cls-5{fill:#293441;}.cls-6{fill:#2d3948;}.cls-7{fill:url(#linear-gradient-2);}.cls-8{fill:url(#linear-gradient-3);}.cls-9{fill:#2d3b48;}.cls-10{fill:url(#linear-gradient-4);}.cls-11{fill:#363f49;opacity:0.45;}.cls-11,.cls-12,.cls-13,.cls-14,.cls-16,.cls-22{isolation:isolate;}.cls-12{opacity:0.3;fill:url(#linear-gradient-5);}.cls-13{opacity:0.2;fill:url(#linear-gradient-6);}.cls-14{opacity:0.8;}.cls-15{fill:#05f0ff;}.cls-16{opacity:0.9;}.cls-17,.cls-22{fill:#fff;}.cls-18,.cls-20,.cls-21{fill:none;}.cls-18,.cls-20{stroke:#06effe;stroke-linecap:round;}.cls-18{stroke-width:0.92px;}.cls-19{fill:#feffff;}.cls-20{stroke-width:0.95px;}.cls-22{stroke:#fff;opacity:0.34;}</style><linearGradient id="linear-gradient" x1="234.85" y1="10.75" x2="21.98" y2="147.89" gradientTransform="matrix(1, 0, 0, -1, -14.85, 231.39)" gradientUnits="userSpaceOnUse"><stop offset="0" stop-color="#acacac"/><stop offset="1" stop-color="#e9e9e9"/></linearGradient><radialGradient id="radial-gradient" cx="65.86" cy="891.19" r="10.93" gradientTransform="matrix(0.92, -11.51, 5.9, 0.47, -5259.21, 512.1)" gradientUnits="userSpaceOnUse"><stop offset="0" stop-color="#25303b"/><stop offset="1" stop-color="#25303b" stop-opacity="0"/></radialGradient><linearGradient id="linear-gradient-2" x1="204.29" y1="56.97" x2="193.81" y2="181.45" gradientTransform="matrix(1, 0, 0, -1, -14.85, 231.39)" gradientUnits="userSpaceOnUse"><stop offset="0" stop-color="#24303a"/><stop offset="1" stop-color="#394958"/></linearGradient><linearGradient id="linear-gradient-3" x1="-131.34" y1="56.96" x2="-141.82" y2="181.44" gradientTransform="translate(-80.26 231.39) rotate(180)" xlink:href="#linear-gradient-2"/><linearGradient id="linear-gradient-4" x1="217.46" y1="186.84" x2="42.12" y2="169.25" gradientTransform="matrix(1, 0, 0, -1, -14.85, 231.39)" gradientUnits="userSpaceOnUse"><stop offset="0" stop-color="#e5e5e5"/><stop offset="1" stop-color="#fff"/></linearGradient><linearGradient id="linear-gradient-5" x1="95.06" y1="148.55" x2="95.06" y2="62.66" gradientTransform="matrix(1, 0, 0, -1, 0, 242)" gradientUnits="userSpaceOnUse"><stop offset="0" stop-color="#fff"/><stop offset="0.5" stop-color="#fff" stop-opacity="0.53"/><stop offset="1" stop-color="#fff" stop-opacity="0"/></linearGradient><linearGradient id="linear-gradient-6" x1="95.06" y1="148.55" x2="95.06" y2="191.48" gradientTransform="matrix(1, 0, 0, -1, 0, 242)" gradientUnits="userSpaceOnUse"><stop offset="0" stop-color="#fff"/><stop offset="1" stop-color="#fff" stop-opacity="0"/></linearGradient></defs><title>cordovaX</title><g id="path5096"><polygon class="cls-1" points="209.45 148.99 168.53 91.01 71.27 91.01 30.55 148.98 209.45 148.99"/></g><path id="path4824" class="cls-2" d="M194,200.73l-15.54,32.45-10.7-40.41Z"/><path id="path4822" class="cls-2" d="M51,200.73l10.58,32.45,10.7-40.41Z"/><path id="path3439" class="cls-3" d="M1.59,93.45h0l22,139.72h37.9l-3.1-32.45H77.89l2.48,32.45h79.4l2.48-32.45h19.32l-3.1,32.45h38.15l21.8-139.72H1.59Z"/><path id="path4771" class="cls-4" d="M55.77,179.34l11.4-42.71-.8-86.27L45,93.45Z"/><path id="path4776" class="cls-5" d="M137.64,41.9h47.25l-1,104.43H134Z"/><path id="path4778" class="cls-5" d="M103.46,42l-46,0,1.09,104h46.85Z"/><path id="path4735" class="cls-6" d="M62.21,136.63l-6.44,42.71H184.61l-7.66-42.41Z"/><path id="path4761" class="cls-7" d="M184.61,179.34l-11.19-42.41.42-86.85,21.65,43.36Z"/><path id="path4794" class="cls-8" d="M55.87,179.34l11.3-42.71-.8-86.27L45,93.45Z"/><path id="path4739" class="cls-9" d="M98.63,66l4.25,90.69H136L141.36,66Z"/><path id="path4810" class="cls-10" d="M238.41,93.45,184.25,6.82H55.49L1.59,93.45H45L66.25,50.52h35L98.63,66h42.73l-2.26-16h34.83l21.56,43.4Z"/><path id="path4826" class="cls-11" d="M139.11,50.05l35.12,0,21.26,43.37-10.88,85.89H102.89l42.24-85.89Z"/><path id="path4832" class="cls-12" d="M145.13,93.45l-42.24,85.89H55.77L45,93.45Z"/><path id="path4834" class="cls-13" d="M66.25,50.52h35L98.63,66h42.73l3.76,27.41H45Z"/><g id="g4749"><g id="g4722"><g id="ellipse3463" class="cls-14"><ellipse class="cls-15" cx="155.14" cy="129.83" rx="6.01" ry="21.33"/></g><g id="ellipse4390" class="cls-16"><ellipse class="cls-17" cx="155.14" cy="130.15" rx="4.68" ry="18.88"/><ellipse class="cls-18" cx="155.14" cy="130.15" rx="4.68" ry="18.88"/></g><g id="ellipse4720" class="cls-16"><ellipse class="cls-19" cx="155.14" cy="130.2" rx="4.68" ry="17.46"/><ellipse class="cls-20" cx="155.14" cy="130.2" rx="4.68" ry="17.46"/></g></g><g id="g4727"><g id="ellipse4729" class="cls-14"><ellipse class="cls-15" cx="87.1" cy="132.84" rx="6.01" ry="21.33"/></g><g id="ellipse4731" class="cls-16"><ellipse class="cls-17" cx="87.1" cy="133.16" rx="4.68" ry="18.88"/><ellipse class="cls-18" cx="87.1" cy="133.16" rx="4.68" ry="18.88"/></g><g id="ellipse4733" class="cls-16"><ellipse class="cls-19" cx="87.1" cy="133.21" rx="4.68" ry="17.46"/><ellipse class="cls-20" cx="87.1" cy="133.21" rx="4.68" ry="17.46"/></g></g></g><path id="path4856" class="cls-21" d="M66.25,50.52h35L98.63,66h42.73l-2.26-16,35.12,0,21.26,43.37-10.88,85.89H55.77L45,93.45Z"/><path id="path4858" class="cls-22" d="M195.13,93.45H44.88"/></svg>