<svg id="Layer_1" data-name="Layer 1" xmlns="http://www.w3.org/2000/svg" xmlns:xlink="http://www.w3.org/1999/xlink" viewBox="0 0 119.91 120"><defs><style>.cls-1{font-size:10.94px;font-family:Gotham-Bold, Gotham;font-weight:700;}.cls-1,.cls-8,.cls-9{fill:#231f20;}.cls-2{fill:url(#radial-gradient);}.cls-3{fill:url(#radial-gradient-2);}.cls-4{fill:url(#radial-gradient-3);}.cls-5{fill:url(#radial-gradient-4);}.cls-6{fill:#f9ed1a;}.cls-7{fill:#fff;}.cls-8{font-size:10.99px;stroke:#f8ec1a;stroke-width:0.5px;}.cls-8,.cls-9{stroke-miterlimit:10;font-family:Anton, Anton;}.cls-9{font-size:21.75px;stroke:#f9ed1a;}</style><radialGradient id="radial-gradient" cx="42.57" cy="32.83" r="31.11" gradientUnits="userSpaceOnUse"><stop offset="0" stop-color="#fff"/><stop offset="0.1" stop-color="#fefbd2"/><stop offset="0.22" stop-color="#fcf7a1"/><stop offset="0.34" stop-color="#fbf476"/><stop offset="0.47" stop-color="#faf154"/><stop offset="0.6" stop-color="#f9ef39"/><stop offset="0.73" stop-color="#f8ed26"/><stop offset="0.86" stop-color="#f8ec1b"/><stop offset="1" stop-color="#f8ec17"/></radialGradient><radialGradient id="radial-gradient-2" cx="68.23" cy="92" r="22.74" xlink:href="#radial-gradient"/><radialGradient id="radial-gradient-3" cx="47.69" cy="57.86" r="45.87" xlink:href="#radial-gradient"/><radialGradient id="radial-gradient-4" cx="101.25" cy="82.78" r="1.17" xlink:href="#radial-gradient"/></defs><title>ETA Logo</title><text class="cls-1" transform="translate(49.61 117.62) rotate(11.71)"> </text><path class="cls-2" d="M20,53.22c.23-.86.5-1.71.78-2.56A43.55,43.55,0,0,1,87.24,29.24S83.14,62.88,20,53.22Z"/><path class="cls-3" d="M100.84,84.47a43.6,43.6,0,0,1-49.06,22.58h0S83.94,77.69,100.84,84.47Z"/><path class="cls-4" d="M105.57,64.73a43.34,43.34,0,0,1-3.51,17.15S76.39,69.59,41.6,103.18h0A43.59,43.59,0,0,1,18.76,59.9S84.7,76.32,92.91,34A43.39,43.39,0,0,1,105.57,64.73Z"/><path class="cls-5" d="M102.05,81.89q-.56,1.32-1.21,2.59Z"/><path class="cls-6" d="M55.19,107.92a47.18,47.18,0,0,0,6.81.57A43.53,43.53,0,0,0,99,87.83c-20.87,1.72-34.64,9.49-43.81,20.1"/><path d="M83.85,84.09s-1.38-3.68-2.45-4.39S78.81,78.21,78.3,77s-2.6-6.17-3.38-7.49-1.72-3.16-1.72-3.16a1.19,1.19,0,0,0-.19-1.2c-.47-.69-1.23-1.42-1-1.9s1.12-2,.43-2.52-.26-1-.93-1.48-.13-.84-.71-1.23,0-.6-.45-1.42a10,10,0,0,1-.52-1.48c-.22-.43-.66-.61-.22-1.06a1.75,1.75,0,0,0,.54-1.35A7.31,7.31,0,0,1,70.79,51c.21-.64,1.85-1.72,2-2.41s.16-.92.39-1.14a2.65,2.65,0,0,0,.52-1.14c.17-.58,1.35-1.59,1.06-3s-1-2.78-1.74-2.78c0,0,.49-.5-.11-.6a3,3,0,0,1-1.23-.69,5.78,5.78,0,0,1,.49-1.51c.23-.23.23,0,.23.15a.36.36,0,0,1-.09.24,1.55,1.55,0,0,0,.36-1c0-.58.13.24.13.58V36.39c0-.17.43.28.43.28s-.26-.7.06-1,.14.35.14.35.45-1.18.27-1.58.36.07.19-.61.8-1.68.3-2.18a2.08,2.08,0,0,1-.86-1.55c0-.69-.66-1.89-.95-1.89s-2.07-1.06-2.87-1.06-1.41-.52-2.18-.17-1.69,1-2.53.89-.37.49-.06.49.46.41-.1.41-.72.17-.72.17-.05.4.57.15-.26.3-.69.17a.66.66,0,0,0,.47.17.65.65,0,0,1-.59.44c-.44,0-.44.22-.44.22s.07-.07.32-.07a2.71,2.71,0,0,0,.75-.23s-.23.62-.6.73a.69.69,0,0,0-.43.55s0-.4.33-.4a.93.93,0,0,0,.6-.27s-.52.76-.43,1.2.08.81-.06.95.18,0,.18-.18a4.78,4.78,0,0,1,.09-.65s.33.77,0,1.11a1.25,1.25,0,0,0-.34.77s.16-.24.33-.24,0,.31-.16.47-4.75-.17-5.44.52S57,35.93,56.22,36.24s-1.72.43-2,1.08a4.83,4.83,0,0,1-2.37,1.94c-.69.14-1.23,1.09-1.46,1.32s-.41,1.16-.6,1.16-.06.14-.06.14a4.65,4.65,0,0,1-1.88.64,9.38,9.38,0,0,0-2.22.47,61.55,61.55,0,0,0-2.6-5.9c-1.27-2.37-3.64-7.4-6.82-5.74s.58,7.75,1.31,9a40.91,40.91,0,0,0,3.62,5.06,2.45,2.45,0,0,1-2.32,0c-1.21-.69-1.89-.89-2.41-.78s-.93.27-1.16,0-1.16-.15-.88.43.61.78,1,.78.23.19-.19.19-1.28.12-1.82.12-2.38.06-2.38.63.57.5,1.26.5,1.87,0,1.87.3-1,.57-1.66.76-1.54.6-1.42,1,.56.24,1.23,0a7.72,7.72,0,0,1,2.19-.49c0,.15-.57.32-1.3.53s-1.61.63-1.49,1,.6.17,1.41-.1,2.57-.73,2.47-.35a7.39,7.39,0,0,1-1.09,1.76c-.24.24-.54.73-.24.85s.89-.35,1.3-.76.63-1.5,1.42-1.5a3.92,3.92,0,0,0,2.21-.62A3.8,3.8,0,0,1,41,49c.49,0,3.69-.93,3.69-.93A16.78,16.78,0,0,1,47.71,51a12.74,12.74,0,0,0,.95,1.38,1.16,1.16,0,0,0,.17,1.06c.39.39,2.18,3,2.18,3s-.7.46-.43.73.37.95.5,1.08.34-.09.34-.09,0,.63.55.43a.55.55,0,0,0,0,.56c.14.33.34.13.34.13s0,.57,0,.74-.16.3-.16.66a3.89,3.89,0,0,0,.13.83s-.78,3.85-2.35,5.42-4.3,5.34-4.6,6.58-1,3.89-1,3.89-.57.26-.57.57-.23.2-.23.54a21.63,21.63,0,0,1-1,2.38c-.14.43-.95,2.09-1.18,2.67a3.71,3.71,0,0,1-.9,1.25,8.74,8.74,0,0,0-1.68,2.37,12.83,12.83,0,0,0-.6,2.87c0,.66-.75,2,.29,2s1.12.69,2.07.91,4.45,1,5.42,0a1.75,1.75,0,0,0,.32-2.45c-.42-.42-.92-.32-.72-.89s.52-.57.09-1-.46-.23-.46-.75a2,2,0,0,0-.55-1.09,7,7,0,0,0,.55-1.38,5.43,5.43,0,0,1,1.12-2.87c.89-.89,2.09-2.38,2.09-2.38l-.2-.2s2.3-3.1,3.3-4.74,1.92-3.85,2.32-4.25A7.8,7.8,0,0,1,55.14,70s1.92,1.24,3.36.26S60,67.85,60.68,68s1.38.06,1.55.77,1,2.16,2,2.27a19,19,0,0,0,3.24,4.22c1.64,1.37,3.69,3.26,4.91,4.48s3.3,2.64,4,4.25A6.09,6.09,0,0,0,79,87.07c1,.55,1.89.32,3,1.44l1.12,1.12s-.17,0-.17.52-.4,1.41,1,1.41,3.16-.35,3.79-.06,2,1,2,1h.23l-.69-.69s1.78.32,2.24.32,4.19.4,4.65-.86a2.68,2.68,0,0,0-1.58-3.68,13.08,13.08,0,0,0-4.73-.25,2.66,2.66,0,0,1,1.12-1.41c.77-.37.86-1.32.26-1.61s-1.46.32-1.89,1.35-.6,1.51-.91,1.51a1.22,1.22,0,0,0-.65.35s-1.74-.08-2.23-1-1.17-2.47-1.65-2.47"/><path class="cls-7" d="M89.59,86.61s.21-1.59.9-1.72.6.17.26.52-.6,1.2-1.16,1.2"/><path class="cls-7" d="M44.3,77.35a9.82,9.82,0,0,1,2.26,1,5,5,0,0,1,1.16,1.06A1,1,0,0,1,48,80a3.82,3.82,0,0,1-.84,1.25c-.6.6-1.46,1.35-1.59,2.15s.06.77-.28,1.56a10.59,10.59,0,0,0-.62,1.37c0,.2-.21-.71-.84-.88s-.3-.58-.88-.73a4.55,4.55,0,0,0-1.94.47s-.59-.34,0-.93a11.28,11.28,0,0,0,1.23-1.85,17.15,17.15,0,0,0,1.49-3.74c0-.22.19-1.34.62-1.34"/><path class="cls-7" d="M86.15,87.56a1.05,1.05,0,0,1-.52,1.29,2.74,2.74,0,0,1-1.79.65,1,1,0,0,1-1-.41c-.37-.37-.56-1.14-1-1.27s-.65-.22,0-.35a2.06,2.06,0,0,0,1.66-.92c.54-.75.77-.8.49-1.46a3.15,3.15,0,0,1-.28-1.1c0,.31.62.78.73,1.34a3.52,3.52,0,0,0,1,1.46c.3.3.91.45.58.78"/><path class="cls-7" d="M73,66.08a7.85,7.85,0,0,0-4.13-.23,15,15,0,0,1-3.3.63c-1.58.29-1.69-.2-2.38,1s-.57,1.69-.11,2.15a2.9,2.9,0,0,1,.63.92,3.55,3.55,0,0,1-1.06-1.21c-.29-.66.12-.89-.72-1.23s-1.54-.5-2-.08-1,1.78-1.55,2a3.76,3.76,0,0,1-2.12.2,2.09,2.09,0,0,1-.92-.43s-.06-.38.37-.2a3,3,0,0,0,2.29.17,3,3,0,0,0,1.78-2,13.22,13.22,0,0,0-.08-3.64,7.71,7.71,0,0,0-1.69-3.9A12.48,12.48,0,0,0,56,58.56s-.3-.22.14-.4a5.62,5.62,0,0,0,1.38-.66c.24-.24,2.52,1.2,4,1.2s1.18.26,2.49.63,2,1.44,3.33,1.44,4.22.66,4.22,1.29,0,1.68.4,2.09,1.72,1.93,1.12,1.93"/><path d="M63.88,62s-3,2.63-1.87,5.29c0,0-1.55-2.65,1.87-5.29"/><path d="M69.78,65.41a11.35,11.35,0,0,0-6.11-2s4.3.65,6.11,2"/><path d="M64.53,63s4.85-.38,6.71,1.16c0,0-1.33-1.16-6.71-1.16"/><path d="M60.87,65.28s.36-3.63-2.2-5.38a7,7,0,0,1,2.2,5.38"/><path d="M62.33,62.62a11.76,11.76,0,0,0-5-3.92,7.76,7.76,0,0,1,5,3.92"/><path class="cls-6" d="M47.57,47.48a10.55,10.55,0,0,0,2.84-1c.46-.46,1.16-1.61,1.57-1.61a.87.87,0,0,0,.6-.19s.57.29.86,0,.58-.26,1-.43.55-.1.95-.49a5.34,5.34,0,0,1,.8-.58c.15-.15.82-.84.6-.21a11.69,11.69,0,0,0-1,3.23,5.73,5.73,0,0,1-.92,3.29A3.06,3.06,0,0,0,54,51.88a12.48,12.48,0,0,1-.3,2.5,8.82,8.82,0,0,1-1.48.26s-1.57-3.08-1.87-3.08a.88.88,0,0,1-.71-.32c-.24-.24-2.15-2.62-2-3.75"/><path class="cls-7" d="M44.51,46.61s1.87,1.18,1.87.71a14.73,14.73,0,0,0-.56-2.22,13.61,13.61,0,0,1,.49,2.22c-.13,0,.15.34-1.8-.71"/><path class="cls-7" d="M43.35,45.68s1.92.6,1.32-2.21c0,0,.43,2.64-1.32,2.21"/><path class="cls-7" d="M43.57,40.46s-3.1-7.88-6.46-8.31c0,0,2.67.08,6.46,8.31"/><path class="cls-7" d="M40.9,43.51s-4.39-6-4.39-9.08a28.34,28.34,0,0,0,4.39,9.08"/><path class="cls-7" d="M64.35,37.24A3.9,3.9,0,0,0,64,38.73c0,.77.09,3,0,4s-2.18,3.47-2.18,3.47l-.28-.29s2.32-2.24,2.32-3.84a4.84,4.84,0,0,0-1.09-3.24c-.46-.46-.75-.69-.75-.69s1.41-1.72,1.63-1.72a.69.69,0,0,1,.5.27c.14.14.29.39.22.56"/><path class="cls-7" d="M64.38,42.15a6.3,6.3,0,0,0,2.32.2l.6-.23a2.32,2.32,0,0,0,1.64.37s-1.26.43-1.61,1.12-.72.74-.72.74-1.9-2.15-2.21-1.58-.17.09,0-.63"/><path class="cls-7" d="M70.16,41.72a6.29,6.29,0,0,0,.62-.91,6.84,6.84,0,0,1,.64-.95,1,1,0,0,1,.7-.07c.34.12,1.07.18.79.46a3.9,3.9,0,0,1-.83.6c-.34.21-1.45,1-1.92.86"/><path class="cls-7" d="M63.67,47.51a3.55,3.55,0,0,1,2.12,1.41C66.36,50,65.73,52,65.73,52a2.77,2.77,0,0,0,.66-2.64c-.4-1.66-2.93-2.87-2.72-1.89"/><path class="cls-7" d="M65.76,46.08c1.32-.17-.2-.77,1.2-1.2s1.55-.92,2.18-1h0s0-.07-.1-.06c-.63.11-.77.6-2.18,1s.11,1-1.21,1.21-1.15.95-1.15.95h.05c0-.18,0-.75,1.15-.89"/><path class="cls-7" d="M52.93,44.5a3.13,3.13,0,0,1-1.85-1.06,7.64,7.64,0,0,1-1-1.65,9.4,9.4,0,0,0,1.57,2.06,4.25,4.25,0,0,0,1.25.65"/><path class="cls-7" d="M59.62,35.42s-3.19,3.49-2.15,6.8c0,0-1.68-3,2.15-6.8"/><path class="cls-7" d="M61.26,35s-4.13,7.32-3.36,11a20,20,0,0,1,3.36-11"/><path class="cls-7" d="M66.82,51.84s2.15-1,3.64-.08a4.86,4.86,0,0,0-3.64.08"/><path class="cls-7" d="M68.23,48.6s2.29,2.08,4.25.2a3.14,3.14,0,0,1-4.25-.2"/><path class="cls-7" d="M70.72,59.09s-5.72-.78-6.46-5.85c0,0-.17,4,6.46,5.85"/><path class="cls-7" d="M60.33,50.33a16.28,16.28,0,0,1-3.49,3.36c-1.1.58-1.74,1.23-2.28,1A4.3,4.3,0,0,0,54,54.4l0,0a2.38,2.38,0,0,1,.65.26c.54.26,1.18-.38,2.28-1a16.32,16.32,0,0,0,3.49-3.36A21.28,21.28,0,0,1,63.45,48l0,0a20.58,20.58,0,0,0-3.09,2.39"/><path class="cls-7" d="M59,56.51a13.76,13.76,0,0,1,3.44-1.72c.92-.29,2.93-2.7,2.93-2.7a1,1,0,0,1,.66.18.9.9,0,0,0-.71-.22s-2,2.41-2.93,2.7A13.62,13.62,0,0,0,59,56.46s0,.06,0,.05h0"/><path d="M89.57,58a2.5,2.5,0,1,0-2.5,2.5,2.5,2.5,0,0,0,2.5-2.5"/><text class="cls-8" transform="translate(10.59 85.06) rotate(66.39) scale(1.06 1)">T</text><text class="cls-8" transform="translate(14.54 93.15) rotate(56.13) scale(1.06 1)">E</text><text class="cls-8" transform="translate(20.08 100.71) rotate(45.37) scale(1.06 1)">N</text><text class="cls-8" transform="translate(27.73 107.83) rotate(34.27) scale(1.06 1)">N</text><text class="cls-8" transform="translate(36.25 113.1) rotate(25.34) scale(1.06 1)">I</text><text class="cls-8" transform="translate(42.63 115.89) rotate(16.86) scale(1.06 1)">S</text><text class="cls-8" transform="translate(51.71 118.24) rotate(8.62) scale(1.06 1)"> </text><text class="cls-8" transform="translate(58.33 119.04) rotate(0.89) scale(1.06 1)">A</text><text class="cls-8" transform="translate(68.05 118.8) rotate(-9.31) scale(1.06 1)">C</text><text class="cls-8" transform="translate(77.83 116.8) rotate(-19.41) scale(1.06 1)">A</text><text class="cls-8" transform="translate(86.94 113.18) rotate(-29.79) scale(1.06 1)">D</text><text class="cls-8" transform="matrix(0.81, -0.68, 0.64, 0.77, 95.55, 107.76)">E</text><text class="cls-8" transform="matrix(0.64, -0.84, 0.79, 0.61, 102.81, 101.24)">M</text><text class="cls-8" transform="matrix(0.43, -0.96, 0.91, 0.41, 110.5, 89.88)">Y</text><text class="cls-9" transform="translate(20.66 42.5) rotate(-56.89)">E</text><text class="cls-9" transform="translate(27.51 31.93) rotate(-37.47)">M</text><text class="cls-9" transform="translate(43.98 21) rotate(-19.93)">I</text><text class="cls-9" transform="translate(52.6 18.03) rotate(-5.61)">R</text><text class="cls-9" transform="translate(66.62 17.19) rotate(11.88)">A</text><text class="cls-9" transform="matrix(0.89, 0.46, -0.46, 0.89, 79.32, 20.41)">T</text><text class="cls-9" transform="translate(89.94 26.45) rotate(42.34)">E</text><text class="cls-9" transform="matrix(0.54, 0.84, -0.84, 0.54, 99.1, 35.34)">s</text></svg>