<?xml version="1.0" encoding="utf-8"?>
<!-- Generator: Adobe Illustrator 21.0.0, SVG Export Plug-In . SVG Version: 6.00 Build 0)  -->
<svg version="1.1" id="Layer_1" xmlns="http://www.w3.org/2000/svg" xmlns:xlink="http://www.w3.org/1999/xlink" x="0px" y="0px"
	 viewBox="0 0 512 512" style="enable-background:new 0 0 512 512;" xml:space="preserve">
<style type="text/css">
	.st0{fill:url(#SVGID_1_);}
	.st1{fill:url(#SVGID_2_);}
	.st2{fill:url(#SVGID_3_);}
	.st3{fill:url(#SVGID_4_);}
	.st4{fill:#F9ED1A;}
	.st5{fill:#FFFFFF;}
	.st6{fill:#231F20;}
	.st7{font-family:'Anton';}
	.st8{font-size:45.02px;}
	.st9{fill:none;stroke:#F8EC1A;stroke-width:0.5;stroke-miterlimit:10;}
	.st10{font-size:45.0199px;}
	.st11{font-size:45.0762px;}
	.st12{font-size:44.9343px;}
	.st13{font-size:89.0977px;}
	.st14{fill:none;stroke:#F9ED1A;stroke-miterlimit:10;}
	.st15{font-size:89.2624px;}
	.st16{font-size:88.9729px;}
</style>
<title>HTML5 Logo</title>
<g>
	
		<radialGradient id="SVGID_1_" cx="173.5552" cy="370.3109" r="127.4405" gradientTransform="matrix(1 0 0 -1 0 514)" gradientUnits="userSpaceOnUse">
		<stop  offset="0" style="stop-color:#FFFFFF"/>
		<stop  offset="0.1" style="stop-color:#FEFBD2"/>
		<stop  offset="0.22" style="stop-color:#FCF7A1"/>
		<stop  offset="0.34" style="stop-color:#FBF476"/>
		<stop  offset="0.47" style="stop-color:#FAF154"/>
		<stop  offset="0.6" style="stop-color:#F9EF39"/>
		<stop  offset="0.73" style="stop-color:#F8ED26"/>
		<stop  offset="0.86" style="stop-color:#F8EC1B"/>
		<stop  offset="1" style="stop-color:#F8EC17"/>
	</radialGradient>
	<path class="st0" d="M81.1,227.2c0.9-3.5,2-7,3.2-10.5c31.8-93.2,133.2-143,226.5-111.2c16.3,5.6,31.7,13.5,45.8,23.5
		C356.5,129,339.7,266.8,81.1,227.2z"/>
	
		<radialGradient id="SVGID_2_" cx="278.67" cy="127.9242" r="93.1532" gradientTransform="matrix(1 0 0 -1 0 514)" gradientUnits="userSpaceOnUse">
		<stop  offset="0" style="stop-color:#FFFFFF"/>
		<stop  offset="0.1" style="stop-color:#FEFBD2"/>
		<stop  offset="0.22" style="stop-color:#FCF7A1"/>
		<stop  offset="0.34" style="stop-color:#FBF476"/>
		<stop  offset="0.47" style="stop-color:#FAF154"/>
		<stop  offset="0.6" style="stop-color:#F9EF39"/>
		<stop  offset="0.73" style="stop-color:#F8ED26"/>
		<stop  offset="0.86" style="stop-color:#F8EC1B"/>
		<stop  offset="1" style="stop-color:#F8EC17"/>
	</radialGradient>
	<path class="st1" d="M412.3,355.2c-37.5,73.6-120.7,111.9-201,92.5l0,0C211.3,447.7,343,327.5,412.3,355.2z"/>
	
		<radialGradient id="SVGID_3_" cx="194.529" cy="267.7769" r="187.904" gradientTransform="matrix(1 0 0 -1 0 514)" gradientUnits="userSpaceOnUse">
		<stop  offset="0" style="stop-color:#FFFFFF"/>
		<stop  offset="0.1" style="stop-color:#FEFBD2"/>
		<stop  offset="0.22" style="stop-color:#FCF7A1"/>
		<stop  offset="0.34" style="stop-color:#FBF476"/>
		<stop  offset="0.47" style="stop-color:#FAF154"/>
		<stop  offset="0.6" style="stop-color:#F9EF39"/>
		<stop  offset="0.73" style="stop-color:#F8ED26"/>
		<stop  offset="0.86" style="stop-color:#F8EC1B"/>
		<stop  offset="1" style="stop-color:#F8EC17"/>
	</radialGradient>
	<path class="st2" d="M431.6,274.4c0,24.2-4.9,48.1-14.4,70.3c0,0-105.2-50.3-247.7,87.3l0,0C105,397.5,68,327.3,76,254.6
		c0,0,270.1,67.3,303.8-106.1C413.1,181.9,431.7,227.2,431.6,274.4z"/>
	
		<radialGradient id="SVGID_4_" cx="413.9347" cy="165.6934" r="4.7928" gradientTransform="matrix(1 0 0 -1 0 514)" gradientUnits="userSpaceOnUse">
		<stop  offset="0" style="stop-color:#FFFFFF"/>
		<stop  offset="0.1" style="stop-color:#FEFBD2"/>
		<stop  offset="0.22" style="stop-color:#FCF7A1"/>
		<stop  offset="0.34" style="stop-color:#FBF476"/>
		<stop  offset="0.47" style="stop-color:#FAF154"/>
		<stop  offset="0.6" style="stop-color:#F9EF39"/>
		<stop  offset="0.73" style="stop-color:#F8ED26"/>
		<stop  offset="0.86" style="stop-color:#F8EC1B"/>
		<stop  offset="1" style="stop-color:#F8EC17"/>
	</radialGradient>
	<path class="st3" d="M417.2,344.7c-1.5,3.6-3.2,7.1-5,10.6L417.2,344.7z"/>
	<path class="st4" d="M225.3,451.3c9.2,1.5,18.6,2.2,27.9,2.3c61.8-0.1,119.1-32.1,151.6-84.6C319.2,376,262.8,407.9,225.3,451.3"/>
	<path d="M342.7,353.7c0,0-5.7-15.1-10-18c-4.4-2.9-10.6-6.1-12.7-11.1s-10.7-25.3-13.8-30.7c-3.2-5.4-7-12.9-7-12.9
		c0.7-1.7,0.4-3.5-0.8-4.9c-1.9-2.8-5-5.8-4.1-7.8s4.6-8.2,1.8-10.3c-2.8-2.1-1.1-4.1-3.8-6.1c-2.7-2-0.5-3.4-2.9-5
		c-2.4-1.6,0-2.5-1.8-5.8c-0.9-2-1.6-4-2.1-6.1c-0.9-1.8-2.7-2.5-0.9-4.3c1.5-1.4,2.3-3.5,2.2-5.5c0.6-2.4,1.5-4.8,2.6-7
		c0.9-2.6,7.6-7,8.2-9.9s0.7-3.8,1.6-4.7c1.1-1.4,1.8-3,2.1-4.7c0.7-2.4,5.5-6.5,4.3-12.3c-1.2-5.8-4.1-11.4-7.1-11.4
		c0,0,2-2-0.5-2.5c-1.9-0.5-3.6-1.5-5-2.8c0.4-2.1,1.1-4.2,2-6.2c0.9-0.9,0.9,0,0.9,0.6c0,0.4-0.1,0.7-0.4,1c1-1.1,1.5-2.6,1.5-4.1
		c0-2.4,0.5,1,0.5,2.4v-5.4c0-0.7,1.8,1.1,1.8,1.1s-1.1-2.9,0.2-4.1c1.3-1.2,0.6,1.4,0.6,1.4s1.8-4.8,1.1-6.5
		c-0.7-1.6,1.5,0.3,0.8-2.5c-0.7-2.8,3.3-6.9,1.2-8.9c-2.1-1.5-3.4-3.8-3.5-6.3c0-2.8-2.7-7.7-3.9-7.7c-1.2,0-8.5-4.3-11.8-4.3
		c-3.3,0-5.8-2.1-8.9-0.7c-3.2,1.4-6.9,4.1-10.4,3.6c-3.4-0.5-1.5,2-0.2,2c1.3,0,1.9,1.7-0.4,1.7c-2.3,0-2.9,0.7-2.9,0.7
		s-0.2,1.6,2.3,0.6c2.5-1-1.1,1.2-2.8,0.7c0.5,0.5,1.2,0.7,1.9,0.7c-0.4,1-1.3,1.8-2.4,1.8c-1.8,0-1.8,0.9-1.8,0.9s0.3-0.3,1.3-0.3
		c1.1-0.2,2.1-0.5,3.1-0.9c0,0-0.9,2.5-2.5,3c-1,0.4-1.6,1.2-1.8,2.3c0,0,0-1.6,1.4-1.6c0.9-0.1,1.8-0.5,2.5-1.1
		c0,0-2.1,3.1-1.8,4.9c0.4,1.8,0.3,3.3-0.2,3.9s0.7,0,0.7-0.7c0.1-0.9,0.2-1.8,0.4-2.7c0,0,1.4,3.2,0,4.5c-0.8,0.9-1.3,2-1.4,3.2
		c0,0,0.7-1,1.4-1s0,1.3-0.7,1.9c-0.7,0.7-19.5-0.7-22.3,2.1c-2.8,2.8-5.7,6.5-8.8,7.7c-3.2,1.3-7,1.8-8.2,4.4
		c-2.3,3.6-5.7,6.4-9.7,7.9c-2.8,0.6-5,4.5-6,5.4s-1.7,4.8-2.5,4.8s-0.2,0.6-0.2,0.6c-2.3,1.4-5,2.3-7.7,2.6
		c-3.1,0.3-6.2,0.9-9.1,1.9c-3.1-8.2-6.7-16.3-10.7-24.2c-5.2-9.7-14.9-30.3-27.9-23.5s2.4,31.7,5.4,36.9
		c4.4,7.3,9.4,14.2,14.8,20.7c-3,1.6-6.5,1.6-9.5,0c-5-2.8-7.7-3.6-9.9-3.2c-2.1,0.5-3.8,1.1-4.8,0c-0.9-1.1-4.8-0.6-3.6,1.8
		s2.5,3.2,4.1,3.2s0.9,0.8-0.8,0.8c-1.7,0-5.2,0.5-7.5,0.5s-9.7,0.2-9.7,2.6c0,2.3,2.3,2,5.2,2c2.8,0,7.7,0,7.7,1.2
		s-4.1,2.3-6.8,3.1s-6.3,2.5-5.8,4.1c0.5,1.6,2.3,1,5,0c2.9-1.1,5.9-1.8,9-2c0,0.6-2.3,1.3-5.3,2.2c-3,0.9-6.6,2.6-6.1,4.1
		s2.5,0.7,5.8-0.4c3.3-1.1,10.5-3,10.1-1.4c-1.1,2.6-2.6,5-4.5,7.2c-1,1-2.2,3-1,3.5c1.2,0.5,3.6-1.4,5.3-3.1
		c1.7-1.7,2.6-6.1,5.8-6.1c3.2,0.1,6.4-0.8,9.1-2.5c2.3-1.6,4.9-2.5,7.6-2.7c2,0,15.1-3.8,15.1-3.8c4.6,3.5,8.8,7.5,12.4,12
		c1.2,2,2.5,3.9,3.9,5.7c-0.5,1.5-0.2,3.1,0.7,4.3c1.6,1.6,8.9,12.3,8.9,12.3s-2.9,1.9-1.8,3c1.1,1.1,1.5,3.9,2,4.4
		c0.5,0.5,1.4-0.4,1.4-0.4s0,2.6,2.3,1.8c-0.4,0.7-0.4,1.6,0,2.3c0.6,1.4,1.4,0.5,1.4,0.5s0,2.3,0,3s-0.7,1.2-0.7,2.7
		c0.1,1.1,0.2,2.3,0.5,3.4c0,0-3.2,15.8-9.6,22.2c-6.4,6.4-17.6,21.9-18.8,27s-4.1,15.9-4.1,15.9s-2.3,1.1-2.3,2.3s-0.9,0.8-0.9,2.2
		c-1.2,3.3-2.5,6.6-4.1,9.7c-0.6,1.8-3.9,8.6-4.8,10.9c-0.9,1.9-2.1,3.7-3.7,5.1c-2.8,2.8-5.1,6.1-6.9,9.7
		c-1.3,3.8-2.1,7.8-2.5,11.8c0,2.7-3.1,8.2,1.2,8.2c4.3,0,4.6,2.8,8.5,3.7c3.9,0.9,18.2,4.1,22.2,0c3.1-2.4,3.7-6.9,1.3-10
		c-1.7-1.7-3.8-1.3-2.9-3.6c0.8-2.3,2.1-2.3,0.4-4.1s-1.9-0.9-1.9-3.1c-0.3-1.7-1.1-3.2-2.3-4.5c0.9-1.8,1.7-3.7,2.3-5.7
		c0.4-4.3,2-8.4,4.6-11.8c3.6-3.6,8.6-9.7,8.6-9.7l-0.8-0.8c0,0,9.4-12.7,13.5-19.4s7.9-15.8,9.5-17.4c1.7-1.5,3.5-2.8,5.4-3.9
		c0,0,7.9,5.1,13.8,1.1s6.1-9.9,8.9-9.3c2.8,0.6,5.7,0.2,6.3,3.2c0.7,2.9,4.1,8.8,8.2,9.3c3.6,6.4,8.1,12.2,13.3,17.3
		c6.7,5.6,15.1,13.4,20.1,18.4c5,5,13.5,10.8,16.4,17.4c2,5.3,5.8,9.8,10.7,12.6c4.1,2.3,7.7,1.3,12.3,5.9l4.6,4.6
		c0,0-0.7,0-0.7,2.1c0,2.1-1.6,5.8,4.1,5.8c5.7,0,12.9-1.4,15.5-0.2c2.6,1.2,8.2,4.1,8.2,4.1h0.9l-2.8-2.8c0,0,7.3,1.3,9.2,1.3
		s17.2,1.6,19-3.5c2.6-5.5,0.2-12-5.3-14.6c-0.4-0.2-0.8-0.3-1.2-0.5c-6.3-1.5-12.9-1.9-19.4-1c0.8-2.4,2.4-4.4,4.6-5.8
		c3.2-1.5,3.5-5.4,1.1-6.6c-2.5-1.2-6,1.3-7.7,5.5s-2.5,6.2-3.7,6.2c-1,0.2-1.9,0.7-2.7,1.4c0,0-7.1-0.3-9.1-4.1
		c-2-3.8-4.8-10.1-6.8-10.1"/>
	<path class="st5" d="M366.2,364c0,0,0.9-6.5,3.7-7s2.5,0.7,1.1,2.1C369.5,360.5,368.5,364,366.2,364"/>
	<path class="st5" d="M180.6,326.1c3.2,1,6.4,2.3,9.3,4.1c1.8,1.2,3.4,2.7,4.8,4.3c0.6,0.7,1,1.5,1.1,2.4c-0.8,1.9-2,3.7-3.4,5.1
		c-2.5,2.5-6,5.5-6.5,8.8s0.2,3.2-1.1,6.4c-1,1.8-1.8,3.7-2.5,5.6c0,0.8-0.9-2.9-3.4-3.6c-2.6-0.7-1.2-2.4-3.6-3
		c-2.8,0-5.5,0.7-7.9,1.9c0,0-2.4-1.4,0-3.8c1.9-2.4,3.6-4.9,5-7.6c2.6-4.8,4.7-10,6.1-15.3c0-0.9,0.8-5.5,2.5-5.5"/>
	<path class="st5" d="M352.1,367.9c0.7,2-0.2,4.3-2.1,5.3c-2,1.7-4.6,2.7-7.3,2.7c-1.6,0.3-3.2-0.4-4.1-1.7
		c-1.5-1.5-2.3-4.7-4.1-5.2c-1.8-0.5-2.7-0.9,0-1.4c2.7-0.1,5.3-1.5,6.8-3.8c2.2-3.1,3.2-3.3,2-6c-0.7-1.4-1-2.9-1.1-4.5
		c0,1.3,2.5,3.2,3,5.5c0.8,2.3,2.2,4.4,4.1,6c1.2,1.2,3.7,1.8,2.4,3.2"/>
	<path class="st5" d="M298.2,279.9c-5.5-1.8-11.3-2.1-16.9-0.9c-4.4,1.4-8.9,2.2-13.5,2.6c-6.5,1.2-6.9-0.8-9.7,4.1
		c-2.8,4.9-2.3,6.9-0.5,8.8c1.1,1.1,2,2.4,2.6,3.8c-1.8-1.3-3.3-3-4.3-5c-1.2-2.7,0.5-3.6-2.9-5c-3.4-1.4-6.3-2-8.2-0.3
		c-1.9,1.7-4.1,7.3-6.3,8.2c-2.8,1.1-5.8,1.4-8.7,0.8c-1.4-0.3-2.7-0.9-3.8-1.8c0,0-0.2-1.6,1.5-0.8c2.9,1.5,6.3,1.7,9.4,0.7
		c3.6-1.4,6.3-4.5,7.3-8.2c0.6-5,0.5-10-0.3-14.9c-0.8-5.9-3.2-11.4-6.9-16c-2.5-2.6-5.3-4.9-8.2-6.8c0,0-1.2-0.9,0.6-1.6
		c2-0.6,3.9-1.5,5.7-2.7c1-1,10.3,4.9,16.4,4.9c6.1,0,4.8,1.1,10.2,2.6c5.4,1.5,8.2,5.9,13.6,5.9c5.4,0,17.3,2.7,17.3,5.3
		c0,2.6,0,6.9,1.6,8.6s7,7.9,4.6,7.9"/>
	<path d="M260.9,263.2c0,0-12.3,10.8-7.7,21.7C253.2,284.9,246.8,274,260.9,263.2"/>
	<path d="M285,277.2c-7.4-5.1-16.1-7.9-25-8.2C260,269,277.6,271.6,285,277.2"/>
	<path d="M263.5,267.3c0,0,19.9-1.6,27.5,4.8C291,272,285.6,267.3,263.5,267.3"/>
	<path d="M248.5,276.6c0,0,1.5-14.9-9-22C245.6,260.3,248.9,268.3,248.5,276.6"/>
	<path d="M254.5,265.7c-5.2-7.1-12.3-12.7-20.5-16.1C242.8,251.8,250.3,257.7,254.5,265.7"/>
	<path class="st4" d="M194,203.7c4.1-0.8,8-2.2,11.6-4.1c1.9-1.9,4.8-6.6,6.4-6.6c0.9,0.1,1.8-0.2,2.5-0.8c0,0,2.3,1.2,3.5,0
		s2.4-1.1,4.1-1.8c1.7-0.7,2.3-0.4,3.9-2c1-0.9,2.1-1.7,3.3-2.4c0.6-0.6,3.4-3.4,2.5-0.9c-2,4.2-3.4,8.6-4.1,13.2
		c0.1,4.8-1.2,9.5-3.8,13.5c-2.6,2.6-3.9,6.2-3.6,9.8c-0.1,3.4-0.5,6.9-1.2,10.2c-2,0.5-4,0.9-6.1,1.1c0,0-6.4-12.6-7.7-12.6
		c-1.1,0-2.2-0.4-2.9-1.3c-1-1-8.8-10.7-8.2-15.4"/>
	<path class="st5" d="M181.5,200.1c0,0,7.7,4.8,7.7,2.9c-0.5-3.1-1.3-6.1-2.3-9.1c0.9,3,1.6,6,2,9.1
		C188.3,203,189.5,204.4,181.5,200.1"/>
	<path class="st5" d="M176.8,196.3c0,0,7.9,2.5,5.4-9.1C182.2,187.3,183.9,198.1,176.8,196.3"/>
	<path class="st5" d="M177.7,174.9c0,0-12.7-32.3-26.5-34C151.2,140.9,162.1,141.2,177.7,174.9"/>
	<path class="st5" d="M166.7,187.4c0,0-18-24.6-18-37.2C152.5,163.6,158.5,176.2,166.7,187.4"/>
	<path class="st5" d="M262.8,161.8c-0.9,1.9-1.4,4-1.4,6.1c0,3.2,0.4,12.3,0,16.4c-0.4,4.1-8.9,14.2-8.9,14.2l-1.1-1.2
		c0,0,9.5-9.2,9.5-15.7c0.2-4.8-1.4-9.5-4.5-13.3c-1.9-1.9-3.1-2.8-3.1-2.8s5.8-7,6.7-7c0.8,0.1,1.6,0.5,2,1.1
		C262.5,160.1,263.1,161.1,262.8,161.8"/>
	<path class="st5" d="M262.9,181.9c3.1,0.9,6.3,1.1,9.5,0.8l2.5-0.9c2,1.3,4.4,1.9,6.7,1.5c0,0-5.2,1.8-6.6,4.6
		c-1.4,2.8-2.9,3-2.9,3s-7.8-8.8-9.1-6.5S262.3,184.8,262.9,181.9"/>
	<path class="st5" d="M286.6,180.1c1-1.2,1.8-2.4,2.5-3.7c0.8-1.4,1.6-2.7,2.6-3.9c0.9-0.4,1.9-0.5,2.9-0.3c1.4,0.5,4.4,0.7,3.2,1.9
		c-1,1-2.2,1.8-3.4,2.5C293,177.4,288.5,180.6,286.6,180.1"/>
	<path class="st5" d="M260,203.8c3.5,0.8,6.6,2.8,8.7,5.8c2.3,4.4-0.2,12.6-0.2,12.6c2.7-2.9,3.8-7,2.7-10.8
		c-1.6-6.8-12-11.8-11.1-7.7"/>
	<path class="st5" d="M268.6,198c5.4-0.7-0.8-3.2,4.9-4.9c5.7-1.8,6.3-3.8,8.9-4.1l0,0c0,0,0-0.3-0.4-0.2c-2.6,0.5-3.2,2.5-8.9,4.1
		c-5.8,1.6,0.5,4.1-5,5c-5.4,0.9-4.7,3.9-4.7,3.9h0.2c0-0.7,0-3.1,4.7-3.6"/>
	<path class="st5" d="M216,191.5c-3-0.5-5.6-2.1-7.6-4.3c-1.6-2.1-3-4.3-4.1-6.8c1.7,3.1,3.9,5.9,6.4,8.4c1.5,1.2,3.3,2.1,5.1,2.7"
		/>
	<path class="st5" d="M243.4,154.3c0,0-13.1,14.3-8.8,27.9C234.6,182.2,227.7,169.9,243.4,154.3"/>
	<path class="st5" d="M250.1,152.6c0,0-16.9,30-13.8,45.1C236.4,181.6,241.2,165.9,250.1,152.6"/>
	<path class="st5" d="M272.9,221.6c0,0,8.8-4.1,14.9-0.3C283,219.4,277.6,219.5,272.9,221.6"/>
	<path class="st5" d="M278.7,208.3c0,0,9.4,8.5,17.4,0.8C290.9,213.4,283.4,213.1,278.7,208.3"/>
	<path class="st5" d="M288.9,251.3c0,0-23.4-3.2-26.5-24C262.4,227.3,261.7,243.7,288.9,251.3"/>
	<path class="st5" d="M246.3,215.4c-4.1,5.3-8.9,9.9-14.3,13.8c-4.5,2.4-7.1,5-9.3,4.1c-0.7-0.5-1.5-0.8-2.3-1.2l0,0
		c0.9,0.2,1.8,0.6,2.7,1.1c2.2,1.1,4.8-1.6,9.3-4.1c5.4-3.9,10.2-8.5,14.3-13.8c3.8-3.5,8-6.7,12.4-9.4l0,0
		c-4.5,2.9-8.8,6.1-12.7,9.8"/>
	<path class="st5" d="M240.9,240.7c4.3-3,9.1-5.4,14.1-7c3.8-1.2,12-11.1,12-11.1c1-0.1,1.9,0.2,2.7,0.7c-0.8-0.7-1.9-1-2.9-0.9
		c0,0-8.2,9.9-12,11.1c-4.9,1.7-9.6,4-13.9,7C240.9,240.5,240.9,240.7,240.9,240.7L240.9,240.7"/>
	<path d="M366.1,246.8c0-5.7-4.6-10.2-10.2-10.2c-5.7,0-10.2,4.6-10.2,10.2s4.6,10.2,10.2,10.2C361.5,257,366.1,252.5,366.1,246.8"
		/>
	<text transform="matrix(0.4245 0.9713 -0.9163 0.4005 42.5478 357.6421)" class="st6 st7 st8">T</text>
	<text transform="matrix(0.4245 0.9713 -0.9163 0.4005 42.5478 357.6421)" class="st9 st7 st8">T</text>
	<text transform="matrix(0.5907 0.8801 -0.8303 0.5573 58.7337 390.7879)" class="st6 st7 st10">E</text>
	<text transform="matrix(0.5907 0.8801 -0.8303 0.5573 58.7337 390.7879)" class="st9 st7 st10">E</text>
	<text transform="matrix(0.7447 0.7544 -0.7117 0.7025 81.4278 421.7557)" class="st6 st7 st8">N</text>
	<text transform="matrix(0.7447 0.7544 -0.7117 0.7025 81.4278 421.7557)" class="st9 st7 st8">N</text>
	<text transform="matrix(0.876 0.5969 -0.5631 0.8264 112.7602 450.9202)" class="st6 st7 st10">N</text>
	<text transform="matrix(0.876 0.5969 -0.5631 0.8264 112.7602 450.9202)" class="st9 st7 st10">N</text>
	<text transform="matrix(0.958 0.4537 -0.428 0.9038 147.6623 472.5093)" class="st6 st7 st10">I</text>
	<text transform="matrix(0.958 0.4537 -0.428 0.9038 147.6623 472.5093)" class="st9 st7 st10">I</text>
	<text transform="matrix(1.0144 0.3074 -0.29 0.957 173.8021 483.9404)" class="st6 st7 st8">S</text>
	<text transform="matrix(1.0144 0.3074 -0.29 0.957 173.8021 483.9404)" class="st9 st7 st8">S</text>
	<text transform="matrix(1.0599 1.646477e-02 -1.553281e-02 0.9999 238.1136 496.8421)" class="st6 st7 st10">A</text>
	<text transform="matrix(1.0599 1.646477e-02 -1.553281e-02 0.9999 238.1136 496.8421)" class="st9 st7 st10">A</text>
	<text transform="matrix(1.046 -0.1715 0.1618 0.9868 277.9348 495.8616)" class="st6 st7 st8">C</text>
	<text transform="matrix(1.046 -0.1715 0.1618 0.9868 277.9348 495.8616)" class="st9 st7 st8">C</text>
	<text transform="matrix(0.9998 -0.3523 0.3323 0.9432 317.9964 487.6671)" class="st6 st7 st8">A</text>
	<text transform="matrix(0.9998 -0.3523 0.3323 0.9432 317.9964 487.6671)" class="st9 st7 st8">A</text>
	<text transform="matrix(0.9199 -0.5266 0.4968 0.8679 355.3128 472.8335)" class="st6 st7 st10">D</text>
	<text transform="matrix(0.9199 -0.5266 0.4968 0.8679 355.3128 472.8335)" class="st9 st7 st10">D</text>
	<text transform="matrix(0.809 -0.6792 0.6392 0.769 390.5827 450.6325)" class="st6 st7 st11">E</text>
	<text transform="matrix(0.809 -0.6792 0.6392 0.769 390.5827 450.6325)" class="st9 st7 st11">E</text>
	<text transform="matrix(0.6412 -0.8416 0.7915 0.6112 420.3287 423.9281)" class="st6 st7 st12">M</text>
	<text transform="matrix(0.6412 -0.8416 0.7915 0.6112 420.3287 423.9281)" class="st9 st7 st12">M</text>
	<text transform="matrix(0.4308 -0.9618 0.9117 0.4108 451.8262 377.3896)" class="st6 st7 st12">Y</text>
	<text transform="matrix(0.4308 -0.9618 0.9117 0.4108 451.8262 377.3896)" class="st9 st7 st12">Y</text>
	<text transform="matrix(0.5462 -0.8376 0.8376 0.5462 83.8037 183.3033)" class="st6 st7 st13">E</text>
	<text transform="matrix(0.5462 -0.8376 0.8376 0.5462 83.8037 183.3033)" class="st14 st7 st13">E</text>
	<text transform="matrix(0.7937 -0.6083 0.6083 0.7937 111.8601 140.0034)" class="st6 st7 st13">M</text>
	<text transform="matrix(0.7937 -0.6083 0.6083 0.7937 111.8601 140.0034)" class="st14 st7 st13">M</text>
	<text transform="matrix(0.9401 -0.3409 0.3409 0.9401 179.3311 95.2278)" class="st6 st7 st13">I</text>
	<text transform="matrix(0.9401 -0.3409 0.3409 0.9401 179.3311 95.2278)" class="st14 st7 st13">I</text>
	<text transform="matrix(0.9952 -9.775660e-02 9.775660e-02 0.9952 214.6431 83.062)" class="st6 st7 st13">R</text>
	<text transform="matrix(0.9952 -9.775660e-02 9.775660e-02 0.9952 214.6431 83.062)" class="st14 st7 st13">R</text>
	<text transform="matrix(0.9786 0.2059 -0.2059 0.9786 272.0721 79.6188)" class="st6 st7 st13">A</text>
	<text transform="matrix(0.9786 0.2059 -0.2059 0.9786 272.0721 79.6188)" class="st14 st7 st13">A</text>
	<text transform="matrix(0.8884 0.4592 -0.4592 0.8884 324.1012 92.8145)" class="st6 st7 st15">T</text>
	<text transform="matrix(0.8884 0.4592 -0.4592 0.8884 324.1012 92.8145)" class="st14 st7 st15">T</text>
	<text transform="matrix(0.7392 0.6735 -0.6735 0.7392 367.6027 117.5518)" class="st6 st7 st13">E</text>
	<text transform="matrix(0.7392 0.6735 -0.6735 0.7392 367.6027 117.5518)" class="st14 st7 st13">E</text>
	<text transform="matrix(0.5408 0.8412 -0.8412 0.5408 405.1262 153.969)" class="st6 st7 st16">s</text>
	<text transform="matrix(0.5408 0.8412 -0.8412 0.5408 405.1262 153.969)" class="st14 st7 st16">s</text>
</g>
</svg>
