<?xml version="1.0" encoding="utf-8"?>
<!-- Generator: Adobe Illustrator 21.0.0, SVG Export Plug-In . SVG Version: 6.00 Build 0)  -->
<svg version="1.1" id="Layer_1" xmlns="http://www.w3.org/2000/svg" xmlns:xlink="http://www.w3.org/1999/xlink" x="0px" y="0px"
	 viewBox="0 0 512 512" style="enable-background:new 0 0 512 512;" xml:space="preserve">
<style type="text/css">
	.st0{fill:#FFFFFF;}
	.st1{fill:#929292;}
	.st2{fill:#1C1C1C;}
	.st3{fill:#717171;}
	.st4{fill:#F70B04;}
	.st5{fill:#DEDEDE;}
	.st6{fill:#9C9C9C;}
	.st7{fill:#A5A5A5;}
	.st8{fill:#0B0B0B;}
	.st9{fill:#606161;}
	.st10{fill:#0C0C0C;}
	.st11{fill:#0A0A0A;}
	.st12{fill:#0D0D0D;}
	.st13{fill:#090909;}
	.st14{fill:#0E0E0E;}
	.st15{fill:#ED1311;}
	.st16{fill:#202020;}
	.st17{fill:#272727;}
	.st18{fill:#471B16;}
	.st19{fill:#757575;}
	.st20{fill:#737373;}
	.st21{fill:#E3E3E3;}
	.st22{fill:#376764;}
	.st23{fill:#50817D;}
	.st24{fill:#649894;}
	.st25{fill:#3B6D6A;}
	.st26{fill:#3B6C6A;}
</style>
<title>HTML5 Logo</title>
<rect class="st0" width="512" height="512"/>
<g>
	<path class="st1" d="M302.8,125.5c8,6.4,13.2,15.7,14.5,25.9c0.8,2.5,1,5.1,0.6,7.7c-1.5,0-3.3-0.7-3.5,1.9c-0.2,2.6,0.7,4,3.4,3.9
		c0.4,5.5,0.4,11,0,16.5c-2,0-3.4,0-3.5,2.6s1.4,3.2,3.5,3.2l0.3,11.2h-6v-0.5c1.9-1.2,2.1-2.7,0.4-4.4c-1.7-1.7-2.7-1.3-3.6,0
		c-0.9,1.3-1.5,3.2,0.9,4.4v0.7h-9.3v-0.7c1.2,0,2.1-0.9,2.2-2c0-0.3,0-0.5-0.1-0.8c-0.2-1.4-1.4-2.4-2.8-2.4
		c-1.3-0.1-2.4,0.8-2.8,2c-0.6,1-0.2,2.3,0.9,2.9c0.3,0.2,0.7,0.3,1.1,0.2v0.7h-20v-0.8c2.1-0.4,1.7-2,1.2-3.2
		c-0.3-1.3-1.5-2.1-2.8-1.8c0,0,0,0-0.1,0c-1.2,0.3-2.4,0.7-2.7,2.2c-0.3,1.4,0.3,2.7,2.1,2.8v0.7h-3.7c0.2-3.9,0.2-7.8,0-11.7
		c3.4-1.8,2.3-3.6,0-5.4c0.8-2.4-1.7-5.5,1.5-7.4c0.4,0.4,0.8,1,1.4,1.2c1.3,0.7,3,0.5,4.1-0.6c0.8-1,0.7-2.5-0.3-3.3
		c-0.9-1.2-2.5-1.4-3.7-0.6c-0.1,0.1-0.1,0.1-0.2,0.2l-1.2,0.8c-2.3-2.1-1.2-4.8-1.5-7.3c2.3-1.8,3.1-3.6,0-5.4
		c0.3-2.5-0.8-5.3,1.5-7.4c1.5,0.9,3,2.4,4.8,0.7c0.9-0.8,1.4-1.7,0.7-2.9c-1.1-1.7-3.3-2.2-4.9-1.1c-0.1,0-0.1,0.1-0.2,0.1h-0.3
		c-2.1-0.3-1.6-1.9-1.3-3.1c0.4-1.2,0.5-2.4,0.5-3.6c2.1-2.3,1.4-4.4-0.7-5.9c0.8-1.2,0.9-2.7,0.3-4.1c-0.5-1.1-0.6-2.4,1.2-2.7
		c1.1,0.6,2.1,1.9,3.6,1.4c1.4-0.3,2.3-1.5,2.3-2.9c0.1-1.4-1-2.6-2.4-2.8c-2.1-0.3-3.1,1-3.5,2.8c-2.8-2.5-1.4-5.4-0.7-8.3
		c1.5-1.4,1.6-3.7,0.2-5.2c-0.3-0.3-0.6-0.5-0.9-0.7h4.4c0.7,1.1,2.1,0.5,3,1c0,2-0.6,4.4,2.3,4.9s3.6-1,3.5-3.4
		c6.3,1.5,12,4.8,16.5,9.5c-0.7,0-1.4,0-2.1-0.3c-2-0.4-3.4,0.3-3.8,2.3c-0.2,1.4,0.7,2.8,2.1,3c0.1,0,0.2,0,0.3,0
		c1.5,0.3,3-0.7,3.3-2.2c0-0.1,0-0.2,0-0.4C302.6,127.1,302.7,126.3,302.8,125.5z M283.3,136c-1.7,0.1-2.9,1.5-2.9,3.1
		c0,1.8,0.7,2.8,2.6,2.8c1.8,0,3.3-1.1,3.2-3.1C286.2,137.2,284.9,135.9,283.3,136z M297.5,184.5c0.1-1.6-1.1-3-2.7-3.1
		c-0.1,0-0.2,0-0.3,0c-1.5-0.1-2.8,1-2.9,2.4c0,0.1,0,0.2,0,0.3c0,1.9,1.1,2.9,3,3.1S297.1,186,297.5,184.5L297.5,184.5z
		 M305.7,164.2c1.7,0,2.8-0.6,2.9-2.5c0-1.9-1.1-2.8-3-2.8c-1.9,0-2.8,0.6-2.9,2.5C302.7,163.4,303.8,164.3,305.7,164.2L305.7,164.2
		z M305.7,181.3c-1.8,0-3.1,1.1-3,3c-0.1,1.6,1.1,3,2.7,3.1c1.6,0.1,3-1.1,3.1-2.7C308.6,182.7,307.6,181.7,305.7,181.3L305.7,181.3
		z M286.2,184.5c0-1.8-1.1-3-3-3.1c-1.5-0.1-2.8,1-2.9,2.4c0,0.1,0,0.2,0,0.3c-0.2,1.5,0.8,2.8,2.3,3c0.2,0,0.4,0,0.6,0
		C285.1,187.2,286,186,286.2,184.5L286.2,184.5z M308.6,138.7c-0.4-1.4-1.1-2.6-2.8-2.7c-1.5-0.2-2.8,0.8-3,2.3c0,0.2,0,0.4,0,0.6
		c-0.1,1.5,1,2.8,2.4,2.9c0.1,0,0.2,0,0.3,0C307.4,141.9,308.6,140.7,308.6,138.7z M289,130.7c1.4-0.3,2.4-1.5,2.4-3
		c0.1-1.5-1.1-2.8-2.6-2.9c-0.2,0-0.4,0-0.6,0c-1.3-0.1-2.5,1-2.5,2.3c0,0.1,0,0.2,0,0.3c-0.1,1.7,1.2,3.1,2.9,3.2
		c0.2,0,0.4,0,0.6,0H289z M294.8,141.9c1.2-0.5,2.7-1.2,2.4-3s-0.8-3.1-2.8-2.8c-1.6,0.1-2.8,1.4-2.8,3c0.1,2,1.4,2.6,3.4,2.8
		L294.8,141.9z M294.5,159c-1.4,0-2.9,0-3,2c-0.2,1.6,1,3,2.5,3.1c0.1,0,0.2,0,0.4,0c1.5,0,2.8-0.3,2.8-2.1s-0.5-3.1-2.6-3.1
		L294.5,159z M299.8,147.8c-1.7,0-3.1,0.3-3,2.4c0,1.6,1.3,2.9,2.9,2.9c1.6,0,2.9-1.3,2.9-2.9C302.8,148.4,301.5,147.8,299.8,147.8z
		 M299.8,175.4c1.5,0,2.8-0.5,2.7-2.2c0-1.6-1.3-2.9-2.9-2.9s-2.9,1.3-2.9,2.9c0,0,0,0,0,0C296.9,175.1,298.3,175.4,299.8,175.4z
		 M291.5,150.4c0-1.9-1.1-2.6-2.9-2.5c-1.8,0.1-2.8,0.8-2.8,2.4c-0.1,1.5,1.1,2.7,2.6,2.8c0.1,0,0.2,0,0.3,0
		C290.7,153,291.6,152.2,291.5,150.4z M291.5,172.8c-0.1-1.5-1.4-2.7-3-2.6c-1.4-0.1-2.6,0.9-2.7,2.3c0,0,0,0.1,0,0.1
		c-0.1,1.7,1.2,3.1,2.9,3.1c0,0,0,0,0,0C290.3,176,291.1,174.4,291.5,172.8L291.5,172.8z M283.6,159c-1.4-0.2-2.8,0.7-3,2.1
		c0,0.2,0,0.5,0,0.7c0,1.7,1.4,2.2,2.8,2.3c1.4,0.2,2.7-0.7,2.9-2.1c0-0.2,0-0.3,0-0.5C286.2,160.2,285,159,283.6,159
		C283.6,159,283.6,159,283.6,159z M308.6,173.1c-0.3,1.1,0.4,2.3,1.5,2.6c0.2,0.1,0.5,0.1,0.7,0.1c1.4,0.2,2.8-0.8,2.9-2.2
		c0-0.1,0-0.2,0-0.3c0.1-1.5-1-2.8-2.5-3c0,0-0.1,0-0.1,0C309.5,170,308.6,171,308.6,173.1z M311,147.8c-1.7,0-2.4,1-2.4,2.6
		s0.9,2.7,2.8,2.6c1.2,0.1,2.4-0.8,2.5-2.1c0-0.2,0-0.3,0-0.5C313.9,148.6,312.9,147.8,311,147.8L311,147.8z M289.2,197.9
		c1.1,0.2,2.2-0.6,2.3-1.7c0-0.2,0-0.4,0-0.6c0.1-1.4-1-2.6-2.4-2.7c0,0-0.1,0-0.1,0c-1.7,0-3.1,1.3-3.2,3
		C285.5,197.4,287.1,197.9,289.2,197.9z"/>
	<path class="st2" d="M405.3,398.4c-2.5-2.6-2.3-4.4,0.7-7c1.4-1.2,3.4-1.4,4.4-3.3c-2.4,1.3-5.2-0.7-7.6,1.2
		c-0.9,0.9-2.4,1.1-3.4,0.3c-1.5-1-1-2.4-0.7-3.7s1-2,0.4-3.3c-3.7,0.9-4,5.7-7.6,6.9c-0.8-2.9,1.6-4.8,1.6-7.2
		c0.3-0.6,0.5-1.1,0-1.6c-0.5-0.5-0.5,0.3-0.8,0.5c-1.7,1.2-3.2,2.8-4.4,4.6c-2.3,4.2-7.7,5.7-11.9,3.4c-0.1,0-0.1-0.1-0.2-0.1
		c-0.5-0.3-1.1-0.3-1.7,0c-2.6,1.3-4.6,1-5.4-2.4c-2.6,2-4.7,4.9-8.1,1.9c-0.8-0.7-1.3,0.3-1.8,0.7c-1.1,0.9-2.6,1.1-3.8,0.6
		c-1.3-0.7-2.9-0.6-4.1,0.3c-1,0.7-2.2,0.7-3.2,0c-1.2-1-2.2-0.5-3.4,0c-2.2,1.5-5.3,0.9-6.8-1.3c-0.1-0.1-0.1-0.2-0.1-0.2
		c-1.6,1.2-3.4,2.4-5.1,1.2c-2.7-2-1.8-5.1-1.7-7.9c-2-1.3-4.7-0.8-6,1.2c-0.2,0.3-0.4,0.7-0.5,1c-0.9,2.8-2.4,5.3-4.4,7.3
		c-0.6-4.1,2.2-6.9,3.6-10.4c-0.3-1.2-2.5-0.4-2.3-2.5c5.3,0.5,6.4-4.4,9.1-7.4c2.1-2.6,4.8-4.7,7.9-6.1c-2,8.1-6.3,14.8-4.9,22.6
		c2.3,0,3-1.1,3.7-2.7c0.7-1.5,1.4-3,2.3-4.4c1.2-1.9,2.8-3.8,5.3-3.1s2.7,2.8,2.4,5.2c2.3-0.6,2.9-2.7,4.4-3.5
		c1.5-0.9,3.4-2.2,5.5-0.9s0.8,3.6,0.7,5.4c0,1.8-1.9,2.3-1.8,4.1c2,0.4,2.8-1.1,3.6-2.4c2.8-4.1,5.3-8.7,11.4-8.3
		c1,0,1.1-1.2,1.5-1.9c1.1-2.4,2.1-4.7,3.2-7.1c0.4-0.9,0.9-2,2.1-1.4c1.2,0.6,0.7,1.7,0.3,2.5c-1.5,3.2-3.1,6.5-4.6,9.7
		c-1.4,2.6-2.1,5.5-2,8.4c2.3,0,2.8-1.1,3.3-2.6c0.7-2.3,2-4.3,3.9-5.7c2.3-1.9,4.6-3.7,6.9,0.2c0.6,1,2.6,0.5,2.8,2.3
		c5.8-4.4,6.9-4.4,7.8-0.3c5.9-2.3,6.5-1.7,5.2,6.1c4.7-0.8,2.8-7.4,7.5-8.7c0.4,2.9-2.4,4.6-1.6,7.3c4.4,0,4.6-4.4,6.5-7.1
		c3.7,2.3-0.9,4.8,0.7,6.9c2,0,1.9-2.8,3.9-3.1c0.9,1.3,0.6,3.1-0.7,4.1c-0.2,0.1-0.3,0.2-0.5,0.3c-4.4,2.9-6.7,8.2-10.9,11.3
		L405.3,398.4z M344.2,379.8c-2.9,1.2-4.7,3.9-4.7,7c0.2,1.2,0.8,2.1,2.3,1.9c3.5-0.6,4.8-3.1,5.8-6.1c-1.5-0.8-2.2,1.6-3.5,0.4
		s1-1.7,0.3-3.2H344.2z M348.3,388.6c3.2-0.6,5.9-2.7,7.2-5.7c0.5-0.8,1-1.4,0.3-2.2c-0.7-0.8-1.7-0.4-2.3,0
		c-2.7,1.7-4.6,4.6-5.1,7.8L348.3,388.6z M363.1,388.3c3.4-2,6-5.1,7.3-8.7c-4.1,0-7.3,3.4-7.3,7.5c0,0.4,0,0.8,0.1,1.2L363.1,388.3
		z M333,372.5c-2.4,1.4-4.2,3.7-5,6.4C333.8,379.6,331.6,374.8,333,372.5z M376.9,386.2c0.8,2.4,2.8,2,4.4,1.5c2.1-0.7,4-2,3.1-5.1
		C382.3,384.5,379.7,385.7,376.9,386.2L376.9,386.2z"/>
	<path class="st3" d="M273,113.6c1.8,1,2.3,3.3,1.3,5c-0.2,0.3-0.4,0.6-0.7,0.8c-3.8,0.4-4.8-1.7-4.4-5.1c0.2-0.1,0.4-0.1,0.6,0
		c0.6,0.2,1.3-0.1,1.7-0.7L273,113.6z"/>
	<path class="st1" d="M271.5,113.6c-0.3,0.6-1,0.9-1.7,0.7c0-0.2,0-0.4,0-0.7H271.5z"/>
	<path class="st4" d="M66.2,335.3c0,17.5-14.3,31.7-31.8,31.7c0,0-0.1,0-0.1,0c-17.2,0-31.1-14-31.1-31.2c0-0.3,0-0.6,0-0.8
		c-0.3-16.9,13.2-30.8,30.1-31c0.7,0,1.3,0,2,0C52.4,304.2,66.3,318.2,66.2,335.3z"/>
	<path class="st5" d="M267.9,304.8c-14.7-1.2-28.7-7.1-39.7-16.9c-10.7-9.3-18.1-21.8-20.8-35.7c-0.7-3-1.1-6.1-1.2-9.1
		c0-13.5,0-27,0-40.5c0-2.5,0.6-3.7,3.3-3.4c2.9-0.2,5.9,0,8.7,0.7c1.8,0.7,3-0.9,4.4-1.3l-0.7,3.5c-0.5,0.2-1.2,0.4-1.1,1.1
		c0.1,0.7,0.8,0.2,1.2,0.3c0.6,1,0.6,2.2,0,3.1c-2.8,1-5.9,0.3-7.9-1.9c-2-1.8-4-1.3-6.5-0.7c0,10.7,0,21.2,0,31.7
		c0,2.8,0.7,3.7,3.5,3.6c2.8,0,3.3-1.1,3.2-3.5c0-9.2,0-18.3,0-27.6c1.2-0.5,1.4,1,2.3,1.3c0,10.2,0,20.3,0,30.6
		c-0.2,6.7,1,13.5,3.4,19.7c5.1,12.7,14.9,23.1,27.3,28.9c13.3,6.8,28.8,8,43.1,3.5c19.8-6.2,33.4-18.9,38.5-39.3
		c3.4-13.9,1.1-28.3,1.4-42.5c0,0-0.3-0.4-0.5-0.6l-5-0.9c-0.3-3.3-0.3-6.5,0-9.8c4.4,0,8.7,0,13.1,0c2.3,0,3.3,0.5,3.3,3.1
		c0,13.5,0.3,27,0,40.5c-0.5,15.3-6.8,29.8-17.5,40.7c-10.6,11.4-24.9,18.6-40.3,20.4c-1.6,0-3.1,0.6-4.4,1.6
		C275.3,303.9,271.5,305.3,267.9,304.8z M208.1,201.5v0.3h11v-0.3H208.1z"/>
	<path class="st6" d="M269.3,114.5c-0.4,3.3,0.6,5.4,4.4,5.1c-0.7,2.8-2.1,5.7,0.7,8.3v1.5c-1.8,0.3-1.7,1.5-1.2,2.7
		c0.6,1.3,0.5,2.8-0.3,4.1c-2.4,0-3.8,1-3.7,3.5c0.1,2.4,2.6,2.3,4.4,2.4c0,1.2-0.2,2.4-0.5,3.6c-0.3,1.2-0.8,2.8,1.3,3.1v3
		c-2.3,2.1-1.2,4.9-1.5,7.4c-1.7,0-3.6,0-3.7,2.4c-0.1,2.4,1.7,2.8,3.7,2.9c0.3,2.5-0.8,5.2,1.5,7.3v2.2c-3.1,2-0.7,5-1.5,7.4
		c-2.1-0.2-3.6,0.6-3.7,2.9s2,2.3,3.6,2.5c0.2,3.9,0.2,7.8,0,11.7H267c0.2-0.3,0.5-0.5,0.7-0.7c2-1.1,1.5-2.5,0.6-4
		c-0.6-1.1-2-1.6-3.1-1c-0.1,0.1-0.3,0.1-0.4,0.2c-1.4,0.6-2,2.2-1.3,3.6c0.1,0.2,0.2,0.3,0.3,0.5c0.3,0.5,0.7,1,1,1.5h-9
		c0.9-1.1,2.5-1.9,1.8-3.7c-0.3-1-0.9-2.1-2.2-2.2c-1.4-0.1-2.4-0.2-2.9,1c-0.9,1.7-0.5,3.8,1.1,4.9h-8.7v-0.7
		c2.5-1.2,1.7-3.1,0.6-4.4c-0.9-1-2.5-1.1-3.6-0.2c-0.1,0.1-0.2,0.3-0.4,0.4c-1.4,1.7-1.6,3.4,1,4.4c0,0.2,0,0.5,0,0.7h-8.7
		c1-1.5,2.4-3,0.7-4.9c-0.9-1.2-2.5-1.5-3.7-0.6c-0.1,0.1-0.1,0.1-0.2,0.2c-0.5,0.3-1,0.6-1.6,0.9c-0.4-6.7-0.4-13.5,0-20.3
		c0.8,0.6,1.6,1.1,2.5,1.4c1.1,0.3,2.6,0.6,3-1.1c0.3-1.7,0.4-2.6-1.2-3.5c-1.6-0.9-2.8,0.9-4.4,1.2c-0.6-6.5-0.4-13.1,0.6-19.5
		c0.8,0.4,1.6,0.6,2.4,0.8c1.5,0.3,2.9-0.7,3.2-2.1c0-0.2,0.1-0.4,0.1-0.5c0-1.9-1-2.5-2.8-2.5h-2.2c1.4-7.1,4.9-13.7,10.2-18.7
		c1.6,1.5,3.3,2.4,5.2,0.5c1.8-1.9,0.4-3.4-0.7-4.9c3.4-3.6,7.7-6.2,12.5-7.6c1.1,1.6,2.6,2.8,4.4,2.1c1.7-0.7,1.7-2.4,1.5-4.1
		C265.2,114.5,267.2,114.2,269.3,114.5z M269.3,127.6c-0.3-1.7-1.2-2.8-2.9-2.8c-1.7,0-3,1.3-3,3.3c0,2,1.1,2.6,2.9,2.4
		C267.9,130.6,269.2,129.3,269.3,127.6L269.3,127.6z M249.1,141.8c2.2,0,3.1-0.9,3.1-2.7c0.1-1.6-1.1-3-2.7-3.1c-0.1,0-0.2,0-0.3,0
		c-1.9,0-2.6,1.4-2.8,2.9C246.4,140.3,247.6,141.7,249.1,141.8L249.1,141.8z M237.9,181.1c-1.7,0.4-2.9,1.4-2.7,3.3
		c0.3,1.6,1.7,2.6,3.3,2.4c1.5-0.2,2.5-1.6,2.4-3c-0.3-1.5-1.6-2.5-3.1-2.4L237.9,181.1z M241,138.9c0-1.9-1-3.1-2.9-3.1
		c-1.6-0.1-3,1.1-3.1,2.7c-0.1,1.6,1.1,3,2.7,3.1c1.8,0.5,2.8-0.7,3.2-2.4L241,138.9z M258,172.3c-0.3-1.6-1.8-2.7-3.4-2.4
		c-1.9,0-2.4,1.3-2.4,3c0,1.7,0.9,2.8,2.7,2.6c1.6,0,3-1.2,3.1-2.9L258,172.3z M252.2,184.2c0.1-1.6-1.1-2.9-2.7-3
		c-1.5-0.2-2.9,0.8-3.1,2.2c0,0.2,0,0.3,0,0.5c-0.2,1.5,0.9,2.8,2.3,3c0.1,0,0.2,0,0.2,0c1.8,0.4,2.8-0.7,3.2-2.4L252.2,184.2z
		 M269.3,172.8c-0.2-1.7-1.7-2.8-3.4-2.6c-1.7,0-2.4,1-2.4,2.6c-0.2,1.5,0.9,2.9,2.5,3c0.2,0,0.4,0,0.6,0
		C268,175.8,268.9,174.5,269.3,172.8z M260.9,136c-1.7,0-3.1,1.4-3.1,3.2c0,0,0,0.1,0,0.1c0,1.8,1.4,2.4,3.1,2.5
		c1.7,0,2.7-1,2.6-2.8C263.4,137.5,262.3,136.2,260.9,136L260.9,136z M243.6,176c1.4-0.2,2.5-1.4,2.6-2.9c0-1.9-1-2.7-2.6-2.9
		c-1.4-0.3-2.8,0.6-3.1,1.9c0,0.2-0.1,0.3-0.1,0.5C240.3,174.5,241.6,175.5,243.6,176z M241,161.7c-0.3-1.1-0.6-2.7-2.6-2.6
		c-2,0-3,0.8-3.1,2.4c-0.2,1.5,0.8,2.9,2.3,3.2c0.2,0,0.3,0,0.5,0c1.5,0.1,2.9-1.1,3-2.6C241,161.9,241,161.8,241,161.7L241,161.7z
		 M243.1,147.8c-1.4-0.1-2.6,1-2.7,2.4c0,1.9,1.3,2.8,3.1,2.8c1.2,0.2,2.4-0.6,2.6-1.8c0-0.2,0-0.4,0-0.6
		C246.2,148.8,245.5,147.8,243.1,147.8z M266.3,153c1.4,0,2.6-1.2,2.6-2.6c0-1.9-1.5-2.7-3.4-2.6c-1.3-0.1-2.3,0.9-2.4,2.1
		c0,0.2,0,0.3,0,0.5c0.2,1.9,1.1,2.7,3.3,2.6H266.3z M252,161.5c0-1.9-1.1-2.6-2.9-2.5c-1.7,0.1-2.9,1-2.8,2.7
		c0.1,1.5,1.4,2.6,2.9,2.5c0.1,0,0.1,0,0.2,0c1.2,0.3,2.5-0.5,2.8-1.7c0.1-0.3,0.1-0.7,0-1H252z M263.2,162.5c0-2.8-1-3.6-2.8-3.5
		c-1.2-0.2-2.3,0.7-2.5,1.9c0,0.2,0,0.4,0,0.6c0,1.8,0.8,3.3,2.8,3.2c1.3,0.1,2.4-0.9,2.6-2.1L263.2,162.5z M260.5,181.3
		c-1.9,0-2.6,1.2-2.4,2.9c0.1,1.7,1,2.9,2.8,2.8c1.7-0.1,2.4-1.4,2.4-3.1S262.3,181.3,260.5,181.3z M254.7,124.8
		c-1.4,0.3-2.5,1.5-2.5,3c0,1.9,1.1,2.6,2.7,2.8c1.5,0.2,2.5-0.7,2.6-2.3C257.6,126.6,256.4,125.1,254.7,124.8z M254.7,153.1
		c1.5,0.1,2.9-1,3-2.5c0-0.2,0-0.3,0-0.5c0-1.5-1.3-2.2-2.8-2.3c-1.5-0.1-2.8,0.6-2.8,2.5C252.1,152.2,252.9,153,254.7,153.1
		L254.7,153.1z"/>
	<path class="st7" d="M267.9,304.8c3.6,0.5,7.4-0.9,11,0.8c0,21.2,0,42.4,0,63.5c0,3.8,1.1,5,4.8,4.7c6.8-0.5,13.6,0,20.4-0.3
		c2.1-0.4,4.2,0.9,4.8,3.1c0.7,2.4,2.3,4.4,2.9,7.4h-77c1.2-3.1,2.7-6.1,4.4-9c0.8-1.7,2.5-1.3,4-1.3h20.4c4.7,0,4.4,0,4.4-4.7
		c0-14.8,0-29.7,0-44.6C267.8,317.9,267.8,311.4,267.9,304.8z"/>
	<path class="st8" d="M361,327.7v29.1c2.2,1.1,4.1,0.4,6,0.7c0.4,1.6,0.6,3.3,0.3,4.9h-18.4c-0.4-1.6-0.4-3.2,0-4.8l5.3-0.2v-37.3
		H349c-0.6-1.7-0.6-3.5,0-5.2c3.5,0,7.1,0,10.6,0c1.9,0,2.4,1.4,3.2,2.6l21.8,32.1c0.3,0.4,0.7,0.7,1.1,1v-30.5h-5.4
		c-0.6-1.6-0.6-3.4,0-5h18.2v5h-5.8v42c-3.6,1.5-7.7-0.1-9.4-3.6c-6.8-10.5-14-20.7-21-31c0.1-0.9-0.5-1.8-1.4-2.1
		C361,326.5,360.4,327.1,361,327.7z"/>
	<path class="st9" d="M244.7,198.4h8.7c0.7,0.9,1.5,0.9,2.2,0h9.3c0.7,0.9,1.5,0.9,2.2,0h9.6c0.4,0.6,1.1,0.8,1.7,0.4
		c0.2-0.1,0.3-0.3,0.4-0.4H299c0.5,0.7,1,0.7,1.5,0h9.7c0.3,0.6,1.1,0.8,1.7,0.5c0.2-0.1,0.4-0.3,0.5-0.5h6c2,0.5,4.1-0.5,6,0.7
		c-0.3,3.3-0.3,6.5,0,9.8c-2,1.3-4.1,0.3-6.2,0.7h-90c-2.1-0.5-4.4,0.7-6.3-0.9c0.1-0.2,0.1-0.4,0-0.6v-1.5c0.6-1,0.6-2.2,0-3.1
		v-1.2l0.7-3.5h5.8h3c0.7,0.9,1.4,1,2.2,0h8.7C243.1,199.4,244,199.4,244.7,198.4z"/>
	<path class="st10" d="M88.9,315.1c0.5,1.6,0.5,3.3,0,4.9l-5.4,0.1v15.7H100c7.9,0,7.9,0,7.9-7.9v-7.1c-2-1.1-4,0-5.7-0.9
		c-0.5-1.6-0.5-3.3,0-4.9h17.8c0.5,1.5,0.5,3.2,0.3,4.8c-1.7,1-3.7,0-5.6,0.9v36.5c1.8,0.4,3.6,0.6,5.4,0.5c0.4,1.6,0.5,3.3,0.3,4.9
		h-18.1c-0.3-1.6-0.3-3.2,0-4.8l5.5-0.3V342H83.4v15c1.8,1.2,3.8,0,5.7,0.9v4.4H71c-0.4-1.6-0.4-3.2,0-4.7l5.3-0.3v-36.6
		c-1.5-1-3.4,0-5.2-0.7c-0.3-1.6-0.3-3.2,0-4.8H88.9z"/>
	<path class="st8" d="M219.6,362.7v-4.9c1.6-0.9,3.5,0,5.5-0.7v-36.5c-1.6-1-3.4,0-5.3-0.7v-5.1c10,0.4,20.1-1.2,30,1.4
		c6.7,1.8,12,7.1,13.8,13.8c4.4,14.2-1.8,27.8-14.6,31.6c-4.7,1-9.6,1.4-14.4,1H219.6z M232,320.5v36.3c8.5,0,17.1,1.7,22.5-6.5
		c4.6-6.6,4.8-15.4,0.6-22.2C250,319.1,241.1,320.4,232,320.5z"/>
	<path class="st11" d="M418.1,335.8h16.2c0.6,1.8,0.6,3.7,0,5.5H418v15.3h16.5c1.1-1.5,0-3.3,0.7-5c1.7-0.4,3.5-0.4,5.2,0
		c0.4,3.6,0.4,7.2,0,10.8h-34.9c-0.4-1.6-0.6-3.2-0.4-4.8l5.5-0.3v-37l-5.1-0.2c-0.4-1.6-0.4-3.4,0-5h34c0.3,3.5,0.3,7.1,0,10.7
		c-1.9,0.5-3.8,0.5-5.7,0l-0.3-5.1h-15.4V335.8z"/>
	<path class="st12" d="M179.3,357.3l4.7,0.3c0.4,1.6,0.5,3.3,0.3,4.9h-16.2c-0.5-1.6-0.5-3.4,0-5c4,1.1,4.9-1.6,6-4.6
		c4-11.5,8.3-22.9,12.2-34.5c1-3.1,2.7-3.5,5.6-3.7s3.9,1.6,4.7,3.9c4.1,11.5,8.3,23.1,12.3,34.6c1,3,2.2,5.2,5.9,4.4
		c0.4,1.7,0.4,3.4,0,5.1h-16c-0.5-1.6-0.6-3.2-0.2-4.8l4.8-0.4c-1-3.1-2.1-5.9-3-8.7c-0.4-1.4-1.4-1.6-2.5-1.6h-13.1
		c-1,0-2.1,0-2.4,1.2C181.4,351,180.4,354,179.3,357.3z M198,341.2l-6.5-19.2l-6.7,19.2H198z"/>
	<path class="st13" d="M133.5,320.1h-5.2c-0.4-1.7-0.5-3.4-0.2-5.1h34v10.6c-1.7,0.4-3.5,0.5-5.2,0.3c-1-1.7,0-3.4-0.8-5.3h-15.2
		v15.1h16.5v5.6h-16.7v15.3h16.9l0.3-5.1c1.8-0.4,3.7-0.4,5.5,0v10.8h-34.9c-0.4-1.6-0.4-3.3,0-5h5.4L133.5,320.1z"/>
	<path class="st14" d="M448.3,348.4c1.8-0.5,3.8-0.5,5.6,0c0.3,5.5,5,9.6,10.5,9.3c1.5-0.1,3-0.5,4.3-1.3c2.4-0.8,4.1-2.9,4.4-5.5
		c0.4-2.6-0.8-5.3-3.1-6.7c-3.9-2.2-7.9-4-12.1-5.5c-4.1-1.4-7.2-4.6-8.4-8.7c-1.9-6.5,1.9-13.4,8.5-15.2c0.6-0.2,1.2-0.3,1.8-0.4
		c3.4-0.7,6.9-0.7,10.3,0c7.3,1.5,9.3,4.4,8.4,12.8c-1.9,0.3-3.8,0.3-5.6,0c-0.5-4.8-4.8-8.3-9.6-7.8c-1.8,0.2-3.5,0.9-4.9,2.1
		c-2.7,2.1-3.1,5.9-1.1,8.6c0.3,0.4,0.7,0.8,1.1,1.1c1.6,1.3,3.5,2.4,5.5,3.1c2.3,0.9,4.6,1.7,6.9,2.7c7.6,3.4,10.4,8.1,9.2,15
		c-1.5,6.7-7.5,11.3-14.3,11.2c-2.5,0.2-4.9,0-7.3-0.6C449.8,360.8,447.3,357.3,448.3,348.4z"/>
	<path class="st10" d="M282.1,362.4c-0.4-1.6-0.4-3.3,0-4.9h5.4v-36.7c-1.7-0.8-3.5,0-5.4-0.5v-5.2h18.2v5.1c-1.6,1.1-3.6,0-5.5,0.9
		v35.8h16.4v-7c1.8-0.5,3.8-0.5,5.6,0v12.8L282.1,362.4z"/>
	<path class="st15" d="M326.5,319.8c-0.9-0.9-2.3-1.2-3.5-0.6c-0.5-5.4,0-5.8,5.5-5.7c3.7,0,7.4,0,11.1,0c2.4,0,3.4,0.7,3.1,3.2
		s-1.3,3.3-3.7,2.4c-0.7-0.1-1.4-0.1-2.1,0v36.5c1.8,0.7,3.7,0,5.5,0.8c0,1.6,1.5,3.6-1.1,4.8c-3.7,0-7.3-0.3-11,0
		c-3.6,0.3-6.1,0-7.1-3.8c0.9-2.4,3.4-0.9,4.9-2.1c1.3,0.6,1.4-0.2,1.4-1.2c0-11,0-21.8,0-32.9C329.5,319.1,328.5,318.4,326.5,319.8
		z"/>
	<path class="st16" d="M481.3,383.9c3.1,0,3.6,2,3.7,4.4c1.6,0,1.8-1.6,2.7-2.4c1.1-1.2,2.3-2.2,3.5-3.2c1.7-1.1,3.7-2,5.5-0.4
		c1.8,1.6,0.5,3.9,0,5.8c0,1.2-1.9,1.9-1.5,3.7c3-0.4,3.6-3.1,5-4.9c1.4-1.8,1.7-4.7,5-5.5c0,3.7-3.8,5.8-3.2,9.4
		c4.4,2,3.9-3.8,6.8-4.4c0,5.2-3.7,8.3-8,6.5c-1-0.4-1.7-0.7-2.6,0c-1.3,1.3-3.3,1.5-4.8,0.5c-0.7-0.5-1.6-0.5-2.3,0
		c-2.8,1.5-5,1.1-6.2-2.4c-4.1,1-8.1,8-12.3,0.4c-2.4,1.3-4.4,3.6-6.5,0c-1.1,0.7-2.2,1.4-3.4,2c-1.1,0.6-2.5,0.1-3.1-1
		c-0.1-0.1-0.1-0.3-0.2-0.4c-0.8-3.6,0.5-7.3,3.3-9.6c1.4,3.1-2.4,5.5-0.9,8.7c3.9-0.9,4.4-5.5,7.2-7.8c1.6,2.7-1.3,4.9,0,7.5
		c2.6-1.2,4.6-3.5,5.4-6.3c1.5-4,3.4-7.9,5.7-11.6c0.9-1.4,2.1-3.3,4.1-2.4c2.1,0.9,1.5,2.9,1.1,4.6c-0.7,3.1-2.3,6-4.6,8.3
		c-0.6,0-1.1,0.3-1.2,0.9c-0.8,0.2-1.6,0.5-2.4,0.9c-1.5,1.1-2.4,5.6-1.2,6.7s2.8,0.5,4.4-0.9c-1.7-1.7-1.8-4.4-0.3-6.3L481.3,383.9
		z M487.6,392c5.3-1.2,8.4-5.3,6.9-8.7C490.9,384.8,488.3,388.1,487.6,392z M483.2,373.2c-2.3,2.4-3.9,5.5-4.6,8.7
		C481.5,379.9,483.1,376.7,483.2,373.2L483.2,373.2z"/>
	<path class="st17" d="M445.1,373.8c-2.4,0.8-1.6,3-2.2,5.2c-2.6-1.2-2.4-2.9-1.5-4.8c2.5-3.7,7-5.5,11.3-4.6
		c3.7,0.4,6.6,3.5,6.7,7.3c0.5,7.9-5.7,17.5-14,18.8c-4.4,0.6-5.5-0.5-4.4-4.7c1.6-5.3,3.2-10.7,4.8-15.9c0.3-0.6,0.8-1.3,0-1.8
		C445,372.8,445.3,373.4,445.1,373.8z M443,393.2c7.4-0.3,13.4-6.1,13.8-13.5c0.5-6-1.7-8.1-7.5-7.6L443,393.2z"/>
	<path class="st16" d="M326.5,319.8c2-1.4,3.1-0.7,3.1,1.5c0,11,0,21.8,0,32.9c0,1,0,1.8-1.4,1.2c0-10.7,0-21.4,0-32.1
		C328.1,321.8,328.3,320.4,326.5,319.8z"/>
	<path class="st18" d="M323.2,357.4c1,3.8,3.7,4.1,7.1,3.8c3.4-0.3,7.3,0,11,0c0,1.4-0.9,1.5-1.9,1.5h-16.6
		C322.4,360.8,321.4,359,323.2,357.4z"/>
	<path class="st19" d="M233.5,198.4c-0.7,0.9-1.5,0.9-2.2,0c-0.7-0.8-1.6-1.4-2.6-1.6c0-0.9,0-1.8,0-2.8c0.5-0.3,1.1-0.6,1.6-0.9
		c1.1-1,2.8-0.9,3.8,0.2c0.1,0.1,0.1,0.1,0.2,0.2C236,195.5,234.3,196.9,233.5,198.4z"/>
	<path class="st14" d="M435.6,386.3c-1.2,2-5.1,2.5-11.9,1.5C424.7,385.6,429.8,385,435.6,386.3z"/>
	<path class="st3" d="M230,147.9h2.2c1.7,0,2.9,0.6,2.8,2.5c0,1.5-1.2,2.7-2.7,2.7c-0.2,0-0.4,0-0.5-0.1c-0.8-0.2-1.6-0.4-2.4-0.8
		C228.9,150.8,229.1,149.2,230,147.9z"/>
	<path class="st20" d="M244.7,124.8c1,1.5,2.4,3.1,0.7,4.9c-1.8,1.8-3.6,1-5.2-0.5C241,127.1,242.6,125.5,244.7,124.8z"/>
	<path class="st20" d="M286.3,116c0,2.4-1.2,3.8-3.5,3.4s-2.3-2.9-2.3-4.9C282.7,114,284.4,115.5,286.3,116z"/>
	<path class="st3" d="M228.7,171.7c1.4-0.2,2.3-2.3,4.4-1.2c2.1,1.1,1.4,2.2,1.2,3.5c-0.2,1.3-1.8,1.4-3,1.1
		c-0.9-0.4-1.8-0.9-2.5-1.4L228.7,171.7z"/>
	<path class="st3" d="M318,164.9c-2.7,0-3.7-1.3-3.4-3.9c0.2-2.6,2.1-1.8,3.5-1.9L318,164.9z"/>
	<path class="st3" d="M318,187.2c-2.1,0-3.6-0.7-3.5-3.2c0.1-2.5,1.5-2.8,3.5-2.6C318.3,183.3,318.3,185.3,318,187.2z"/>
	<path class="st19" d="M263.3,115.2c0,1.6,0,3.4-1.5,4.1s-3.4-0.5-4.4-2.1C259.1,115.9,261.1,115.2,263.3,115.2z"/>
	<path class="st6" d="M228.7,196.8c1,0.3,1.9,0.8,2.6,1.6h-3L228.7,196.8z"/>
	<path class="st3" d="M361,327.7c-0.7-0.7-0.3-1.3,0-2.1c0.9,0.3,1.5,1.1,1.4,2.1H361z"/>
	<path class="st20" d="M283.3,136c1.6,0,2.9,1.2,2.9,2.8c0,2.1-1.2,3.1-3.2,3.1c-2.1,0-2.7-0.9-2.6-2.8
		C280.4,137.4,281.7,136.1,283.3,136z"/>
	<path class="st20" d="M297.5,184.5c-0.3,1.6-0.9,2.9-2.9,2.8c-2-0.2-3.1-1.2-3-3.1c-0.1-1.5,1.1-2.7,2.6-2.8c0.1,0,0.2,0,0.3,0
		c1.6-0.1,2.9,1.2,3,2.8C297.5,184.3,297.5,184.4,297.5,184.5z"/>
	<path class="st20" d="M274.5,129.2v-1.5c0.4-1.9,1.4-3.2,3.5-2.8c1.4,0.2,2.5,1.4,2.4,2.8c0.1,1.4-0.9,2.6-2.3,2.9
		C276.5,131.1,275.6,129.8,274.5,129.2z"/>
	<path class="st20" d="M273.6,141.9c-1.8,0-4.4,0.7-4.4-2.4s1.3-3.5,3.7-3.5C275.2,137.7,275.8,139.6,273.6,141.9z"/>
	<path class="st3" d="M305.8,164.2c-1.9,0-3.1-0.6-3-2.8c0-2.1,1.2-2.5,2.9-2.5c1.7,0,3.1,0.7,3,2.8
		C308.6,163.8,307.5,164.3,305.8,164.2z"/>
	<path class="st20" d="M305.8,181.3c1.8,0.4,3,1.4,2.8,3.3c-0.1,1.6-1.4,2.8-3,2.8c-1.6-0.1-2.8-1.4-2.8-3l0,0
		C302.8,182.5,304.2,181.5,305.8,181.3z"/>
	<path class="st20" d="M286.3,184.4c-0.3,1.6-1.2,2.8-2.9,2.7c-1.5,0.1-2.8-1-2.9-2.5c0-0.2,0-0.4,0-0.6c0-1.5,1.1-2.7,2.6-2.7
		c0.1,0,0.2,0,0.3,0C285.2,181.4,286.2,182.6,286.3,184.4z"/>
	<path class="st20" d="M308.6,138.7c-0.3,2-1.3,3.2-3.2,3.1c-1.5,0-2.7-1.1-2.7-2.6c0-0.1,0-0.2,0-0.3c-0.1-1.5,1-2.8,2.5-2.9
		c0.2,0,0.4,0,0.6,0C307.6,136.1,308.3,137.4,308.6,138.7z"/>
	<path class="st20" d="M302.8,125.5c0.1,0.8,0.1,1.7,0,2.5c-0.1,1.5-1.4,2.7-3,2.6c-0.1,0-0.2,0-0.4,0c-1.4-0.1-2.6-1.3-2.5-2.8
		c0-0.1,0-0.2,0-0.3c0.3-2,1.7-2.8,3.8-2.3c0.7,0,1.4,0,2.1,0.3L302.8,125.5z"/>
	<path class="st20" d="M289.1,130.7c-1.7,0.1-3.1-1.1-3.3-2.8c0-0.1,0-0.2,0-0.4c-0.1-1.3,0.9-2.5,2.3-2.6c0.1,0,0.2,0,0.3,0
		c1.5-0.2,2.9,0.8,3.1,2.3c0,0.2,0,0.4,0,0.6C291.5,129.2,290.5,130.4,289.1,130.7z"/>
	<path class="st3" d="M295,141.9c-2,0-3.2-1-3.2-2.8c0-1.6,1.2-2.9,2.8-3c2-0.3,2.6,1.4,2.8,2.8C297.6,140.3,296.2,141.4,295,141.9z
		"/>
	<path class="st20" d="M294.6,159c2.1,0,2.8,1.3,2.8,3.1s-1.4,2.2-2.8,2.1c-1.6,0-2.9-1.2-2.9-2.8c0-0.1,0-0.2,0-0.4
		C291.7,159.2,293.1,159,294.6,159z"/>
	<path class="st20" d="M299,197.9c-1.2,0-2.2-0.9-2.2-2.1c0-0.4,0.1-0.7,0.2-1.1c0.3-1.2,1.5-2.1,2.8-2c1.4,0,2.6,1,2.8,2.4
		c0.4,1.1-0.2,2.3-1.3,2.7c-0.2,0.1-0.5,0.1-0.8,0.1L299,197.9z"/>
	<path class="st20" d="M276.6,197.9c-1.8,0-2.3-1.2-2.1-2.8s1.5-1.9,2.7-2.2c1.3-0.3,2.5,0.5,2.8,1.8c0,0,0,0,0,0.1
		c0.4,1.2,0.8,2.8-1.2,3.2H276.6z"/>
	<path class="st3" d="M299.8,147.8c1.7,0,3,0.6,2.8,2.5c0,1.6-1.3,2.9-2.9,2.9c-1.6,0-2.9-1.3-2.9-2.9
		C296.8,148.2,298.2,147.8,299.8,147.8z"/>
	<path class="st3" d="M299.8,175.4c-1.6,0-3.1-0.3-3.1-2.3c0-1.6,1.3-2.9,2.9-2.9s2.9,1.3,2.9,2.9c0,0,0,0,0,0
		C302.7,174.9,301.4,175.4,299.8,175.4z"/>
	<path class="st3" d="M272.9,186.7c-1.7,0-3.7,0-3.6-2.5c0-2.5,1.5-3.1,3.7-2.9C275.2,183.1,276.3,184.8,272.9,186.7z"/>
	<path class="st3" d="M291.5,150.4c0,1.9-0.9,2.7-2.8,2.7c-1.5,0.1-2.8-1-2.9-2.5c0-0.1,0-0.2,0-0.3c0-1.6,1.2-2.3,2.8-2.4
		S291.5,148.4,291.5,150.4z"/>
	<path class="st3" d="M274.5,173.9v-2.2l1.2-0.8c1.1-1,2.8-0.9,3.8,0.2c0.1,0.1,0.1,0.1,0.2,0.2c1,0.8,1.1,2.3,0.3,3.3
		c-1.1,1.1-2.7,1.3-4.1,0.6C275.3,174.9,274.9,174.3,274.5,173.9z"/>
	<path class="st20" d="M272.9,164.3c-2,0-3.8,0-3.7-2.9c0.1-2.9,1.9-2.4,3.7-2.4C276,160.7,275.2,162.5,272.9,164.3z"/>
	<path class="st3" d="M291.5,172.8c-0.3,1.6-1.1,3.1-2.8,3c-1.7,0-3-1.4-2.9-3.1c0,0,0,0,0,0c0.1-1.4,1.3-2.5,2.7-2.4
		c0,0,0.1,0,0.1,0C290,170.2,291.3,171.3,291.5,172.8z"/>
	<path class="st3" d="M283.6,159c1.4,0,2.6,1.1,2.6,2.5c0,0,0,0,0,0c0,1.4-1.1,2.6-2.5,2.6c-0.2,0-0.3,0-0.5,0
		c-1.4,0-2.8-0.5-2.8-2.3c-0.1-1.4,1-2.7,2.4-2.8C283.1,159,283.4,159,283.6,159z"/>
	<path class="st3" d="M308.6,173.1c0-2.1,0.9-3.1,2.5-2.9c1.5,0,2.7,1.3,2.7,2.8c0,0,0,0.1,0,0.1c0,1.4-1.2,2.6-2.6,2.6
		c-0.1,0-0.2,0-0.3,0c-1.2,0.1-2.2-0.8-2.3-2C308.5,173.5,308.5,173.3,308.6,173.1z"/>
	<path class="st3" d="M274.4,151.6v-3h0.3c1.6-1.2,3.8-0.8,5,0.7c0.1,0.1,0.1,0.1,0.1,0.2c0.8,1.1,0,2.1-0.7,2.9
		C277.4,154.2,275.9,152.5,274.4,151.6z"/>
	<path class="st3" d="M311.1,147.8c1.8,0,2.8,0.7,2.8,2.6c0.2,1.2-0.7,2.4-1.9,2.6c-0.2,0-0.3,0-0.5,0c-1.8,0-2.8-0.7-2.8-2.6
		C308.7,148.5,309.4,147.9,311.1,147.8z"/>
	<path class="st3" d="M289.2,197.9c-2.1,0-3.6-0.3-3.4-2.1c0.2-1.7,1.6-2.9,3.2-3c1.4,0,2.5,1.2,2.5,2.6c0,0,0,0.1,0,0.1
		c0.2,1.1-0.6,2.2-1.7,2.4C289.6,197.9,289.4,197.9,289.2,197.9z"/>
	<path class="st3" d="M310.1,197.9c-2.4-1-1.8-2.8-0.9-4.4c0.9-1.6,2.4-1,3.6,0c1.1,1,1.5,3-0.4,4.4H310.1z"/>
	<path class="st19" d="M310.1,197.9h2.3v0.8c-0.3,0.6-1.1,0.8-1.7,0.5c-0.2-0.1-0.4-0.3-0.5-0.5L310.1,197.9z"/>
	<path class="st19" d="M276.6,197.9h2.3v0.8c-0.4,0.6-1.1,0.8-1.7,0.4c-0.2-0.1-0.3-0.3-0.4-0.4L276.6,197.9z"/>
	<path class="st19" d="M299,197.9h1.6v0.7c-0.5,0.7-1,0.7-1.5,0L299,197.9z"/>
	<path class="st21" d="M348.4,388.4c0.5-3.3,2.4-6.1,5.2-7.9c0.7-0.4,1.6-0.9,2.3,0c0.7,0.9,0,1.4-0.3,2.2
		C354.3,385.8,351.6,387.9,348.4,388.4z"/>
	<path class="st21" d="M363.2,388.2c-0.7-4,1.9-7.9,5.9-8.6c0.5-0.1,1-0.1,1.4-0.1C369.2,383.1,366.6,386.2,363.2,388.2z"/>
	<path class="st21" d="M333,372.5c-1.4,2.1,0.8,6.9-5,6.4C328.8,376.3,330.6,374,333,372.5z"/>
	<path class="st21" d="M219.4,208.9c-0.8,1-1.9,0.6-2.9,0.7c-1,0.1-1.1-1.8-2.3-1.3c0,9.2,0,18.4,0,27.6c0,2.4-0.5,3.5-3.2,3.5
		s-3.6-0.9-3.5-3.6c0-10.5,0-21,0-31.7c2.5-0.5,4.4-1,6.5,0.7c2,2.1,5.2,2.9,7.9,1.9v1.4C221,208.1,220,207.9,219.4,208.9z"/>
	<path class="st21" d="M208.1,201.5h11v0.3h-11V201.5z"/>
	<path class="st21" d="M221.9,202.2v1.5c-0.4,0-1.2,0-1.2-0.3S221.2,202.2,221.9,202.2z"/>
	<path class="st20" d="M255.9,198.4c-0.7,0.9-1.5,0.9-2.2,0c-1.6-1.1-2.1-3.2-1.1-4.9c0.6-1.2,1.8-1.1,2.9-1
		c1.1,0.1,1.8,1.1,2.2,2.2C258.3,196.6,256.7,197.4,255.9,198.4z"/>
	<path class="st19" d="M269.3,127.7c0,1.7-1.3,3-3,3c-1.7,0-2.8-0.6-2.9-2.4c0-1.9,1-3.3,3-3.3S268.9,126,269.3,127.7z"/>
	<path class="st19" d="M267,198.4c-0.7,0.9-1.4,0.9-2.2,0s-0.7-1-1-1.5c-0.9-1.2-0.6-2.9,0.6-3.8c0.1-0.1,0.3-0.2,0.5-0.3
		c1-0.8,2.5-0.6,3.3,0.4c0.1,0.1,0.2,0.2,0.2,0.4c1,1.4,1.4,2.9-0.6,4C267.5,197.9,267.3,198.1,267,198.4z"/>
	<path class="st20" d="M249.1,141.9c-1.4,0-2.9-0.9-2.7-2.9s0.9-3,2.8-2.9c1.6,0,2.9,1.2,2.9,2.8c0,0.1,0,0.2,0,0.3
		C252.2,141.1,251.3,141.9,249.1,141.9z"/>
	<path class="st19" d="M237.8,181.3c1.6-0.1,2.9,1.1,3.1,2.6c0.1,1.6-1.1,3-2.7,3.1c-1.5,0.1-2.8-0.9-3-2.4
		C234.9,182.7,236.1,181.7,237.8,181.3z"/>
	<path class="st20" d="M241,139.1c-0.4,1.7-1.4,2.9-3.3,2.7c-1.6-0.1-2.8-1.5-2.7-3.1s1.5-2.8,3.1-2.7
		C239.9,136.1,240.8,137.3,241,139.1z"/>
	<path class="st20" d="M257.9,172.6c0,1.7-1.4,3.1-3.1,3.1l0,0c-1.8,0-2.7-0.8-2.7-2.6s0.5-2.9,2.4-3
		C256.2,170,257.6,171,257.9,172.6z"/>
	<path class="st20" d="M252.1,184.4c-0.3,1.7-1.4,2.9-3.2,2.7c-1.5,0-2.6-1.3-2.6-2.7c0-0.1,0-0.2,0-0.2c0-1.5,1.1-2.7,2.6-2.8
		c0.2,0,0.3,0,0.5,0C251,181.5,252.2,182.9,252.1,184.4z"/>
	<path class="st20" d="M269.3,172.8c-0.3,1.7-1.2,3-2.8,3c-1.5,0.2-2.9-0.9-3-2.5c0-0.2,0-0.4,0-0.6c0-1.6,0.7-2.5,2.4-2.6
		C267.5,170,269,171.1,269.3,172.8z"/>
	<path class="st20" d="M260.8,136c1.5,0.2,2.6,1.5,2.5,3c0,1.8-0.7,2.9-2.6,2.8c-1.9,0-3.1-0.7-3.1-2.5c-0.1-1.7,1.2-3.2,3-3.3
		C260.7,136.1,260.7,136,260.8,136z"/>
	<path class="st3" d="M243.6,176c-2-0.5-3.3-1.5-3.1-3.4c0.1-1.4,1.3-2.5,2.7-2.5c0.2,0,0.3,0,0.5,0.1c1.6,0,2.8,1,2.6,2.9
		C246.1,174.6,245,175.8,243.6,176z"/>
	<path class="st20" d="M241,161.6c0.1,1.5-1.1,2.9-2.6,3c-0.1,0-0.2,0-0.3,0c-1.5,0-2.8-1.2-2.8-2.7c0-0.2,0-0.3,0-0.5
		c0-1.7,1.4-2.4,3.1-2.4C240.1,158.9,240.6,160.5,241,161.6z"/>
	<path class="st20" d="M242.4,197.9c-2.6-0.9-2.4-2.6-1-4.4c0.8-1.1,2.4-1.4,3.5-0.6c0.1,0.1,0.3,0.2,0.4,0.4
		c1.1,1.4,1.9,3.4-0.6,4.4L242.4,197.9z"/>
	<path class="st20" d="M243.1,147.8c2.3,0,3.1,1,3,2.8c0.1,1.2-0.8,2.3-2,2.4c-0.2,0-0.4,0-0.6,0c-1.8,0-3.2-0.9-3.1-2.8
		C240.5,148.8,241.7,147.8,243.1,147.8z"/>
	<path class="st20" d="M266.5,153c-2.2,0-3.1-0.8-3.1-2.6c-0.2-1.2,0.6-2.4,1.9-2.6c0.2,0,0.3,0,0.5,0c1.8,0,3.3,0.7,3.4,2.6
		C269.1,151.9,267.9,153,266.5,153z"/>
	<path class="st3" d="M252.1,161.5c0.3,1.3-0.5,2.5-1.8,2.7c-0.3,0.1-0.6,0.1-0.9,0c-1.5,0.2-2.8-0.8-3-2.3c0-0.1,0-0.1,0-0.2
		c0-1.7,1.2-2.6,2.8-2.7C250.9,158.9,252.1,159.6,252.1,161.5z"/>
	<path class="st20" d="M263.3,162.6c-0.2,1.2-1.2,2.2-2.4,2.2c-1.9,0-2.8-1.4-2.8-3.2c-0.2-1.2,0.7-2.3,1.9-2.5c0.2,0,0.3,0,0.5,0
		C262.4,159,263.4,159.7,263.3,162.6z"/>
	<path class="st20" d="M260.5,181.3c1.8,0,2.8,0.7,2.8,2.6s-0.8,3-2.4,3.1c-1.7,0.1-2.6-1.1-2.8-2.8S258.6,181.4,260.5,181.3z"/>
	<path class="st20" d="M254.7,124.8c1.7,0.2,2.9,1.8,2.7,3.5c0,1.7-1,2.5-2.6,2.3c-1.6-0.2-2.8-0.9-2.7-2.8
		C252.2,126.4,253.2,125.1,254.7,124.8z"/>
	<path class="st20" d="M254.8,153.1c-1.8,0-2.6-1-2.6-2.8s1.1-2.6,2.8-2.5c1.7,0.1,2.8,0.8,2.8,2.3c0.1,1.5-1,2.8-2.6,2.9
		C255.1,153.1,254.9,153.1,254.8,153.1z"/>
	<path class="st19" d="M242.4,197.9h2.4v0.7c-0.8,0.9-1.5,0.9-2.2,0C242.5,198.4,242.5,198.1,242.4,197.9z"/>
	<path class="st22" d="M228.6,211.7l-0.3-2.1h90.1l-0.3,2.2h-45.2L228.6,211.7z"/>
	<path class="st5" d="M219.4,208.9c0.6-1,1.6-0.7,2.4-0.8c0.1,0.2,0.1,0.4,0,0.6L219.4,208.9z"/>
	<path class="st21" d="M479.9,384.6c-1.5,1.9-1.4,4.6,0.3,6.3c-1.4,1.4-2.7,2.4-4.4,0.9s-0.3-5.6,1.2-6.7c0.7-0.4,1.5-0.7,2.4-0.9
		L479.9,384.6z"/>
	<path class="st5" d="M483.2,373.2c-0.1,3.5-1.8,6.7-4.6,8.7C479.3,378.7,480.9,375.6,483.2,373.2z"/>
	<path class="st21" d="M479.6,384.2c0.2-0.5,0.7-0.9,1.2-0.9l0.6,0.6l-1.4,0.8L479.6,384.2z"/>
	<path class="st23" d="M272.9,211.9h45.2v9.7H285c-2.3,0-4.4,0-5.4,2.8c-1.8,4.7,0.8,8.3,6.5,8.3c10.7,0,21.3,0,32,0v5.3h-32.7
		c-3.2-0.1-6,2.2-6.5,5.4c-0.5,3.6,1.4,5.2,4.7,5.8c1.5,0.4,3.1,0.6,4.7,0.7h28.2c-4.7,19.3-24.8,34.4-43.7,32.7
		C272.9,258.9,273,235.3,272.9,211.9z"/>
	<path class="st24" d="M272.9,211.9c0,23.5,0,47,0,70.5c-20.2,0.3-37.9-13.2-43-32.7c3.2,0,6.3-0.7,9.6-0.7c7.3,0,14.6,0,21.8,0
		c1.5,0.2,3-0.2,4.1-1.2c1.8-1.4,2.5-3.8,1.7-6c-1.1-2.6-3.8-4.2-6.5-3.9c-10.7,0-21.5,0-32.3,0v-5.3h31.5c1,0,2-0.1,2.9-0.3
		c3-0.5,5-3.4,4.5-6.4c-0.5-2.7-2.9-4.6-5.6-4.5c-11.1,0-22.3,0-33.4,0v-9.7L272.9,211.9z"/>
	<path class="st25" d="M316.5,249.7h-28.2c-1.6-0.1-3.2-0.3-4.7-0.7c-3.3-0.6-5.1-2.3-4.7-5.8c0.5-3.2,3.3-5.4,6.5-5.4h32.7
		C318.6,241.8,318,245.9,316.5,249.7z"/>
	<path class="st26" d="M318.1,232.6c-10.7,0-21.3,0-32,0c-5.7,0-8.3-3.6-6.5-8.3c1-2.7,3.1-2.8,5.4-2.8H318L318.1,232.6z"/>
	<path class="st25" d="M228.6,221.5c11.1,0,22.3,0,33.4,0c3-0.1,5.6,2.3,5.7,5.3c0.1,2.7-1.8,5.1-4.5,5.6c-1,0.2-1.9,0.3-2.9,0.3
		h-31.6L228.6,221.5z"/>
	<path class="st25" d="M228.6,237.9c10.7,0,21.5,0,32.3,0c2.8-0.3,5.5,1.3,6.5,3.9c0.7,2.2,0,4.6-1.7,6c-1.1,1-2.6,1.5-4.1,1.2
		c-7.3,0-14.6,0-21.8,0c-3.2,0-6.4,0.7-9.6,0.7C228.6,245.9,228.1,241.9,228.6,237.9z"/>
</g>
</svg>
