<?xml version="1.0" encoding="utf-8"?>
<!-- Generator: Adobe Illustrator 21.0.0, SVG Export Plug-In . SVG Version: 6.00 Build 0)  -->
<svg version="1.1" id="Layer_1" xmlns="http://www.w3.org/2000/svg" xmlns:xlink="http://www.w3.org/1999/xlink" x="0px" y="0px"
	 viewBox="0 0 512 512" style="enable-background:new 0 0 512 512;" xml:space="preserve">
<style type="text/css">
	.st0{fill:#FFFFFF;stroke:#000000;stroke-miterlimit:10;}
	.st1{fill:#2E67B1;}
</style>
<rect class="st0" width="512" height="512"/>
<title>HTML5 Logo</title>
<g>
	<path class="st1" d="M512,208.4l-107.7,61l2.5,4.3c31.5,54.6,12.8,124.3-41.7,155.9l-85.9,49.5c-17.2,10.1-36.7,15.4-56.6,15.4
		c-10.1,0-20.1-1.4-29.9-4c-29.2-7.7-54.2-26.8-69.3-52.9L15.3,249.8C-16.2,195.2,2.5,125.4,57,93.9l85.6-49.7
		C197.3,12.9,267,31.6,298.5,86.1l10,17.3l140.2-85.9v85.9l-106,59.7l-30,16.8L111.1,293.4l89.9-124l78.2-47.9l-10.5-18.1
		c-10.6-18.3-28-31.7-48.4-37.1c-6.8-1.8-13.9-2.7-21-2.7c-13.9,0-27.5,3.7-39.5,10.6l-85.7,49.6C36,145.8,23,194.5,44.9,232.6
		l108.2,187.8c22.1,37.9,70.6,51,108.8,29.2l86-49.5c38.1-22,51.2-70.7,29.3-108.8l-2.6-4.5L175,399.3l33.6-43.3L363,266.8
		l29.8-17.3l104.6-60.3v-53.8L512,124V208.4z"/>
	<polygon class="st1" points="469.8,54 469.8,138.5 363.5,198.8 333.6,215.7 132.9,329.5 166.5,285.8 322.2,196.1 351.9,179 
		455.3,119.4 455.3,65.5 	"/>
	<polygon class="st1" points="491.1,89.5 491.1,173.9 384.2,234.5 384.2,234.6 354.2,251.5 154.2,364.9 187.8,321.3 342.9,231.9 
		372.6,214.7 476.6,154.8 476.6,100.9 	"/>
</g>
</svg>
