<?xml version="1.0" encoding="utf-8"?>
<!-- Generator: Adobe Illustrator 21.0.0, SVG Export Plug-In . SVG Version: 6.00 Build 0)  -->
<svg version="1.1" id="Layer_1" xmlns="http://www.w3.org/2000/svg" xmlns:xlink="http://www.w3.org/1999/xlink" x="0px" y="0px"
	 viewBox="0 0 512 512" style="enable-background:new 0 0 512 512;" xml:space="preserve">
<style type="text/css">
	.st0{clip-path:url(#SVGID_2_);fill:#231F20;}
	.st1{clip-path:url(#SVGID_2_);fill:#FED402;}
	.st2{clip-path:url(#SVGID_2_);}
</style>
<title>HTML5 Logo</title>
<g>
	<g>
		<defs>
			<circle id="SVGID_1_" cx="256" cy="256" r="256"/>
		</defs>
		<clipPath id="SVGID_2_">
			<use xlink:href="#SVGID_1_"  style="overflow:visible;"/>
		</clipPath>
		<path class="st0" d="M230.6-58.5H294C445-58.5,567.5,63.9,567.5,215v63.4c0,151.1-122.5,273.5-273.5,273.5h-63.4
			c-151.1,0-273.5-122.5-273.5-273.5V215C-42.9,63.9,79.5-58.5,230.6-58.5z"/>
		<path class="st1" d="M230.6-58.5H294C445-58.5,567.5,63.9,567.5,215v63.4c0,151.1-122.5,273.5-273.5,273.5h-63.4
			c-151.1,0-273.5-122.5-273.5-273.5V215C-42.9,63.9,79.5-58.5,230.6-58.5z"/>
		<path class="st2" d="M11.3,412c0-7.8,0-15.5,0-23.3c2.8-13,4.7-26.4,8.6-39.3c20.6-71.2,57.5-136.7,107.7-191.2
			c19.4-21.3,36.6-44.7,55-67c2.8-3.6,6.6-6.5,10.8-8.2c19.9-7.6,38.3-18.6,54.5-32.4c10.1-8.9,22-15.5,34.9-19.1h7.8
			c13.5,4.2,26.9,11.1,40.6,11.9c16.5,1,21.8,10.4,25.9,22.9c0,0.7,0.6,1.4,0.9,2.1l19.8,48.2l-11.2,1v1.8l9.5,3
			c-23.1,17.3-23.7,17.5-34,14.8l13.7-12.1c4.6-4,8-8.9,5.4-14.9c-5.4-12.5-11.6-24.8-17.6-37.1c-0.4-0.8-1.5-1.4-2.3-2.1l-0.8,0.7
			l17.8,43.8l-16.5,1.2v1.2l9.5,2.3c-8.8,14.5-23.2,23.3-34.8,14.7c5.4-4.2,10.8-8.1,15.9-12.2c5.5-3,7.9-9.7,5.4-15.4
			c-6.8-14.8-14-29.5-21.1-44.2l-1.4,0.5l17.9,47.3h-14.3v1.1l11.8,4.4c-21.2,21-33,25.1-45.8,15.8c5.1-3.3,10.1-6.5,15-9.7
			c8.7-4.6,12.7-14.8,9.5-24c-3.4-11-7.4-21.8-11.2-32.4l-2.2,0.6l9.9,40.9l-16.7-1.2v1.4l13.8,4.5c-6.8,6.1-14.1,11.7-21.8,16.7
			c-5.1,2-10.7,2.7-16.2,1.8c-4.5,0-6.1-3.3-4.3-8.4c2.3-9,8.3-16.7,16.6-20.9L253.9,83l-1.2,0.8l14.8,17.7
			c-5.7,7.8-12,15-16.9,23.1c-14.1,23.6-34.6,20-49.9,10.8c-3.8-2.3-7.5-5-11.2-7.5c6.1,12.1,18,16.9,26.8,22l-42.1,69.6
			c-0.8-5.6-1.4-13-2.9-20.3c-1.5-7.3-3.8-14.1-6-21.1c4.5,35,3.5,70.4-3,105.1c4.1-10.9,7.1-22,10.6-33.1
			c2.5-10.8,6.9-21.1,13-30.3c1.7,16.6,3,33.3,5.3,49.9c1,4.9-0.8,9.9-4.8,13c-14.9,11.3-27.3,25.6-36.4,41.9
			c-2.9,5.7-4.8,11.8-6,14.8c9.6-8.8,20.7-19.4,32.4-29.2c12-11.3,24.9-21.7,38.4-31.1c41.4-25.9,90.8-18.9,129.7,12.1l-20,37
			l2.7,2.1c3.4-2.7,6.6-5.7,9.5-8.9c10.3-13,19.9-27.1,30.4-40.2c37.5-46.4,94.8-59.5,145.9-33.4c23.4,12,47.2,23.8,58.7,50.5
			c0.3-7-0.6-13.9-2.9-20.6c-3-7.2-0.6-10.3,5.3-14c17.2-10.6,33.9-21.8,50.8-32.7c1.4-0.9,3-1.6,4.9-2.5c1.7,3.6,3.2,7.4,4.4,11.3
			c2.6,11.2,4.8,22.6,7.1,33.9v45c-0.5,3-1.2,6-1.3,9c-1.4,33.8-6.2,67.4-14.2,100.4c-13,52.2-27.9,103.7-52.8,151.8
			c-6,11.6-13,22.7-20,34.6c-13.4-10.3-25.9-20-38.2-29.5c-39.4-29-72.6-65.7-97.7-107.7c-14-24.1-29-47.7-43.8-71.3
			c-7.6-13.4-18.6-24.6-31.8-32.4c-4.8-2.2-9.7-4.2-14.8-5.8l-0.5,1.6l12.1,9.9c-16.8,8.6-32.4,16.8-48.4,24.7
			c-33.8,17.4-73.3,20-109,7c-13.6-4.7-27.4-8.8-41.1-13c1.3,2.9,3.4,5.3,6.1,6.9c37.1,25.3,83.5,32.6,126.5,19.8
			c6.8-2.9,14.7-1,19.4,4.7c10.7,10.7,22.8,19.9,33.1,28.7c-80.7,28.7-159.7,17.4-238.5-15.8c27-4.2,52.9-8.2,77.1-18.3
			c-19.4,1.4-38.9,4-57.8,6c-25.7,3.3-51.7,3-77.3-0.7c-12.1-2-13-2.5-15.8-14.4C12.3,413.8,11.8,412.9,11.3,412z"/>
		<path class="st2" d="M497,688.3c-13.9-9.3-28.1-18.2-41.8-27.9c-47.3-33.6-87.1-73.9-110.7-127.8c-8.2-18.8-14.1-38.9-21.3-58.3
			c10.5-4,22.1-3.8,32.4,0.5c15.4,6.5,30.8,13,46,20.4c2.8,1.7,5,4,6.5,6.9c18.3,31,40.9,59.2,67.1,83.8
			c19.4,18.1,39.7,34.6,66.2,43.2L498,688.6L497,688.3z M425.2,615.7c12.6,23.4,65.7,46.9,90.3,38.2c-36.1-24.5-56.4-60.7-77.3-96.4
			l-2.1,1.2l11.5,39.5c-33.1-8.4-54.3-30.8-74.2-55.1c4.3,20,16.4,37.5,33.6,48.6c15.1,9.4,30.9,17.6,47.3,24.5
			c7.2,3.6,13,9.4,16.7,16.6l-1.5,2.7L425.2,615.7z"/>
		<path class="st2" d="M294.3,416.2c9.1-4.5,17.9-8.3,25.9-13c8-4.7,15.1-10.6,22.8-16.1c17.7,12.6,29.2,38.9,46,78.4
			C351.6,459.3,323,438.3,294.3,416.2z"/>
		<path class="st2" d="M239,150.1c3.2-2,6.2-4.2,9.1-6.5c2.3-2.4,4.5-4.9,6.5-7.5l36.2,7.1c-0.9,3.9-2.2,7.6-3.9,11.3
			c-1.3,2.3-3.4,3.9-5.9,4.7C266.3,161.3,251.4,158.1,239,150.1z"/>
		<path class="st2" d="M333.1,163.9c-4.9-16.6-8.8-19.4-22.6-15.5c1.5,5.1,3.3,10.1,4.5,15.3c1.6,7.1-1.6,9.9-8.3,7.7
			c-6.7-2.2-14.2-14.4-11.5-21.4c1.5-3.1,4.3-5.3,7.6-6.2c5.9-0.5,11.8-0.4,17.6,0.5c5.1,0.5,10.1,2,15.2,2.8
			c5.1,0.8,9.7,1,14.5,1.6C352.9,158.8,348.1,162.9,333.1,163.9z"/>
		<path class="st2" d="M314.3,151c5.9-1.5,11.2-3,13,5.4c1.8,8.4,1.9,9.3-8.2,11.6L314.3,151z"/>
		<path class="st1" d="M174.7,302.2c-18.7,6.5-39.1,6-57.4-1.4c-19.7-9-37-22.3-50.8-38.9c0,0,29.1,57.6,89.9,57.6L174.7,302.2z"/>
	</g>
</g>
</svg>
