<?xml version="1.0" encoding="utf-8"?>
<!-- Generator: Adobe Illustrator 21.0.0, SVG Export Plug-In . SVG Version: 6.00 Build 0)  -->
<svg version="1.1" id="Layer_1" xmlns="http://www.w3.org/2000/svg" xmlns:xlink="http://www.w3.org/1999/xlink" x="0px" y="0px"
	 viewBox="0 0 512 512" style="enable-background:new 0 0 512 512;" xml:space="preserve">
<style type="text/css">
	.st0{clip-path:url(#SVGID_1_);}
	.st1{fill:#231F20;}
	.st2{fill:#FED402;}
</style>
<title>HTML5 Logo</title>
<g>
	<g>
		<defs>
			<circle id="SVGID_3_" cx="256" cy="256" r="170.5"/>
		</defs>
		<clipPath id="SVGID_1_">
			<use xlink:href="#SVGID_3_"  style="overflow:visible;"/>
		</clipPath>
		<g class="st0">
			<path class="st1" d="M239.1,46.5h42.2c100.6,0,182.2,81.6,182.2,182.2v42.2c0,100.6-81.6,182.2-182.2,182.2h-42.2
				c-100.6,0-182.2-81.6-182.2-182.2v-42.2C56.9,128,138.4,46.5,239.1,46.5z"/>
			<path class="st2" d="M239.1,46.5h42.2c100.6,0,182.2,81.6,182.2,182.2v42.2c0,100.6-81.6,182.2-182.2,182.2h-42.2
				c-100.6,0-182.2-81.6-182.2-182.2v-42.2C56.9,128,138.4,46.5,239.1,46.5z"/>
			<path d="M93,359.9c0-5.2,0-10.3,0-15.5c1.9-8.6,3.2-17.6,5.7-26.2c13.7-47.5,38.3-91.1,71.8-127.4c13-14.2,24.4-29.8,36.7-44.6
				c1.9-2.4,4.4-4.3,7.2-5.5c13.2-5.1,25.5-12.4,36.3-21.6c6.7-5.9,14.7-10.3,23.3-12.7h5.2c9,2.8,17.9,7.4,27.1,7.9
				c11,0.6,14.5,7,17.3,15.3c0,0.5,0.4,1,0.6,1.4l13.2,32.1l-7.5,0.6v1.2l6.3,2c-15.4,11.5-15.8,11.7-22.6,9.9l9.1-8
				c3.1-2.7,5.4-5.9,3.6-9.9c-3.6-8.3-7.7-16.5-11.7-24.7c-0.3-0.6-1-0.9-1.5-1.4l-0.6,0.5l11.8,29.1l-11,0.8v0.8l6.3,1.6
				c-5.8,9.6-15.5,15.5-23.2,9.8c3.6-2.8,7.2-5.4,10.6-8.1c3.7-2,5.2-6.4,3.6-10.3c-4.5-9.9-9.3-19.6-14-29.5l-1,0.3l11.9,31.5h-9.5
				v0.7l7.9,2.9c-14.1,14-22,16.7-30.5,10.5c3.4-2.2,6.7-4.3,10-6.4c5.8-3,8.4-9.8,6.3-16c-2.2-7.3-4.9-14.5-7.4-21.6l-1.5,0.4
				l6.6,27.2l-11.1-0.8v0.9l9.2,3c-4.6,4.1-9.4,7.8-14.6,11.1c-3.4,1.3-7.2,1.8-10.8,1.2c-3,0-4.1-2.2-2.9-5.6
				c1.5-6,5.5-11.1,11.1-13.9l-15.8-12.5l-0.8,0.5l9.8,11.8c-3.8,5.2-8,10-11.2,15.4c-9.4,15.7-23.1,13.3-33.3,7.2
				c-2.5-1.6-5-3.3-7.4-5c4.1,8.1,12,11.3,17.8,14.7l-28.1,46.4c-0.5-3.7-1-8.6-1.9-13.5c-1-4.9-2.5-9.4-4-14c3,23.3,2.3,46.9-2,70
				c2.7-7.3,4.7-14.7,7.1-22c1.7-7.2,4.6-14,8.6-20.2c1.1,11.1,2,22.2,3.5,33.2c0.7,3.3-0.6,6.6-3.2,8.6c-9.9,7.5-18.2,17-24.2,27.9
				c-1.9,3.8-3.2,7.9-4,9.9c6.4-5.8,13.8-13,21.6-19.4c8-7.6,16.6-14.5,25.6-20.7c27.6-17.3,60.5-12.6,86.4,8.1l-13.3,24.7l1.8,1.4
				c2.3-1.8,4.4-3.8,6.3-5.9c6.9-8.6,13.3-18.1,20.3-26.8c25-30.9,63.2-39.6,97.2-22.2c15.6,8,31.4,15.8,39.1,33.6
				c0.2-4.6-0.4-9.3-1.9-13.7c-2-4.8-0.4-6.9,3.5-9.3c11.4-7,22.6-14.5,33.9-21.8c1-0.6,2-1,3.3-1.7c1.2,2.4,2.1,4.9,2.9,7.5
				c1.7,7.5,3.2,15,4.8,22.6v30c-0.3,2-0.8,4-0.9,6c-1,22.5-4.1,44.9-9.5,66.8c-8.6,34.8-18.6,69.1-35.2,101.1
				c-4,7.7-8.6,15.1-13.3,23c-8.9-6.9-17.3-13.3-25.5-19.6c-26.3-19.3-48.4-43.7-65.1-71.8c-9.3-16.1-19.3-31.8-29.2-47.5
				c-5.1-8.9-12.4-16.4-21.2-21.6c-3.2-1.5-6.5-2.8-9.8-3.9l-0.3,1l8,6.6c-11.2,5.7-21.6,11.2-32.3,16.5
				c-22.5,11.6-48.8,13.3-72.6,4.7c-9.1-3.2-18.3-5.9-27.4-8.6c0.8,1.9,2.3,3.5,4.1,4.6c24.7,16.8,55.6,21.7,84.3,13.2
				c4.5-1.9,9.8-0.7,13,3.2c7.1,7.1,15.2,13.3,22.1,19.1C248.1,409.7,195.5,402.1,143,380c18-2.8,35.2-5.4,51.4-12.2
				c-13,1-25.9,2.6-38.5,4c-17.1,2.2-34.4,2-51.5-0.5c-8.1-1.3-8.6-1.7-10.5-9.6C93.6,361.1,93.3,360.5,93,359.9z"/>
			<path d="M416.6,544c-9.3-6.2-18.7-12.1-27.9-18.6c-31.5-22.4-58-49.2-73.7-85.2c-5.5-12.5-9.4-25.9-14.2-38.9
				c7-2.7,14.7-2.5,21.6,0.3c10.2,4.3,20.5,8.6,30.6,13.6c1.8,1.1,3.3,2.7,4.3,4.6c12.2,20.6,27.2,39.4,44.7,55.8
				c13,12,26.5,23.1,44.1,28.8l-28.9,39.8L416.6,544z M368.7,495.6c8.4,15.6,43.8,31.2,60.2,25.4c-24.1-16.3-37.6-40.5-51.5-64.2
				l-1.4,0.8l7.7,26.3c-22-5.6-36.2-20.5-49.4-36.7c2.8,13.3,10.9,25,22.4,32.4c10.1,6.3,20.6,11.7,31.5,16.3
				c4.8,2.4,8.7,6.3,11.1,11.1l-1,1.8L368.7,495.6z"/>
			<path d="M281.5,362.7c6-3,11.9-5.5,17.3-8.6c5.4-3.1,10.1-7.1,15.2-10.8c11.8,8.4,19.5,25.9,30.7,52.2
				C319.7,391.4,300.6,377.4,281.5,362.7z"/>
			<path d="M244.6,185.4c2.1-1.3,4.1-2.8,6.1-4.3c1.5-1.6,3-3.3,4.3-5l24.1,4.7c-0.6,2.6-1.5,5.1-2.6,7.5c-0.9,1.5-2.3,2.6-3.9,3.1
				C262.9,192.9,252.9,190.8,244.6,185.4z"/>
			<path d="M307.4,194.6c-3.2-11.1-5.9-13-15.1-10.3c1,3.4,2.2,6.7,3,10.2c1,4.8-1.1,6.6-5.5,5.1c-4.4-1.5-9.5-9.6-7.7-14.3
				c1-2.1,2.8-3.6,5.1-4.1c3.9-0.3,7.9-0.2,11.7,0.3c3.4,0.3,6.7,1.3,10.1,1.9s6.4,0.7,9.7,1C320.6,191.2,317.3,194,307.4,194.6z"/>
			<path d="M294.9,186.1c3.9-1,7.4-2,8.6,3.6c1.2,5.6,1.3,6.2-5.4,7.7L294.9,186.1z"/>
			<path class="st2" d="M201.8,286.8c-12.4,4.3-26,4-38.2-1c-13.1-6-24.7-14.8-33.9-25.9c0,0,19.4,38.4,59.9,38.4L201.8,286.8z"/>
		</g>
	</g>
	<path d="M436.2,1.8H75.8c-40.9,0-74,33.1-74,74c0,0,0,0,0,0v360.4c0,40.9,33.1,74,74,74h360.4c40.9,0,74-33.1,74-74l0,0V75.8
		C510.2,34.9,477.1,1.8,436.2,1.8z M256,422.9c-92.2,0-166.9-74.7-166.9-166.9c0-92.2,74.7-166.9,166.9-166.9
		c92.2,0,166.9,74.7,166.9,166.9S348.2,422.9,256,422.9C256,422.9,256,422.9,256,422.9z"/>
</g>
</svg>
