<?xml version="1.0" encoding="utf-8"?>
<!-- Generator: Adobe Illustrator 18.0.0, SVG Export Plug-In . SVG Version: 6.00 Build 0)  -->
<!DOCTYPE svg PUBLIC "-//W3C//DTD SVG 1.1//EN" "http://www.w3.org/Graphics/SVG/1.1/DTD/svg11.dtd">
<svg version="1.1" id="Capa_1" xmlns="http://www.w3.org/2000/svg" xmlns:xlink="http://www.w3.org/1999/xlink" x="0px" y="0px"
	 viewBox="0 0 47 47" enable-background="new 0 0 47 47" xml:space="preserve">
<g>
	<g id="Layer_1_120_">
		<g>
			<g>
				<path fill="#7BBB3B" d="M31.7,10.3c-0.1-0.1-0.2-0.2-0.4-0.2l-9-2.8c-3.6-1.1-5.9,0.8-6.6,1.5c-0.4,0.4-0.6,0.8-0.8,1.1l-4,9.4
					c-0.2,0.5-0.2,1.3,0.2,2c0.5,1,1.4,1.8,2.5,2c1.2,0.3,2.5-0.1,3.5-1.1c0.3-0.3,0.5-0.6,0.6-0.8l1.3-2.5c0.2-0.4,0.5-0.8,0.9-1.2
					c1.2-1.2,1.7-0.6,1.9-0.4c2,1.9,12.6,12.5,12.6,12.5c0.4,0.4,0.3,1.1-0.2,1.6c-0.5,0.5-1.2,0.5-1.6,0.2l-3-3
					c-0.4-0.4-1-0.4-1.4,0c-0.4,0.4-0.4,1,0,1.4l3,3c0.4,0.4,0.3,1.1-0.2,1.6c-0.5,0.5-1.2,0.5-1.6,0.2l-3-3c-0.4-0.4-1-0.4-1.4,0
					c-0.4,0.4-0.4,1,0,1.4l3,3c0.4,0.4,0.3,1.1-0.2,1.6c-0.5,0.5-1.2,0.5-1.6,0.2l-3-3c-0.4-0.4-1-0.4-1.4,0c-0.4,0.4-0.4,1,0,1.4
					l3,3c0.4,0.4,0.3,1.1-0.2,1.6c-0.5,0.5-1.2,0.5-1.6,0.2L20,37.2c0.5-0.8,0.4-1.9-0.4-2.7c-0.9-0.9-2.2-0.9-2.9-0.2
					c0.8-0.8,0.7-2.1-0.2-2.9c-0.9-0.9-2.2-0.9-2.9-0.2c0.8-0.8,0.7-2.1-0.2-2.9c-0.9-0.9-2.2-0.9-2.9-0.2c0.8-0.8,0.7-2.1-0.2-2.9
					c-0.8-0.8-2-0.9-2.8-0.3l-5.8-5.8c-0.4-0.4-1-0.4-1.4,0c-0.4,0.4-0.4,1,0,1.4l5.8,5.8L4.4,28c-0.8,0.8-0.7,2.1,0.2,2.9
					c0.9,0.9,2.2,0.9,2.9,0.2c-0.8,0.8-0.7,2.1,0.2,2.9c0.9,0.9,2.2,0.9,2.9,0.2c-0.8,0.8-0.7,2.1,0.2,2.9c0.9,0.9,2.2,0.9,2.9,0.2
					c-0.8,0.8-0.7,2.1,0.2,2.9c0.9,0.9,2.2,0.9,2.9,0.2l1.8-1.8l3.6,3.6c1.1,1.1,3.1,1.1,4.3-0.2c0.6-0.6,0.9-1.4,1-2.1
					c0.8,0,1.5-0.4,2.1-1c0.6-0.6,0.9-1.4,1-2.1c0.8,0,1.5-0.4,2.1-1c0.6-0.6,0.9-1.4,1-2.1c0.8,0,1.5-0.4,2.1-1
					c1.2-1.2,1.3-3.2,0.2-4.3l-1.5-1.5l6.2-6.2c0.4-0.4,0.4-1,0-1.4L31.7,10.3z"/>
			</g>
			<g>
				<path fill="#7BBB3B" d="M46.4,12.5l-7.9-7.9c-0.8-0.8-2-0.8-2.8,0L33,7.3c-0.8,0.8-0.8,2,0,2.8l7.9,7.9c0.8,0.8,2,0.8,2.8,0
					l2.8-2.8C47.2,14.5,47.2,13.3,46.4,12.5z M42.3,16.5c-0.9,0-1.6-0.7-1.6-1.6s0.7-1.6,1.6-1.6c0.9,0,1.6,0.7,1.6,1.6
					C43.9,15.8,43.2,16.5,42.3,16.5z"/>
			</g>
		</g>
	</g>
</g>
</svg>
