<?xml version="1.0" encoding="utf-8"?>
<!-- Generator: Adobe Illustrator 15.1.0, SVG Export Plug-In . SVG Version: 6.00 Build 0)  -->
<!DOCTYPE svg PUBLIC "-//W3C//DTD SVG 1.1//EN" "http://www.w3.org/Graphics/SVG/1.1/DTD/svg11.dtd">
<svg version="1.1" id="Layer_1" xmlns="http://www.w3.org/2000/svg" xmlns:xlink="http://www.w3.org/1999/xlink" x="0px" y="0px"
	 width="500px" height="500px" viewBox="0 0 500 500" enable-background="new 0 0 500 500" xml:space="preserve">
<path fill="#0E9DD9" d="M126.533,245.931c-7.519-7.519-19.708-7.519-27.23,0L62.285,282.95c-7.517,7.519-7.517,19.709,0.002,27.23
	c7.518,7.519,19.71,7.517,27.228,0l37.018-37.02C134.053,265.641,134.053,253.45,126.533,245.931z"/>
<path fill="#0E9DD9" d="M168.437,276.594c-7.519-7.519-19.706-7.519-27.229,0l-37.017,37.019c-7.519,7.52-7.519,19.71,0,27.23
	c7.519,7.519,19.709,7.517,27.229-0.002l37.017-37.017C175.959,296.304,175.959,284.112,168.437,276.594z"/>
<path fill="#0E9DD9" d="M212.642,304.237c-7.519-7.519-19.706-7.519-27.229,0l-37.017,37.019c-7.519,7.521-7.519,19.71,0,27.23
	c7.519,7.519,19.709,7.515,27.229,0l37.017-37.019C220.165,323.947,220.165,311.756,212.642,304.237z"/>
<path fill="#0E9DD9" d="M255.401,333.504c-7.519-7.519-19.706-7.519-27.228-0.002l-37.017,37.02c-7.519,7.519-7.519,19.709,0,27.229
	c7.519,7.521,19.71,7.518,27.227-0.002l37.019-37.017C262.924,353.214,262.922,341.022,255.401,333.504z"/>
<path fill="#0E9DD9" d="M392.796,268.675c-28.73-34.96-62.241-64.695-99.676-88.457l-0.643,0.487l-5.414,4.125l-51.074,38.868
	c-4.782,4.341-12.088,6.63-21.203,6.63c-0.002,0-0.002,0-0.004,0c-11.539,0-27.941-3.983-36.683-12.727
	c-7.467-7.466-10.979-15.548-10.437-24.025c0.837-13.135,11.264-22.997,21.465-30.92l58.85-53.307
	c0.465-0.764,1.073-1.708,1.812-2.768c-45.638-13.265-109.622,11.58-109.622,11.58s-40.372,9.711-59.28-9.198
	c-18.908-18.909-27.596,2.044-27.596,2.044L4.234,224.457c0,0,28.274,10.545,55.815,44.773l31.275-31.276
	c5.771-5.77,13.441-8.944,21.595-8.944c8.158,0,15.826,3.175,21.592,8.944c5.769,5.767,8.946,13.437,8.946,21.594
	c0,0.794-0.055,1.576-0.116,2.358c3.601-1.46,7.482-2.233,11.483-2.233c8.156,0,15.824,3.176,21.59,8.944
	c5.771,5.767,8.948,13.436,8.948,21.594c0,0.119-0.017,0.236-0.017,0.356c4.198-2.11,8.85-3.251,13.684-3.251
	c8.156,0,15.823,3.177,21.592,8.944c5.769,5.767,8.946,13.436,8.946,21.594c0,0.442-0.046,0.878-0.064,1.316
	c3.826-1.683,7.983-2.59,12.287-2.59c8.156,0,15.824,3.176,21.59,8.944c5.769,5.767,8.945,13.435,8.947,21.592
	c0,8.158-3.177,15.827-8.947,21.598l-31.043,31.039c0.049,0.029,0.112,0.068,0.158,0.096c13.936,8.161,30.765,5.335,37.588-6.315
	c2.976-5.078,3.554-10.996,2.11-16.731c0.088,0.052,0.169,0.114,0.257,0.165c14.682,8.599,32.409,5.62,39.598-6.651
	c3.646-6.223,3.867-13.637,1.302-20.557c0.377,0.237,0.732,0.494,1.12,0.722c16.307,9.551,35.998,6.241,43.981-7.39
	c3.195-5.454,3.996-11.735,2.806-17.921c15.159,6.329,31.846,2.461,39.038-9.818c6.172-10.534,5.3-28.736-2.992-40.873
	L392.796,268.675z"/>
<path fill="#0E9DD9" d="M256.867,116.522l-60.484,54.787c-13.271,10.253-25.844,22.775-10.305,38.313l0,0
	c8.991,8.992,35.052,13.006,42.604,5.455l62.056-47.225l0.83-1.871c0.801,0.483,1.598,0.971,2.395,1.46
	c39.495,24.273,76.044,55.731,107.551,94.071c4.21,5.123,8.281,10.31,12.215,15.557c0,0,8.081,10.101,15.604-0.242
	c7.522-10.344,46.074-39.963,61.59-50.306c0,0,7.757-7.757-0.471-15.985c-8.228-8.228-46.545-96.851-47.485-102.963
	c-0.94-6.112-11.754-9.873-19.276-0.94c-7.521,8.933-28.672,14.574-43.253,14.574c-38.553,0-77.575-24.918-95.911-23.978
	S256.867,116.522,256.867,116.522z"/>
</svg>
