<svg xmlns="http://www.w3.org/2000/svg" viewBox="0 0 55.99 92.42"><defs><style>.cls-1{fill:#b2b2b2;}</style></defs><title>03</title><path class="cls-1" d="M44.82 23.88a8.25 8.25 0 1 0 8.18 8.25 8.25 8.25 0 0 0-8.18-8.25zm0 13.21a5 5 0 1 1 4.94-5 5 5 0 0 1-4.94 4.99zm28 31.36a1.65 1.65 0 0 0-.9-1.47c-.52-.27-12.83-6.73-10.8-18.6a110.58 110.58 0 0 0 1.82-16.25c-.01-12.05-16.22-30.06-16.94-30.82a1.7 1.7 0 0 0-2.44 0c-.65.76-16.86 18.77-16.86 30.82a110.61 110.61 0 0 0 1.82 16.25c2 11.87-10.28 18.33-10.8 18.6a1.65 1.65 0 0 0-.9 1.47v19.81a1.65 1.65 0 0 0 3 1c3-4.07 8.68-10.12 12.9-12l-1 4a1.67 1.67 0 0 0 0 .4c0 1.42 1.18 4.61 11.53 4.92v5a1.65 1.65 0 1 0 3.29 0v-5c10.27-.31 11.46-3.51 11.46-4.93a1.67 1.67 0 0 0 0-.4l-1-4c4.22 1.85 9.85 7.9 12.9 12a1.65 1.65 0 0 0 3-1v-19.8zm-39.53 5.16c-4.68 1.08-9.94 6.31-13.17 10v-14.21c2.14-1.3 7.52-5 10.26-11 1.36 6.82 2.64 12.37 2.91 13.53v1.67zm13.17 9.66v-34.63a1.65 1.65 0 1 0-3.29 0v34.64c-5.9-.19-7.69-1.36-8.14-1.79l1.51-6a1.67 1.67 0 0 0 0-.4v-3.3a1.64 1.64 0 0 0 0-.38c-.07-.28-6.54-28-6.54-39.24 0-9 11.08-22.8 14.82-27.2 3.74 4.4 14.82 18.2 14.82 27.2 0 11.23-6.48 39-6.54 39.24a1.64 1.64 0 0 0 0 .38v3.3a1.66 1.66 0 0 0 0 .4l1.51 6c-.46.43-2.25 1.6-8.15 1.79zm23.05.35c-3.23-3.7-8.5-8.94-13.17-10v-1.68c.27-1.16 1.55-6.71 2.91-13.52 2.74 6 8.13 9.69 10.27 11v14.21z" transform="translate(-16.82 -.79)"/></svg>