<?xml version="1.0" encoding="utf-8"?>
<!-- Generator: Adobe Illustrator 21.0.0, SVG Export Plug-In . SVG Version: 6.00 Build 0)  -->
<svg version="1.1" id="Layer_1" xmlns="http://www.w3.org/2000/svg" xmlns:xlink="http://www.w3.org/1999/xlink" x="0px" y="0px"
	 viewBox="0 0 512 512" style="enable-background:new 0 0 512 512;" xml:space="preserve">
<style type="text/css">
	.st0{fill:#FFFFFF;}
	.st1{fill:url(#SVGID_1_);}
	.st2{fill:#2C5791;}
</style>
<rect class="st0" width="512" height="512"/>
<title>HTML5 Logo</title>
<g>
	
		<radialGradient id="SVGID_1_" cx="256" cy="258" r="256" gradientTransform="matrix(1 0 0 -1 0 514)" gradientUnits="userSpaceOnUse">
		<stop  offset="0" style="stop-color:#5985BD"/>
		<stop  offset="0.85" style="stop-color:#2C5791"/>
		<stop  offset="1" style="stop-color:#1B3C6C"/>
	</radialGradient>
	<circle class="st1" cx="256" cy="256" r="256"/>
	<path class="st0" d="M116,418.7l-9.5,3.4c114.6-4.4,310.4-49.4,326.8-53.2c-0.3-2.3-49.8-309.7-49.8-311.8
		c-1.6,0-201.8-1.6-290.4-2.5C78.6,65.9,79.4,64,67.7,78.1l48.4,339.5L116,418.7z M205.2,391.7c-4.9,0-8.8-5.3-9.1-12.4
		c-0.4-7.1,3.5-12.7,8.4-12.9c4.9-0.1,8.8,5.3,9.1,12.4C214,385.9,210.1,391.5,205.2,391.7L205.2,391.7z M244.3,386
		c-4.9,0-8.8-5.3-9.1-12.4c-0.4-7.1,3.4-12.7,8.4-12.9s8.8,5.3,9.1,12.4S249.1,386,244.3,386L244.3,386z M283.3,380.5
		c-4.9,0-8.8-5.3-9.1-12.4s3.5-12.7,8.4-12.9c4.9-0.1,8.8,5.3,9.1,12.4C292.1,374.7,288.2,380.3,283.3,380.5L283.3,380.5z
		 M322.3,374.7c-4.9,0-8.8-5.3-9.1-12.4c-0.4-7.1,3.4-12.7,8.4-12.9c4.9-0.1,8.8,5.3,9.1,12.4C331,368.9,327.3,374.7,322.3,374.7z
		 M365.9,367.5l-1.6-17.6l23.1-2.9l1.6,16.5L365.9,367.5z M360.6,90.3l36.1,227.2l-254.1,35.2l-36.1-260L360.6,90.3z"/>
	<polygon class="st2" points="396.9,317.7 360.6,90.3 106.4,92.7 142.8,353 	"/>
	<path class="st0" d="M324,410.5l-31.3,6l0.4,14.4l-104.9,21l-0.8-16l-51.6,8.8H135c26.9,3.5,42.1,34.2,44.7,40.1l211-43.6
		C385.1,433.9,359.8,404.5,324,410.5z"/>
	<path class="st0" d="M188.3,292.1c12.2,22.3,22.7,45.5,31.4,69.4c0,0,30.5-22.4,87.4-38.8c24.7-7.1,49-15.5,72.8-25.3
		c-5.8-10.3-13.7-24.4-22-40.1c-19.5,5.9-38.6,13-57.2,21.4c-27,11.6-55.1,20.4-83.8,26.4c-0.7-1.8-1.5-4.2-2.5-7.1
		c29.4-5.9,58.1-14.9,85.7-26.6c17.7-8,35.8-14.8,54.4-20.5c-3.9-7.5-7.8-15.3-11.5-23.1c-20.3,5.4-40.1,12.2-59.5,20.3
		c-27.4,10.8-55.8,18.8-84.8,23.9c-0.7-1.8-1.5-4.4-2.3-7.2c29.6-5.1,58.6-13.3,86.5-24.3c18.5-7.8,37.5-14.4,56.9-19.7
		c-3.7-7.9-7.1-15.7-10.2-23.1c-21.5,4.7-42.6,11-63.1,18.7c-27.9,9.8-56.7,16.8-86,20.8c-0.6-1.8-1.3-4.4-2-7.3
		c29.8-4,59.1-11.1,87.4-21c19.9-7.4,40.2-13.5,60.9-18.2c-2.1-5.4-3.9-10.5-5.4-15.3c-1.2-4-2.4-7.8-3.5-11.6
		c-24.3,4.7-48.1,11.2-71.4,19.7c-28,9.5-56.9,16.2-86.3,20c-0.6-1.8-1.2-4.4-1.9-7.3c29.8-3.7,59.2-10.5,87.6-20.1
		c22.7-8.3,46.1-14.7,69.8-19.4c-2.4-8.2-4.4-15.9-6.6-23.1c-26.7,3.5-53,9.3-78.7,17.3c-28.5,8.3-57.9,13.7-87.5,16.1
		c-0.5-1.9-1-4.4-1.5-7.4c30-2.4,59.6-7.8,88.5-16.2c25.2-7.9,51.1-13.6,77.2-17.1c-6.7-25-10.4-41.5-10.4-41.5
		c-31,2.9-61.6,9-91.4,18.2c-25.9,7.9-94.8,13.6-99.2,20.4c2.7,12.4,7.8,26.1,22.5,58.8C142,211.1,168.6,257.5,188.3,292.1z"/>
</g>
</svg>
