<svg id="Layer_1" data-name="Layer 1" xmlns="http://www.w3.org/2000/svg" xmlns:xlink="http://www.w3.org/1999/xlink" viewBox="0 0 120 120"><defs><style>.cls-1{fill:url(#radial-gradient);}.cls-2{fill:#fff;}.cls-3{fill:#2c5791;}</style><radialGradient id="radial-gradient" cx="60" cy="60" r="58.23" gradientUnits="userSpaceOnUse"><stop offset="0" stop-color="#5985bd"/><stop offset="0.85" stop-color="#2c5791"/><stop offset="1" stop-color="#1b3c6c"/></radialGradient></defs><title>TRIMSNet logo</title><circle class="cls-1" cx="60" cy="60" r="58.23"/><path class="cls-2" d="M28.15,97,26,97.78c26.07-1,70.6-11.24,74.33-12.1C100.27,85.15,89,15.24,89,14.76c-.37,0-45.9-.36-66.06-.58-3.29,2.59-3.11,2.14-5.77,5.36l11,77.22Zm20.3-6.14c-1.12,0-2-1.2-2.08-2.81s.79-2.9,1.91-2.93,2,1.2,2.08,2.81S49.56,90.83,48.44,90.86Zm8.89-1.28c-1.12,0-2-1.2-2.08-2.81s.78-2.9,1.9-2.93,2,1.2,2.08,2.81S58.44,89.56,57.33,89.59Zm8.88-1.27c-1.11,0-2-1.2-2.08-2.81s.79-2.9,1.9-2.93,2,1.2,2.08,2.81S67.33,88.28,66.21,88.31ZM75.09,87c-1.12,0-2-1.2-2.08-2.81s.78-2.9,1.9-2.93,2,1.2,2.08,2.81S76.21,87,75.09,87ZM85,85.37l-.37-4,5.26-.66.37,3.76ZM83.79,22.32,92,74l-57.79,8L26,22.87Z"/><polygon class="cls-3" points="92.04 74.03 83.79 22.32 25.98 22.86 34.25 82.06 92.04 74.03"/><path class="cls-2" d="M75.47,95.15l-7.13,1.36.1,3.27-23.86,4.78-.19-3.65-11.74,2-.18,0c6.12.8,9.57,7.78,10.17,9.11l48-9.92C89.37,100.46,83.61,93.78,75.47,95.15Z"/><path class="cls-2" d="M44.6,68.21A113.29,113.29,0,0,1,51.74,84s6.94-5.09,19.88-8.83a160.51,160.51,0,0,0,16.57-5.75c-1.33-2.34-3.12-5.56-5-9.11a106.84,106.84,0,0,0-13,4.87,99.47,99.47,0,0,1-19.07,6c-.16-.41-.35-.95-.56-1.61a100.4,100.4,0,0,0,19.5-6.06,106.37,106.37,0,0,1,12.37-4.67c-.88-1.71-1.77-3.48-2.62-5.25a106.69,106.69,0,0,0-13.53,4.62A100,100,0,0,1,47,63.64c-.15-.41-.33-1-.52-1.63a100.37,100.37,0,0,0,19.67-5.53A107,107,0,0,1,79.09,52c-.84-1.79-1.62-3.56-2.32-5.25A106.36,106.36,0,0,0,62.41,51a100,100,0,0,1-19.56,4.73c-.13-.42-.29-1-.45-1.65a100.63,100.63,0,0,0,19.88-4.78,106.78,106.78,0,0,1,13.86-4.14c-.47-1.22-.89-2.39-1.22-3.48q-.42-1.35-.8-2.64a105.86,105.86,0,0,0-16.23,4.48,100.31,100.31,0,0,1-19.63,4.54c-.13-.42-.28-1-.43-1.66a100.77,100.77,0,0,0,19.93-4.58,106.18,106.18,0,0,1,15.88-4.41c-.54-1.86-1-3.62-1.49-5.26a104.84,104.84,0,0,0-17.89,3.94,100.6,100.6,0,0,1-19.9,3.67c-.11-.43-.23-1-.35-1.68a100.73,100.73,0,0,0,20.12-3.69,105.42,105.42,0,0,1,17.57-3.9c-1.53-5.69-2.36-9.43-2.36-9.43a102.93,102.93,0,0,0-20.78,4.15C42.68,27,27,28.3,26,29.86c.61,2.81,1.77,5.93,5.11,13.38C34.08,49.79,40.13,60.34,44.6,68.21Z"/></svg>