<svg id="Layer_1" data-name="Layer 1" xmlns="http://www.w3.org/2000/svg" xmlns:xlink="http://www.w3.org/1999/xlink" viewBox="0 0 120 120"><defs><style>.cls-1{fill:none;}.cls-2{isolation:isolate;}.cls-3{clip-path:url(#clip-path);}.cls-11,.cls-12,.cls-13,.cls-14,.cls-4,.cls-5,.cls-6,.cls-7{stroke-miterlimit:10;}.cls-4{fill:url(#Black_Chrome_01);stroke:url(#linear-gradient);}.cls-5{fill:url(#Black_Chrome_01-2);stroke:url(#linear-gradient-2);}.cls-6{fill:url(#Black_Chrome_01-3);stroke:url(#linear-gradient-3);}.cls-7{fill:url(#Black_Chrome_01-4);stroke:url(#linear-gradient-4);}.cls-8{clip-path:url(#clip-path-2);}.cls-9{clip-path:url(#clip-path-3);}.cls-10{clip-path:url(#clip-path-4);}.cls-11{fill:url(#linear-gradient-5);stroke:url(#linear-gradient-6);}.cls-12{fill:url(#linear-gradient-7);stroke:url(#linear-gradient-8);}.cls-13{fill:url(#linear-gradient-9);stroke:url(#linear-gradient-10);}.cls-14{fill:url(#linear-gradient-11);stroke:url(#linear-gradient-12);}</style><clipPath id="clip-path"><path class="cls-1" d="M33,3.73c6-.34,12.56-.53,19.48-.54s13.7.16,20.08.49S85.33,4.5,91,5.14c5.83.66,11.13,1.47,15.54,2.41A41.35,41.35,0,0,1,117.08,11a10,10,0,0,1,1,.62,5.65,5.65,0,0,1,.74.62,3.16,3.16,0,0,1,.49.63,1.88,1.88,0,0,1,.23.63c-4.05,5.34-9.68,12.74-16,21.44C97.39,43.36,90.64,53,84.09,63.12,77.72,73,71.54,83.22,66.26,93.34a180.39,180.39,0,0,0-12.35,28.81,197.36,197.36,0,0,0-11-30.29C38.14,81.29,32.61,70.61,26.95,60.46"/></clipPath><linearGradient id="Black_Chrome_01" x1="62.44" y1="103.65" x2="40.61" y2="95.5" gradientUnits="userSpaceOnUse"><stop offset="0.04" stop-color="#9a9b94"/><stop offset="0.06" stop-color="#989992"/><stop offset="0.07" stop-color="#91928c"/><stop offset="0.08" stop-color="#868781"/><stop offset="0.08" stop-color="#757670"/><stop offset="0.09" stop-color="#5f605b"/><stop offset="0.09" stop-color="#434442"/><stop offset="0.1" stop-color="#242524"/><stop offset="0.1" stop-color="#1e1f1e"/><stop offset="0.27" stop-color="#161716"/><stop offset="0.28" stop-color="#1b1c1b"/><stop offset="0.28" stop-color="#2a2b2a"/><stop offset="0.29" stop-color="#424342"/><stop offset="0.29" stop-color="#636464"/><stop offset="0.3" stop-color="#7b7c7d"/><stop offset="0.32" stop-color="#797a7b"/><stop offset="0.33" stop-color="#747475"/><stop offset="0.36" stop-color="#7b7c7d"/><stop offset="0.36" stop-color="#797a7b"/><stop offset="0.37" stop-color="#717273"/><stop offset="0.37" stop-color="#646566"/><stop offset="0.37" stop-color="#515253"/><stop offset="0.37" stop-color="#393a3a"/><stop offset="0.37" stop-color="#292a2a"/><stop offset="0.38" stop-color="#292a2a"/><stop offset="0.38" stop-color="#292a2a"/><stop offset="0.38" stop-color="#2c2d2d"/><stop offset="0.38" stop-color="#414343"/><stop offset="0.39" stop-color="#525454"/><stop offset="0.39" stop-color="#5d5f5f"/><stop offset="0.39" stop-color="#646666"/><stop offset="0.4" stop-color="#666868"/><stop offset="0.45" stop-color="#656769"/><stop offset="0.48" stop-color="#656769"/><stop offset="0.54" stop-color="#727474"/><stop offset="0.55" stop-color="#707272"/><stop offset="0.55" stop-color="#696b6b"/><stop offset="0.56" stop-color="#5e6060"/><stop offset="0.56" stop-color="#4d4f4f"/><stop offset="0.56" stop-color="#37393a"/><stop offset="0.56" stop-color="#2d2f30"/><stop offset="0.58" stop-color="#292b2d"/><stop offset="0.59" stop-color="#2b2d2f"/><stop offset="0.59" stop-color="#323435"/><stop offset="0.59" stop-color="#3d3f41"/><stop offset="0.59" stop-color="#4e5051"/><stop offset="0.59" stop-color="#646666"/><stop offset="0.59" stop-color="#7f8080"/><stop offset="0.59" stop-color="#858686"/><stop offset="0.62" stop-color="#848484"/><stop offset="0.63" stop-color="#818181"/><stop offset="0.65" stop-color="#818181"/><stop offset="0.71" stop-color="#858686"/><stop offset="0.73" stop-color="#838484"/><stop offset="0.74" stop-color="#7d7d7d"/><stop offset="0.75" stop-color="#717272"/><stop offset="0.75" stop-color="#606161"/><stop offset="0.76" stop-color="#4b4b4b"/><stop offset="0.76" stop-color="#313030"/><stop offset="0.76" stop-color="#242323"/><stop offset="0.87" stop-color="#0d0e0e"/><stop offset="0.9" stop-color="#0f1010"/><stop offset="0.92" stop-color="#161716"/><stop offset="0.92" stop-color="#212221"/><stop offset="0.93" stop-color="#323332"/><stop offset="0.94" stop-color="#484946"/><stop offset="0.94" stop-color="#646560"/><stop offset="0.95" stop-color="#83847e"/><stop offset="0.95" stop-color="#9a9b94"/><stop offset="1" stop-color="#9a9b94"/></linearGradient><linearGradient id="linear-gradient" x1="50.23" y1="102.14" x2="65.08" y2="102.14" gradientUnits="userSpaceOnUse"><stop offset="0.01" stop-color="#7b0000"/><stop offset="0.51" stop-color="#530000" stop-opacity="0.1"/><stop offset="1" stop-color="#640000"/></linearGradient><linearGradient id="Black_Chrome_01-2" x1="92.41" y1="78.7" x2="41.08" y2="57.11" xlink:href="#Black_Chrome_01"/><linearGradient id="linear-gradient-2" x1="44.02" y1="69.56" x2="82.62" y2="69.56" xlink:href="#linear-gradient"/><linearGradient id="Black_Chrome_01-3" x1="129.54" y1="63.94" x2="-10.73" y2="-17.71" xlink:href="#Black_Chrome_01"/><linearGradient id="linear-gradient-3" x1="41.91" y1="39.29" x2="102.96" y2="39.29" gradientUnits="userSpaceOnUse"><stop offset="0.01" stop-color="#7b0000" stop-opacity="0"/><stop offset="0.51" stop-color="#530000" stop-opacity="0.1"/><stop offset="1" stop-color="#640000"/></linearGradient><linearGradient id="Black_Chrome_01-4" x1="122.61" y1="38.94" x2="60.73" y2="-1.73" xlink:href="#Black_Chrome_01"/><linearGradient id="linear-gradient-4" x1="35.48" y1="14.83" x2="119.62" y2="14.83" xlink:href="#linear-gradient"/><clipPath id="clip-path-2"><path class="cls-1" d="M10.42,34.43c5.42,8.43,11.38,18,17.15,28.17C33.2,72.47,38.65,82.81,43.27,93a181.75,181.75,0,0,1,10.63,29.13c-1.41-5.39-2.91-9.7-3.55-11.54-1.69-4.86-3.38-8.93-4.62-11.9-.49-1.18-2.33-5.54-5.49-12.12-2.59-5.4-5.2-10.33-6.18-12.18-2.21-4.19-5.29-9.71-6.66-12.08-4-6.93-5.68-9.8-10.31-17.32"/></clipPath><clipPath id="clip-path-3"><path class="cls-1" d="M119.11,14.84c-1.71,2.23-4,5.19-5.7,7.45h0c-1,1.31-2.3,3-3.28,4.34l-3.51,4.69c-1.11,1.49-2.57,3.48-3.67,5-2.67,3.64-6.16,8.52-7.67,10.67-5.56,7.92-7.72,11.19-11.65,17.14,0,.05-3.54,5.39-7.43,11.78-3.17,5.21-5.51,9.34-6.92,11.89-3.48,6.3-5.57,10.57-6.13,11.73-1.29,2.68-3.24,6.72-5.19,11.49-.66,1.62-2.42,5.93-4.06,11.16A180.39,180.39,0,0,1,66.26,93.34C71.54,83.22,77.72,73,84.09,63.12,90.64,53,97.39,43.36,103.54,34.89c6.3-8.69,11.93-16.1,16-21.44a1.55,1.55,0,0,1,0,.35,1.61,1.61,0,0,1-.06.35,1.93,1.93,0,0,1-.14.35A2.46,2.46,0,0,1,119.11,14.84Z"/></clipPath><clipPath id="clip-path-4"><path class="cls-1" d="M2.48,16.61a90.19,90.19,0,0,0,13.68,3C22,20.56,29,21.31,36.73,21.85c7.9.55,16.51.85,25.43.86,7.89,0,15.33-.22,22.1-.65s12.61-1,17.62-1.77a76.84,76.84,0,0,0,11.78-2.53c2.83-.91,4.67-1.9,5.46-2.92-4.13,5.39-9.85,12.84-16.22,21.54-6.18,8.44-12.93,18-19.44,28C77.15,74,71.08,84.09,65.91,94a172.42,172.42,0,0,0-12,28.15A181.75,181.75,0,0,0,43.27,93C38.65,82.81,33.2,72.47,27.57,62.6,21.8,52.48,15.84,42.86,10.42,34.43"/></clipPath><linearGradient id="linear-gradient-5" x1="43.76" y1="104.1" x2="63.8" y2="105.86" gradientUnits="userSpaceOnUse"><stop offset="0.02" stop-color="#f2f2f2"/><stop offset="0.14" stop-color="#b20014"/><stop offset="0.31" stop-color="#7b0922"/><stop offset="0.35" stop-color="#620010"/><stop offset="0.45" stop-color="#890017"/><stop offset="0.54" stop-color="#d90522"/><stop offset="0.55" stop-color="#da0d29"/><stop offset="0.56" stop-color="#dd243e"/><stop offset="0.57" stop-color="#e2485f"/><stop offset="0.58" stop-color="#e97c8d"/><stop offset="0.59" stop-color="#f2bcc6"/><stop offset="0.61" stop-color="#faf3f8"/><stop offset="0.64" stop-color="#faf3f8"/><stop offset="0.65" stop-color="#f8e5ec"/><stop offset="0.66" stop-color="#f0abb7"/><stop offset="0.67" stop-color="#e97889"/><stop offset="0.68" stop-color="#e34f64"/><stop offset="0.69" stop-color="#df2f47"/><stop offset="0.7" stop-color="#dc1833"/><stop offset="0.71" stop-color="#da0a26"/><stop offset="0.72" stop-color="#d90522"/><stop offset="0.83" stop-color="#610816"/><stop offset="0.9" stop-color="#550110"/><stop offset="0.94" stop-color="#550110"/><stop offset="0.97" stop-color="#53050e"/><stop offset="1" stop-color="#441a20"/></linearGradient><linearGradient id="linear-gradient-6" x1="44.08" y1="105.88" x2="65.01" y2="105.88" xlink:href="#linear-gradient"/><linearGradient id="linear-gradient-7" x1="30.75" y1="69.13" x2="82.81" y2="78.2" gradientUnits="userSpaceOnUse"><stop offset="0.02" stop-color="#f2f2f2"/><stop offset="0.14" stop-color="#b20014"/><stop offset="0.31" stop-color="#7b0922"/><stop offset="0.35" stop-color="#620010"/><stop offset="0.45" stop-color="#890017"/><stop offset="0.51" stop-color="#d90522"/><stop offset="0.51" stop-color="#da0d29"/><stop offset="0.52" stop-color="#dd243e"/><stop offset="0.53" stop-color="#e2485f"/><stop offset="0.54" stop-color="#e97c8d"/><stop offset="0.55" stop-color="#f2bcc6"/><stop offset="0.56" stop-color="#faf3f8"/><stop offset="0.6" stop-color="#faf3f8"/><stop offset="0.6" stop-color="#f8e5ec"/><stop offset="0.62" stop-color="#f0abb7"/><stop offset="0.64" stop-color="#e97889"/><stop offset="0.66" stop-color="#e34f64"/><stop offset="0.67" stop-color="#df2f47"/><stop offset="0.69" stop-color="#dc1833"/><stop offset="0.7" stop-color="#da0a26"/><stop offset="0.72" stop-color="#d90522"/><stop offset="0.83" stop-color="#610816"/><stop offset="0.9" stop-color="#550110"/><stop offset="0.94" stop-color="#550110"/><stop offset="0.97" stop-color="#53050e"/><stop offset="1" stop-color="#441a20"/></linearGradient><linearGradient id="linear-gradient-8" x1="28.57" y1="75.66" x2="82.17" y2="75.66" xlink:href="#linear-gradient"/><linearGradient id="linear-gradient-9" x1="13.45" y1="27.81" x2="101.11" y2="52.88" xlink:href="#linear-gradient-5"/><linearGradient id="linear-gradient-10" x1="10.57" y1="45.89" x2="102.57" y2="45.89" xlink:href="#linear-gradient"/><linearGradient id="linear-gradient-11" x1="6.24" y1="2.78" x2="117.8" y2="30.69" gradientUnits="userSpaceOnUse"><stop offset="0.02" stop-color="#f2f2f2"/><stop offset="0.14" stop-color="#b20014"/><stop offset="0.31" stop-color="#7b0922"/><stop offset="0.35" stop-color="#620010"/><stop offset="0.45" stop-color="#890017"/><stop offset="0.51" stop-color="#d90522"/><stop offset="0.52" stop-color="#da0d29"/><stop offset="0.53" stop-color="#dd243e"/><stop offset="0.54" stop-color="#e2485f"/><stop offset="0.55" stop-color="#e97c8d"/><stop offset="0.57" stop-color="#f2bcc6"/><stop offset="0.58" stop-color="#faf3f8"/><stop offset="0.67" stop-color="#faf3f8"/><stop offset="0.67" stop-color="#f8e5ec"/><stop offset="0.68" stop-color="#f0abb7"/><stop offset="0.69" stop-color="#e97889"/><stop offset="0.69" stop-color="#e34f64"/><stop offset="0.7" stop-color="#df2f47"/><stop offset="0.71" stop-color="#dc1833"/><stop offset="0.71" stop-color="#da0a26"/><stop offset="0.72" stop-color="#d90522"/><stop offset="0.83" stop-color="#610816"/><stop offset="0.9" stop-color="#550110"/><stop offset="0.94" stop-color="#550110"/><stop offset="0.97" stop-color="#53050e"/><stop offset="1" stop-color="#441a20"/></linearGradient><linearGradient id="linear-gradient-12" x1="3.26" y1="22.65" x2="119.47" y2="22.65" gradientUnits="userSpaceOnUse"><stop offset="0.01" stop-color="#5a0000"/><stop offset="0.51" stop-color="#530000" stop-opacity="0"/><stop offset="1" stop-color="#4e0000"/></linearGradient></defs><title>Vortec Square 120</title><g class="cls-2"><g class="cls-3"><path class="cls-4" d="M64.51,96.75q-.93,1.85-1.82,3.69T61,104.1q-.83,1.82-1.62,3.62t-1.51,3.58c3.82-10.13-3.89-15.6-6.43-17.4,7.27-1.75,13.92.57,13.09,2.85"/><path class="cls-5" d="M82,66.38q-1.2,1.88-2.38,3.77t-2.33,3.78Q76.14,75.82,75,77.72t-2.22,3.79c3.75-9.66-6.4-18.7-25.84-23C67,56,83.72,61.65,82,66.38"/><path class="cls-6" d="M42,26.64c33.55,3,54,12.48,50.77,23.55l2.46-3.56,2.45-3.49,2.42-3.41,2.39-3.32C101.89,29.18,71.93,24.34,42,26.64Z"/><path class="cls-7" d="M119.15,13.95l-1.69,2.23-1.84,2.42-2,2.6L111.58,24C112.29,12.62,73.85,5.9,35.51,5.14c39.81-2.25,81.24,2.11,83.64,8.81"/></g></g><g class="cls-2"><g class="cls-8"><path d="M44.25,95.21l-.19-.37.5,1.14.43.91-.18-.42-.18-.42-.19-.42-.19-.42"/><path d="M28.72,64.61l-.16-.27.8,1.42.29.49-.23-.41-.23-.41L28.95,65l-.23-.41"/><path d="M10.7,34.87l0-.08.84,1.31.08.13-.22-.34-.22-.34-.22-.34-.22-.34"/></g></g><g class="cls-2"><g class="cls-9"><path d="M64.51,96.75l-.08.2-1.28,2.57c-3.48,7.37-3.61,7.66-5.19,11.49l-.19.45.06-.15q.73-1.78,1.51-3.58T61,104.1q.84-1.82,1.72-3.66t1.82-3.69"/><path d="M82,66.38a6.49,6.49,0,0,1-.37.84c-1.64,2.61-3.84,6.09-5.45,8.73-1.19,2-2.79,4.66-4,6.69.17-.34.42-.77.57-1.12q1.1-1.9,2.22-3.79t2.28-3.79q1.16-1.9,2.33-3.78T82,66.38"/><path d="M102.45,36.4a5.76,5.76,0,0,1-.52,1.3l-2.78,3.85c-2.25,3.17-5.24,7.4-7.47,10.6a20.5,20.5,0,0,0,1.05-2l2.46-3.56,2.45-3.49,2.42-3.41,2.39-3.32"/><path d="M119.15,13.95a3.59,3.59,0,0,1-.36,1.32l-5.37,7L110.57,26a11.63,11.63,0,0,0,1-2.07l2.08-2.77,2-2.6,1.84-2.42,1.69-2.23"/></g></g><g class="cls-2"><g class="cls-10"><path class="cls-11" d="M64.56,97.19a3.09,3.09,0,0,1-1,.79c-5.25,2.89-16.26,1.29-19-2.78l.19.42.19.42.18.42.18.42c1.92,3.63,3.88,5.89,7.58,9.85,2.91,3.12,4.24,4.54,3.89,7.45.46-.86.61-1.16.94-1.88q.74-1.85,1.54-3.72t1.66-3.76q.86-1.9,1.78-3.8t1.89-3.84"/><path class="cls-12" d="M81.75,67.45a7.41,7.41,0,0,1-2.47,1.9C65.94,76,35.4,73.08,29,64.61l.23.41.23.41.23.41.23.41c1.1,1.64,4.46,6.63,13.8,11.4C52,81.88,60.85,83.5,69.41,86.44a18.67,18.67,0,0,0,2.69-3.17q1.14-2,2.31-4t2.39-4q1.21-2,2.45-4t2.5-3.95"/><path class="cls-13" d="M102.16,37.77a9.51,9.51,0,0,1-3.61,2.44C77.17,48.94,19.88,45.44,11,34.87l.44.68.44.68c12.39,16.17,63,22,75.66,20.17a19.27,19.27,0,0,0,4.26-4q1.32-1.91,2.62-3.77L97,44.92l2.59-3.62,2.55-3.53"/><path class="cls-14" d="M119.07,15.27a7.53,7.53,0,0,1-2.8,1.85,43.13,43.13,0,0,1-8.21,2.14c-2.5.51-5.36,1-8.55,1.4s-6.81.79-10.68,1.1-8.08.54-12.5.71-9.08.25-13.88.24c-6.55,0-12.93-.17-19-.48S31.8,21.5,26.65,21s-9.59-1.17-13.53-1.87a82.61,82.61,0,0,1-9.67-2.25C34.69,29.32,95.72,31.33,107.3,29.11a14,14,0,0,0,3.54-3l2.27-3,2.14-2.81,2-2.61,1.84-2.4"/></g></g></svg>