<?xml version="1.0" encoding="utf-8"?>
<!-- Generator: Adobe Illustrator 21.0.0, SVG Export Plug-In . SVG Version: 6.00 Build 0)  -->
<svg version="1.1" id="Layer_1" xmlns="http://www.w3.org/2000/svg" xmlns:xlink="http://www.w3.org/1999/xlink" x="0px" y="0px"
	 viewBox="0 0 240 240" style="enable-background:new 0 0 240 240;" xml:space="preserve">
<style type="text/css">
	.st0{fill:#A4C639;}
	.st1{fill:#FFFFFF;}
</style>
<g>
	<ellipse class="st0" cx="120.8" cy="77.3" rx="61.9" ry="57.1"/>
	<path class="st1" d="M120.8,141.6c-38.1,0-69.1-28.8-69.1-64.3S82.7,13,120.8,13c38.1,0,69.1,28.8,69.1,64.3
		S158.9,141.6,120.8,141.6z M120.8,27.4c-30.1,0-54.7,22.4-54.7,49.9s24.5,49.9,54.7,49.9s54.7-22.4,54.7-49.9
		S150.9,27.4,120.8,27.4z"/>
	<path class="st0" d="M73.9,63h93.8c8.3,0,15,6.7,15,15v93.8c0,8.3-6.7,15-15,15H73.9c-8.3,0-15-6.7-15-15V78
		C58.9,69.7,65.6,63,73.9,63z"/>
	<path class="st1" d="M167.7,193.9H73.9c-12.2,0-22.2-9.9-22.2-22.2V78c0-12.2,9.9-22.2,22.2-22.2h93.8c12.2,0,22.2,9.9,22.2,22.2
		v93.8C189.9,184,179.9,193.9,167.7,193.9z M73.9,70.2c-4.3,0-7.8,3.5-7.8,7.8v93.8c0,4.3,3.5,7.8,7.8,7.8h93.8
		c4.3,0,7.8-3.5,7.8-7.8V78c0-4.3-3.5-7.8-7.8-7.8H73.9z"/>
	<path class="st0" d="M80.3,5L80.3,5c-2.1,1.2-2.9,3.9-1.7,6l24.1,43.4c1.2,2.1,3.9,2.9,6,1.7s2.9-3.9,1.7-6L86.3,6.8
		C85.1,4.6,82.4,3.9,80.3,5z"/>
	<path class="st1" d="M106.5,58.7c-2.3,0-4.5-1.2-5.6-3.3L76.8,12c-1.7-3.1-0.6-7,2.5-8.7c1.5-0.8,3.2-1,4.9-0.6
		c1.6,0.5,3,1.6,3.8,3.1l24.1,43.4c0.8,1.5,1,3.2,0.6,4.9c-0.5,1.6-1.6,3-3.1,3.8C108.6,58.5,107.5,58.7,106.5,58.7z M81.2,6.8
		c-1.2,0.6-1.6,2.1-0.9,3.3l24.1,43.4c0.6,1.2,2.1,1.6,3.3,0.9c1.2-0.6,1.6-2.1,0.9-3.3L84.5,7.7c-0.3-0.6-0.8-1-1.4-1.2
		C82.5,6.4,81.8,6.5,81.2,6.8z"/>
	<path class="st0" d="M201.7,77.3L201.7,77.3c-9,0-16.3,7.3-16.3,16.3v57.8c0,9,7.3,16.3,16.3,16.3s16.3-7.3,16.3-16.3V93.6
		C218,84.6,210.7,77.3,201.7,77.3z"/>
	<path class="st1" d="M201.7,171.3c-11,0-19.9-8.9-19.9-19.9V93.6c0-11,8.9-19.9,19.9-19.9s19.9,8.9,19.9,19.9v57.8
		C221.6,162.4,212.7,171.3,201.7,171.3z M201.7,80.9c-7,0-12.7,5.7-12.7,12.7v57.8c0,7,5.7,12.7,12.7,12.7s12.7-5.7,12.7-12.7V93.6
		C214.4,86.6,208.7,80.9,201.7,80.9z"/>
	<path class="st0" d="M143.9,143.2L143.9,143.2c-9,0-16.3,7.3-16.3,16.3v57.8c0,9,7.3,16.3,16.3,16.3s16.3-7.3,16.3-16.3v-57.8
		C160.2,150.5,152.9,143.2,143.9,143.2z"/>
	<path class="st1" d="M143.9,236.1c-10.4,0-18.8-8.4-18.8-18.8v-57.8c0-10.4,8.4-18.8,18.8-18.8s18.8,8.4,18.8,18.8v57.8
		C162.7,227.7,154.3,236.1,143.9,236.1z M143.9,145.7c-7.6,0-13.8,6.2-13.8,13.8v57.8c0,7.6,6.2,13.8,13.8,13.8s13.8-6.2,13.8-13.8
		v-57.8C157.7,151.9,151.5,145.7,143.9,145.7z"/>
	<path class="st0" d="M161.3,5L161.3,5c2.1,1.2,2.9,3.9,1.7,6L139,54.5c-1.2,2.1-3.9,2.9-6,1.7c-2.1-1.2-2.9-3.9-1.7-6l24.1-43.4
		C156.5,4.6,159.2,3.9,161.3,5z"/>
	<path class="st1" d="M135.1,58.7c-1.1,0-2.1-0.3-3.1-0.8c-3.1-1.7-4.2-5.6-2.5-8.7l24.1-43.4c0.8-1.5,2.2-2.6,3.8-3.1
		c1.6-0.5,3.4-0.3,4.9,0.6c3.1,1.7,4.2,5.6,2.5,8.7l-24.1,43.4c-0.8,1.5-2.2,2.6-3.8,3.1C136.3,58.6,135.7,58.7,135.1,58.7z
		 M159.2,6.5c-0.2,0-0.4,0-0.7,0.1c-0.6,0.2-1.1,0.6-1.4,1.2L133,51.1c-0.6,1.2-0.2,2.6,0.9,3.3c0.6,0.3,1.2,0.4,1.8,0.2
		c0.6-0.2,1.1-0.6,1.4-1.2l24.1-43.4c0.6-1.2,0.2-2.6-0.9-3.3v0C160,6.6,159.6,6.5,159.2,6.5z"/>
	<path class="st0" d="M39.9,77.3L39.9,77.3c9,0,16.3,7.3,16.3,16.3v57.8c0,9-7.3,16.3-16.3,16.3s-16.3-7.3-16.3-16.3V93.6
		C23.6,84.6,30.9,77.3,39.9,77.3z"/>
	<path class="st1" d="M39.9,171.3c-11,0-19.9-8.9-19.9-19.9V93.6c0-11,8.9-19.9,19.9-19.9s19.9,8.9,19.9,19.9v57.8
		C59.8,162.4,50.9,171.3,39.9,171.3z M39.9,80.9c-7,0-12.7,5.7-12.7,12.7v57.8c0,7,5.7,12.7,12.7,12.7s12.7-5.7,12.7-12.7V93.6
		C52.6,86.6,46.9,80.9,39.9,80.9z"/>
	<path class="st0" d="M97.7,143.2L97.7,143.2c9,0,16.3,7.3,16.3,16.3v57.8c0,9-7.3,16.3-16.3,16.3c-9,0-16.3-7.3-16.3-16.3v-57.8
		C81.4,150.5,88.7,143.2,97.7,143.2z"/>
	<path class="st1" d="M97.7,236.1c-10.4,0-18.8-8.4-18.8-18.8v-57.8c0-10.4,8.4-18.8,18.8-18.8s18.8,8.4,18.8,18.8v57.8
		C116.5,227.7,108.1,236.1,97.7,236.1z M97.7,145.7c-7.6,0-13.8,6.2-13.8,13.8v57.8c0,7.6,6.2,13.8,13.8,13.8
		c7.6,0,13.8-6.2,13.8-13.8v-57.8C111.5,151.9,105.3,145.7,97.7,145.7z"/>
	<ellipse class="st0" cx="120.8" cy="77.3" rx="61.9" ry="57.1"/>
	<path class="st0" d="M73.9,63h93.8c8.3,0,15,6.7,15,15v93.8c0,8.3-6.7,15-15,15H73.9c-8.3,0-15-6.7-15-15V78
		C58.9,69.7,65.6,63,73.9,63z"/>
	<line class="st1" x1="56.2" y1="79.7" x2="185.4" y2="79.7"/>
	<rect x="56.2" y="76.1" class="st1" width="129.1" height="7.2"/>
	<circle class="st1" cx="92.2" cy="49.4" r="2.7"/>
	<path class="st1" d="M92.3,55.7c-3.5,0-6.3-2.8-6.3-6.3s2.8-6.3,6.3-6.3s6.3,2.8,6.3,6.3S95.7,55.7,92.3,55.7z M92.3,48.5
		c-0.5,0-0.9,0.4-0.9,0.9s0.4,0.9,0.9,0.9s0.9-0.4,0.9-0.9S92.7,48.5,92.3,48.5z"/>
	<circle class="st1" cx="149.3" cy="49.4" r="2.7"/>
	<path class="st1" d="M149.3,55.7c-3.5,0-6.3-2.8-6.3-6.3s2.8-6.3,6.3-6.3s6.3,2.8,6.3,6.3S152.8,55.7,149.3,55.7z M149.3,48.5
		c-0.5,0-0.9,0.4-0.9,0.9s0.4,0.9,0.9,0.9c0.5,0,0.9-0.4,0.9-0.9S149.8,48.5,149.3,48.5z"/>
</g>
</svg>
