<?xml version="1.0" encoding="utf-8"?>
<!-- Generator: Adobe Illustrator 21.0.0, SVG Export Plug-In . SVG Version: 6.00 Build 0)  -->
<svg version="1.1" id="Layer_1" xmlns="http://www.w3.org/2000/svg" xmlns:xlink="http://www.w3.org/1999/xlink" x="0px" y="0px"
	 viewBox="0 0 240 240" style="enable-background:new 0 0 240 240;" xml:space="preserve">
<style type="text/css">
	.st0{clip-path:url(#SVGID_2_);fill:#B3B3B3;}
	.st1{fill:#B3B3B3;}
</style>
<g>
	<g>
		<defs>
			<rect id="SVGID_1_" x="24.1" y="2.3" width="191.7" height="235.4"/>
		</defs>
		<clipPath id="SVGID_2_">
			<use xlink:href="#SVGID_1_"  style="overflow:visible;"/>
		</clipPath>
		<path class="st0" d="M184.3,127.4c-0.3-29.8,24.3-44.1,25.4-44.8c-13.8-20.3-35.4-23-43.1-23.4C148.3,57.4,130.8,70,121.6,70
			c-9.3,0-23.7-10.5-38.8-10.2c-20,0.3-38.4,11.6-48.7,29.5c-20.8,36-5.3,89.4,14.9,118.6c9.9,14.3,21.7,30.4,37.2,29.8
			c14.9-0.6,20.6-9.6,38.6-9.6s23.1,9.6,38.9,9.4c16-0.3,26.2-14.6,36-28.9c11.3-16.6,16-32.6,16.3-33.5
			C215.5,174.9,184.6,163,184.3,127.4"/>
	</g>
	<path class="st1" d="M154.6,39.9c8.2-10,13.8-23.8,12.2-37.6c-11.8,0.5-26.2,7.9-34.7,17.9c-7.6,8.8-14.3,22.9-12.5,36.4
		C132.9,57.6,146.4,49.8,154.6,39.9"/>
</g>
</svg>
