<?xml version="1.0" encoding="utf-8"?>
<!-- Generator: Adobe Illustrator 21.0.0, SVG Export Plug-In . SVG Version: 6.00 Build 0)  -->
<svg version="1.1" id="Layer_1" xmlns="http://www.w3.org/2000/svg" xmlns:xlink="http://www.w3.org/1999/xlink" x="0px" y="0px"
	 viewBox="0 0 240 240" style="enable-background:new 0 0 240 240;" xml:space="preserve">
<style type="text/css">
	.st0{fill:#444444;}
</style>
<g>
	<path class="st0" d="M218.2,234.5h-38.9l2.7-32.7H163l-2.7,32.7H79.8L77,201.8H58l2.7,32.7H21.8L0,92.7L54.5,5.5h130.9L240,92.7
		L218.2,234.5z M174.5,49.1h-35.1l2.3,16.4H98.2l2.3-16.4H65.5L43.6,92.7L54.5,180h130.9l10.9-87.3L174.5,49.1z M155.5,151
		c-3,0-5.5-9.1-5.5-20.3c0-11.2,2.4-20.3,5.5-20.3c3,0,5.5,9.1,5.5,20.3C160.9,142,158.5,151,155.5,151z M86.6,152.7
		c-3,0-5.5-9.1-5.5-20.3c0-11.2,2.4-20.3,5.5-20.3c3,0,5.5,9.1,5.5,20.3C92,143.6,89.6,152.7,86.6,152.7z"/>
</g>
</svg>
