<?xml version="1.0" encoding="UTF-8" standalone="no"?>
<!-- Created with Inkscape (http://www.inkscape.org/) -->

<svg
   xmlns:dc="http://purl.org/dc/elements/1.1/"
   xmlns:cc="http://creativecommons.org/ns#"
   xmlns:rdf="http://www.w3.org/1999/02/22-rdf-syntax-ns#"
   xmlns:svg="http://www.w3.org/2000/svg"
   xmlns="http://www.w3.org/2000/svg"
   xmlns:sodipodi="http://sodipodi.sourceforge.net/DTD/sodipodi-0.dtd"
   xmlns:inkscape="http://www.inkscape.org/namespaces/inkscape"
   id="svg2"
   version="1.1"
   inkscape:version="0.91 r13725"
   width="1120"
   height="500"
   viewBox="0 0 1120 500"
   sodipodi:docname="cordova-logo-dark-gray-by-gengns.svg">
  <metadata
     id="metadata8">
    <rdf:RDF>
      <cc:Work
         rdf:about="">
        <dc:format>image/svg+xml</dc:format>
        <dc:type
           rdf:resource="http://purl.org/dc/dcmitype/StillImage" />
        <dc:title></dc:title>
      </cc:Work>
    </rdf:RDF>
  </metadata>
  <defs
     id="defs6" />
  <sodipodi:namedview
     pagecolor="#ffffff"
     bordercolor="#666666"
     borderopacity="1"
     objecttolerance="10"
     gridtolerance="10"
     guidetolerance="10"
     inkscape:pageopacity="0"
     inkscape:pageshadow="2"
     inkscape:window-width="928"
     inkscape:window-height="1028"
     id="namedview4"
     showgrid="false"
     showguides="true"
     inkscape:guide-bbox="true"
     inkscape:zoom="0.62688253"
     inkscape:cx="745.32531"
     inkscape:cy="-347.54433"
     inkscape:window-x="992"
     inkscape:window-y="24"
     inkscape:window-maximized="0"
     inkscape:current-layer="text4203" />
  <g
     id="g4211"
     transform="translate(2.4138849,484.8205)">
    <g
       style="font-style:normal;font-variant:normal;font-weight:300;font-stretch:normal;font-size:38.37256622px;line-height:125%;font-family:'Helvetica Neue';-inkscape-font-specification:'Helvetica Neue Light';letter-spacing:0px;word-spacing:0px;fill:#444444;fill-opacity:1;stroke:none;stroke-width:1px;stroke-linecap:butt;stroke-linejoin:miter;stroke-opacity:1"
       id="text4201">
      <path
         d="m 489.86596,-305.3295 -10.51408,27.39801 4.95006,0 2.57096,-7.25241 10.93618,0 2.57096,7.25241 5.14193,0 -10.55246,-27.39801 -5.10355,0 z m -1.68839,16.5002 4.14423,-11.78037 0.11512,0 4.10587,11.78037 -8.36522,0 z"
         style="font-style:normal;font-variant:normal;font-weight:500;font-stretch:normal;font-family:'Helvetica Neue';-inkscape-font-specification:'Helvetica Neue Medium'"
         id="path3344" />
      <path
         d="m 508.16847,-305.3295 0,27.39801 4.79657,0 0,-10.51408 7.29079,0 c 1.91863,0 3.49191,-0.26861 4.7582,-0.80583 1.18955,-0.53721 2.14886,-1.26629 2.83957,-2.11049 0.65233,-0.80582 1.11281,-1.72676 1.34304,-2.72445 0.23024,-0.99769 0.34535,-1.88025 0.38373,-2.76282 0,-0.8442 -0.15349,-1.76514 -0.38373,-2.76283 -0.23023,-0.99768 -0.69071,-1.91863 -1.34304,-2.76282 -0.69071,-0.8442 -1.61165,-1.53491 -2.83957,-2.11049 -1.22792,-0.53722 -2.83957,-0.8442 -4.7582,-0.8442 l -12.08736,0 z m 4.79657,12.96993 0,-9.05593 7.09893,0 c 0.61396,0 1.22792,0.0768 1.80351,0.19186 0.53722,0.15349 1.03606,0.38373 1.49653,0.72908 0.4221,0.34536 0.76745,0.80583 1.03606,1.38142 0.23024,0.61396 0.34535,1.34304 0.38373,2.2256 0,0.88257 -0.15349,1.61165 -0.46048,2.18724 -0.30698,0.57559 -0.6907,1.03606 -1.15117,1.38141 -0.46047,0.34536 -0.99769,0.57559 -1.53491,0.72908 -0.57558,0.15349 -1.1128,0.23024 -1.65002,0.23024 l -7.02218,0 z"
         style="font-style:normal;font-variant:normal;font-weight:500;font-stretch:normal;font-family:'Helvetica Neue';-inkscape-font-specification:'Helvetica Neue Medium'"
         id="path3346" />
      <path
         d="m 538.28134,-305.3295 -10.51408,27.39801 4.95006,0 2.57096,-7.25241 10.93619,0 2.57096,7.25241 5.14192,0 -10.55245,-27.39801 -5.10356,0 z m -1.68839,16.5002 4.14424,-11.78037 0.11512,0 4.10586,11.78037 -8.36522,0 z"
         style="font-style:normal;font-variant:normal;font-weight:500;font-stretch:normal;font-family:'Helvetica Neue';-inkscape-font-specification:'Helvetica Neue Medium'"
         id="path3348" />
      <path
         d="m 575.07943,-296.61893 4.79657,0 c -0.15349,-1.45816 -0.57558,-2.8012 -1.18955,-3.95237 -0.65233,-1.15118 -1.49653,-2.11049 -2.53258,-2.91632 -1.03606,-0.80582 -2.22561,-1.41978 -3.56865,-1.84188 -1.38142,-0.4221 -2.8012,-0.65233 -4.3361,-0.65233 -2.07212,0 -3.91401,0.38372 -5.52565,1.15117 -1.61165,0.76745 -2.99306,1.80351 -4.10587,3.10818 -1.15117,1.30467 -1.99537,2.83957 -2.60933,4.56634 -0.61396,1.76513 -0.88257,3.60702 -0.88257,5.52565 0,1.99537 0.26861,3.83725 0.88257,5.56402 0.61396,1.76514 1.45816,3.26167 2.60933,4.56633 1.11281,1.30467 2.49422,2.34073 4.10587,3.10818 1.61164,0.76745 3.45353,1.11281 5.52565,1.11281 1.65002,0 3.18492,-0.26861 4.56633,-0.80583 1.38141,-0.53721 2.57096,-1.26629 3.60702,-2.26398 0.99769,-0.99769 1.80351,-2.14886 2.41747,-3.53028 0.61397,-1.34304 0.95932,-2.83957 1.07444,-4.48959 l -4.68146,0 c -0.11511,0.99769 -0.34535,1.957 -0.65233,2.8012 -0.34535,0.88257 -0.80582,1.65002 -1.38141,2.30236 -0.61396,0.65233 -1.30467,1.15117 -2.11049,1.5349 -0.8442,0.38372 -1.76514,0.53721 -2.83957,0.53721 -1.45816,0 -2.72446,-0.2686 -3.79889,-0.88257 -1.07443,-0.57558 -1.91863,-1.34304 -2.57096,-2.34072 -0.69071,-0.99769 -1.18955,-2.11049 -1.49653,-3.37679 -0.30698,-1.22792 -0.46047,-2.49421 -0.46047,-3.83725 -0.0384,-1.2663 0.15349,-2.57097 0.46047,-3.83726 0.30698,-1.22792 0.80582,-2.34073 1.49653,-3.33841 0.65233,-0.99769 1.49653,-1.76514 2.57096,-2.3791 1.07443,-0.57559 2.30236,-0.8442 3.79889,-0.88257 0.95931,0 1.84188,0.15349 2.60933,0.4221 0.76745,0.2686 1.41979,0.65233 1.99537,1.1128 0.53722,0.49884 0.99769,1.07443 1.38142,1.72677 0.34535,0.6907 0.61396,1.41978 0.84419,2.18723 z"
         style="font-style:normal;font-variant:normal;font-weight:500;font-stretch:normal;font-family:'Helvetica Neue';-inkscape-font-specification:'Helvetica Neue Medium'"
         id="path3350" />
      <path
         d="m 584.19892,-305.3295 0,27.39801 4.79657,0 0,-12.35596 12.47108,0 0,12.35596 4.79657,0 0,-27.39801 -4.79657,0 0,10.89781 -12.47108,0 0,-10.89781 -4.79657,0 z"
         style="font-style:normal;font-variant:normal;font-weight:500;font-stretch:normal;font-family:'Helvetica Neue';-inkscape-font-specification:'Helvetica Neue Medium'"
         id="path3352" />
      <path
         d="m 612.04421,-305.3295 0,27.39801 19.99211,0 0,-4.14424 -15.19554,0 0,-8.01986 13.81413,0 0,-3.914 -13.81413,0 0,-7.17567 14.92693,0 0,-4.14424 -19.7235,0 z"
         style="font-style:normal;font-variant:normal;font-weight:500;font-stretch:normal;font-family:'Helvetica Neue';-inkscape-font-specification:'Helvetica Neue Medium'"
         id="path3354" />
    </g>
    <g
       transform="scale(1.0257435,0.97490256)"
       style="font-style:normal;font-variant:normal;font-weight:300;font-stretch:normal;font-size:109.95664215px;line-height:125%;font-family:'Helvetica Neue';-inkscape-font-specification:'Helvetica Neue Light';letter-spacing:0px;word-spacing:0px;fill:#444444;fill-opacity:1;stroke:none;stroke-width:1px;stroke-linecap:butt;stroke-linejoin:miter;stroke-opacity:1"
       id="text4203">
      <path
         d="m 525.22358,-244.73404 c -0.65974,-2.96883 -1.75931,-5.60779 -3.2987,-8.02683 -1.53939,-2.41905 -3.2987,-4.39827 -5.49783,-6.04762 -2.19914,-1.53939 -4.50823,-2.74892 -7.14719,-3.62857 -2.63895,-0.87965 -5.27791,-1.31948 -8.13679,-1.31948 -5.27792,0 -9.67618,0.98961 -13.41471,2.96883 -3.73852,1.97922 -6.81731,4.61818 -9.23636,7.91688 -2.41904,3.2987 -4.17835,6.92727 -5.27791,10.99566 -1.09957,4.17836 -1.64935,8.35671 -1.64935,12.64502 0,4.28831 0.54978,8.46666 1.64935,12.64501 1.09956,4.17835 2.85887,7.80692 5.27791,11.10562 2.41905,3.2987 5.49784,5.8277 9.23636,7.80692 3.73853,1.97922 8.13679,2.96883 13.41471,2.96883 3.62857,0 6.92727,-0.65974 9.8961,-1.97922 2.85887,-1.20952 5.38788,-3.07878 7.58701,-5.38787 2.08918,-2.19914 3.73853,-4.83809 5.16796,-7.91688 1.20952,-3.07879 2.08918,-6.37749 2.529,-9.8961 l 7.47706,0 c -0.54979,4.83809 -1.64935,9.23636 -3.40866,13.08484 -1.75931,3.95844 -4.0684,7.25714 -6.81731,9.8961 -2.85887,2.74892 -6.15757,4.83809 -9.8961,6.26753 -3.73853,1.53939 -7.91688,2.19913 -12.53506,2.19913 -6.15757,0 -11.6554,-1.09957 -16.27358,-3.2987 -4.61818,-2.19913 -8.46666,-5.27792 -11.54545,-9.01644 -3.07878,-3.73853 -5.38787,-8.02684 -6.92727,-12.97489 -1.53939,-4.83809 -2.30909,-10.00605 -2.30909,-15.50388 0,-5.38788 0.7697,-10.55584 2.30909,-15.50389 1.5394,-4.83809 3.84849,-9.23636 6.92727,-12.97488 2.96883,-3.73853 6.92727,-6.81732 11.54545,-9.01645 4.61818,-2.19913 10.11601,-3.2987 16.27358,-3.40865 3.73853,0 7.3671,0.54978 10.88571,1.64935 3.51861,1.09956 6.81731,2.74891 9.67619,4.94804 2.85887,2.19914 5.27791,4.8381 7.25713,7.91688 1.97922,3.18875 3.18875,6.81731 3.73853,10.88571 l -7.47705,0 z"
         style="font-style:normal;font-variant:normal;font-weight:300;font-stretch:normal;font-family:'Helvetica Neue';-inkscape-font-specification:'Helvetica Neue Light'"
         id="path3357" />
      <path
         d="m 548.43817,-229.23015 c 0,4.28831 0.54979,8.46666 1.64935,12.64501 1.09957,4.17835 2.85888,7.80692 5.27792,11.10562 2.41905,3.2987 5.49783,5.8277 9.23636,7.80692 3.73852,1.97922 8.13679,2.96883 13.41471,2.96883 5.16796,0 9.56623,-0.98961 13.30475,-2.96883 3.73853,-1.97922 6.70736,-4.50822 9.1264,-7.80692 2.41905,-3.2987 4.17836,-6.92727 5.27792,-11.10562 1.09957,-4.17835 1.64935,-8.3567 1.75931,-12.64501 0,-4.28831 -0.65974,-8.46666 -1.75931,-12.64502 -1.09956,-4.06839 -2.85887,-7.69696 -5.27792,-10.99566 -2.41904,-3.2987 -5.38787,-5.93766 -9.1264,-7.91688 -3.73852,-1.97922 -8.13679,-2.96883 -13.30475,-2.96883 -5.27792,0 -9.67619,0.98961 -13.41471,2.96883 -3.73853,1.97922 -6.81731,4.61818 -9.23636,7.91688 -2.41904,3.2987 -4.17835,6.92727 -5.27792,10.99566 -1.09956,4.17836 -1.64935,8.35671 -1.64935,12.64502 z m -7.47705,0 c 0,-5.38788 0.7697,-10.55584 2.30909,-15.50389 1.53939,-4.83809 3.84848,-9.23636 6.92727,-12.97488 2.96883,-3.73853 6.92727,-6.81732 11.54545,-9.01645 4.61818,-2.19913 10.11601,-3.2987 16.27358,-3.40865 6.15757,0 11.54545,1.20952 16.16363,3.40865 4.61817,2.19913 8.46666,5.27792 11.54544,9.01645 3.07879,3.73852 5.38788,8.13679 6.92727,12.97488 1.53939,4.94805 2.30909,10.11601 2.30909,15.50389 0,5.49783 -0.7697,10.66579 -2.30909,15.50388 -1.53939,4.94805 -3.84848,9.23636 -6.92727,12.97489 -3.07878,3.73852 -6.92727,6.81731 -11.54544,9.01644 -4.61818,2.19913 -10.00606,3.2987 -16.16363,3.2987 -6.15757,0 -11.6554,-1.09957 -16.27358,-3.2987 -4.61818,-2.19913 -8.46667,-5.27792 -11.54545,-9.01644 -3.07879,-3.73853 -5.38788,-8.02684 -6.92727,-12.97489 -1.53939,-4.83809 -2.30909,-10.00605 -2.30909,-15.50388 z"
         style="font-style:normal;font-variant:normal;font-weight:300;font-stretch:normal;font-family:'Helvetica Neue';-inkscape-font-specification:'Helvetica Neue Light'"
         id="path3359" />
      <path
         d="m 634.0102,-231.20937 27.92899,0 c 2.19913,0 4.39826,-0.32987 6.48744,-0.98961 1.97922,-0.65974 3.73853,-1.75931 5.38788,-3.07879 1.42943,-1.31948 2.74891,-2.85887 3.62857,-4.72813 0.87965,-1.86927 1.31948,-4.0684 1.42943,-6.48745 0,-4.72813 -1.42943,-8.57661 -4.17835,-11.43549 -2.85887,-2.74891 -7.03723,-4.06839 -12.75497,-4.17835 l -27.92899,0 0,30.89782 z m -7.47705,-37.2753 35.95582,0 c 3.18874,0 6.26753,0.43982 9.1264,1.20952 2.85888,0.87965 5.38788,2.08918 7.58701,3.73852 2.19913,1.64935 3.84848,3.73853 5.16796,6.37749 1.31948,2.63896 1.97922,5.60779 1.97922,9.1264 0,5.05801 -1.31948,9.34632 -3.84848,12.97489 -2.63896,3.73852 -6.37748,6.04761 -11.43549,7.03722 l 0,0.21991 c 2.529,0.43983 4.61818,1.09957 6.37749,2.08918 1.64935,0.98961 2.96882,2.19913 4.06839,3.73853 1.09957,1.53939 1.86926,3.40865 2.30909,5.38787 0.43983,1.97922 0.7697,4.17835 0.98961,6.48744 0,1.31948 0.10996,2.96883 0.21991,4.8381 0,1.97921 0.21992,3.84848 0.43983,5.8277 0.10996,1.97922 0.54978,3.73852 0.98961,5.49783 0.43983,1.75931 1.09957,3.07879 1.97922,3.95844 l -8.24675,0 c -0.43982,-0.65974 -0.87965,-1.53939 -1.09956,-2.63896 -0.21992,-1.09957 -0.43983,-2.19913 -0.54979,-3.2987 -0.10995,-1.09957 -0.21991,-2.30909 -0.21991,-3.40866 -0.10996,-1.09956 -0.21991,-1.97922 -0.21991,-2.85887 -0.21992,-2.74892 -0.43983,-5.49783 -0.7697,-8.24675 -0.32987,-2.74891 -0.98961,-5.16796 -2.08918,-7.36709 -1.09956,-2.19914 -2.63896,-3.84848 -4.61818,-5.27792 -1.97922,-1.20952 -4.72813,-1.86926 -8.24674,-1.75931 l -28.36882,0 0,34.85626 -7.47705,0 0,-78.50904 z"
         style="font-style:normal;font-variant:normal;font-weight:300;font-stretch:normal;font-family:'Helvetica Neue';-inkscape-font-specification:'Helvetica Neue Light'"
         id="path3361" />
      <path
         d="m 699.98075,-268.48467 27.15929,0 c 11.87532,0.32987 20.89176,3.73852 26.93938,10.11601 6.04761,6.37748 9.1264,16.16362 9.1264,29.13851 0,13.08484 -3.07879,22.87098 -9.1264,29.24846 -6.04762,6.37749 -15.06406,9.78615 -26.93938,10.00606 l -27.15929,0 0,-78.50904 z m 7.47705,72.13155 15.94372,0 c 5.60779,0 10.44588,-0.54978 14.51427,-1.7593 4.0684,-1.20953 7.47705,-3.18875 10.11601,-5.82771 2.52901,-2.63895 4.50823,-6.04761 5.82771,-10.22596 1.20952,-4.17836 1.7593,-9.1264 1.86926,-15.06406 0,-5.8277 -0.65974,-10.88571 -1.86926,-15.06406 -1.31948,-4.17836 -3.18875,-7.58701 -5.82771,-10.22597 -2.63896,-2.63896 -6.04761,-4.50822 -10.11601,-5.71775 -4.06839,-1.20952 -8.90648,-1.86926 -14.51427,-1.86926 l -15.94372,0 0,65.75407 z"
         style="font-style:normal;font-variant:normal;font-weight:300;font-stretch:normal;font-family:'Helvetica Neue';-inkscape-font-specification:'Helvetica Neue Light'"
         id="path3363" />
      <path
         d="m 778.65988,-229.23015 c 0,4.28831 0.54979,8.46666 1.64935,12.64501 1.09957,4.17835 2.85888,7.80692 5.27792,11.10562 2.41905,3.2987 5.49783,5.8277 9.23636,7.80692 3.73853,1.97922 8.13679,2.96883 13.41471,2.96883 5.16796,0 9.56623,-0.98961 13.30475,-2.96883 3.73853,-1.97922 6.70736,-4.50822 9.1264,-7.80692 2.41905,-3.2987 4.17836,-6.92727 5.27792,-11.10562 1.09957,-4.17835 1.64935,-8.3567 1.75931,-12.64501 0,-4.28831 -0.65974,-8.46666 -1.75931,-12.64502 -1.09956,-4.06839 -2.85887,-7.69696 -5.27792,-10.99566 -2.41904,-3.2987 -5.38787,-5.93766 -9.1264,-7.91688 -3.73852,-1.97922 -8.13679,-2.96883 -13.30475,-2.96883 -5.27792,0 -9.67618,0.98961 -13.41471,2.96883 -3.73853,1.97922 -6.81731,4.61818 -9.23636,7.91688 -2.41904,3.2987 -4.17835,6.92727 -5.27792,10.99566 -1.09956,4.17836 -1.64935,8.35671 -1.64935,12.64502 z m -7.47705,0 c 0,-5.38788 0.7697,-10.55584 2.30909,-15.50389 1.53939,-4.83809 3.84848,-9.23636 6.92727,-12.97488 2.96883,-3.73853 6.92727,-6.81732 11.54545,-9.01645 4.61818,-2.19913 10.11601,-3.2987 16.27358,-3.40865 6.15757,0 11.54545,1.20952 16.16363,3.40865 4.61818,2.19913 8.46666,5.27792 11.54544,9.01645 3.07879,3.73852 5.38788,8.13679 6.92727,12.97488 1.53939,4.94805 2.30909,10.11601 2.30909,15.50389 0,5.49783 -0.7697,10.66579 -2.30909,15.50388 -1.53939,4.94805 -3.84848,9.23636 -6.92727,12.97489 -3.07878,3.73852 -6.92726,6.81731 -11.54544,9.01644 -4.61818,2.19913 -10.00606,3.2987 -16.16363,3.2987 -6.15757,0 -11.6554,-1.09957 -16.27358,-3.2987 -4.61818,-2.19913 -8.46666,-5.27792 -11.54545,-9.01644 -3.07879,-3.73853 -5.38788,-8.02684 -6.92727,-12.97489 -1.53939,-4.83809 -2.30909,-10.00605 -2.30909,-15.50388 z"
         style="font-style:normal;font-variant:normal;font-weight:300;font-stretch:normal;font-family:'Helvetica Neue';-inkscape-font-specification:'Helvetica Neue Light'"
         id="path3365" />
      <path
         d="m 848.17824,-268.48467 7.91688,0 25.50994,70.26229 0.21991,0 25.29003,-70.26229 7.91688,0 -29.13851,78.50904 -8.68657,0 -29.02856,-78.50904 z"
         style="font-style:normal;font-variant:normal;font-weight:300;font-stretch:normal;font-family:'Helvetica Neue';-inkscape-font-specification:'Helvetica Neue Light'"
         id="path3367" />
      <path
         d="m 927.13401,-220.76349 30.89782,0 -15.17402,-40.24413 -15.7238,40.24413 z m 11.87532,-47.72118 8.3567,0 30.78786,78.50904 -8.02683,0 -9.56623,-24.41038 -35.73591,0 -9.45627,24.41038 -7.91688,0 31.55756,-78.50904 z"
         style="font-style:normal;font-variant:normal;font-weight:300;font-stretch:normal;font-family:'Helvetica Neue';-inkscape-font-specification:'Helvetica Neue Light'"
         id="path3369" />
    </g>
    <g
       style="font-style:normal;font-variant:normal;font-weight:300;font-stretch:normal;font-size:25.20386696px;line-height:125%;font-family:'Helvetica Neue';-inkscape-font-specification:'Helvetica Neue Light';letter-spacing:0px;word-spacing:0px;fill:#444444;fill-opacity:1;stroke:none;stroke-width:1px;stroke-linecap:butt;stroke-linejoin:miter;stroke-opacity:1"
       id="text4207">
      <path
         d="m 994.90079,-263.51401 0,2.72202 5.69611,0 0,15.27354 3.1504,0 0,-15.27354 5.7213,0 0,-2.72202 -14.56781,0 z"
         style="font-style:normal;font-variant:normal;font-weight:500;font-stretch:normal;font-family:'Helvetica Neue';-inkscape-font-specification:'Helvetica Neue Medium'"
         id="path3372" />
      <path
         d="m 1011.529,-263.51401 0,17.99556 2.9993,0 0,-13.88733 0.05,0 4.9904,13.88733 2.596,0 4.9903,-13.88733 0.05,0 0,13.88733 2.9993,0 0,-17.99556 -4.3855,0 -4.8391,14.08896 -0.05,0 -4.9652,-14.08896 -4.4359,0 z"
         style="font-style:normal;font-variant:normal;font-weight:500;font-stretch:normal;font-family:'Helvetica Neue';-inkscape-font-specification:'Helvetica Neue Medium'"
         id="path3374" />
    </g>
  </g>
  <g
     id="g4163">
    <path
       id="path3362"
       d="M 149.95898 73.150391 L 69.822266 200.81836 L 102.61328 408.625 L 158.98633 408.625 L 154.38086 360.35742 L 183.30469 360.35742 L 186.98828 408.625 L 305.07812 408.625 L 308.76172 360.35742 L 337.50195 360.35742 L 332.89648 408.625 L 389.63672 408.625 L 422.06055 200.81836 L 341.92188 73.150391 L 149.95898 73.150391 z M 166.17188 136.70703 L 217.20117 136.70703 L 214.43945 160.65625 L 277.8125 160.65625 L 274.49609 136.70703 L 326.44727 136.70703 L 358.13477 200.81836 L 342.47461 329.03906 L 149.95898 329.03906 L 133.74805 200.81836 L 166.17188 136.70703 z "
       style="fill:#444444;fill-rule:evenodd;stroke:none;stroke-width:1px;stroke-linecap:butt;stroke-linejoin:miter;stroke-opacity:1;fill-opacity:1" />
    <ellipse
       ry="29.487261"
       rx="7.8811603"
       cy="256.70325"
       cx="298.1163"
       id="path3366"
       style="color:#000000;clip-rule:nonzero;display:inline;overflow:visible;visibility:visible;opacity:1;isolation:auto;mix-blend-mode:normal;color-interpolation:sRGB;color-interpolation-filters:linearRGB;solid-color:#000000;solid-opacity:1;fill:#444444;fill-opacity:1;fill-rule:nonzero;stroke:none;stroke-width:3;stroke-linecap:round;stroke-linejoin:miter;stroke-miterlimit:4;stroke-dasharray:none;stroke-dashoffset:0;stroke-opacity:1;marker:none;color-rendering:auto;image-rendering:auto;shape-rendering:auto;text-rendering:auto;enable-background:accumulate" />
    <ellipse
       style="color:#000000;clip-rule:nonzero;display:inline;overflow:visible;visibility:visible;opacity:1;isolation:auto;mix-blend-mode:normal;color-interpolation:sRGB;color-interpolation-filters:linearRGB;solid-color:#000000;solid-opacity:1;fill:#444444;fill-opacity:1;fill-rule:nonzero;stroke:none;stroke-width:3;stroke-linecap:round;stroke-linejoin:miter;stroke-miterlimit:4;stroke-dasharray:none;stroke-dashoffset:0;stroke-opacity:1;marker:none;color-rendering:auto;image-rendering:auto;shape-rendering:auto;text-rendering:auto;enable-background:accumulate"
       id="ellipse3368"
       cx="197.02902"
       cy="259.04807"
       rx="7.8811603"
       ry="29.487261" />
  </g>
</svg>
