<?xml version="1.0" encoding="utf-8"?>
<!-- Generator: Adobe Illustrator 21.0.0, SVG Export Plug-In . SVG Version: 6.00 Build 0)  -->
<svg version="1.1" id="Layer_1" xmlns="http://www.w3.org/2000/svg" xmlns:xlink="http://www.w3.org/1999/xlink" x="0px" y="0px"
	 viewBox="0 0 240 240" style="enable-background:new 0 0 240 240;" xml:space="preserve">
<style type="text/css">
	.st0{opacity:0.5686;}
	.st1{fill:#7F8082;}
	.st2{fill:url(#path3439_1_);stroke:#D6D6D6;stroke-linejoin:round;}
	.st3{fill:url(#path4771_1_);}
	.st4{fill:#293441;}
	.st5{fill:#2D3948;}
	.st6{fill:url(#path4761_1_);}
	.st7{fill:url(#path4794_1_);}
	.st8{fill:#2D3B48;}
	.st9{fill:url(#path4810_1_);stroke:#D6D6D6;stroke-linejoin:round;}
	.st10{opacity:0.449;fill:#363F49;enable-background:new    ;}
	.st11{opacity:0.3;fill:url(#path4832_1_);enable-background:new    ;}
	.st12{opacity:0.2;fill:url(#path4834_1_);enable-background:new    ;}
	.st13{opacity:0.8;enable-background:new    ;}
	.st14{fill:#05F0FF;}
	.st15{opacity:0.9;enable-background:new    ;}
	.st16{fill:#FFFFFF;}
	.st17{fill:none;stroke:#06EFFE;stroke-width:0.9177;stroke-linecap:round;}
	.st18{fill:#FEFFFF;}
	.st19{fill:none;stroke:#06EFFE;stroke-width:0.9544;stroke-linecap:round;}
	.st20{fill:none;stroke:#D6D6D6;stroke-linejoin:round;}
	.st21{opacity:0.343;fill:#FFFFFF;stroke:#FFFFFF;enable-background:new    ;}
</style>
<g id="path5096"  >
	<polygon class="st0" points="209.4,149 168.5,91 71.3,91 30.6,149 	"/>
</g>
<g id="g5122">
	<path id="path4824"   sodipodi:nodetypes="cccc" class="st1" d="M194,200.7l-15.5,32.5l-10.7-40.4
		L194,200.7z"/>
	<path id="path4822"   sodipodi:nodetypes="cccc" class="st1" d="M51,200.7l10.6,32.5l10.7-40.4
		L51,200.7z"/>
	
		<linearGradient id="path3439_1_" gradientUnits="userSpaceOnUse" x1="234.8497" y1="10.7512" x2="21.9837" y2="147.8941" gradientTransform="matrix(1 0 0 -1 -14.8492 231.3934)">
		<stop  offset="0" style="stop-color:#ACACAC"/>
		<stop  offset="1" style="stop-color:#E9E9E9"/>
	</linearGradient>
	<path id="path3439"   class="st2" d="M1.6,93.4L1.6,93.4l22,139.7h37.9l-3.1-32.5h19.4l2.5,32.5
		h79.4l2.5-32.5h19.3l-3.1,32.5h38.1l21.8-139.7l0,0L1.6,93.4L1.6,93.4z"/>
	
		<radialGradient id="path4771_1_" cx="65.8566" cy="891.1949" r="10.9259" gradientTransform="matrix(0.9231 -11.5077 5.8964 0.473 -5259.2056 512.1042)" gradientUnits="userSpaceOnUse">
		<stop  offset="0" style="stop-color:#25303B"/>
		<stop  offset="1" style="stop-color:#25303B;stop-opacity:0"/>
	</radialGradient>
	<path id="path4771"   sodipodi:nodetypes="ccccc" class="st3" d="M55.8,179.3l11.4-42.7l-0.8-86.3
		L45,93.4L55.8,179.3z"/>
	<path id="path4776"   sodipodi:nodetypes="ccccc" class="st4" d="M137.6,41.9h47.2l-1,104.4H134
		L137.6,41.9z"/>
	<path id="path4778"   sodipodi:nodetypes="ccccc" class="st4" d="M103.5,42l-46,0l1.1,104h46.9
		L103.5,42z"/>
	<path id="path4735"   sodipodi:nodetypes="ccccc" class="st5" d="M62.2,136.6l-6.4,42.7h128.8
		l-7.7-42.4L62.2,136.6z"/>
	
		<linearGradient id="path4761_1_" gradientUnits="userSpaceOnUse" x1="204.2901" y1="56.9662" x2="193.8104" y2="181.446" gradientTransform="matrix(1 0 0 -1 -14.8492 231.3934)">
		<stop  offset="0" style="stop-color:#24303A"/>
		<stop  offset="1" style="stop-color:#394958"/>
	</linearGradient>
	<path id="path4761"   sodipodi:nodetypes="ccccc" class="st6" d="M184.6,179.3l-11.2-42.4l0.4-86.8
		l21.6,43.4L184.6,179.3z"/>
	
		<linearGradient id="path4794_1_" gradientUnits="userSpaceOnUse" x1="-131.3382" y1="56.9625" x2="-141.8179" y2="181.4423" gradientTransform="matrix(-1 0 0 -1 -80.2616 231.3934)">
		<stop  offset="0" style="stop-color:#24303A"/>
		<stop  offset="1" style="stop-color:#394958"/>
	</linearGradient>
	<path id="path4794"   sodipodi:nodetypes="ccccc" class="st7" d="M55.9,179.3l11.3-42.7l-0.8-86.3
		L45,93.4L55.9,179.3z"/>
	<path id="path4739"   sodipodi:nodetypes="ccccc" class="st8" d="M98.6,66l4.3,90.7H136l5.3-90.7
		L98.6,66z"/>
	
		<linearGradient id="path4810_1_" gradientUnits="userSpaceOnUse" x1="217.4585" y1="186.8433" x2="42.1237" y2="169.2544" gradientTransform="matrix(1 0 0 -1 -14.8492 231.3934)">
		<stop  offset="0" style="stop-color:#E5E5E5"/>
		<stop  offset="1" style="stop-color:#FFFFFF"/>
	</linearGradient>
	<path id="path4810"   sodipodi:nodetypes="ccccccccccccc" class="st9" d="M238.4,93.4L184.2,6.8
		H55.5L1.6,93.4H45l21.3-42.9h35L98.6,66h42.7l-2.3-16h34.8l21.6,43.4H238.4z"/>
	<path id="path4826"   sodipodi:nodetypes="ccccccc" class="st10" d="M139.1,50.1l35.1,0l21.3,43.4
		l-10.9,85.9l-81.7,0l42.2-85.9L139.1,50.1z"/>
	
		<linearGradient id="path4832_1_" gradientUnits="userSpaceOnUse" x1="95.0568" y1="148.5517" x2="95.0568" y2="62.6603" gradientTransform="matrix(1 0 0 -1 0 242)">
		<stop  offset="0" style="stop-color:#FFFFFF"/>
		<stop  offset="0.5" style="stop-color:#FFFFFF;stop-opacity:0.5317"/>
		<stop  offset="1" style="stop-color:#FFFFFF;stop-opacity:0"/>
	</linearGradient>
	<path id="path4832"   sodipodi:nodetypes="ccccc" class="st11" d="M145.1,93.4l-42.2,85.9l-47.1,0
		L45,93.4H145.1z"/>
	
		<linearGradient id="path4834_1_" gradientUnits="userSpaceOnUse" x1="95.0568" y1="148.5517" x2="95.0568" y2="191.4777" gradientTransform="matrix(1 0 0 -1 0 242)">
		<stop  offset="0" style="stop-color:#FFFFFF"/>
		<stop  offset="1" style="stop-color:#FFFFFF;stop-opacity:0"/>
	</linearGradient>
	<path id="path4834"   sodipodi:nodetypes="ccccccc" class="st12" d="M66.3,50.5h35L98.6,66h42.7
		l3.8,27.4H45L66.3,50.5z"/>
	<g id="g4749" transform="translate(-14.849242,-10.606602)">
		<g id="g4722" transform="matrix(0.89997913,0,0,0.97774567,-1.4952307,573.7235)">
			<g id="ellipse3463" class="st13">
				<ellipse class="st14" cx="190.5" cy="-443.1" rx="6" ry="21.3"/>
			</g>
			<g id="ellipse4390" class="st15">
				<ellipse class="st16" cx="190.5" cy="-442.8" rx="4.7" ry="18.9"/>
				<ellipse class="st17" cx="190.5" cy="-442.8" rx="4.7" ry="18.9"/>
			</g>
			<g id="ellipse4720" class="st15">
				<ellipse class="st18" cx="190.5" cy="-442.8" rx="4.7" ry="17.5"/>
				<ellipse class="st19" cx="190.5" cy="-442.8" rx="4.7" ry="17.5"/>
			</g>
		</g>
		<g id="g4727" transform="matrix(0.89997913,0,0,0.97774567,-102.68784,578.19963)">
			<g id="ellipse4729" class="st13">
				<ellipse class="st14" cx="227.4" cy="-444.6" rx="6" ry="21.3"/>
			</g>
			<g id="ellipse4731" class="st15">
				<ellipse class="st16" cx="227.4" cy="-444.3" rx="4.7" ry="18.9"/>
				<ellipse class="st17" cx="227.4" cy="-444.3" rx="4.7" ry="18.9"/>
			</g>
			<g id="ellipse4733" class="st15">
				<ellipse class="st18" cx="227.4" cy="-444.3" rx="4.7" ry="17.5"/>
				<ellipse class="st19" cx="227.4" cy="-444.3" rx="4.7" ry="17.5"/>
			</g>
		</g>
	</g>
	<path id="path4856"   sodipodi:nodetypes="ccccccccccc" class="st20" d="M66.3,50.5h35L98.6,66
		h42.7l-2.3-16l35.1,0l21.3,43.4l-10.9,85.9l-128.8,0L45,93.4L66.3,50.5z"/>
	<path id="path4858"   class="st21" d="M195.1,93.4H44.9"/>
</g>
</svg>
