<?xml version="1.0" encoding="utf-8"?>
<!-- Generator: Adobe Illustrator 21.0.0, SVG Export Plug-In . SVG Version: 6.00 Build 0)  -->
<svg version="1.1" id="Layer_1" xmlns="http://www.w3.org/2000/svg" xmlns:xlink="http://www.w3.org/1999/xlink" x="0px" y="0px"
	 viewBox="0 0 240 240" style="enable-background:new 0 0 240 240;" xml:space="preserve">
<style type="text/css">
	.st0{fill:#264DE4;}
	.st1{fill:#2965F1;}
	.st2{fill:#EBEBEB;}
	.st3{fill:#FFFFFF;}
</style>
<g id="layer1" transform="translate(-193.633,-276.3622)" inkscape:groupmode="layer" inkscape:label="Calque 1">
	<g id="g3013" transform="translate(119,276.3622)">
		<polygon id="polygon2989" class="st0" points="300.4,0 281.2,216 194.5,240 108.1,216 88.8,0 		"/>
		<polygon id="polygon2991" class="st1" points="264.7,202.2 281.1,17.7 194.6,17.7 194.6,221.6 		"/>
		<polygon id="polygon2993" class="st2" points="133,97.8 135.3,124.3 194.6,124.3 194.6,97.8 		"/>
		<polygon id="polygon2995" class="st2" points="194.6,44.2 194.5,44.2 128.2,44.2 130.6,70.6 194.6,70.6 		"/>
		<polygon id="polygon2997" class="st2" points="194.6,194.1 194.6,166.6 194.5,166.6 165,158.6 163.1,137.5 148.8,137.5 
			136.5,137.5 140.2,179.1 194.5,194.2 		"/>
		<polygon id="polygon3005" class="st3" points="227.2,124.3 224.1,158.6 194.5,166.6 194.5,194.2 248.9,179.1 249.3,174.6 
			255.5,104.9 256.1,97.8 260.9,44.2 194.5,44.2 194.5,70.6 231.9,70.6 229.5,97.8 194.5,97.8 194.5,124.3 		"/>
	</g>
</g>
</svg>
