<?xml version="1.0" encoding="utf-8"?>
<!-- Generator: Adobe Illustrator 21.0.0, SVG Export Plug-In . SVG Version: 6.00 Build 0)  -->
<svg version="1.1" id="Layer_1" xmlns="http://www.w3.org/2000/svg" xmlns:xlink="http://www.w3.org/1999/xlink" x="0px" y="0px"
	 viewBox="0 0 240 240" style="enable-background:new 0 0 240 240;" xml:space="preserve">
<style type="text/css">
	.st0{fill:#264DE4;}
	.st1{fill:#2965F1;}
	.st2{fill:#EBEBEB;}
	.st3{fill:#FFFFFF;}
</style>
<g id="g3013" transform="translate(119,276.3622)">
	<polygon id="polygon2989" class="st0" points="106.8,-276.4 87.5,-60.4 0.9,-36.4 -85.6,-60.4 -104.8,-276.4 	"/>
	<polygon id="polygon2991" class="st1" points="71,-74.1 87.5,-258.7 1,-258.7 1,-54.7 	"/>
	<polygon id="polygon2993" class="st2" points="-60.7,-178.6 -58.3,-152.1 1,-152.1 1,-178.6 	"/>
	<polygon id="polygon2995" class="st2" points="1,-232.2 0.9,-232.2 -65.4,-232.2 -63,-205.7 1,-205.7 	"/>
	<polygon id="polygon2997" class="st2" points="1,-82.2 1,-109.8 0.9,-109.8 -28.6,-117.7 -30.5,-138.8 -44.8,-138.8 -57.1,-138.8 
		-53.4,-97.2 0.9,-82.2 	"/>
	<polygon id="polygon3005" class="st3" points="33.5,-152.1 30.5,-117.7 0.9,-109.8 0.9,-82.2 55.2,-97.2 55.6,-101.7 61.8,-171.5 
		62.5,-178.6 67.3,-232.2 0.9,-232.2 0.9,-205.7 38.2,-205.7 35.8,-178.6 0.9,-178.6 0.9,-152.1 	"/>
</g>
</svg>
