<?xml version="1.0" encoding="utf-8"?>
<!-- Generator: Adobe Illustrator 21.0.0, SVG Export Plug-In . SVG Version: 6.00 Build 0)  -->
<svg version="1.1" id="Layer_1" xmlns="http://www.w3.org/2000/svg" xmlns:xlink="http://www.w3.org/1999/xlink" x="0px" y="0px"
	 viewBox="0 0 240 240" style="enable-background:new 0 0 240 240;" xml:space="preserve">
<style type="text/css">
	.st0{fill:#E44D26;}
	.st1{fill:#F16529;}
	.st2{fill:#EBEBEB;}
	.st3{fill:#FFFFFF;}
</style>
<g>
	<polygon class="st0" points="33.4,216 14.2,0 225.8,0 206.5,216 119.9,240 	"/>
	<polygon class="st1" points="120,221.6 190,202.2 206.5,17.7 120,17.7 	"/>
	<polygon class="st2" points="120,97.8 84.9,97.8 82.5,70.6 120,70.6 120,44.2 119.9,44.2 53.6,44.2 54.2,51.3 60.7,124.3 
		120,124.3 	"/>
	<polygon class="st2" points="120,166.6 119.9,166.6 90.4,158.6 88.5,137.5 74.2,137.5 61.9,137.5 65.6,179.1 119.9,194.2 
		120,194.1 	"/>
	<polygon class="st3" points="119.9,97.8 119.9,124.3 152.5,124.3 149.5,158.6 119.9,166.6 119.9,194.2 174.2,179.1 174.6,174.6 
		180.8,104.9 181.5,97.8 174.4,97.8 	"/>
	<polygon class="st3" points="119.9,44.2 119.9,60.6 119.9,70.6 119.9,70.6 183.8,70.6 183.8,70.6 183.9,70.6 184.4,64.7 
		185.6,51.3 186.3,44.2 	"/>
</g>
</svg>
