<?xml version="1.0" encoding="utf-8"?>
<!-- Generator: Adobe Illustrator 21.0.0, SVG Export Plug-In . SVG Version: 6.00 Build 0)  -->
<svg version="1.1" id="Layer_1" xmlns="http://www.w3.org/2000/svg" xmlns:xlink="http://www.w3.org/1999/xlink" x="0px" y="0px"
	 viewBox="0 0 240 240" style="enable-background:new 0 0 240 240;" xml:space="preserve">
<style type="text/css">
	.st0{fill:#F9AE41;}
	.st1{fill:#EE4035;}
	.st2{fill:#4F91CD;}
	.st3{fill:#7AC043;}
</style>
<g>
	<path class="st0" d="M237,34.1c0-17.1-13.8-30.9-30.9-30.9c-15.6,0-28.5,11.5-30.6,26.5l-0.3-0.2c-25.3-11.4-46.6,8.8-46.6,8.8
		L72.3,95l22.3,21.4l45.3-44.6C161,50.7,172.6,65,172.6,65c15.9,13.5,0.5,29.4,0.5,29.4l22.8,22c18.6-20.1,19.7-37.7,14-51.6
		C225.2,62.9,237,49.9,237,34.1"/>
	<path class="st1" d="M210.3,176.3c0.1-0.2,0.2-0.3,0.2-0.3c11.4-25.3-8.8-46.6-8.8-46.6L145,73.1l-21.4,22.3l44.6,45.3
		c21.2,21.2,6.8,32.7,6.8,32.7c-13.5,15.9-29.4,0.5-29.4,0.5l-22,22.8c20.1,18.6,37.7,19.7,51.6,14c1.9,15.2,14.9,27,30.7,27
		c17.1,0,30.9-13.8,30.9-30.9C236.8,191.3,225.3,178.4,210.3,176.3"/>
	<path class="st2" d="M145.5,123.6l-45.3,44.5C79,189.3,67.4,175,67.4,175c-15.9-13.5-0.5-29.4-0.5-29.4l-22.8-22
		c-18.6,20.1-19.7,37.7-14,51.6c-15.2,1.9-27,14.9-27,30.7c0,17.1,13.8,30.9,30.9,30.9c15.6,0,28.5-11.5,30.6-26.5
		c0.2,0.1,0.3,0.2,0.3,0.2c25.3,11.4,46.6-8.8,46.6-8.8l56.3-56.6L145.5,123.6"/>
	<path class="st3" d="M71.9,99.3C50.7,78.1,65,66.6,65,66.6c13.5-15.9,29.4-0.5,29.4-0.5l22-22.8c-20.1-18.6-37.7-19.7-51.6-14
		c-1.9-15.2-14.9-27-30.7-27C17,2.2,3.2,16,3.2,33.1c0,15.6,11.5,28.5,26.5,30.6c-0.1,0.2-0.2,0.3-0.2,0.3
		c-11.4,25.3,8.8,46.6,8.8,46.6L95,166.9l21.4-22.3L71.9,99.3"/>
</g>
</svg>
