<?xml version="1.0" encoding="utf-8"?>
<!-- Generator: Adobe Illustrator 21.0.0, SVG Export Plug-In . SVG Version: 6.00 Build 0)  -->
<svg version="1.1" id="Layer_1" xmlns="http://www.w3.org/2000/svg" xmlns:xlink="http://www.w3.org/1999/xlink" x="0px" y="0px"
	 viewBox="0 0 240 240" style="enable-background:new 0 0 240 240;" xml:space="preserve">
<style type="text/css">
	.st0{fill:#999999;}
	.st1{fill:#666666;}
	.st2{fill:#333333;}
</style>
<g>
	<path class="st0" d="M217.2,35.9c-0.7-18.3-16.8-22.1-16.8-22.1s-55.7-8.4-80-11.4c-24.4-3-22.9,20.5-22.9,20.5
		s5.5,172.3,6.1,193.6c0.7,25.4,24.3,21.4,24.3,21.4l83.9-14.5c15.2-3,16-22.1,16-22.1S218.1,55.7,217.2,35.9z M198.5,182.1
		l-62.3,6.4c0,0-18.1,2.7-18.6-19.3c-0.3-16.2-3.9-109.3-3.9-109.3s-1.2-17.1,17.4-15.7c19,1.4,64.8,4.9,64.8,4.9S208.1,52,208.7,66
		c0.6,15.2,5.8,99.3,5.8,99.3S215.9,179.2,198.5,182.1z"/>
	<path class="st1" d="M159.8,182.8l-24,2.5c0,0-0.1,0-0.2-0.1c0,0-0.5,0.1-1.4,0.1c-5.6,0-12.3-2.5-13.3-14l14-1.4
		c15-2.4,13.8-13.8,13.8-13.8s-3-67.3-3.5-79.8c-0.5-11.4-11-13.8-11-13.8s-7.4-0.7-17.1-1.5c-0.1-0.8-0.1-1.4-0.1-1.4v-0.1
		c0-0.1-0.4-5.5,3-9c2-2.1,5-3.2,9-3.2c0.6,0,1.3,0,1.9,0.1c5.8,0.5,14.2,1.1,23,1.7v0.2C154.5,63.2,158.7,158.3,159.8,182.8z"/>
	<path class="st2" d="M94,167.9c0,0-0.1,1.2-0.6,2.9l-14,1.4h-0.2c0,0-0.5,0.1-1.1,0.1c-4.9,0-10.8-2.2-11.1-12.7c0-1-0.1-2.4-0.1-4
		l8.4-0.6c11.1-1.7,10.2-9.7,10.2-9.7s0.1-49.1-0.3-57.8c-0.4-8-8.2-9.7-8.2-9.7s-5-0.3-11.8-0.7c-0.1-3.8-0.2-6.1-0.2-6.3v-0.2
		c0,0-0.2-4.1,2.3-6.7c1.7-1.7,4.2-2.7,7.7-2.7l1.6,0.1c3.5,0.3,8.1,0.7,13.3,1.1c1,1.6,1.7,3.6,1.8,6.1
		C92.1,79.5,94,167.9,94,167.9z"/>
	<path class="st1" d="M100.3,210.5l-26.4,3.3c0,0-20.6,3.3-21.2-17c-0.5-17-3-155.4-3-155.4s-1.3-18.8,19.9-16.4
		c6.5,0.8,15.5,1.7,24.9,2.6c0.2,6,0.5,17.4,1,31.8c-7.1-0.5-13.9-1.1-18.6-1.4c-16.1-1.1-15,12.8-15,12.8s1.6,75.4,1.8,88.8
		c0.3,18,16,15.8,16,15.8l19.4-1.8C99.6,189.3,100,202.5,100.3,210.5z"/>
	<path class="st2" d="M49.1,182.9l-19,2c0,0-15.3,2.4-15.8-11.9C14,161.1,12.1,63.5,12.1,63.5s-1-13.3,14.8-11.5
		c4.9,0.5,12.2,1.1,19.7,1.7c0.1,5.9,0.2,13.6,0.4,22.4c-5.8-0.4-11.1-0.7-14.7-0.9c-12-0.8-11.1,9-11.1,9s1.2,53.2,1.4,62.6
		c0.3,12.7,11.9,11.1,11.9,11.1l14.1-1.1C48.7,166.9,48.8,175.8,49.1,182.9z"/>
</g>
</svg>
