<?xml version="1.0" encoding="utf-8"?>
<!-- Generator: Adobe Illustrator 21.0.0, SVG Export Plug-In . SVG Version: 6.00 Build 0)  -->
<svg version="1.1" id="Layer_1" xmlns="http://www.w3.org/2000/svg" xmlns:xlink="http://www.w3.org/1999/xlink" x="0px" y="0px"
	 viewBox="0 0 240 240" style="enable-background:new 0 0 240 240;" xml:space="preserve">
<style type="text/css">
	.st0{fill:#464342;}
</style>
<g transform="matrix(1.0755 0 0 1.0755 -3.5103 -1.6684)">
	<path class="st0" d="M114.8,3.3C54.2,3.3,5,52.5,5,113.1S54.2,223,114.8,223s109.9-49.2,109.9-109.9S175.5,3.3,114.8,3.3z
		 M114.8,216.5c-57.1,0-103.3-46.3-103.3-103.3S57.8,9.8,114.8,9.8s103.3,46.3,103.3,103.3S171.9,216.5,114.8,216.5z"/>
	<path class="st0" d="M209.3,113.1c0,35.7-19.9,66.8-49.1,82.9l29.5-83.4c4.6-12.9,8.8-30.4,8.3-44.4
		C205.2,81.5,209.3,96.8,209.3,113.1z"/>
	<path class="st0" d="M146.5,202.2c-9.9,3.5-20.5,5.4-31.6,5.4c-9.6,0-18.8-1.4-27.5-4.1l29.1-83.4L146.5,202.2z"/>
	<path class="st0" d="M74.4,198.5L74.4,198.5c-32-15.1-54.1-47.7-54.1-85.4c0-14,3-27.2,8.5-39.2L74.4,198.5z"/>
	<path class="st0" d="M174.1,132.6l-12.4,37.7l-33.8-99.5c-0.5-1.5,0.1-2.4,2-2.4h9.5c0.5,0,0.9-0.4,0.9-0.9v-5.7
		c0-0.5-0.4-1-0.9-0.9c-18.1,0.8-36.1,0.8-53.9,0c-0.5,0-0.9,0.4-0.9,0.9v5.7c0,0.5,0.4,0.9,0.9,0.9h9.6c2.1,0,2.7,0.7,3.2,2.1
		l13.9,37.9l-20.9,63L57,70.5c-0.4-1.3,0.1-2,1.3-2h10.9c0.5,0,0.9-0.4,0.9-0.9v-5.7c0-0.5-0.4-1-0.9-0.9c-11.5,0.6-23,0.7-33.7,0.8
		c16.8-25.9,46.1-43.1,79.3-43.1c24.6,0,47.1,9.4,63.9,24.9c-8.2-0.2-16.5,4.7-16.8,15.9C161.2,82.1,189.1,87,174.1,132.6z"/>
</g>
</svg>
